<?xml version="1.0" standalone="no"?>
<!DOCTYPE svg PUBLIC "-//W3C//DTD SVG 1.1//EN" "http://www.w3.org/Graphics/SVG/1.1/DTD/svg11.dtd" >
<svg>
<metadata>
Created by FontForge 20090622 at Tue Dec  4 14:57:09 2018
 By deploy user
&#194;&#169; 2016 by SKODA AUTO A.S. All rights reserved.
</metadata>
<defs>
<font id="SKODANext-Bold" horiz-adv-x="594" >
  <font-face 
    font-family="SKODA Next"
    font-weight="700"
    font-stretch="normal"
    units-per-em="1000"
    panose-1="2 11 8 4 2 6 3 2 2 4"
    ascent="756"
    descent="-244"
    x-height="496"
    cap-height="704"
    bbox="-557 -248 4432 952"
    underline-thickness="50"
    underline-position="-75"
    unicode-range="U+000D-U+FEFF"
  />
<missing-glyph horiz-adv-x="511" 
d="M0 0v704h511v-704h-511zM128 125h255v454h-255v-454z" />
    <glyph glyph-name="uniFB00" unicode="ff" horiz-adv-x="699" 
d="M696 496v-117h-157v-379h-151v379h-165v-379h-151v379h-71v117h71v17q0 91 48.5 147t155.5 56q40 0 85 -12l-14 -120q-27 9 -56 9q-31 0 -49.5 -19.5t-18.5 -54.5v-23h165v17q0 91 48.5 147t155.5 56q40 0 85 -12l-14 -120q-27 9 -56 9q-31 0 -49.5 -19.5t-18.5 -54.5
v-23h157z" />
    <glyph glyph-name="fi" unicode="fi" horiz-adv-x="585" 
d="M291 593q-31 0 -49.5 -19.5t-18.5 -54.5v-23h131v-117h-131v-379h-151v379h-71v117h71v17q0 91 47.5 147t150.5 56q44 0 85 -11l-14 -120q-24 8 -50 8zM536 704v-128h-146v128h146zM388 496h150v-496h-150v496z" />
    <glyph glyph-name="fl" unicode="fl" horiz-adv-x="585" 
d="M291 593q-31 0 -49.5 -19.5t-18.5 -54.5v-23h131v-117h-131v-379h-151v379h-71v117h71v17q0 91 47.5 147t150.5 56q44 0 85 -11l-14 -120q-24 8 -50 8zM388 704h150v-704h-150v704z" />
    <glyph glyph-name="uniFB03" unicode="ffi" horiz-adv-x="901" 
d="M607 593q-31 0 -49.5 -19.5t-18.5 -54.5v-23h131v-117h-131v-379h-151v379h-165v-379h-151v379h-71v117h71v17q0 91 48.5 147t155.5 56q40 0 85 -12l-14 -120q-27 9 -56 9q-31 0 -49.5 -19.5t-18.5 -54.5v-23h165v17q0 91 47.5 147t150.5 56q44 0 85 -11l-14 -120
q-24 8 -50 8zM851 704v-128h-146v128h146zM703 496h150v-496h-150v496z" />
    <glyph glyph-name="uniFB04" unicode="ffl" horiz-adv-x="901" 
d="M607 593q-31 0 -49.5 -19.5t-18.5 -54.5v-23h131v-117h-131v-379h-151v379h-165v-379h-151v379h-71v117h71v17q0 91 48.5 147t155.5 56q40 0 85 -12l-14 -120q-27 9 -56 9q-31 0 -49.5 -19.5t-18.5 -54.5v-23h165v17q0 91 47.5 147t150.5 56q44 0 85 -11l-14 -120
q-24 8 -50 8zM703 704h150v-704h-150v704z" />
    <glyph glyph-name=".notdef" horiz-adv-x="511" 
d="M0 0v704h511v-704h-511zM128 125h255v454h-255v-454z" />
    <glyph glyph-name=".null" horiz-adv-x="0" 
 />
    <glyph glyph-name="nonmarkingreturn" horiz-adv-x="333" 
 />
    <glyph glyph-name="NULL" horiz-adv-x="0" 
 />
    <glyph glyph-name="NULL" horiz-adv-x="0" 
 />
    <glyph glyph-name="CR" unicode="&#xd;" horiz-adv-x="254" 
 />
    <glyph glyph-name="space" unicode=" " horiz-adv-x="254" 
 />
    <glyph glyph-name="exclam" unicode="!" horiz-adv-x="226" 
d="M60 222l-22 374v108h150v-108l-22 -374h-106zM40 0v147h146v-147h-146z" />
    <glyph glyph-name="quotedbl" unicode="&#x22;" horiz-adv-x="428" 
d="M53 380l-11 241v83h144v-83l-11 -241h-122zM253 380l-11 241v83h144v-83l-11 -241h-122z" />
    <glyph glyph-name="numbersign" unicode="#" horiz-adv-x="600" 
d="M576 409h-108l-10 -114h118v-98h-125l-16 -197h-102l16 197h-118l-16 -197h-103l16 197h-101v98h108l10 114h-118v98h125l16 197h103l-16 -197h118l16 197h102l-16 -197h101v-98zM356 295l10 114h-118l-10 -114h118z" />
    <glyph glyph-name="dollar" unicode="$" horiz-adv-x="623" 
d="M600 206q0 -97 -64.5 -153.5t-191.5 -63.5v-109h-72v109q-223 15 -247 205l155 17q11 -71 92 -83v160l-18 3q-219 42 -219 211q0 93 59 149.5t178 63.5v109h72v-109q209 -16 230 -198l-144 -17q-15 63 -86 75v-152l43 -9q103 -20 158 -67t55 -141zM196 509q0 -46 76 -69
v136q-76 -8 -76 -67zM344 127q50 4 71.5 22t21.5 50q0 30 -22 46.5t-71 28.5v-147z" />
    <glyph glyph-name="percent" unicode="%" horiz-adv-x="808" 
d="M190 324q-81 0 -127.5 51.5t-46.5 144.5q1 93 48 144.5t126 51.5q82 0 128 -51t46 -145q0 -93 -46.5 -144.5t-127.5 -51.5zM126 0l454 704h99l-453 -704h-100zM190 416q33 0 49.5 28t16.5 76q0 52 -15 78t-51 26q-66 0 -66 -104q0 -48 16.5 -76t49.5 -28zM618 -15
q-82 0 -128 51.5t-46 144.5t47 144.5t127 51.5q82 0 128 -51t46 -145q0 -93 -46.5 -144.5t-127.5 -51.5zM618 77q32 0 49 28t17 76q0 105 -66 105t-66 -105q0 -48 16.5 -76t49.5 -28z" />
    <glyph glyph-name="ampersand" unicode="&#x26;" horiz-adv-x="680" 
d="M693 0h-184l-48 48q-81 -60 -195 -60q-107 0 -174 54t-67 142q0 52 30.5 101.5t89.5 86.5q-39 43 -55.5 78.5t-16.5 80.5q0 78 58 131.5t152 53.5q92 0 149.5 -48t57.5 -127q0 -52 -29.5 -99t-101.5 -98l97 -100q19 49 24 112h130q-4 -114 -60 -209zM284 600
q-31 0 -48.5 -19t-17.5 -48q0 -23 12 -44.5t49 -61.5q42 35 57 57.5t15 48.5q0 30 -17.5 48.5t-49.5 18.5zM278 107q56 0 97 29l-148 151q-59 -35 -59 -92q0 -38 29.5 -63t80.5 -25z" />
    <glyph glyph-name="quotesingle" unicode="'" horiz-adv-x="228" 
d="M53 380l-11 241v83h144v-83l-11 -241h-122z" />
    <glyph glyph-name="parenleft" unicode="(" horiz-adv-x="318" 
d="M57 294q0 131 30 253.5t85 209.5l136 -16q-50 -92 -77.5 -211t-27.5 -236t27.5 -236t77.5 -211l-136 -16q-55 87 -85 209.5t-30 253.5z" />
    <glyph glyph-name="parenright" unicode=")" horiz-adv-x="318" 
d="M261 294q0 -131 -30 -253.5t-85 -209.5l-136 16q50 92 77.5 211t27.5 236t-27.5 236t-77.5 211l136 16q55 -87 85 -209.5t30 -253.5z" />
    <glyph glyph-name="asterisk" unicode="*" horiz-adv-x="423" 
d="M266 490l75 -71l29 -41l-85 -58l-27 39l-46 94l-45 -94l-26 -39l-85 58l29 41l73 71l-102 10l-47 16l33 96l46 -13l89 -46l-19 101v50h103v-50l-16 -102l90 47l46 13l33 -96l-48 -16z" />
    <glyph glyph-name="plus" unicode="+" 
d="M537 415v-120h-173v-173h-130v173h-177v120h177v171h130v-171h173z" />
    <glyph glyph-name="comma" unicode="," horiz-adv-x="226" 
d="M36 156h156v-146q-2 -103 -58 -164h-88q46 81 46 150v4h-56v156z" />
    <glyph glyph-name="hyphen" unicode="-" horiz-adv-x="385" 
d="M40 227v126h305v-126h-305z" />
    <glyph glyph-name="period" unicode="." horiz-adv-x="229" 
d="M37 0v155h155v-155h-155z" />
    <glyph glyph-name="slash" unicode="/" horiz-adv-x="425" 
d="M-40 -104l352 808h149l-352 -808h-149z" />
    <glyph glyph-name="zero" unicode="0" horiz-adv-x="654" 
d="M327 -12q-138 0 -218.5 96t-80.5 268t80.5 268t218.5 96q139 0 219.5 -96t80.5 -268t-80.5 -268t-219.5 -96zM327 129q141 0 141 223t-141 223q-66 0 -103.5 -56t-37.5 -167q0 -110 37.5 -166.5t103.5 -56.5z" />
    <glyph glyph-name="one" unicode="1" horiz-adv-x="426" 
d="M265 704h100v-704h-152v526l-178 -92l-13 137z" />
    <glyph glyph-name="two" unicode="2" horiz-adv-x="580" 
d="M275 137h269v-137h-504v78l199 205q67 69 98 114.5t31 83.5q0 43 -23.5 70t-73.5 27q-83 0 -100 -98l-149 16q17 111 84 165.5t172 54.5q124 0 187.5 -65.5t63.5 -160.5q0 -69 -44.5 -131t-152.5 -167z" />
    <glyph glyph-name="three" unicode="3" horiz-adv-x="589" 
d="M457 367q53 -24 80 -67.5t27 -95.5q0 -95 -74 -155.5t-195 -60.5q-107 0 -181.5 51.5t-85.5 140.5l144 15q10 -37 43 -55t77 -18q54 0 84 24t30 62q0 41 -34 62.5t-96 21.5h-57v120h61q52 0 81 23t29 61q0 39 -27 62.5t-79 23.5q-94 0 -113 -80l-141 15q13 90 78.5 144.5
t183.5 54.5q115 0 183 -59.5t68 -140.5q0 -101 -86 -149z" />
    <glyph glyph-name="four" unicode="4" horiz-adv-x="593" 
d="M584 294v-130h-81v-164h-148v164h-346v92l312 448h182v-410h81zM191 294h164v246z" />
    <glyph glyph-name="five" unicode="5" horiz-adv-x="588" 
d="M302 470q119 0 186 -71.5t67 -167.5q0 -101 -74 -172t-187 -71q-104 0 -174.5 51t-93.5 146l147 20q35 -80 113 -80q48 0 79.5 30t31.5 75q0 44 -31 75t-83 31q-64 0 -103 -55l-134 20l53 403h408v-137h-288l-16 -121q48 24 99 24z" />
    <glyph glyph-name="six" unicode="6" horiz-adv-x="604" 
d="M335 468q114 0 180.5 -66t66.5 -170q0 -100 -71.5 -172t-191.5 -72q-134 0 -212.5 89t-78.5 267q0 177 75 274.5t215 97.5q92 0 159 -42.5t96 -132.5l-144 -17q-34 57 -109 57q-129 0 -139 -180q54 67 154 67zM317 123q48 0 80 32t32 79t-32 77t-81 30q-39 0 -76.5 -17
t-58.5 -48q7 -76 43 -114.5t93 -38.5z" />
    <glyph glyph-name="seven" unicode="7" horiz-adv-x="560" 
d="M35 704h495v-99l-281 -605h-162l267 567h-319v137z" />
    <glyph glyph-name="eight" unicode="8" horiz-adv-x="590" 
d="M467 360q98 -52 98 -164q0 -90 -74.5 -149t-195.5 -59q-122 0 -196 59t-74 149q0 112 97 164q-81 51 -81 150q0 89 69.5 147.5t184.5 58.5q114 0 184 -57.5t70 -146.5q0 -102 -82 -152zM295 585q-47 0 -71.5 -25t-24.5 -63q0 -37 24.5 -62t71.5 -25t71.5 25t24.5 62
q0 38 -25 63t-71 25zM295 119q51 0 78.5 24t27.5 65t-26.5 64.5t-79.5 23.5q-52 0 -79 -23.5t-27 -64.5q0 -40 27.5 -64.5t78.5 -24.5z" />
    <glyph glyph-name="nine" unicode="9" horiz-adv-x="604" 
d="M285 716q134 0 212.5 -89t78.5 -267q0 -177 -75 -274.5t-215 -97.5q-92 0 -159 42.5t-96 132.5l144 17q34 -57 109 -57q129 0 139 180q-54 -67 -154 -67q-114 0 -180.5 66t-66.5 170q0 100 71.5 172t191.5 72zM288 363q39 0 76.5 17t58.5 48q-7 76 -43 114.5t-93 38.5
q-48 0 -80 -32t-32 -79t32 -77t81 -30z" />
    <glyph glyph-name="colon" unicode=":" horiz-adv-x="223" 
d="M37 320v149h149v-149h-149zM37 0v149h149v-149h-149z" />
    <glyph glyph-name="uni003B" unicode=";" horiz-adv-x="226" 
d="M39 469h150v-149h-150v149zM39 0v149h150v-139q0 -100 -57 -164h-90q47 77 47 150v4h-50z" />
    <glyph glyph-name="less" unicode="&#x3c;" 
d="M522 604v-136l-269 -112l269 -121v-136l-456 212v91z" />
    <glyph glyph-name="equal" unicode="=" 
d="M61 395v120h473v-120h-473zM61 195v120h473v-120h-473z" />
    <glyph glyph-name="greater" unicode="&#x3e;" 
d="M72 610l456 -212v-91l-456 -202v136l269 112l-269 121v136z" />
    <glyph glyph-name="question" unicode="?" horiz-adv-x="517" 
d="M259 716q116 0 177.5 -59t61.5 -144q0 -167 -193 -228l-1 -63h-123v143q85 26 123.5 57t38.5 81q0 34 -24 59t-68 25q-43 0 -72 -25t-39 -72l-134 19q17 103 83 155t170 52zM170 0v147h147v-147h-147z" />
    <glyph glyph-name="at" unicode="@" horiz-adv-x="920" 
d="M583 495h81v-269q0 -49 44 -49q34 0 56 35.5t22 108.5q0 128 -93 213.5t-229 85.5q-140 0 -235 -91.5t-95 -228.5q0 -141 91.5 -238t235.5 -97q119 0 204 69l124 -13q-123 -147 -328 -147q-177 0 -300.5 123t-123.5 300q0 176 125 297.5t302 121.5q115 0 212 -55
t152 -146t55 -195q0 -99 -54.5 -167.5t-160.5 -68.5q-79 0 -112 56q-40 -48 -112 -48q-86 0 -147 60.5t-61 144.5t60.5 145.5t144.5 61.5q68 0 107 -41zM457 204q52 0 82 48v93q-26 46 -82 46q-40 0 -66 -27.5t-26 -66.5q0 -40 25.5 -66.5t66.5 -26.5z" />
    <glyph glyph-name="A" unicode="A" horiz-adv-x="720" 
d="M565 0l-50 120h-316l-51 -120h-155l309 704h119l306 -704h-162zM251 245h211l-105 250z" />
    <glyph glyph-name="B" unicode="B" horiz-adv-x="652" 
d="M523 381q50 -25 77.5 -68.5t27.5 -96.5q0 -99 -66.5 -157.5t-172.5 -58.5h-327v704h314q90 0 154.5 -52.5t64.5 -142.5q0 -75 -72 -128zM358 573h-145v-159h145q39 0 61.5 22t22.5 58q0 33 -23.5 56t-60.5 23zM383 131q38 0 62.5 22t24.5 58q0 33 -26 56.5t-62 23.5h-169
v-160h170z" />
    <glyph glyph-name="C" unicode="C" horiz-adv-x="726" 
d="M366 -12q-154 0 -249.5 104.5t-95.5 259.5q0 156 97 260t251 104q133 0 220 -70t115 -178l-152 -17q-22 54 -68.5 89t-111.5 35q-90 0 -141.5 -63t-51.5 -160q0 -98 51.5 -160.5t141.5 -62.5q132 0 181 125l150 -16q-27 -108 -114 -179t-223 -71z" />
    <glyph glyph-name="D" unicode="D" horiz-adv-x="717" 
d="M322 704q157 0 265.5 -101.5t108.5 -250.5t-108.5 -250.5t-265.5 -101.5h-260v704h260zM316 137q97 0 159.5 59.5t62.5 155.5q0 97 -62.5 156t-159.5 59h-103v-430h103z" />
    <glyph glyph-name="E" unicode="E" horiz-adv-x="585" 
d="M213 137h341v-137h-492v704h484v-137h-333v-149h292v-128h-292v-153z" />
    <glyph glyph-name="F" unicode="F" horiz-adv-x="576" 
d="M561 567h-348v-164h312v-131h-312v-272h-151v704h499v-137z" />
    <glyph glyph-name="G" unicode="G" horiz-adv-x="766" 
d="M717 395v-395h-102l-36 62q-74 -74 -201 -74q-151 0 -254 103t-103 261q0 153 103.5 258.5t263.5 105.5q118 0 203 -54.5t122 -151.5l-153 -18q-58 83 -173 83q-91 0 -149.5 -61.5t-58.5 -157.5q0 -105 61 -168t152 -63q120 0 178 71v71h-204v128h351z" />
    <glyph glyph-name="H" unicode="H" horiz-adv-x="732" 
d="M519 704h151v-704h-151v287h-306v-287h-151v704h151v-279h306v279z" />
    <glyph glyph-name="I" unicode="I" horiz-adv-x="275" 
d="M62 0v704h151v-704h-151z" />
    <glyph glyph-name="J" unicode="J" horiz-adv-x="550" 
d="M254 -12q-98 0 -161 47.5t-81 140.5l143 16q20 -69 99 -69q47 0 71.5 25.5t24.5 69.5v486h152v-483q0 -108 -69.5 -170.5t-178.5 -62.5z" />
    <glyph glyph-name="K" unicode="K" horiz-adv-x="689" 
d="M700 0h-184l-192 282l-111 -129v-153h-151v704h151v-356l297 356h175l-264 -308z" />
    <glyph glyph-name="L" unicode="L" horiz-adv-x="530" 
d="M213 137h307v-137h-458v704h151v-567z" />
    <glyph glyph-name="M" unicode="M" horiz-adv-x="870" 
d="M808 704v-704h-142v367l-183 -367h-99l-180 360v-360h-142v704h124l254 -505l241 505h127z" />
    <glyph glyph-name="N" unicode="N" horiz-adv-x="721" 
d="M509 704h150v-704h-91l-356 411v-411h-150v704h86l361 -417v417z" />
    <glyph glyph-name="O" unicode="O" horiz-adv-x="798" 
d="M399 -12q-156 0 -267 105.5t-111 258.5t111 258.5t267 105.5q157 0 267.5 -105t110.5 -259q0 -152 -110.5 -258t-267.5 -106zM399 129q91 0 155.5 64t64.5 159q0 96 -64.5 159.5t-155.5 63.5q-92 0 -156 -64t-64 -159q0 -96 64 -159.5t156 -63.5z" />
    <glyph glyph-name="P" unicode="P" horiz-adv-x="620" 
d="M356 704q105 0 173 -66.5t68 -165.5q0 -97 -67 -163.5t-174 -66.5h-143v-242h-151v704h294zM336 370q45 0 74 29t29 73q0 43 -29.5 70.5t-73.5 27.5h-123v-200h123z" />
    <glyph glyph-name="Q" unicode="Q" horiz-adv-x="790" 
d="M794 0h-172l-36 44q-93 -56 -191 -56q-156 0 -265 106t-109 258q0 154 109 259t265 105q157 0 265.5 -105t108.5 -259q0 -123 -84 -223zM179 352q0 -95 63 -159t153 -64q54 0 98 23l-124 150h170l46 -58q26 47 26 108q0 97 -62 160t-154 63q-90 0 -153 -63.5t-63 -159.5z
" />
    <glyph glyph-name="R" unicode="R" horiz-adv-x="656" 
d="M476 0l-165 245h-98v-245h-151v704h296q108 0 176 -65t68 -164q0 -69 -36.5 -122t-100.5 -79l191 -274h-180zM213 570v-194h126q46 0 75.5 27.5t29.5 71.5q0 43 -29.5 69t-75.5 26h-126z" />
    <glyph glyph-name="S" unicode="S" horiz-adv-x="629" 
d="M314 -12q-261 0 -290 206l154 17q7 -45 40 -65t97 -20q69 0 98 18t29 55q0 31 -28 49t-87 30l-68 13q-106 21 -165.5 70t-59.5 141q0 98 71 156t207 58q249 0 274 -198l-149 -18q-15 78 -123 78q-66 0 -92.5 -16.5t-26.5 -52.5q0 -31 30 -49t101 -32l65 -14
q103 -21 159 -68.5t56 -139.5q0 -104 -73.5 -161t-218.5 -57z" />
    <glyph glyph-name="T" unicode="T" horiz-adv-x="622" 
d="M613 704v-137h-225v-567h-151v567h-228v137h604z" />
    <glyph glyph-name="U" unicode="U" horiz-adv-x="712" 
d="M357 -12q-137 0 -223 79t-86 209v428h152v-431q0 -68 43.5 -107.5t113.5 -39.5t112.5 39.5t42.5 107.5v431h151v-428q0 -130 -84 -209t-222 -79z" />
    <glyph glyph-name="V" unicode="V" horiz-adv-x="680" 
d="M537 704h161l-300 -704h-107l-303 704h167l195 -469z" />
    <glyph glyph-name="W" unicode="W" horiz-adv-x="1069" 
d="M916 704h161l-267 -704h-110l-164 430l-168 -430h-107l-269 704h165l159 -448l169 448h97l171 -442z" />
    <glyph glyph-name="X" unicode="X" horiz-adv-x="683" 
d="M689 0h-175l-174 242l-171 -242h-175l259 364l-243 340h173l157 -218l154 218h179l-246 -340z" />
    <glyph glyph-name="Y" unicode="Y" horiz-adv-x="658" 
d="M502 704h171l-268 -439v-265h-151v265l-269 439h172l177 -285z" />
    <glyph glyph-name="Z" unicode="Z" horiz-adv-x="641" 
d="M251 137h365v-137h-591v77l368 490h-368v137h582v-97z" />
    <glyph glyph-name="bracketleft" unicode="[" horiz-adv-x="414" 
d="M353 639h-155v-666h155v-125h-291v916h291v-125z" />
    <glyph glyph-name="backslash" unicode="\" horiz-adv-x="428" 
d="M468 -104h-149l-352 808h149z" />
    <glyph glyph-name="bracketright" unicode="]" horiz-adv-x="414" 
d="M352 764v-916h-291v125h155v666h-155v125h291z" />
    <glyph glyph-name="asciicircum" unicode="^" 
d="M562 336h-155l-112 198l-107 -198h-156l211 368h109z" />
    <glyph glyph-name="underscore" unicode="_" horiz-adv-x="485" 
d="M20 -139v127h445v-127h-445z" />
    <glyph glyph-name="grave" unicode="`" horiz-adv-x="600" 
d="M252 560l-121 144h153l77 -137v-7h-109z" />
    <glyph glyph-name="a" unicode="a" horiz-adv-x="525" 
d="M258 508q115 0 169.5 -51t54.5 -132v-325h-104l-27 47q-61 -59 -149 -59q-84 0 -132 39t-48 106q0 136 223 169l87 13v3q0 69 -79 69q-59 0 -78 -50l-136 17q14 68 73 111t146 43zM170 147q0 -21 17.5 -33.5t43.5 -12.5q54 0 101 42v78l-54 -9q-59 -9 -83.5 -24
t-24.5 -41z" />
    <glyph glyph-name="b" unicode="b" horiz-adv-x="588" 
d="M317 508q108 0 179.5 -74.5t71.5 -185.5q0 -110 -73 -185t-183 -75q-81 0 -137 51l-22 -39h-106v704h150v-240q46 44 120 44zM291 119q54 0 88.5 36t34.5 93q0 56 -35 92.5t-89 36.5q-57 0 -93 -41v-176q33 -41 94 -41z" />
    <glyph glyph-name="c" unicode="c" horiz-adv-x="541" 
d="M280 -12q-114 0 -187 72.5t-73 187.5q0 114 73 187t186 73q98 0 164 -49t89 -138l-148 -15q-32 65 -102 65q-50 0 -80.5 -33t-30.5 -90q0 -58 31 -90.5t81 -32.5q67 0 100 64l149 -17q-26 -86 -91.5 -135t-160.5 -49z" />
    <glyph glyph-name="d" unicode="d" horiz-adv-x="588" 
d="M390 704h150v-704h-105l-29 49q-46 -61 -135 -61q-108 0 -179.5 74.5t-71.5 185.5q0 110 73 185t184 75q60 0 113 -32v228zM298 119q59 0 92 41v179q-35 38 -92 38q-54 0 -89 -36t-35 -93q0 -56 35 -92.5t89 -36.5z" />
    <glyph glyph-name="e" unicode="e" horiz-adv-x="554" 
d="M167 210q7 -49 38 -76t78 -27q67 0 103 50l137 -16q-24 -68 -89 -110.5t-154 -42.5q-110 0 -185 71t-75 189q0 110 72 185t187 75q108 0 180 -69t72 -180v-49h-364zM276 389q-39 0 -68 -23t-39 -62h213q-8 37 -35.5 61t-70.5 24z" />
    <glyph glyph-name="f" unicode="f" horiz-adv-x="383" 
d="M380 496v-117h-157v-379h-151v379h-71v117h71v17q0 91 48.5 147t155.5 56q40 0 85 -12l-14 -120q-27 9 -56 9q-31 0 -49.5 -19.5t-18.5 -54.5v-23h157z" />
    <glyph glyph-name="g" unicode="g" horiz-adv-x="588" 
d="M436 496h104v-496q0 -99 -67 -157.5t-180 -58.5q-198 0 -242 154l138 17q26 -50 103 -50q98 0 98 90v59q-41 -52 -119 -52q-109 0 -180 72.5t-71 181.5q0 106 73 179t184 73q76 0 133 -49zM295 130q61 0 95 39v173q-35 38 -95 38q-53 0 -87 -34t-34 -90q0 -55 34 -90.5
t87 -35.5z" />
    <glyph glyph-name="h" unicode="h" horiz-adv-x="564" 
d="M320 508q93 0 146.5 -57.5t53.5 -145.5v-305h-150v282q0 44 -23.5 68t-63.5 24q-51 0 -86 -43v-331h-150v704h150v-250q49 54 123 54z" />
    <glyph glyph-name="i" unicode="i" horiz-adv-x="245" 
d="M49 576v128h146v-128h-146zM47 0v496h150v-496h-150z" />
    <glyph glyph-name="j" unicode="j" horiz-adv-x="245" 
d="M49 576v128h146v-128h-146zM-42 -209l14 115q14 -3 27 -3q48 0 48 50v543h150v-539q0 -84 -45.5 -129t-124.5 -44q-38 0 -69 7z" />
    <glyph glyph-name="k" unicode="k" horiz-adv-x="554" 
d="M385 0l-120 184l-68 -77v-107h-150v704h150v-416l174 208h173l-181 -203l200 -293h-178z" />
    <glyph glyph-name="l" unicode="l" horiz-adv-x="245" 
d="M47 0v704h150v-704h-150z" />
    <glyph glyph-name="m" unicode="m" horiz-adv-x="885" 
d="M639 508q98 0 150.5 -59.5t52.5 -154.5v-294h-150v285q0 44 -24 66.5t-63 22.5q-56 0 -87 -40q2 -18 2 -29v-305h-150v282q0 44 -23.5 68t-64.5 24q-50 0 -85 -43v-331h-150v496h106l32 -57q51 69 135 69q108 0 161 -74q32 38 68 56t90 18z" />
    <glyph glyph-name="n" unicode="n" horiz-adv-x="564" 
d="M320 508q93 0 146.5 -57.5t53.5 -145.5v-305h-150v282q0 44 -23.5 68t-64.5 24q-50 0 -85 -43v-331h-150v496h106l32 -57q51 69 135 69z" />
    <glyph glyph-name="o" unicode="o" horiz-adv-x="590" 
d="M295 -12q-120 0 -197.5 74t-77.5 186t77.5 186t197.5 74q121 0 198.5 -73.5t77.5 -186.5t-77.5 -186.5t-198.5 -73.5zM295 116q53 0 87 37.5t34 94.5t-34 94.5t-87 37.5t-87 -37.5t-34 -94.5t34 -94.5t87 -37.5z" />
    <glyph glyph-name="p" unicode="p" horiz-adv-x="588" 
d="M317 508q108 0 179.5 -74.5t71.5 -185.5q0 -110 -73 -185t-184 -75q-60 0 -113 32v-228h-150v704h105l29 -49q46 61 135 61zM290 119q54 0 89 36t35 93q0 56 -35 92.5t-89 36.5q-59 0 -92 -41v-179q35 -38 92 -38z" />
    <glyph glyph-name="q" unicode="q" horiz-adv-x="588" 
d="M435 496h106v-704h-150v240q-46 -44 -120 -44q-108 0 -179.5 74.5t-71.5 185.5q0 110 73 185t183 75q81 0 137 -51zM298 119q57 0 93 41v176q-33 41 -94 41q-54 0 -88.5 -36t-34.5 -93q0 -56 35 -92.5t89 -36.5z" />
    <glyph glyph-name="r" unicode="r" horiz-adv-x="386" 
d="M310 508q32 0 66 -9l-13 -137q-34 8 -63 8q-77 0 -103 -59v-311h-150v496h106l32 -58q17 32 50.5 51t74.5 19z" />
    <glyph glyph-name="s" unicode="s" horiz-adv-x="487" 
d="M242 -12q-100 0 -155.5 37t-60.5 110l129 15q6 -31 27 -42t61 -11q78 0 78 43q0 20 -16 31t-63 17l-43 7q-173 21 -173 154q0 77 58 118t158 41q97 0 152 -37t64 -105l-139 -15q-13 48 -79 48q-63 0 -63 -39q0 -20 14.5 -31.5t60.5 -17.5l43 -6q93 -13 134 -51.5
t41 -103.5q0 -76 -59 -119t-169 -43z" />
    <glyph glyph-name="t" unicode="t" horiz-adv-x="387" 
d="M356 134l15 -119q-54 -27 -122 -27q-79 0 -130.5 48t-51.5 128v215h-66v117h74v101l136 81h6v-182h153v-117h-153v-190q0 -35 19.5 -53t47.5 -18q37 0 72 16z" />
    <glyph glyph-name="u" unicode="u" horiz-adv-x="564" 
d="M366 496h150v-496h-105l-33 57q-51 -69 -134 -69q-95 0 -148 57t-53 146v305h150v-282q0 -44 24 -68t65 -24q53 0 84 43v331z" />
    <glyph glyph-name="v" unicode="v" horiz-adv-x="535" 
d="M392 496h148l-223 -496h-100l-223 496h160l119 -276z" />
    <glyph glyph-name="w" unicode="w" horiz-adv-x="836" 
d="M690 496h151l-205 -496h-109l-110 259l-110 -259h-107l-206 496h163l100 -270l109 270h99l118 -276z" />
    <glyph glyph-name="x" unicode="x" horiz-adv-x="511" 
d="M527 0h-177l-102 139l-98 -139h-166l186 246l-184 250h172l98 -132l93 132h169l-183 -238z" />
    <glyph glyph-name="y" unicode="y" horiz-adv-x="547" 
d="M401 496h152l-307 -704h-145l108 241l-215 463h163l126 -287z" />
    <glyph glyph-name="z" unicode="z" horiz-adv-x="472" 
d="M226 123h225v-123h-430v87l223 286h-219v123h419v-89z" />
    <glyph glyph-name="braceleft" unicode="{" horiz-adv-x="404" 
d="M241 458q0 -77 -27.5 -114t-88.5 -37q62 0 89 -35.5t27 -114.5v-130q0 -32 15 -46t48 -14h79v-119h-99q-84 0 -127 40.5t-43 111.5v157q0 90 -71 90h-31v124h31q71 0 71 89v152q0 71 43 111.5t127 40.5h99v-119h-79q-33 0 -48 -14t-15 -46v-127z" />
    <glyph glyph-name="bar" unicode="|" horiz-adv-x="257" 
d="M62 -148v912h134v-912h-134z" />
    <glyph glyph-name="braceright" unicode="}" horiz-adv-x="404" 
d="M361 369h31v-124h-31q-71 0 -71 -89v-152q0 -71 -43 -111.5t-127 -40.5h-99v119h79q33 0 48 14t15 46v127q0 77 27.5 114t88.5 37q-62 0 -89 35.5t-27 114.5v130q0 32 -15 46t-48 14h-79v119h99q84 0 127 -40.5t43 -111.5v-157q0 -90 71 -90z" />
    <glyph glyph-name="asciitilde" unicode="~" 
d="M421 271q-53 0 -121 23l-36 12q-42 14 -64 14q-28 0 -28 -28v-10h-125v35q0 60 33.5 96t93.5 36q52 0 120 -23l36 -12q43 -14 65 -14q28 0 28 28v10h124v-35q0 -60 -33.5 -96t-92.5 -36z" />
    <glyph glyph-name="uni00A0" unicode="&#xa0;" horiz-adv-x="515" 
 />
    <glyph glyph-name="exclamdown" unicode="&#xa1;" horiz-adv-x="226" 
d="M186 496v-147h-146v147h146zM166 274l22 -374v-108h-150v108l22 374h106z" />
    <glyph glyph-name="cent" unicode="&#xa2;" horiz-adv-x="541" 
d="M317 234q43 13 66 59l149 -17q-24 -78 -79 -125.5t-136 -56.5v-94h-72v94q-100 11 -162.5 82t-62.5 176t62.5 176t162.5 82v94h72v-94q83 -9 138.5 -57t76.5 -128l-148 -15q-23 47 -67 60v-236zM171 352q0 -94 74 -117v235q-74 -25 -74 -118z" />
    <glyph glyph-name="sterling" unicode="&#xa3;" 
d="M255 137h291v-137h-496v78q109 80 108 173q0 14 -1 21h-102v72h86q-2 5 -9.5 31t-10 36.5t-7 31t-6.5 37t-2 33.5q0 88 64 145.5t171 57.5q109 0 186 -54l-33 -121q-57 34 -127 34q-47 0 -72 -23t-25 -64q0 -27 13 -78.5t16 -65.5h178v-72h-172q-2 -87 -50 -135z" />
    <glyph glyph-name="currency" unicode="&#xa4;" 
d="M556 167l-74 -74l-76 75q-48 -23 -109 -23q-58 0 -109 24l-76 -76l-73 74l72 72q-32 49 -32 112q0 61 30 112l-68 68l77 77l72 -74q46 24 107 24q60 0 109 -23l70 73l77 -77l-68 -67q30 -51 30 -113q0 -65 -29 -111zM297 253q44 0 72.5 27.5t28.5 70.5t-28.5 71t-72.5 28
t-72.5 -28t-28.5 -71q0 -42 29 -70t72 -28z" />
    <glyph glyph-name="yen" unicode="&#xa5;" horiz-adv-x="646" 
d="M663 704l-223 -370h130v-72h-171v-48h171v-72h-171v-142h-152l1 142h-172v72h172v48h-172v72h132l-224 370h171l173 -290l163 290h172z" />
    <glyph glyph-name="brokenbar" unicode="&#xa6;" horiz-adv-x="257" 
d="M62 408v356h134v-356h-134zM62 -148v355h134v-355h-134z" />
    <glyph glyph-name="section" unicode="&#xa7;" 
d="M452 109q67 -50 67 -137q0 -86 -63 -137t-168 -51q-100 0 -162.5 45t-72.5 135l131 22q13 -81 102 -81q34 0 54.5 14t20.5 39q0 29 -18.5 45.5t-85.5 39.5l-72 26q-153 54 -153 172q0 50 28 88.5t77 58.5q-67 52 -67 140q0 86 63.5 137t170.5 51q101 0 163.5 -46
t72.5 -135l-131 -19q-18 79 -103 79q-36 0 -56.5 -14t-20.5 -39q0 -29 17.5 -45.5t79.5 -36.5l78 -29q156 -55 156 -172q0 -53 -28.5 -92.5t-79.5 -57.5zM181 274q0 -28 18.5 -47t67.5 -37l89 -33q55 23 55 69q0 29 -20.5 47t-74.5 37l-84 30q-51 -23 -51 -66z" />
    <glyph glyph-name="dieresis" unicode="&#xa8;" horiz-adv-x="600" 
d="M95 578v121h125v-121h-125zM299 578v121h126v-121h-126z" />
    <glyph glyph-name="copyright" unicode="&#xa9;" horiz-adv-x="800" 
d="M400 -12q-162 0 -268 106t-106 258t106 258t268 106t268 -106t106 -258q0 -153 -105 -258.5t-269 -105.5zM400 56q123 0 210 84t87 212t-87 212t-210 84t-210 -84t-87 -212t87 -212t210 -84zM403 156q-89 0 -145.5 56t-56.5 140t57 140t145 56q75 0 126.5 -39t67.5 -105
l-108 -15q-18 58 -85 58q-41 0 -65.5 -27.5t-24.5 -67.5t24.5 -67.5t65.5 -27.5q69 0 87 60l106 -15q-17 -67 -67.5 -106.5t-126.5 -39.5z" />
    <glyph glyph-name="ordfeminine" unicode="&#xaa;" horiz-adv-x="404" 
d="M200 716q85 0 127.5 -38.5t42.5 -97.5v-244h-74l-21 36q-42 -48 -116 -48q-63 0 -100 30t-37 81q0 54 45 87t129 43l69 8v3q0 27 -17.5 41t-48.5 14q-58 0 -77 -37l-93 14q14 47 59.5 77.5t111.5 30.5zM179 406q52 0 86 36v64l-46 -6q-89 -13 -89 -54q0 -40 49 -40z" />
    <glyph glyph-name="guillemotleft" unicode="&#xab;" horiz-adv-x="519" 
d="M292 470l-122 -185l123 -185l-132 -20l-142 203l142 206zM498 466l-115 -182l115 -180l-132 -19l-132 198l133 202z" />
    <glyph glyph-name="logicalnot" unicode="&#xac;" 
d="M403 157v137h-345v121h474v-258h-129z" />
    <glyph glyph-name="uni00AD" unicode="&#xad;" horiz-adv-x="385" 
d="M40 227v126h305v-126h-305z" />
    <glyph glyph-name="registered" unicode="&#xae;" horiz-adv-x="455" 
d="M227 716q85 0 142.5 -56.5t57.5 -139.5q0 -84 -55.5 -140t-144.5 -56q-85 0 -142 56.5t-57 139.5q0 84 55.5 140t143.5 56zM227 366q68 0 111.5 41.5t43.5 112.5q0 69 -44.5 111.5t-110.5 42.5q-67 0 -110.5 -41.5t-43.5 -112.5q0 -68 44.5 -111t109.5 -43zM311 557
q0 -40 -34 -58l48 -79h-64l-37 66h-22v-66h-57v207h93q33 0 53 -20t20 -50zM202 579v-46h25q24 0 24 24q0 10 -6.5 16t-17.5 6h-25z" />
    <glyph glyph-name="macron" unicode="&#xaf;" horiz-adv-x="600" 
d="M168 590v96h345v-96h-345z" />
    <glyph glyph-name="degree" unicode="&#xb0;" horiz-adv-x="444" 
d="M221 341q-85 0 -142 52.5t-57 134.5q0 83 56 135.5t143 52.5q86 0 143 -52.5t57 -135.5t-56 -135t-144 -52zM221 435q41 0 67.5 26.5t26.5 66.5q0 39 -26.5 66.5t-67.5 27.5t-67 -27t-26 -67q0 -38 26.5 -65.5t66.5 -27.5z" />
    <glyph glyph-name="plusminus" unicode="&#xb1;" 
d="M364 496h173v-120h-173v-161h-130v161h-177v120h177v160h130v-160zM58 49v119h478v-119h-478z" />
    <glyph glyph-name="uni00B2" unicode="&#xb2;" horiz-adv-x="382" 
d="M195 422h147v-86h-300v48l122 115q34 32 46 48.5t12 36.5q0 18 -12 30t-32 12q-42 0 -50 -51l-93 8q19 133 149 133q67 0 105 -34t38 -88q0 -40 -23 -72t-82 -78z" />
    <glyph glyph-name="uni00B3" unicode="&#xb3;" horiz-adv-x="382" 
d="M288 527q56 -22 56 -87q0 -50 -42.5 -83t-113.5 -33q-69 0 -112 31t-47 86l95 8q11 -40 62 -40q24 0 38.5 10.5t14.5 27.5q0 39 -57 39h-39v69h35q52 0 52 39q0 16 -12.5 26.5t-37.5 10.5q-47 0 -53 -42l-96 9q6 52 44.5 85t109.5 33q69 0 109.5 -32t40.5 -80
q0 -54 -47 -77z" />
    <glyph glyph-name="acute" unicode="&#xb4;" horiz-adv-x="600" 
d="M185 560v7l78 137h152l-121 -144h-109z" />
    <glyph glyph-name="uni00B5" unicode="&#xb5;" horiz-adv-x="604" 
d="M583 123l11 -117q-36 -18 -82 -18q-92 0 -127 70q-39 -70 -123 -70q-42 0 -74 24v-220h-144v704h150v-282q0 -44 23 -68t63 -24q54 0 87 43v331h150v-336q0 -42 37 -42q14 0 29 5z" />
    <glyph glyph-name="paragraph" unicode="&#xb6;" horiz-adv-x="636" 
d="M397 704v-704h-124v252h-9q-107 0 -174 64.5t-67 159.5q0 98 67.5 163t171.5 65h135zM451 704h124v-704h-124v704z" />
    <glyph glyph-name="periodcentered" unicode="&#xb7;" horiz-adv-x="229" 
d="M37 279v155h155v-155h-155z" />
    <glyph glyph-name="cedilla" unicode="&#xb8;" horiz-adv-x="600" 
d="M244 -46q39 -8 61 -28.5t22 -51.5q0 -39 -28.5 -64.5t-74.5 -25.5q-81 0 -97 73l64 9q6 -19 33 -19q30 0 30 27t-45 27h-33l32 99h45z" />
    <glyph glyph-name="uni00B9" unicode="&#xb9;" horiz-adv-x="382" 
d="M208 704h65v-368h-104v255l-108 -39l-9 88z" />
    <glyph glyph-name="ordmasculine" unicode="&#xba;" horiz-adv-x="459" 
d="M230 324q-93 0 -152.5 55.5t-59.5 140.5q0 86 59 141t153 55t152.5 -55t58.5 -141q0 -85 -59 -140.5t-152 -55.5zM230 416q43 0 72.5 28.5t29.5 75.5t-29.5 75.5t-72.5 28.5q-44 0 -73 -28.5t-29 -75.5t29 -75.5t73 -28.5z" />
    <glyph glyph-name="guillemotright" unicode="&#xbb;" horiz-adv-x="519" 
d="M358 486l142 -206l-142 -203l-132 20l123 185l-122 185zM152 482l133 -202l-132 -198l-132 19l115 180l-115 182z" />
    <glyph glyph-name="onequarter" unicode="&#xbc;" horiz-adv-x="811" 
d="M175 336v255l-108 -39l-9 88l156 64h65v-368h-104zM581 704h99l-453 -704h-99zM756 157v-79h-44v-78h-98v78h-191v57l169 233h120v-211h44zM536 157h78v113z" />
    <glyph glyph-name="onehalf" unicode="&#xbd;" horiz-adv-x="811" 
d="M175 336v255l-108 -39l-9 88l156 64h65v-368h-104zM581 704h99l-453 -704h-99zM621 86h147v-86h-300v48l122 115q34 32 46 48.5t12 36.5q0 18 -12 30t-32 12q-42 0 -50 -51l-93 8q19 133 149 133q67 0 105 -34t38 -88q0 -40 -23 -72t-82 -78z" />
    <glyph glyph-name="threequarters" unicode="&#xbe;" horiz-adv-x="811" 
d="M344 440q0 -50 -42.5 -83t-113.5 -33q-69 0 -112 31t-47 86l95 8q11 -40 62 -40q24 0 38.5 10.5t14.5 27.5q0 39 -57 39h-39v69h35q52 0 52 39q0 16 -12.5 26.5t-37.5 10.5q-47 0 -53 -42l-96 9q6 52 44.5 85t109.5 33q69 0 109.5 -32t40.5 -80q0 -54 -47 -77
q56 -22 56 -87zM581 704h99l-453 -704h-99zM756 157v-79h-44v-78h-98v78h-191v57l169 233h120v-211h44zM536 157h78v113z" />
    <glyph glyph-name="questiondown" unicode="&#xbf;" horiz-adv-x="517" 
d="M347 496v-147h-147v147h147zM377 6l134 -19q-17 -103 -83 -155t-170 -52q-116 0 -177.5 59t-61.5 144q0 167 193 228l1 63h123v-143q-85 -26 -123.5 -57t-38.5 -81q0 -34 24 -59t68 -25q43 0 72 25t39 72z" />
    <glyph glyph-name="Agrave" unicode="&#xc0;" horiz-adv-x="720" 
d="M428 768h-109l-121 144h153l77 -137v-7zM565 0l-50 120h-316l-51 -120h-155l309 704h119l306 -704h-162zM251 245h211l-105 250z" />
    <glyph glyph-name="Aacute" unicode="&#xc1;" horiz-adv-x="720" 
d="M523 912l-121 -144h-109v7l78 137h152zM565 0l-50 120h-316l-51 -120h-155l309 704h119l306 -704h-162zM251 245h211l-105 250z" />
    <glyph glyph-name="Acircumflex" unicode="&#xc2;" horiz-adv-x="720" 
d="M358 829l-70 -66h-121l129 149h130l128 -149h-125zM565 0l-50 120h-316l-51 -120h-155l309 704h119l306 -704h-162zM251 245h211l-105 250z" />
    <glyph glyph-name="Atilde" unicode="&#xc3;" horiz-adv-x="720" 
d="M289 808v-47h-86v85q0 71 61 71q31 0 90 -31.5t67 -31.5q9 0 9 9v49h86v-87q0 -69 -62 -69q-32 0 -91 31t-64 31q-10 0 -10 -10zM565 0l-50 120h-316l-51 -120h-155l309 704h119l306 -704h-162zM251 245h211l-105 250z" />
    <glyph glyph-name="Adieresis" unicode="&#xc4;" horiz-adv-x="720" 
d="M321 907v-121h-125v121h125zM526 907v-121h-126v121h126zM565 0l-50 120h-316l-51 -120h-155l309 704h119l306 -704h-162zM251 245h211l-105 250z" />
    <glyph glyph-name="Aring" unicode="&#xc5;" horiz-adv-x="720" 
d="M361 745q-46 0 -77.5 30t-31.5 72q0 44 31.5 72.5t77.5 28.5q47 0 78.5 -28.5t31.5 -72.5q0 -43 -31.5 -72.5t-78.5 -29.5zM361 885q-16 0 -27 -11t-11 -27t11 -27.5t27 -11.5q17 0 28 11.5t11 27.5t-11 27t-28 11zM565 0l-50 120h-316l-51 -120h-155l309 704h119
l306 -704h-162zM251 245h211l-105 250z" />
    <glyph glyph-name="AE" unicode="&#xc6;" horiz-adv-x="1008" 
d="M636 137h341v-137h-492v120h-253l-77 -120h-161l465 704h510v-137h-333v-149h292v-128h-292v-153zM312 245h173v272z" />
    <glyph glyph-name="Ccedilla" unicode="&#xc7;" horiz-adv-x="726" 
d="M372 129q132 0 181 125l150 -16q-25 -102 -104.5 -172t-204.5 -77l-6 -29q39 -8 61 -28.5t22 -51.5q0 -39 -28.5 -64.5t-74.5 -25.5q-81 0 -97 73l64 9q6 -19 33 -19q30 0 30 27t-45 27h-33l26 81q-146 7 -235.5 110.5t-89.5 253.5q0 156 97 260t251 104q133 0 220 -70
t115 -178l-152 -17q-22 54 -68.5 89t-111.5 35q-90 0 -141.5 -63t-51.5 -160q0 -98 51.5 -160.5t141.5 -62.5z" />
    <glyph glyph-name="Egrave" unicode="&#xc8;" horiz-adv-x="585" 
d="M371 768h-109l-121 144h153l77 -137v-7zM213 137h341v-137h-492v704h484v-137h-333v-149h292v-128h-292v-153z" />
    <glyph glyph-name="Eacute" unicode="&#xc9;" horiz-adv-x="585" 
d="M466 912l-121 -144h-109v7l78 137h152zM213 137h341v-137h-492v704h484v-137h-333v-149h292v-128h-292v-153z" />
    <glyph glyph-name="Ecircumflex" unicode="&#xca;" horiz-adv-x="585" 
d="M301 829l-70 -66h-121l129 149h130l128 -149h-125zM213 137h341v-137h-492v704h484v-137h-333v-149h292v-128h-292v-153z" />
    <glyph glyph-name="Edieresis" unicode="&#xcb;" horiz-adv-x="585" 
d="M264 907v-121h-125v121h125zM469 907v-121h-126v121h126zM213 137h341v-137h-492v704h484v-137h-333v-149h292v-128h-292v-153z" />
    <glyph glyph-name="Igrave" unicode="&#xcc;" horiz-adv-x="275" 
d="M97 772l-121 144h153l77 -137v-7h-109zM62 0v704h151v-704h-151z" />
    <glyph glyph-name="Iacute" unicode="&#xcd;" horiz-adv-x="275" 
d="M71 772v7l78 137h152l-121 -144h-109zM62 0v704h151v-704h-151z" />
    <glyph glyph-name="Icircumflex" unicode="&#xce;" horiz-adv-x="275" 
d="M136 833l-70 -66h-121l129 149h130l128 -149h-125zM62 0v704h151v-704h-151z" />
    <glyph glyph-name="Idieresis" unicode="&#xcf;" horiz-adv-x="275" 
d="M-26 790v121h125v-121h-125zM178 790v121h126v-121h-126zM62 0v704h151v-704h-151z" />
    <glyph glyph-name="Eth" unicode="&#xd0;" horiz-adv-x="717" 
d="M322 704q157 0 265.5 -101.5t108.5 -250.5t-108.5 -250.5t-265.5 -101.5h-260v310h-56v77h56v317h260zM316 137q97 0 159.5 59.5t62.5 155.5q0 97 -62.5 156t-159.5 59h-103v-180h160v-77h-160v-173h103z" />
    <glyph glyph-name="Ntilde" unicode="&#xd1;" horiz-adv-x="721" 
d="M282 812v-47h-86v85q0 71 61 71q31 0 90 -31.5t67 -31.5q9 0 9 9v49h86v-87q0 -69 -62 -69q-31 0 -91 31t-64 31q-10 0 -10 -10zM509 704h150v-704h-91l-356 411v-411h-150v704h86l361 -417v417z" />
    <glyph glyph-name="Ograve" unicode="&#xd2;" horiz-adv-x="798" 
d="M357 768l-121 144h153l77 -137v-7h-109zM399 -12q-156 0 -267 105.5t-111 258.5t111 258.5t267 105.5q157 0 267.5 -105t110.5 -259q0 -152 -110.5 -258t-267.5 -106zM399 129q91 0 155.5 64t64.5 159q0 96 -64.5 159.5t-155.5 63.5q-92 0 -156 -64t-64 -159
q0 -96 64 -159.5t156 -63.5z" />
    <glyph glyph-name="Oacute" unicode="&#xd3;" horiz-adv-x="798" 
d="M331 768v7l78 137h152l-121 -144h-109zM399 -12q-156 0 -267 105.5t-111 258.5t111 258.5t267 105.5q157 0 267.5 -105t110.5 -259q0 -152 -110.5 -258t-267.5 -106zM399 129q91 0 155.5 64t64.5 159q0 96 -64.5 159.5t-155.5 63.5q-92 0 -156 -64t-64 -159
q0 -96 64 -159.5t156 -63.5z" />
    <glyph glyph-name="Ocircumflex" unicode="&#xd4;" horiz-adv-x="798" 
d="M396 829l-70 -66h-121l129 149h130l128 -149h-125zM399 716q157 0 267.5 -105t110.5 -259q0 -152 -110.5 -258t-267.5 -106q-156 0 -267 105.5t-111 258.5t111 258.5t267 105.5zM399 129q91 0 155.5 64t64.5 159q0 96 -64.5 159.5t-155.5 63.5q-92 0 -156 -64t-64 -159
q0 -96 64 -159.5t156 -63.5z" />
    <glyph glyph-name="Otilde" unicode="&#xd5;" horiz-adv-x="798" 
d="M492 756q-32 0 -91 31t-64 31q-10 0 -10 -10v-47h-86v85q0 71 61 71q31 0 90 -31.5t67 -31.5q9 0 9 9v49h86v-87q0 -69 -62 -69zM399 -12q-156 0 -267 105.5t-111 258.5t111 258.5t267 105.5q157 0 267.5 -105t110.5 -259q0 -152 -110.5 -258t-267.5 -106zM399 129
q91 0 155.5 64t64.5 159q0 96 -64.5 159.5t-155.5 63.5q-92 0 -156 -64t-64 -159q0 -96 64 -159.5t156 -63.5z" />
    <glyph glyph-name="Odieresis" unicode="&#xd6;" horiz-adv-x="798" 
d="M234 786v121h125v-121h-125zM438 786v121h126v-121h-126zM399 -12q-156 0 -267 105.5t-111 258.5t111 258.5t267 105.5q157 0 267.5 -105t110.5 -259q0 -152 -110.5 -258t-267.5 -106zM399 129q91 0 155.5 64t64.5 159q0 96 -64.5 159.5t-155.5 63.5q-92 0 -156 -64
t-64 -159q0 -96 64 -159.5t156 -63.5z" />
    <glyph glyph-name="multiply" unicode="&#xd7;" 
d="M532 209l-87 -88l-147 147l-140 -140l-88 88l140 140l-148 148l88 88l147 -148l140 140l88 -88l-140 -140z" />
    <glyph glyph-name="Oslash" unicode="&#xd8;" horiz-adv-x="798" 
d="M653 623q124 -108 124 -271q0 -152 -110.5 -258t-267.5 -106q-107 0 -199 54l-33 -42h-93l67 86q-120 105 -120 266q0 153 111 258.5t267 105.5q106 0 193 -50l30 38h95zM179 352q0 -88 54 -148l269 346q-48 25 -103 25q-92 0 -156 -64t-64 -159zM399 129q91 0 155.5 64
t64.5 159q0 90 -58 153l-271 -348q50 -28 109 -28z" />
    <glyph glyph-name="Ugrave" unicode="&#xd9;" horiz-adv-x="712" 
d="M315 768l-121 144h153l77 -137v-7h-109zM357 -12q-137 0 -223 79t-86 209v428h152v-431q0 -68 43.5 -107.5t113.5 -39.5t112.5 39.5t42.5 107.5v431h151v-428q0 -130 -84 -209t-222 -79z" />
    <glyph glyph-name="Uacute" unicode="&#xda;" horiz-adv-x="712" 
d="M289 768v7l78 137h152l-121 -144h-109zM357 -12q-137 0 -223 79t-86 209v428h152v-431q0 -68 43.5 -107.5t113.5 -39.5t112.5 39.5t42.5 107.5v431h151v-428q0 -130 -84 -209t-222 -79z" />
    <glyph glyph-name="Ucircumflex" unicode="&#xdb;" horiz-adv-x="712" 
d="M354 829l-70 -66h-121l129 149h130l128 -149h-125zM512 704h151v-428q0 -130 -84 -209t-222 -79q-137 0 -223 79t-86 209v428h152v-431q0 -68 43.5 -107.5t113.5 -39.5t112.5 39.5t42.5 107.5v431z" />
    <glyph glyph-name="Udieresis" unicode="&#xdc;" horiz-adv-x="712" 
d="M192 786v121h125v-121h-125zM396 786v121h126v-121h-126zM357 -12q-137 0 -223 79t-86 209v428h152v-431q0 -68 43.5 -107.5t113.5 -39.5t112.5 39.5t42.5 107.5v431h151v-428q0 -130 -84 -209t-222 -79z" />
    <glyph glyph-name="Yacute" unicode="&#xdd;" horiz-adv-x="658" 
d="M492 916l-121 -144h-109v7l78 137h152zM502 704h171l-268 -439v-265h-151v265l-269 439h172l177 -285z" />
    <glyph glyph-name="Thorn" unicode="&#xde;" horiz-adv-x="609" 
d="M344 584q107 0 174.5 -63t67.5 -161q0 -96 -66.5 -159t-175.5 -63h-131v-138h-151v704h151v-120h131zM325 267q46 0 74.5 25t28.5 68t-29 67t-74 24h-112v-184h112z" />
    <glyph glyph-name="germandbls" unicode="&#xdf;" horiz-adv-x="608" 
d="M479 393q51 -26 80 -73t29 -106q0 -101 -64.5 -162t-162.5 -61q-49 0 -93 17l15 128q29 -13 61 -13q37 0 63.5 22.5t26.5 68.5q0 45 -32 70t-87 25h-37v108h37q37 0 61.5 23.5t24.5 58.5t-23 57.5t-67 22.5q-42 0 -65 -22.5t-23 -61.5v-495h-151v373h-71v123h71v4
q0 91 62 153.5t177 62.5q112 0 173 -56t61 -139q0 -77 -66 -128z" />
    <glyph glyph-name="agrave" unicode="&#xe0;" horiz-adv-x="525" 
d="M332 560h-109l-121 144h153l77 -137v-7zM258 508q115 0 169.5 -51t54.5 -132v-325h-104l-27 47q-61 -59 -149 -59q-84 0 -132 39t-48 106q0 136 223 169l87 13v3q0 69 -79 69q-59 0 -78 -50l-136 17q14 68 73 111t146 43zM170 147q0 -21 17.5 -33.5t43.5 -12.5
q54 0 101 42v78l-54 -9q-59 -9 -83.5 -24t-24.5 -41z" />
    <glyph glyph-name="aacute" unicode="&#xe1;" horiz-adv-x="525" 
d="M427 704l-121 -144h-109v7l78 137h152zM258 508q115 0 169.5 -51t54.5 -132v-325h-104l-27 47q-61 -59 -149 -59q-84 0 -132 39t-48 106q0 136 223 169l87 13v3q0 69 -79 69q-59 0 -78 -50l-136 17q14 68 73 111t146 43zM170 147q0 -21 17.5 -33.5t43.5 -12.5
q54 0 101 42v78l-54 -9q-59 -9 -83.5 -24t-24.5 -41z" />
    <glyph glyph-name="acircumflex" unicode="&#xe2;" horiz-adv-x="525" 
d="M262 621l-70 -66h-121l129 149h130l128 -149h-125zM258 508q115 0 169.5 -51t54.5 -132v-325h-104l-27 47q-61 -59 -149 -59q-84 0 -132 39t-48 106q0 136 223 169l87 13v3q0 69 -79 69q-59 0 -78 -50l-136 17q14 68 73 111t146 43zM170 147q0 -21 17.5 -33.5t43.5 -12.5
q54 0 101 42v78l-54 -9q-59 -9 -83.5 -24t-24.5 -41z" />
    <glyph glyph-name="atilde" unicode="&#xe3;" horiz-adv-x="525" 
d="M193 600v-47h-86v85q0 71 61 71q31 0 90 -31.5t67 -31.5q9 0 9 9v49h86v-87q0 -69 -62 -69q-32 0 -91 31t-64 31q-10 0 -10 -10zM258 508q115 0 169.5 -51t54.5 -132v-325h-104l-27 47q-61 -59 -149 -59q-84 0 -132 39t-48 106q0 136 223 169l87 13v3q0 69 -79 69
q-59 0 -78 -50l-136 17q14 68 73 111t146 43zM170 147q0 -21 17.5 -33.5t43.5 -12.5q54 0 101 42v78l-54 -9q-59 -9 -83.5 -24t-24.5 -41z" />
    <glyph glyph-name="adieresis" unicode="&#xe4;" horiz-adv-x="525" 
d="M225 699v-121h-125v121h125zM430 699v-121h-126v121h126zM258 508q115 0 169.5 -51t54.5 -132v-325h-104l-27 47q-61 -59 -149 -59q-84 0 -132 39t-48 106q0 136 223 169l87 13v3q0 69 -79 69q-59 0 -78 -50l-136 17q14 68 73 111t146 43zM170 147q0 -21 17.5 -33.5
t43.5 -12.5q54 0 101 42v78l-54 -9q-59 -9 -83.5 -24t-24.5 -41z" />
    <glyph glyph-name="aring" unicode="&#xe5;" horiz-adv-x="525" 
d="M265 537q-46 0 -77.5 30t-31.5 72q0 44 31.5 72.5t77.5 28.5q47 0 78.5 -28.5t31.5 -72.5q0 -43 -31.5 -72.5t-78.5 -29.5zM265 677q-16 0 -27 -11t-11 -27t11 -27.5t27 -11.5q17 0 28 11.5t11 27.5t-11 27t-28 11zM258 508q115 0 169.5 -51t54.5 -132v-325h-104l-27 47
q-61 -59 -149 -59q-84 0 -132 39t-48 106q0 136 223 169l87 13v3q0 69 -79 69q-59 0 -78 -50l-136 17q14 68 73 111t146 43zM170 147q0 -21 17.5 -33.5t43.5 -12.5q54 0 101 42v78l-54 -9q-59 -9 -83.5 -24t-24.5 -41z" />
    <glyph glyph-name="ae" unicode="&#xe6;" horiz-adv-x="867" 
d="M480 208q7 -48 38.5 -74.5t76.5 -26.5q69 0 104 50l136 -16q-24 -68 -88.5 -110.5t-151.5 -42.5q-121 0 -195 79q-68 -79 -186 -79q-87 0 -139.5 40t-52.5 103q0 137 227 171l83 13v3q0 69 -78 69q-62 0 -79 -53l-136 17q12 69 68 113t153 44q107 0 164 -55q68 55 161 55
q109 0 183.5 -70t74.5 -181v-49h-363zM588 389q-40 0 -69 -24t-38 -63h215q-7 40 -35 63.5t-73 23.5zM237 101q68 0 112 47q-13 36 -16 72l-53 -8q-59 -9 -84.5 -24t-25.5 -41q0 -46 67 -46z" />
    <glyph glyph-name="ccedilla" unicode="&#xe7;" horiz-adv-x="541" 
d="M283 125q67 0 100 64l149 -17q-24 -81 -83.5 -129.5t-146.5 -53.5l-6 -29q39 -8 61 -28.5t22 -51.5q0 -39 -28.5 -64.5t-74.5 -25.5q-81 0 -97 73l64 9q6 -19 33 -19q30 0 30 27t-45 27h-33l27 82q-105 8 -170 79.5t-65 179.5q0 114 73 187t186 73q98 0 164 -49t89 -138
l-148 -15q-32 65 -102 65q-50 0 -80.5 -33t-30.5 -90q0 -58 31 -90.5t81 -32.5z" />
    <glyph glyph-name="egrave" unicode="&#xe8;" horiz-adv-x="554" 
d="M347 576h-109l-121 144h153l77 -137v-7zM167 210q7 -49 38 -76t78 -27q67 0 103 50l137 -16q-24 -68 -89 -110.5t-154 -42.5q-110 0 -185 71t-75 189q0 110 72 185t187 75q108 0 180 -69t72 -180v-49h-364zM276 389q-39 0 -68 -23t-39 -62h213q-8 37 -35.5 61t-70.5 24z
" />
    <glyph glyph-name="eacute" unicode="&#xe9;" horiz-adv-x="554" 
d="M442 720l-121 -144h-109v7l78 137h152zM167 210q7 -49 38 -76t78 -27q67 0 103 50l137 -16q-24 -68 -89 -110.5t-154 -42.5q-110 0 -185 71t-75 189q0 110 72 185t187 75q108 0 180 -69t72 -180v-49h-364zM276 389q-39 0 -68 -23t-39 -62h213q-8 37 -35.5 61t-70.5 24z
" />
    <glyph glyph-name="ecircumflex" unicode="&#xea;" horiz-adv-x="554" 
d="M277 637l-70 -66h-121l129 149h130l128 -149h-125zM167 210q7 -49 38 -76t78 -27q67 0 103 50l137 -16q-24 -68 -89 -110.5t-154 -42.5q-110 0 -185 71t-75 189q0 110 72 185t187 75q108 0 180 -69t72 -180v-49h-364zM276 389q-39 0 -68 -23t-39 -62h213q-8 37 -35.5 61
t-70.5 24z" />
    <glyph glyph-name="edieresis" unicode="&#xeb;" horiz-adv-x="554" 
d="M240 715v-121h-125v121h125zM445 715v-121h-126v121h126zM167 210q7 -49 38 -76t78 -27q67 0 103 50l137 -16q-24 -68 -89 -110.5t-154 -42.5q-110 0 -185 71t-75 189q0 110 72 185t187 75q108 0 180 -69t72 -180v-49h-364zM276 389q-39 0 -68 -23t-39 -62h213
q-8 37 -35.5 61t-70.5 24z" />
    <glyph glyph-name="igrave" unicode="&#xec;" horiz-adv-x="245" 
d="M81 560l-121 144h153l77 -137v-7h-109zM47 0v496h150v-496h-150z" />
    <glyph glyph-name="iacute" unicode="&#xed;" horiz-adv-x="245" 
d="M55 560v7l78 137h152l-121 -144h-109zM47 0v496h150v-496h-150z" />
    <glyph glyph-name="icircumflex" unicode="&#xee;" horiz-adv-x="245" 
d="M120 621l-70 -66h-121l129 149h130l128 -149h-125zM47 0v496h150v-496h-150z" />
    <glyph glyph-name="idieresis" unicode="&#xef;" horiz-adv-x="245" 
d="M-42 578v121h125v-121h-125zM162 578v121h126v-121h-126zM47 0v496h150v-496h-150z" />
    <glyph glyph-name="eth" unicode="&#xf0;" horiz-adv-x="580" 
d="M448 567q112 -143 112 -293q0 -141 -75 -213.5t-198 -72.5q-116 0 -191.5 67t-75.5 175q0 105 69 172.5t176 67.5q55 0 97 -29q-30 55 -73 104l-166 -22l-10 73l111 15q-40 37 -100 81l180 17q41 -32 86 -77l134 18l9 -72zM290 119q53 0 84.5 37t31.5 108q0 14 -1 21
q-41 54 -117 54q-49 0 -81.5 -29.5t-32.5 -79.5q0 -48 32.5 -79.5t83.5 -31.5z" />
    <glyph glyph-name="ntilde" unicode="&#xf1;" horiz-adv-x="564" 
d="M211 605v-47h-87v85q0 71 62 71q31 0 90.5 -31.5t67.5 -31.5q9 0 9 9v49h87v-87q0 -69 -62 -69q-32 0 -92.5 31t-64.5 31q-10 0 -10 -10zM320 508q93 0 146.5 -57.5t53.5 -145.5v-305h-150v282q0 44 -23.5 68t-64.5 24q-50 0 -85 -43v-331h-150v496h106l32 -57
q51 69 135 69z" />
    <glyph glyph-name="ograve" unicode="&#xf2;" horiz-adv-x="590" 
d="M253 560l-121 144h153l77 -137v-7h-109zM295 -12q-120 0 -197.5 74t-77.5 186t77.5 186t197.5 74q121 0 198.5 -73.5t77.5 -186.5t-77.5 -186.5t-198.5 -73.5zM295 116q53 0 87 37.5t34 94.5t-34 94.5t-87 37.5t-87 -37.5t-34 -94.5t34 -94.5t87 -37.5z" />
    <glyph glyph-name="oacute" unicode="&#xf3;" horiz-adv-x="590" 
d="M227 560v7l78 137h152l-121 -144h-109zM295 -12q-120 0 -197.5 74t-77.5 186t77.5 186t197.5 74q121 0 198.5 -73.5t77.5 -186.5t-77.5 -186.5t-198.5 -73.5zM295 116q53 0 87 37.5t34 94.5t-34 94.5t-87 37.5t-87 -37.5t-34 -94.5t34 -94.5t87 -37.5z" />
    <glyph glyph-name="ocircumflex" unicode="&#xf4;" horiz-adv-x="590" 
d="M292 621l-70 -66h-121l129 149h130l128 -149h-125zM295 508q121 0 198.5 -73.5t77.5 -186.5t-77.5 -186.5t-198.5 -73.5q-120 0 -197.5 74t-77.5 186t77.5 186t197.5 74zM295 116q53 0 87 37.5t34 94.5t-34 94.5t-87 37.5t-87 -37.5t-34 -94.5t34 -94.5t87 -37.5z" />
    <glyph glyph-name="otilde" unicode="&#xf5;" horiz-adv-x="590" 
d="M388 548q-32 0 -91 31t-64 31q-10 0 -10 -10v-47h-86v85q0 71 61 71q31 0 90 -31.5t67 -31.5q9 0 9 9v49h86v-87q0 -69 -62 -69zM295 -12q-120 0 -197.5 74t-77.5 186t77.5 186t197.5 74q121 0 198.5 -73.5t77.5 -186.5t-77.5 -186.5t-198.5 -73.5zM295 116q53 0 87 37.5
t34 94.5t-34 94.5t-87 37.5t-87 -37.5t-34 -94.5t34 -94.5t87 -37.5z" />
    <glyph glyph-name="odieresis" unicode="&#xf6;" horiz-adv-x="590" 
d="M130 578v121h125v-121h-125zM334 578v121h126v-121h-126zM295 -12q-120 0 -197.5 74t-77.5 186t77.5 186t197.5 74q121 0 198.5 -73.5t77.5 -186.5t-77.5 -186.5t-198.5 -73.5zM295 116q53 0 87 37.5t34 94.5t-34 94.5t-87 37.5t-87 -37.5t-34 -94.5t34 -94.5t87 -37.5z
" />
    <glyph glyph-name="divide" unicode="&#xf7;" 
d="M229 472v136h136v-136h-136zM61 295v120h473v-120h-473zM229 103v136h136v-136h-136z" />
    <glyph glyph-name="oslash" unicode="&#xf8;" horiz-adv-x="590" 
d="M500 428q71 -73 71 -180q0 -113 -77.5 -186.5t-198.5 -73.5q-83 0 -149 38l-23 -26h-92l60 68q-71 73 -71 180q0 112 77.5 186t197.5 74q82 0 148 -36l21 24h96zM174 248q0 -38 15 -67l162 186q-26 13 -56 13q-53 0 -87 -37.5t-34 -94.5zM295 116q53 0 87 37.5t34 94.5
q0 38 -15 67l-163 -185q25 -14 57 -14z" />
    <glyph glyph-name="ugrave" unicode="&#xf9;" horiz-adv-x="564" 
d="M350 568h-109l-121 144h153l77 -137v-7zM366 496h150v-496h-105l-33 57q-51 -69 -134 -69q-95 0 -148 57t-53 146v305h150v-282q0 -44 24 -68t65 -24q53 0 84 43v331z" />
    <glyph glyph-name="uacute" unicode="&#xfa;" horiz-adv-x="564" 
d="M445 712l-121 -144h-109v7l78 137h152zM366 496h150v-496h-105l-33 57q-51 -69 -134 -69q-95 0 -148 57t-53 146v305h150v-282q0 -44 24 -68t65 -24q53 0 84 43v331z" />
    <glyph glyph-name="ucircumflex" unicode="&#xfb;" horiz-adv-x="564" 
d="M280 629l-70 -66h-121l129 149h130l128 -149h-125zM366 496h150v-496h-105l-33 57q-51 -69 -134 -69q-95 0 -148 57t-53 146v305h150v-282q0 -44 24 -68t65 -24q53 0 84 43v331z" />
    <glyph glyph-name="udieresis" unicode="&#xfc;" horiz-adv-x="564" 
d="M243 707v-121h-125v121h125zM448 707v-121h-126v121h126zM366 496h150v-496h-105l-33 57q-51 -69 -134 -69q-95 0 -148 57t-53 146v305h150v-282q0 -44 24 -68t65 -24q53 0 84 43v331z" />
    <glyph glyph-name="yacute" unicode="&#xfd;" horiz-adv-x="547" 
d="M428 712l-121 -144h-109v7l78 137h152zM401 496h152l-307 -704h-145l108 241l-215 463h163l126 -287z" />
    <glyph glyph-name="thorn" unicode="&#xfe;" horiz-adv-x="588" 
d="M317 508q108 0 179.5 -74.5t71.5 -185.5q0 -110 -73.5 -185t-184.5 -75q-61 0 -113 33v-229h-150v912h150v-240q43 44 120 44zM290 119q54 0 89 36t35 93q0 56 -35 92.5t-89 36.5q-57 0 -93 -41v-178q36 -39 93 -39z" />
    <glyph glyph-name="ydieresis" unicode="&#xff;" horiz-adv-x="547" 
d="M226 707v-121h-125v121h125zM431 707v-121h-126v121h126zM401 496h152l-307 -704h-145l108 241l-215 463h163l126 -287z" />
    <glyph glyph-name="Amacron" unicode="&#x100;" horiz-adv-x="720" 
d="M533 883v-96h-345v96h345zM565 0l-50 120h-316l-51 -120h-155l309 704h119l306 -704h-162zM251 245h211l-105 250z" />
    <glyph glyph-name="amacron" unicode="&#x101;" horiz-adv-x="525" 
d="M437 686v-96h-345v96h345zM258 508q115 0 169.5 -51t54.5 -132v-325h-104l-27 47q-61 -59 -149 -59q-84 0 -132 39t-48 106q0 136 223 169l87 13v3q0 69 -79 69q-59 0 -78 -50l-136 17q14 68 73 111t146 43zM170 147q0 -21 17.5 -33.5t43.5 -12.5q54 0 101 42v78l-54 -9
q-59 -9 -83.5 -24t-24.5 -41z" />
    <glyph glyph-name="Abreve" unicode="&#x102;" horiz-adv-x="720" 
d="M361 760q-67 0 -113 40t-50 112h96q2 -28 20 -45t47 -17q28 0 46.5 17t19.5 45h95q-3 -72 -48.5 -112t-112.5 -40zM565 0l-50 120h-316l-51 -120h-155l309 704h119l306 -704h-162zM251 245h211l-105 250z" />
    <glyph glyph-name="abreve" unicode="&#x103;" horiz-adv-x="525" 
d="M265 552q-67 0 -113 40t-50 112h96q2 -28 20 -45t47 -17q28 0 46.5 17t19.5 45h95q-3 -72 -48.5 -112t-112.5 -40zM258 508q115 0 169.5 -51t54.5 -132v-325h-104l-27 47q-61 -59 -149 -59q-84 0 -132 39t-48 106q0 136 223 169l87 13v3q0 69 -79 69q-59 0 -78 -50
l-136 17q14 68 73 111t146 43zM170 147q0 -21 17.5 -33.5t43.5 -12.5q54 0 101 42v78l-54 -9q-59 -9 -83.5 -24t-24.5 -41z" />
    <glyph glyph-name="Aogonek" unicode="&#x104;" horiz-adv-x="720" 
d="M618 -124q20 0 43 9l4 -89q-36 -12 -72 -12q-59 0 -93 25.5t-34 75.5q0 40 26 74t68 54l-45 107h-316l-51 -120h-155l309 704h119l306 -704h-83q-37 -20 -53.5 -44t-16.5 -43q0 -37 44 -37zM251 245h211l-105 250z" />
    <glyph glyph-name="aogonek" unicode="&#x105;" horiz-adv-x="525" 
d="M461 0q-37 -20 -53.5 -44t-16.5 -43q0 -37 44 -37q21 0 43 9l4 -89q-36 -12 -72 -12q-59 0 -93 25.5t-34 75.5q0 39 24.5 72.5t64.5 52.5l-21 37q-61 -59 -149 -59q-84 0 -132 39t-48 106q0 136 223 169l87 13v3q0 69 -79 69q-59 0 -78 -50l-136 17q14 68 73 111t146 43
q115 0 169.5 -51t54.5 -132v-325h-21zM170 147q0 -21 17.5 -33.5t43.5 -12.5q54 0 101 42v78l-54 -9q-59 -9 -83.5 -24t-24.5 -41z" />
    <glyph glyph-name="Cacute" unicode="&#x106;" horiz-adv-x="726" 
d="M302 779v7l78 137h152l-121 -144h-109zM366 -12q-154 0 -249.5 104.5t-95.5 259.5q0 156 97 260t251 104q133 0 220 -70t115 -178l-152 -17q-22 54 -68.5 89t-111.5 35q-90 0 -141.5 -63t-51.5 -160q0 -98 51.5 -160.5t141.5 -62.5q132 0 181 125l150 -16
q-27 -108 -114 -179t-223 -71z" />
    <glyph glyph-name="cacute" unicode="&#x107;" horiz-adv-x="541" 
d="M211 564v7l78 137h152l-121 -144h-109zM280 -12q-114 0 -187 72.5t-73 187.5q0 114 73 187t186 73q98 0 164 -49t89 -138l-148 -15q-32 65 -102 65q-50 0 -80.5 -33t-30.5 -90q0 -58 31 -90.5t81 -32.5q67 0 100 64l149 -17q-26 -86 -91.5 -135t-160.5 -49z" />
    <glyph glyph-name="Ccircumflex" unicode="&#x108;" horiz-adv-x="726" 
d="M367 840l-70 -66h-121l129 149h130l128 -149h-125zM372 129q132 0 181 125l150 -16q-27 -108 -114 -179t-223 -71q-154 0 -249.5 104.5t-95.5 259.5q0 156 97 260t251 104q133 0 220 -70t115 -178l-152 -17q-22 54 -68.5 89t-111.5 35q-90 0 -141.5 -63t-51.5 -160
q0 -98 51.5 -160.5t141.5 -62.5z" />
    <glyph glyph-name="ccircumflex" unicode="&#x109;" horiz-adv-x="541" 
d="M276 625l-70 -66h-121l129 149h130l128 -149h-125zM283 125q67 0 100 64l149 -17q-26 -86 -91.5 -135t-160.5 -49q-114 0 -187 72.5t-73 187.5q0 114 73 187t186 73q98 0 164 -49t89 -138l-148 -15q-32 65 -102 65q-50 0 -80.5 -33t-30.5 -90q0 -58 31 -90.5t81 -32.5z
" />
    <glyph glyph-name="Cdotaccent" unicode="&#x10a;" horiz-adv-x="726" 
d="M296 795v128h146v-128h-146zM366 -12q-154 0 -249.5 104.5t-95.5 259.5q0 156 97 260t251 104q133 0 220 -70t115 -178l-152 -17q-22 54 -68.5 89t-111.5 35q-90 0 -141.5 -63t-51.5 -160q0 -98 51.5 -160.5t141.5 -62.5q132 0 181 125l150 -16q-27 -108 -114 -179
t-223 -71z" />
    <glyph glyph-name="cdotaccent" unicode="&#x10b;" horiz-adv-x="541" 
d="M205 580v128h146v-128h-146zM280 -12q-114 0 -187 72.5t-73 187.5q0 114 73 187t186 73q98 0 164 -49t89 -138l-148 -15q-32 65 -102 65q-50 0 -80.5 -33t-30.5 -90q0 -58 31 -90.5t81 -32.5q67 0 100 64l149 -17q-26 -86 -91.5 -135t-160.5 -49z" />
    <glyph glyph-name="Ccaron" unicode="&#x10c;" horiz-adv-x="726" 
d="M432 774h-130l-128 149h126l72 -67l68 67h122zM372 129q132 0 181 125l150 -16q-27 -108 -114 -179t-223 -71q-154 0 -249.5 104.5t-95.5 259.5q0 156 97 260t251 104q133 0 220 -70t115 -178l-152 -17q-22 54 -68.5 89t-111.5 35q-90 0 -141.5 -63t-51.5 -160
q0 -98 51.5 -160.5t141.5 -62.5z" />
    <glyph glyph-name="ccaron" unicode="&#x10d;" horiz-adv-x="541" 
d="M341 559h-130l-128 149h126l72 -67l68 67h122zM283 125q67 0 100 64l149 -17q-26 -86 -91.5 -135t-160.5 -49q-114 0 -187 72.5t-73 187.5q0 114 73 187t186 73q98 0 164 -49t89 -138l-148 -15q-32 65 -102 65q-50 0 -80.5 -33t-30.5 -90q0 -58 31 -90.5t81 -32.5z" />
    <glyph glyph-name="Dcaron" unicode="&#x10e;" horiz-adv-x="717" 
d="M372 767h-130l-128 149h126l72 -67l68 67h122zM322 704q157 0 265.5 -101.5t108.5 -250.5t-108.5 -250.5t-265.5 -101.5h-260v704h260zM316 137q97 0 159.5 59.5t62.5 155.5q0 97 -62.5 156t-159.5 59h-103v-430h103z" />
    <glyph glyph-name="dcaron" unicode="&#x10f;" horiz-adv-x="595" 
d="M390 476v228h150v-704h-105l-29 49q-46 -61 -135 -61q-108 0 -179.5 74.5t-71.5 185.5q0 110 73 185t184 75q60 0 113 -32zM584 704h107q-8 -83 -38 -168h-81q10 100 12 168zM298 119q59 0 92 41v179q-35 38 -92 38q-54 0 -89 -36t-35 -93q0 -56 35 -92.5t89 -36.5z" />
    <glyph glyph-name="Dcroat" unicode="&#x110;" horiz-adv-x="717" 
d="M322 704q157 0 265.5 -101.5t108.5 -250.5t-108.5 -250.5t-265.5 -101.5h-260v310h-56v77h56v317h260zM316 137q97 0 159.5 59.5t62.5 155.5q0 97 -62.5 156t-159.5 59h-103v-180h160v-77h-160v-173h103z" />
    <glyph glyph-name="dcroat" unicode="&#x111;" horiz-adv-x="588" 
d="M599 638v-74h-59v-564h-105l-29 49q-46 -61 -135 -61q-108 0 -179.5 74.5t-71.5 185.5q0 110 73 185t184 75q60 0 113 -32v88h-126v74h126v66h150v-66h59zM298 119q59 0 92 41v179q-35 38 -92 38q-54 0 -89 -36t-35 -93q0 -56 35 -92.5t89 -36.5z" />
    <glyph glyph-name="Emacron" unicode="&#x112;" horiz-adv-x="585" 
d="M476 883v-96h-345v96h345zM213 137h341v-137h-492v704h484v-137h-333v-149h292v-128h-292v-153z" />
    <glyph glyph-name="emacron" unicode="&#x113;" horiz-adv-x="554" 
d="M452 702v-96h-345v96h345zM167 210q7 -49 38 -76t78 -27q67 0 103 50l137 -16q-24 -68 -89 -110.5t-154 -42.5q-110 0 -185 71t-75 189q0 110 72 185t187 75q108 0 180 -69t72 -180v-49h-364zM276 389q-39 0 -68 -23t-39 -62h213q-8 37 -35.5 61t-70.5 24z" />
    <glyph glyph-name="Ebreve" unicode="&#x114;" horiz-adv-x="585" 
d="M304 760q-67 0 -113 40t-50 112h96q2 -28 20 -45t47 -17q28 0 46.5 17t19.5 45h95q-3 -72 -48.5 -112t-112.5 -40zM213 137h341v-137h-492v704h484v-137h-333v-149h292v-128h-292v-153z" />
    <glyph glyph-name="ebreve" unicode="&#x115;" horiz-adv-x="554" 
d="M280 568q-67 0 -113 40t-50 112h96q2 -28 20 -45t47 -17q28 0 46.5 17t19.5 45h95q-3 -72 -48.5 -112t-112.5 -40zM167 210q7 -49 38 -76t78 -27q67 0 103 50l137 -16q-24 -68 -89 -110.5t-154 -42.5q-110 0 -185 71t-75 189q0 110 72 185t187 75q108 0 180 -69t72 -180
v-49h-364zM276 389q-39 0 -68 -23t-39 -62h213q-8 37 -35.5 61t-70.5 24z" />
    <glyph glyph-name="Edotaccent" unicode="&#x116;" horiz-adv-x="585" 
d="M376 912v-128h-146v128h146zM213 137h341v-137h-492v704h484v-137h-333v-149h292v-128h-292v-153z" />
    <glyph glyph-name="edotaccent" unicode="&#x117;" horiz-adv-x="554" 
d="M352 720v-128h-146v128h146zM167 210q7 -49 38 -76t78 -27q67 0 103 50l137 -16q-24 -68 -89 -110.5t-154 -42.5q-110 0 -185 71t-75 189q0 110 72 185t187 75q108 0 180 -69t72 -180v-49h-364zM276 389q-39 0 -68 -23t-39 -62h213q-8 37 -35.5 61t-70.5 24z" />
    <glyph glyph-name="Eogonek" unicode="&#x118;" horiz-adv-x="585" 
d="M531 0q-37 -20 -53.5 -44t-16.5 -43q0 -37 44 -37q21 0 43 9l4 -89q-36 -12 -72 -12q-59 0 -93 25.5t-34 75.5q0 70 71 115h-362v704h484v-137h-333v-149h292v-128h-292v-153h341v-137h-23z" />
    <glyph glyph-name="eogonek" unicode="&#x119;" horiz-adv-x="554" 
d="M167 210q7 -49 38 -76t78 -27q67 0 103 50l137 -16q-21 -61 -75 -101q-82 -71 -82 -123q0 -40 46 -40q20 0 47 6l2 -87q-38 -12 -84 -12q-55 0 -89.5 25.5t-34.5 73.5q0 53 59 106q-6 0 -16 -0.5t-16 -0.5q-110 0 -185 71t-75 189q0 110 72 185t187 75q108 0 180 -69
t72 -180v-49h-364zM276 389q-39 0 -68 -23t-39 -62h213q-8 37 -35.5 61t-70.5 24z" />
    <glyph glyph-name="Ecaron" unicode="&#x11a;" horiz-adv-x="585" 
d="M366 763h-130l-128 149h126l72 -67l68 67h122zM213 137h341v-137h-492v704h484v-137h-333v-149h292v-128h-292v-153z" />
    <glyph glyph-name="ecaron" unicode="&#x11b;" horiz-adv-x="554" 
d="M342 571h-130l-128 149h126l72 -67l68 67h122zM167 210q7 -49 38 -76t78 -27q67 0 103 50l137 -16q-24 -68 -89 -110.5t-154 -42.5q-110 0 -185 71t-75 189q0 110 72 185t187 75q108 0 180 -69t72 -180v-49h-364zM276 389q-39 0 -68 -23t-39 -62h213q-8 37 -35.5 61
t-70.5 24z" />
    <glyph glyph-name="Gcircumflex" unicode="&#x11c;" horiz-adv-x="766" 
d="M383 829l-70 -66h-121l129 149h130l128 -149h-125zM717 395v-395h-102l-36 62q-74 -74 -201 -74q-151 0 -254 103t-103 261q0 153 103.5 258.5t263.5 105.5q118 0 203 -54.5t122 -151.5l-153 -18q-58 83 -173 83q-91 0 -149.5 -61.5t-58.5 -157.5q0 -105 61 -168t152 -63
q120 0 178 71v71h-204v128h351z" />
    <glyph glyph-name="gcircumflex" unicode="&#x11d;" horiz-adv-x="588" 
d="M280 632l-70 -66h-121l129 149h130l128 -149h-125zM436 496h104v-496q0 -99 -67 -157.5t-180 -58.5q-198 0 -242 154l138 17q26 -50 103 -50q98 0 98 90v59q-41 -52 -119 -52q-109 0 -180 72.5t-71 181.5q0 106 73 179t184 73q76 0 133 -49zM295 130q61 0 95 39v173
q-35 38 -95 38q-53 0 -87 -34t-34 -90q0 -55 34 -90.5t87 -35.5z" />
    <glyph glyph-name="Gbreve" unicode="&#x11e;" horiz-adv-x="766" 
d="M386 760q-67 0 -113 40t-50 112h96q2 -28 20 -45t47 -17q28 0 46.5 17t19.5 45h95q-3 -72 -48.5 -112t-112.5 -40zM717 395v-395h-102l-36 62q-74 -74 -201 -74q-151 0 -254 103t-103 261q0 153 103.5 258.5t263.5 105.5q118 0 203 -54.5t122 -151.5l-153 -18
q-58 83 -173 83q-91 0 -149.5 -61.5t-58.5 -157.5q0 -105 61 -168t152 -63q120 0 178 71v71h-204v128h351z" />
    <glyph glyph-name="gbreve" unicode="&#x11f;" horiz-adv-x="588" 
d="M283 563q-67 0 -113 40t-50 112h96q2 -28 20 -45t47 -17q28 0 46.5 17t19.5 45h95q-3 -72 -48.5 -112t-112.5 -40zM436 496h104v-496q0 -99 -67 -157.5t-180 -58.5q-198 0 -242 154l138 17q26 -50 103 -50q98 0 98 90v59q-41 -52 -119 -52q-109 0 -180 72.5t-71 181.5
q0 106 73 179t184 73q76 0 133 -49zM295 130q61 0 95 39v173q-35 38 -95 38q-53 0 -87 -34t-34 -90q0 -55 34 -90.5t87 -35.5z" />
    <glyph glyph-name="Gdotaccent" unicode="&#x120;" horiz-adv-x="766" 
d="M458 912v-128h-146v128h146zM717 395v-395h-102l-36 62q-74 -74 -201 -74q-151 0 -254 103t-103 261q0 153 103.5 258.5t263.5 105.5q118 0 203 -54.5t122 -151.5l-153 -18q-58 83 -173 83q-91 0 -149.5 -61.5t-58.5 -157.5q0 -105 61 -168t152 -63q120 0 178 71v71h-204
v128h351z" />
    <glyph glyph-name="gdotaccent" unicode="&#x121;" horiz-adv-x="588" 
d="M355 715v-128h-146v128h146zM436 496h104v-496q0 -99 -67 -157.5t-180 -58.5q-198 0 -242 154l138 17q26 -50 103 -50q98 0 98 90v59q-41 -52 -119 -52q-109 0 -180 72.5t-71 181.5q0 106 73 179t184 73q76 0 133 -49zM295 130q61 0 95 39v173q-35 38 -95 38
q-53 0 -87 -34t-34 -90q0 -55 34 -90.5t87 -35.5z" />
    <glyph glyph-name="uni0122" unicode="&#x122;" horiz-adv-x="766" 
d="M717 395v-395h-102l-36 62q-74 -74 -201 -74q-151 0 -254 103t-103 261q0 153 103.5 258.5t263.5 105.5q118 0 203 -54.5t122 -151.5l-153 -18q-58 83 -173 83q-91 0 -149.5 -61.5t-58.5 -157.5q0 -105 61 -168t152 -63q120 0 178 71v71h-204v128h351zM335 -147v99h109
v-96q-3 -61 -37 -104h-61q32 58 32 96v5h-43z" />
    <glyph glyph-name="uni0123" unicode="&#x123;" horiz-adv-x="588" 
d="M339 694v-103h-111v95q0 60 41 108h68q-38 -52 -38 -97v-3h40zM436 496h104v-496q0 -99 -67 -157.5t-180 -58.5q-198 0 -242 154l138 17q26 -50 103 -50q98 0 98 90v59q-41 -52 -119 -52q-109 0 -180 72.5t-71 181.5q0 106 73 179t184 73q76 0 133 -49zM295 130
q61 0 95 39v173q-35 38 -95 38q-53 0 -87 -34t-34 -90q0 -55 34 -90.5t87 -35.5z" />
    <glyph glyph-name="Hcircumflex" unicode="&#x124;" horiz-adv-x="732" 
d="M364 833l-70 -66h-121l129 149h130l128 -149h-125zM519 704h151v-704h-151v287h-306v-287h-151v704h151v-279h306v279z" />
    <glyph glyph-name="hcircumflex" unicode="&#x125;" horiz-adv-x="564" 
d="M128 832l-70 -66h-121l129 149h130l128 -149h-125zM320 508q93 0 146.5 -57.5t53.5 -145.5v-305h-150v282q0 44 -23.5 68t-63.5 24q-51 0 -86 -43v-331h-150v704h150v-250q49 54 123 54z" />
    <glyph glyph-name="Hbar" unicode="&#x126;" horiz-adv-x="732" 
d="M726 607v-75h-56v-532h-151v287h-306v-287h-151v532h-56v75h56v97h151v-97h306v97h151v-97h56zM519 425v107h-306v-107h306z" />
    <glyph glyph-name="hbar" unicode="&#x127;" horiz-adv-x="564" 
d="M320 508q93 0 146.5 -57.5t53.5 -145.5v-305h-150v282q0 44 -23.5 68t-63.5 24q-51 0 -86 -43v-331h-150v564h-58v74h58v66h150v-66h130v-74h-130v-110q49 54 123 54z" />
    <glyph glyph-name="Itilde" unicode="&#x128;" horiz-adv-x="275" 
d="M232 760q-32 0 -91 31t-64 31q-10 0 -10 -10v-47h-86v85q0 71 61 71q31 0 90 -31.5t67 -31.5q9 0 9 9v49h86v-87q0 -69 -62 -69zM62 0v704h151v-704h-151z" />
    <glyph glyph-name="itilde" unicode="&#x129;" horiz-adv-x="245" 
d="M216 548q-32 0 -91 31t-64 31q-10 0 -10 -10v-47h-86v85q0 71 61 71q31 0 90 -31.5t67 -31.5q9 0 9 9v49h86v-87q0 -69 -62 -69zM47 0v496h150v-496h-150z" />
    <glyph glyph-name="Imacron" unicode="&#x12a;" horiz-adv-x="275" 
d="M-34 791v96h345v-96h-345zM62 0v704h151v-704h-151z" />
    <glyph glyph-name="imacron" unicode="&#x12b;" horiz-adv-x="245" 
d="M-50 590v96h345v-96h-345zM47 0v496h150v-496h-150z" />
    <glyph glyph-name="Ibreve" unicode="&#x12c;" horiz-adv-x="275" 
d="M139 764q-67 0 -113 40t-50 112h96q2 -28 20 -45t47 -17q28 0 46.5 17t19.5 45h95q-3 -72 -48.5 -112t-112.5 -40zM62 0v704h151v-704h-151z" />
    <glyph glyph-name="ibreve" unicode="&#x12d;" horiz-adv-x="245" 
d="M123 552q-67 0 -113 40t-50 112h96q2 -28 20 -45t47 -17q28 0 46.5 17t19.5 45h95q-3 -72 -48.5 -112t-112.5 -40zM47 0v496h150v-496h-150z" />
    <glyph glyph-name="Iogonek" unicode="&#x12e;" horiz-adv-x="275" 
d="M224 -115l4 -89q-36 -12 -72 -12q-59 0 -93 25.5t-34 75.5q0 70 71 115h-38v704h151v-704h-6q-37 -20 -53.5 -44t-16.5 -43q0 -37 44 -37q21 0 43 9z" />
    <glyph glyph-name="iogonek" unicode="&#x12f;" horiz-adv-x="245" 
d="M195 704v-128h-146v128h146zM214 -115l3 -89q-36 -12 -73 -12q-58 0 -92.5 25.5t-34.5 75.5q0 71 71 115h-41v496h150v-496h-6q-34 -20 -49.5 -44t-15.5 -42q0 -37 44 -37q18 0 44 8z" />
    <glyph glyph-name="Idotaccent" unicode="&#x130;" horiz-adv-x="275" 
d="M65 788v128h146v-128h-146zM62 0v704h151v-704h-151z" />
    <glyph glyph-name="dotlessi" unicode="&#x131;" horiz-adv-x="245" 
d="M47 0v496h150v-496h-150z" />
    <glyph glyph-name="IJ" unicode="&#x132;" horiz-adv-x="653" 
d="M62 0v704h151v-704h-151zM377 -6q-52 0 -97 12l19 134q33 -11 64 -11q42 0 66 23.5t24 61.5v490h151v-491q0 -104 -61.5 -161.5t-165.5 -57.5z" />
    <glyph glyph-name="ij" unicode="&#x133;" horiz-adv-x="487" 
d="M49 576v128h146v-128h-146zM291 576v128h146v-128h-146zM47 0v496h150v-496h-150zM200 -209l14 115q14 -3 27 -3q48 0 48 50v543h150v-539q0 -84 -45.5 -129t-124.5 -44q-38 0 -69 7z" />
    <glyph glyph-name="Jcircumflex" unicode="&#x134;" horiz-adv-x="550" 
d="M426 832l-70 -66h-121l129 149h130l128 -149h-125zM350 218v486h152v-483q0 -108 -69.5 -170.5t-178.5 -62.5q-98 0 -161 47.5t-81 140.5l143 16q20 -69 99 -69q47 0 71.5 25.5t24.5 69.5z" />
    <glyph glyph-name="jcircumflex" unicode="&#x135;" horiz-adv-x="245" 
d="M120 621l-70 -66h-121l129 149h130l128 -149h-125zM47 -47v543h150v-539q0 -84 -45.5 -129t-124.5 -44q-38 0 -69 7l14 115q14 -3 27 -3q48 0 48 50z" />
    <glyph glyph-name="uni0136" unicode="&#x136;" horiz-adv-x="689" 
d="M421 396l279 -396h-184l-192 282l-111 -129v-153h-151v704h151v-356l297 356h175zM308 -147v99h109v-96q-3 -61 -37 -104h-61q32 58 32 96v5h-43z" />
    <glyph glyph-name="uni0137" unicode="&#x137;" horiz-adv-x="554" 
d="M363 293l200 -293h-178l-120 184l-68 -77v-107h-150v704h150v-416l174 208h173zM233 -147v99h109v-96q-3 -61 -37 -104h-61q32 58 32 96v5h-43z" />
    <glyph glyph-name="kgreenlandic" unicode="&#x138;" horiz-adv-x="554" 
d="M385 0l-120 184l-68 -77v-107h-150v496h150v-208l174 208h173l-181 -203l200 -293h-178z" />
    <glyph glyph-name="Lacute" unicode="&#x139;" horiz-adv-x="530" 
d="M310 915l-121 -144h-109v7l78 137h152zM213 137h307v-137h-458v704h151v-567z" />
    <glyph glyph-name="lacute" unicode="&#x13a;" horiz-adv-x="245" 
d="M65 769v7l78 137h152l-121 -144h-109zM47 0v704h150v-704h-150z" />
    <glyph glyph-name="uni013B" unicode="&#x13b;" horiz-adv-x="530" 
d="M213 137h307v-137h-458v704h151v-567zM234 -147v99h109v-96q-3 -61 -37 -104h-61q32 58 32 96v5h-43z" />
    <glyph glyph-name="uni013C" unicode="&#x13c;" horiz-adv-x="245" 
d="M47 704h150v-704h-150v704zM67 -147v99h109v-96q-3 -61 -37 -104h-61q32 58 32 96v5h-43z" />
    <glyph glyph-name="Lcaron" unicode="&#x13d;" horiz-adv-x="530" 
d="M213 137h307v-137h-458v704h151v-567zM416 704q-13 -129 -42 -216h-85q5 39 15 216h112z" />
    <glyph glyph-name="lcaron" unicode="&#x13e;" horiz-adv-x="248" 
d="M47 0v704h150v-704h-150zM232 536q10 100 12 168h107q-8 -83 -38 -168h-81z" />
    <glyph glyph-name="Ldot" unicode="&#x13f;" horiz-adv-x="530" 
d="M213 137h307v-137h-458v704h151v-567zM474 457v-155h-155v155h155z" />
    <glyph glyph-name="ldot" unicode="&#x140;" horiz-adv-x="416" 
d="M47 0v704h150v-704h-150zM253 287v155h155v-155h-155z" />
    <glyph glyph-name="Lslash" unicode="&#x141;" horiz-adv-x="530" 
d="M213 137h307v-137h-458v297l-74 -39v78l74 39v329h151v-249l161 85v-78l-161 -85v-240z" />
    <glyph glyph-name="lslash" unicode="&#x142;" horiz-adv-x="245" 
d="M273 552v-75l-76 -45v-432h-150v344l-56 -33v75l56 33v285h150v-197z" />
    <glyph glyph-name="Nacute" unicode="&#x143;" horiz-adv-x="721" 
d="M516 916l-121 -144h-109v7l78 137h152zM509 704h150v-704h-91l-356 411v-411h-150v704h86l361 -417v417z" />
    <glyph glyph-name="nacute" unicode="&#x144;" horiz-adv-x="564" 
d="M451 709l-122 -144h-110v7l78 137h154zM320 508q93 0 146.5 -57.5t53.5 -145.5v-305h-150v282q0 44 -23.5 68t-64.5 24q-50 0 -85 -43v-331h-150v496h106l32 -57q51 69 135 69z" />
    <glyph glyph-name="uni0145" unicode="&#x145;" horiz-adv-x="721" 
d="M509 704h150v-704h-91l-356 411v-411h-150v704h86l361 -417v417zM317 -147v99h109v-96q-3 -61 -37 -104h-61q32 58 32 96v5h-43z" />
    <glyph glyph-name="uni0146" unicode="&#x146;" horiz-adv-x="564" 
d="M320 508q93 0 146.5 -57.5t53.5 -145.5v-305h-150v282q0 44 -23.5 68t-64.5 24q-50 0 -85 -43v-331h-150v496h106l32 -57q51 69 135 69zM237 -147v99h109v-96q-3 -61 -37 -104h-61q32 58 32 96v5h-43z" />
    <glyph glyph-name="Ncaron" unicode="&#x147;" horiz-adv-x="721" 
d="M416 767h-130l-128 149h126l72 -67l68 67h122zM509 704h150v-704h-91l-356 411v-411h-150v704h86l361 -417v417z" />
    <glyph glyph-name="ncaron" unicode="&#x148;" horiz-adv-x="564" 
d="M346 560h-131l-129 149h127l73 -67l68 67h123zM320 508q93 0 146.5 -57.5t53.5 -145.5v-305h-150v282q0 44 -23.5 68t-64.5 24q-50 0 -85 -43v-331h-150v496h106l32 -57q51 69 135 69z" />
    <glyph glyph-name="napostrophe" unicode="&#x149;" horiz-adv-x="787" 
d="M36 553v151h150v-141q0 -100 -57 -164h-89q47 80 47 150v4h-51zM544 508q93 0 146.5 -57.5t53.5 -145.5v-305h-150v282q0 44 -23.5 68t-64.5 24q-50 0 -85 -43v-331h-150v496h106l32 -57q51 69 135 69z" />
    <glyph glyph-name="Eng" unicode="&#x14a;" horiz-adv-x="721" 
d="M509 704h150v-747q0 -85 -43.5 -129t-127.5 -44q-39 0 -68 8l13 113q20 -2 28 -2q25 0 36.5 12t11.5 38v115l-297 343v-411h-150v704h86l361 -417v417z" />
    <glyph glyph-name="eng" unicode="&#x14b;" horiz-adv-x="564" 
d="M320 508q93 0 146.5 -57.5t53.5 -145.5v-348q0 -84 -45.5 -128.5t-124.5 -44.5q-38 0 -72 6l16 117q15 -4 31 -4q24 0 34.5 12t10.5 38v329q0 44 -23.5 68t-64.5 24q-50 0 -85 -43v-331h-150v496h106l32 -57q51 69 135 69z" />
    <glyph glyph-name="Omacron" unicode="&#x14c;" horiz-adv-x="798" 
d="M226 787v96h345v-96h-345zM399 -12q-156 0 -267 105.5t-111 258.5t111 258.5t267 105.5q157 0 267.5 -105t110.5 -259q0 -152 -110.5 -258t-267.5 -106zM399 129q91 0 155.5 64t64.5 159q0 96 -64.5 159.5t-155.5 63.5q-92 0 -156 -64t-64 -159q0 -96 64 -159.5
t156 -63.5z" />
    <glyph glyph-name="omacron" unicode="&#x14d;" horiz-adv-x="590" 
d="M122 590v96h345v-96h-345zM295 -12q-120 0 -197.5 74t-77.5 186t77.5 186t197.5 74q121 0 198.5 -73.5t77.5 -186.5t-77.5 -186.5t-198.5 -73.5zM295 116q53 0 87 37.5t34 94.5t-34 94.5t-87 37.5t-87 -37.5t-34 -94.5t34 -94.5t87 -37.5z" />
    <glyph glyph-name="Obreve" unicode="&#x14e;" horiz-adv-x="798" 
d="M399 760q-67 0 -113 40t-50 112h96q2 -28 20 -45t47 -17q28 0 46.5 17t19.5 45h95q-3 -72 -48.5 -112t-112.5 -40zM399 -12q-156 0 -267 105.5t-111 258.5t111 258.5t267 105.5q157 0 267.5 -105t110.5 -259q0 -152 -110.5 -258t-267.5 -106zM399 129q91 0 155.5 64
t64.5 159q0 96 -64.5 159.5t-155.5 63.5q-92 0 -156 -64t-64 -159q0 -96 64 -159.5t156 -63.5z" />
    <glyph glyph-name="obreve" unicode="&#x14f;" horiz-adv-x="590" 
d="M295 552q-67 0 -113 40t-50 112h96q2 -28 20 -45t47 -17q28 0 46.5 17t19.5 45h95q-3 -72 -48.5 -112t-112.5 -40zM295 -12q-120 0 -197.5 74t-77.5 186t77.5 186t197.5 74q121 0 198.5 -73.5t77.5 -186.5t-77.5 -186.5t-198.5 -73.5zM295 116q53 0 87 37.5t34 94.5
t-34 94.5t-87 37.5t-87 -37.5t-34 -94.5t34 -94.5t87 -37.5z" />
    <glyph glyph-name="Ohungarumlaut" unicode="&#x150;" horiz-adv-x="798" 
d="M256 756v7l96 148h130l-137 -155h-89zM433 756v7l96 148h133l-137 -155h-92zM399 -12q-156 0 -267 105.5t-111 258.5t111 258.5t267 105.5q157 0 267.5 -105t110.5 -259q0 -152 -110.5 -258t-267.5 -106zM399 129q91 0 155.5 64t64.5 159q0 96 -64.5 159.5t-155.5 63.5
q-92 0 -156 -64t-64 -159q0 -96 64 -159.5t156 -63.5z" />
    <glyph glyph-name="ohungarumlaut" unicode="&#x151;" horiz-adv-x="590" 
d="M147 549v7l96 148h130l-137 -155h-89zM324 549v7l96 148h133l-137 -155h-92zM295 -12q-120 0 -197.5 74t-77.5 186t77.5 186t197.5 74q121 0 198.5 -73.5t77.5 -186.5t-77.5 -186.5t-198.5 -73.5zM295 116q53 0 87 37.5t34 94.5t-34 94.5t-87 37.5t-87 -37.5t-34 -94.5
t34 -94.5t87 -37.5z" />
    <glyph glyph-name="OE" unicode="&#x152;" horiz-adv-x="1007" 
d="M635 137h340v-137h-492q-48 -12 -103 -12q-155 0 -257 104t-102 260t102 260t257 104q55 0 103 -12h484v-137h-332v-149h291v-128h-291v-153zM393 126q51 0 90 18v416q-39 18 -90 18q-90 0 -152 -64t-62 -162t62 -162t152 -64z" />
    <glyph glyph-name="oe" unicode="&#x153;" horiz-adv-x="955" 
d="M568 209q7 -49 38.5 -75.5t77.5 -26.5q70 0 102 50l138 -16q-24 -68 -88.5 -110.5t-151.5 -42.5q-121 0 -194 78q-75 -78 -195 -78t-197.5 74t-77.5 186t77.5 186t197.5 74t193 -80q72 80 186 80q110 0 184 -69.5t74 -181.5v-48h-364zM677 389q-40 0 -69 -23.5t-38 -62.5
h215q-8 39 -36 62.5t-72 23.5zM295 116q53 0 87 37.5t34 94.5t-34 94.5t-87 37.5q-52 0 -86.5 -37.5t-34.5 -94.5t34.5 -94.5t86.5 -37.5z" />
    <glyph glyph-name="Racute" unicode="&#x154;" horiz-adv-x="656" 
d="M476 916l-121 -144h-109v7l78 137h152zM476 0l-165 245h-98v-245h-151v704h296q108 0 176 -65t68 -164q0 -69 -36.5 -122t-100.5 -79l191 -274h-180zM213 570v-194h126q46 0 75.5 27.5t29.5 71.5q0 43 -29.5 69t-75.5 26h-126z" />
    <glyph glyph-name="racute" unicode="&#x155;" horiz-adv-x="386" 
d="M372 720l-121 -144h-109v7l78 137h152zM310 508q32 0 66 -9l-13 -137q-34 8 -63 8q-77 0 -103 -59v-311h-150v496h106l32 -58q17 32 50.5 51t74.5 19z" />
    <glyph glyph-name="uni0156" unicode="&#x156;" horiz-adv-x="656" 
d="M465 274l191 -274h-180l-165 245h-98v-245h-151v704h296q108 0 176 -65t68 -164q0 -69 -36.5 -122t-100.5 -79zM213 570v-194h126q46 0 75.5 27.5t29.5 71.5q0 43 -29.5 69t-75.5 26h-126zM279 -147v99h109v-96q-3 -61 -37 -104h-61q32 58 32 96v5h-43z" />
    <glyph glyph-name="uni0157" unicode="&#x157;" horiz-adv-x="386" 
d="M310 508q32 0 66 -9l-13 -137q-34 8 -63 8q-77 0 -103 -59v-311h-150v496h106l32 -58q17 32 50.5 51t74.5 19zM67 -147v99h109v-96q-3 -61 -37 -104h-61q32 58 32 96v5h-43z" />
    <glyph glyph-name="Rcaron" unicode="&#x158;" horiz-adv-x="656" 
d="M376 767h-130l-128 149h126l72 -67l68 67h122zM476 0l-165 245h-98v-245h-151v704h296q108 0 176 -65t68 -164q0 -69 -36.5 -122t-100.5 -79l191 -274h-180zM213 570v-194h126q46 0 75.5 27.5t29.5 71.5q0 43 -29.5 69t-75.5 26h-126z" />
    <glyph glyph-name="rcaron" unicode="&#x159;" horiz-adv-x="386" 
d="M272 571h-130l-128 149h126l72 -67l68 67h122zM185 438q17 32 50.5 51t74.5 19q32 0 66 -9l-13 -137q-34 8 -63 8q-77 0 -103 -59v-311h-150v496h106z" />
    <glyph glyph-name="Sacute" unicode="&#x15a;" horiz-adv-x="629" 
d="M244 768v7l78 137h152l-121 -144h-109zM314 -12q-261 0 -290 206l154 17q7 -45 40 -65t97 -20q69 0 98 18t29 55q0 31 -28 49t-87 30l-68 13q-106 21 -165.5 70t-59.5 141q0 98 71 156t207 58q249 0 274 -198l-149 -18q-15 78 -123 78q-66 0 -92.5 -16.5t-26.5 -52.5
q0 -31 30 -49t101 -32l65 -14q103 -21 159 -68.5t56 -139.5q0 -104 -73.5 -161t-218.5 -57z" />
    <glyph glyph-name="sacute" unicode="&#x15b;" horiz-adv-x="487" 
d="M171 560v7l78 137h152l-121 -144h-109zM242 -12q-100 0 -155.5 37t-60.5 110l129 15q6 -31 27 -42t61 -11q78 0 78 43q0 20 -16 31t-63 17l-43 7q-173 21 -173 154q0 77 58 118t158 41q97 0 152 -37t64 -105l-139 -15q-13 48 -79 48q-63 0 -63 -39q0 -20 14.5 -31.5
t60.5 -17.5l43 -6q93 -13 134 -51.5t41 -103.5q0 -76 -59 -119t-169 -43z" />
    <glyph glyph-name="Scircumflex" unicode="&#x15c;" horiz-adv-x="629" 
d="M309 829l-70 -66h-121l129 149h130l128 -149h-125zM391 414q103 -21 159 -68.5t56 -139.5q0 -104 -73.5 -161t-218.5 -57q-261 0 -290 206l154 17q7 -45 40 -65t97 -20q69 0 98 18t29 55q0 31 -28 49t-87 30l-68 13q-106 21 -165.5 70t-59.5 141q0 98 71 156t207 58
q249 0 274 -198l-149 -18q-15 78 -123 78q-66 0 -92.5 -16.5t-26.5 -52.5q0 -31 30 -49t101 -32z" />
    <glyph glyph-name="scircumflex" unicode="&#x15d;" horiz-adv-x="487" 
d="M236 621l-70 -66h-121l129 149h130l128 -149h-125zM295 305q93 -13 134 -51.5t41 -103.5q0 -76 -59 -119t-169 -43q-100 0 -155.5 37t-60.5 110l129 15q6 -31 27 -42t61 -11q78 0 78 43q0 20 -16 31t-63 17l-43 7q-173 21 -173 154q0 77 58 118t158 41q97 0 152 -37
t64 -105l-139 -15q-13 48 -79 48q-63 0 -63 -39q0 -20 14.5 -31.5t60.5 -17.5z" />
    <glyph glyph-name="Scedilla" unicode="&#x15e;" horiz-adv-x="629" 
d="M606 206q0 -99 -67.5 -156t-200.5 -62l-6 -28q39 -8 61 -28.5t22 -51.5q0 -39 -28.5 -64.5t-74.5 -25.5q-81 0 -97 73l64 9q6 -19 33 -19q30 0 30 27t-45 27h-33l26 81q-239 10 -266 206l154 17q7 -45 40 -65t97 -20q69 0 98 18t29 55q0 31 -28 49t-87 30l-68 13
q-106 21 -165.5 70t-59.5 141q0 98 71 156t207 58q249 0 274 -198l-149 -18q-15 78 -123 78q-66 0 -92.5 -16.5t-26.5 -52.5q0 -31 30 -49t101 -32l65 -14q103 -21 159 -68.5t56 -139.5z" />
    <glyph glyph-name="scedilla" unicode="&#x15f;" horiz-adv-x="487" 
d="M470 150q0 -71 -52.5 -114t-151.5 -47l-5 -26q39 -8 61 -28.5t22 -51.5q0 -39 -28.5 -64.5t-74.5 -25.5q-81 0 -97 73l64 9q6 -19 33 -19q30 0 30 27t-45 27h-33l25 79q-181 8 -192 146l129 15q6 -31 27 -42t61 -11q78 0 78 43q0 20 -16 31t-63 17l-43 7
q-173 21 -173 154q0 77 58 118t158 41q97 0 152 -37t64 -105l-139 -15q-13 48 -79 48q-63 0 -63 -39q0 -20 14.5 -31.5t60.5 -17.5l43 -6q93 -13 134 -51.5t41 -103.5z" />
    <glyph glyph-name="Scaron" unicode="&#x160;" horiz-adv-x="629" 
d="M374 763h-130l-128 149h126l72 -67l68 67h122zM391 414q103 -21 159 -68.5t56 -139.5q0 -104 -73.5 -161t-218.5 -57q-261 0 -290 206l154 17q7 -45 40 -65t97 -20q69 0 98 18t29 55q0 31 -28 49t-87 30l-68 13q-106 21 -165.5 70t-59.5 141q0 98 71 156t207 58
q249 0 274 -198l-149 -18q-15 78 -123 78q-66 0 -92.5 -16.5t-26.5 -52.5q0 -31 30 -49t101 -32z" />
    <glyph glyph-name="scaron" unicode="&#x161;" horiz-adv-x="487" 
d="M301 555h-130l-128 149h126l72 -67l68 67h122zM295 305q93 -13 134 -51.5t41 -103.5q0 -76 -59 -119t-169 -43q-100 0 -155.5 37t-60.5 110l129 15q6 -31 27 -42t61 -11q78 0 78 43q0 20 -16 31t-63 17l-43 7q-173 21 -173 154q0 77 58 118t158 41q97 0 152 -37t64 -105
l-139 -15q-13 48 -79 48q-63 0 -63 -39q0 -20 14.5 -31.5t60.5 -17.5z" />
    <glyph glyph-name="uni0162" unicode="&#x162;" horiz-adv-x="622" 
d="M613 704v-137h-225v-567h-151v567h-228v137h604zM259 -147v99h109v-96q-3 -61 -37 -104h-61q32 58 32 96v5h-43z" />
    <glyph glyph-name="uni0163" unicode="&#x163;" horiz-adv-x="387" 
d="M371 15q-54 -27 -122 -27q-79 0 -130.5 48t-51.5 128v215h-66v117h74v101l136 81h6v-182h153v-117h-153v-190q0 -35 19.5 -53t47.5 -18q37 0 72 16zM163 -147v99h109v-96q-3 -61 -37 -104h-61q32 58 32 96v5h-43z" />
    <glyph glyph-name="Tcaron" unicode="&#x164;" horiz-adv-x="622" 
d="M376 767h-130l-128 149h126l72 -67l68 67h122zM613 704v-137h-225v-567h-151v567h-228v137h604z" />
    <glyph glyph-name="tcaron" unicode="&#x165;" horiz-adv-x="387" 
d="M371 704q-8 -83 -38 -168h-81q10 100 12 168h107zM284 118q37 0 72 16l15 -119q-54 -27 -122 -27q-79 0 -130.5 48t-51.5 128v215h-66v117h74v101l136 81h6v-182h153v-117h-153v-190q0 -35 19.5 -53t47.5 -18z" />
    <glyph glyph-name="Tbar" unicode="&#x166;" horiz-adv-x="622" 
d="M613 567h-225v-185h160v-76h-160v-306h-151v306h-150v76h150v185h-228v137h604v-137z" />
    <glyph glyph-name="tbar" unicode="&#x167;" horiz-adv-x="387" 
d="M356 134l15 -119q-54 -27 -122 -27q-79 0 -130.5 48t-51.5 128v52h-55v75h55v88h-66v117h74v101l136 81h6v-182h153v-117h-153v-88h126v-75h-126v-27q0 -35 19.5 -53t47.5 -18q37 0 72 16z" />
    <glyph glyph-name="Utilde" unicode="&#x168;" horiz-adv-x="712" 
d="M450 756q-32 0 -91 31t-64 31q-10 0 -10 -10v-47h-86v85q0 71 61 71q31 0 90 -31.5t67 -31.5q9 0 9 9v49h86v-87q0 -69 -62 -69zM357 -12q-137 0 -223 79t-86 209v428h152v-431q0 -68 43.5 -107.5t113.5 -39.5t112.5 39.5t42.5 107.5v431h151v-428q0 -130 -84 -209
t-222 -79z" />
    <glyph glyph-name="utilde" unicode="&#x169;" horiz-adv-x="564" 
d="M211 608v-47h-86v85q0 71 61 71q31 0 90 -31.5t67 -31.5q9 0 9 9v49h86v-87q0 -69 -62 -69q-32 0 -91.5 31t-63.5 31q-10 0 -10 -10zM366 496h150v-496h-105l-33 57q-51 -69 -134 -69q-95 0 -148 57t-53 146v305h150v-282q0 -44 24 -68t65 -24q53 0 84 43v331z" />
    <glyph glyph-name="Umacron" unicode="&#x16a;" horiz-adv-x="712" 
d="M184 787v96h345v-96h-345zM357 -12q-137 0 -223 79t-86 209v428h152v-431q0 -68 43.5 -107.5t113.5 -39.5t112.5 39.5t42.5 107.5v431h151v-428q0 -130 -84 -209t-222 -79z" />
    <glyph glyph-name="umacron" unicode="&#x16b;" horiz-adv-x="564" 
d="M455 694v-96h-345v96h345zM366 496h150v-496h-105l-33 57q-51 -69 -134 -69q-95 0 -148 57t-53 146v305h150v-282q0 -44 24 -68t65 -24q53 0 84 43v331z" />
    <glyph glyph-name="Ubreve" unicode="&#x16c;" horiz-adv-x="712" 
d="M357 760q-67 0 -113 40t-50 112h96q2 -28 20 -45t47 -17q28 0 46.5 17t19.5 45h95q-3 -72 -48.5 -112t-112.5 -40zM357 -12q-137 0 -223 79t-86 209v428h152v-431q0 -68 43.5 -107.5t113.5 -39.5t112.5 39.5t42.5 107.5v431h151v-428q0 -130 -84 -209t-222 -79z" />
    <glyph glyph-name="ubreve" unicode="&#x16d;" horiz-adv-x="564" 
d="M283 560q-67 0 -113 40t-50 112h96q2 -28 20 -45t47 -17q28 0 46.5 17t19.5 45h95q-3 -72 -48.5 -112t-112.5 -40zM366 496h150v-496h-105l-33 57q-51 -69 -134 -69q-95 0 -148 57t-53 146v305h150v-282q0 -44 24 -68t65 -24q53 0 84 43v331z" />
    <glyph glyph-name="Uring" unicode="&#x16e;" horiz-adv-x="712" 
d="M357 745q-46 0 -77.5 30t-31.5 72q0 44 31.5 72.5t77.5 28.5q47 0 78.5 -28.5t31.5 -72.5q0 -43 -31.5 -72.5t-78.5 -29.5zM357 808q17 0 28 11.5t11 27.5t-11 27t-28 11q-16 0 -27 -11t-11 -27t11 -27.5t27 -11.5zM357 -12q-137 0 -223 79t-86 209v428h152v-431
q0 -68 43.5 -107.5t113.5 -39.5t112.5 39.5t42.5 107.5v431h151v-428q0 -130 -84 -209t-222 -79z" />
    <glyph glyph-name="uring" unicode="&#x16f;" horiz-adv-x="564" 
d="M283 545q-46 0 -77.5 30t-31.5 72q0 44 31.5 72.5t77.5 28.5q47 0 78.5 -28.5t31.5 -72.5q0 -43 -31.5 -72.5t-78.5 -29.5zM283 685q-16 0 -27 -11t-11 -27t11 -27.5t27 -11.5q17 0 28 11.5t11 27.5t-11 27t-28 11zM366 496h150v-496h-105l-33 57q-51 -69 -134 -69
q-95 0 -148 57t-53 146v305h150v-282q0 -44 24 -68t65 -24q53 0 84 43v331z" />
    <glyph glyph-name="Uhungarumlaut" unicode="&#x170;" horiz-adv-x="712" 
d="M214 756v7l96 148h130l-137 -155h-89zM391 756v7l96 148h133l-137 -155h-92zM357 -12q-137 0 -223 79t-86 209v428h152v-431q0 -68 43.5 -107.5t113.5 -39.5t112.5 39.5t42.5 107.5v431h151v-428q0 -130 -84 -209t-222 -79z" />
    <glyph glyph-name="uhungarumlaut" unicode="&#x171;" horiz-adv-x="564" 
d="M361 712l-137 -155h-89v7l96 148h130zM312 557v7l96 148h133l-137 -155h-92zM366 165v331h150v-496h-105l-33 57q-51 -69 -134 -69q-95 0 -148 57t-53 146v305h150v-282q0 -44 24 -68t65 -24q53 0 84 43z" />
    <glyph glyph-name="Uogonek" unicode="&#x172;" horiz-adv-x="712" 
d="M512 704h151v-428q0 -103 -54 -176t-149 -99q-39 -19 -56 -43.5t-17 -44.5q0 -37 44 -37q21 0 43 9l4 -89q-36 -12 -72 -12q-59 0 -93 25.5t-34 75.5q0 60 55 104q-128 7 -207 85t-79 202v428h152v-431q0 -68 43.5 -107.5t113.5 -39.5t112.5 39.5t42.5 107.5v431z" />
    <glyph glyph-name="uogonek" unicode="&#x173;" horiz-adv-x="564" 
d="M528 -114l4 -89q-36 -12 -72 -12q-59 0 -93 25.5t-34 75.5q0 72 76 118l-31 53q-51 -69 -134 -69q-95 0 -148 57t-53 146v305h150v-282q0 -44 24 -68t65 -24q53 0 84 43v331h150v-480h1v-12h-1v-4h-7q-36 -20 -52 -43.5t-16 -42.5q0 -37 44 -37q21 0 43 9z" />
    <glyph glyph-name="Wcircumflex" unicode="&#x174;" horiz-adv-x="1069" 
d="M530 834l-70 -66h-121l129 149h130l128 -149h-125zM916 704h161l-267 -704h-110l-164 430l-168 -430h-107l-269 704h165l159 -448l169 448h97l171 -442z" />
    <glyph glyph-name="wcircumflex" unicode="&#x175;" horiz-adv-x="836" 
d="M416 629l-70 -66h-121l129 149h130l128 -149h-125zM690 496h151l-205 -496h-109l-110 259l-110 -259h-107l-206 496h163l100 -270l109 270h99l118 -276z" />
    <glyph glyph-name="Ycircumflex" unicode="&#x176;" horiz-adv-x="658" 
d="M327 833l-70 -66h-121l129 149h130l128 -149h-125zM502 704h171l-268 -439v-265h-151v265l-269 439h172l177 -285z" />
    <glyph glyph-name="ycircumflex" unicode="&#x177;" horiz-adv-x="547" 
d="M263 629l-70 -66h-121l129 149h130l128 -149h-125zM401 496h152l-307 -704h-145l108 241l-215 463h163l126 -287z" />
    <glyph glyph-name="Ydieresis" unicode="&#x178;" horiz-adv-x="658" 
d="M290 911v-121h-125v121h125zM495 911v-121h-126v121h126zM502 704h171l-268 -439v-265h-151v265l-269 439h172l177 -285z" />
    <glyph glyph-name="Zacute" unicode="&#x179;" horiz-adv-x="641" 
d="M482 913l-121 -144h-109v7l78 137h152zM251 137h365v-137h-591v77l368 490h-368v137h582v-97z" />
    <glyph glyph-name="zacute" unicode="&#x17a;" horiz-adv-x="472" 
d="M395 704l-121 -144h-109v7l78 137h152zM226 123h225v-123h-430v87l223 286h-219v123h419v-89z" />
    <glyph glyph-name="Zdotaccent" unicode="&#x17b;" horiz-adv-x="641" 
d="M392 913v-128h-146v128h146zM251 137h365v-137h-591v77l368 490h-368v137h582v-97z" />
    <glyph glyph-name="zdotaccent" unicode="&#x17c;" horiz-adv-x="472" 
d="M305 704v-128h-146v128h146zM226 123h225v-123h-430v87l223 286h-219v123h419v-89z" />
    <glyph glyph-name="Zcaron" unicode="&#x17d;" horiz-adv-x="641" 
d="M382 764h-130l-128 149h126l72 -67l68 67h122zM251 137h365v-137h-591v77l368 490h-368v137h582v-97z" />
    <glyph glyph-name="zcaron" unicode="&#x17e;" horiz-adv-x="472" 
d="M295 555h-130l-128 149h126l72 -67l68 67h122zM226 123h225v-123h-430v87l223 286h-219v123h419v-89z" />
    <glyph glyph-name="florin" unicode="&#x192;" horiz-adv-x="512" 
d="M300 511q0 -40 22 -115h134v-72h-115q28 -97 28 -151q0 -86 -58 -135.5t-159 -49.5q-64 0 -122 41l32 113q35 -21 69 -21q37 0 58.5 18.5t20.5 54.5q0 35 -25 127l-1 3h-110v72h91q-24 92 -24 132q0 87 61 137.5t159 50.5q64 0 123 -36l-33 -115q-39 18 -72 18
q-79 0 -79 -72z" />
    <glyph glyph-name="uni0218" unicode="&#x218;" horiz-adv-x="629" 
d="M391 414q103 -21 159 -68.5t56 -139.5q0 -104 -73.5 -161t-218.5 -57q-261 0 -290 206l154 17q7 -45 40 -65t97 -20q69 0 98 18t29 55q0 31 -28 49t-87 30l-68 13q-106 21 -165.5 70t-59.5 141q0 98 71 156t207 58q249 0 274 -198l-149 -18q-15 78 -123 78
q-66 0 -92.5 -16.5t-26.5 -52.5q0 -31 30 -49t101 -32zM261 -147v99h109v-96q-3 -61 -37 -104h-61q32 58 32 96v5h-43z" />
    <glyph glyph-name="uni0219" unicode="&#x219;" horiz-adv-x="487" 
d="M295 305q93 -13 134 -51.5t41 -103.5q0 -76 -59 -119t-169 -43q-100 0 -155.5 37t-60.5 110l129 15q6 -31 27 -42t61 -11q78 0 78 43q0 20 -16 31t-63 17l-43 7q-173 21 -173 154q0 77 58 118t158 41q97 0 152 -37t64 -105l-139 -15q-13 48 -79 48q-63 0 -63 -39
q0 -20 14.5 -31.5t60.5 -17.5zM190 -144v99h109v-96q-3 -61 -37 -104h-61q32 58 32 96v5h-43z" />
    <glyph glyph-name="uni021A" unicode="&#x21a;" horiz-adv-x="622" 
d="M613 704v-137h-225v-567h-151v567h-228v137h604zM259 -147v99h109v-96q-3 -61 -37 -104h-61q32 58 32 96v5h-43z" />
    <glyph glyph-name="uni021B" unicode="&#x21b;" horiz-adv-x="387" 
d="M371 15q-54 -27 -122 -27q-79 0 -130.5 48t-51.5 128v215h-66v117h74v101l136 81h6v-182h153v-117h-153v-190q0 -35 19.5 -53t47.5 -18q37 0 72 16zM163 -147v99h109v-96q-3 -61 -37 -104h-61q32 58 32 96v5h-43z" />
    <glyph glyph-name="uni0237" unicode="&#x237;" horiz-adv-x="245" 
d="M-42 -209l14 115q14 -3 27 -3q48 0 48 50v543h150v-539q0 -84 -45.5 -129t-124.5 -44q-38 0 -69 7z" />
    <glyph glyph-name="circumflex" unicode="&#x2c6;" horiz-adv-x="600" 
d="M469 555h-125l-71 66l-70 -66h-121l129 149h130z" />
    <glyph glyph-name="caron" unicode="&#x2c7;" horiz-adv-x="600" 
d="M362 704h122l-130 -149h-130l-128 149h126l72 -67z" />
    <glyph glyph-name="uni02C9" unicode="&#x2c9;" horiz-adv-x="684" 
d="M168 590v96h345v-96h-345z" />
    <glyph glyph-name="breve" unicode="&#x2d8;" horiz-adv-x="600" 
d="M240 552q-67 0 -113 40t-50 112h96q2 -28 20 -45t47 -17q28 0 46.5 17t19.5 45h95q-3 -72 -48.5 -112t-112.5 -40z" />
    <glyph glyph-name="dotaccent" unicode="&#x2d9;" horiz-adv-x="600" 
d="M49 576v128h146v-128h-146z" />
    <glyph glyph-name="ring" unicode="&#x2da;" horiz-adv-x="600" 
d="M297 537q-46 0 -77.5 30t-31.5 72q0 44 31.5 72.5t77.5 28.5q47 0 78.5 -28.5t31.5 -72.5q0 -43 -31.5 -72.5t-78.5 -29.5zM297 600q17 0 28 11.5t11 27.5t-11 27t-28 11q-16 0 -27 -11t-11 -27t11 -27.5t27 -11.5z" />
    <glyph glyph-name="ogonek" unicode="&#x2db;" horiz-adv-x="600" 
d="M287 -216q-59 0 -93 25.5t-34 75.5q0 46 33.5 83.5t84.5 53.5l66 -7v-12q-40 -19 -58 -44.5t-18 -45.5q0 -37 44 -37q20 0 43 9l4 -89q-36 -12 -72 -12z" />
    <glyph glyph-name="tilde" unicode="&#x2dc;" horiz-adv-x="600" 
d="M389 548q-31 0 -91 31t-64 31q-10 0 -10 -10v-47h-86v85q0 71 61 71q31 0 90 -31.5t67 -31.5q9 0 9 9v49h86v-87q0 -69 -62 -69z" />
    <glyph glyph-name="hungarumlaut" unicode="&#x2dd;" horiz-adv-x="600" 
d="M104 549v7l96 148h130l-137 -155h-89zM281 549v7l96 148h133l-137 -155h-92z" />
    <glyph glyph-name="gravecomb" unicode="&#x300;" horiz-adv-x="0" 
d="M-348 560l-121 144h153l77 -137v-7h-109z" />
    <glyph glyph-name="acutecomb" unicode="&#x301;" horiz-adv-x="0" 
d="M-415 560v7l78 137h152l-121 -144h-109z" />
    <glyph glyph-name="uni0302" unicode="&#x302;" horiz-adv-x="0" 
d="M-131 555h-125l-71 66l-70 -66h-121l129 149h130z" />
    <glyph glyph-name="tildecomb" unicode="&#x303;" horiz-adv-x="0" 
d="M-211 548q-31 0 -91 31t-64 31q-10 0 -10 -10v-47h-86v85q0 71 61 71q31 0 90 -31.5t67 -31.5q9 0 9 9v49h86v-87q0 -69 -62 -69z" />
    <glyph glyph-name="uni0304" unicode="&#x304;" horiz-adv-x="0" 
d="M-432 585v96h345v-96h-345z" />
    <glyph glyph-name="uni0306" unicode="&#x306;" horiz-adv-x="0" 
d="M-360 552q-67 0 -113 40t-50 112h96q2 -28 20 -45t47 -17q28 0 46.5 17t19.5 45h95q-3 -72 -48.5 -112t-112.5 -40z" />
    <glyph glyph-name="uni0307" unicode="&#x307;" horiz-adv-x="0" 
d="M-551 576v128h146v-128h-146z" />
    <glyph glyph-name="uni0308" unicode="&#x308;" horiz-adv-x="0" 
d="M-505 575v121h125v-121h-125zM-301 575v121h126v-121h-126z" />
    <glyph glyph-name="uni030A" unicode="&#x30a;" horiz-adv-x="0" 
d="M-303 537q-46 0 -77.5 30t-31.5 72q0 44 31.5 72.5t77.5 28.5q47 0 78.5 -28.5t31.5 -72.5q0 -43 -31.5 -72.5t-78.5 -29.5zM-303 600q17 0 28 11.5t11 27.5t-11 27t-28 11q-16 0 -27 -11t-11 -27t11 -27.5t27 -11.5z" />
    <glyph glyph-name="uni030B" unicode="&#x30b;" horiz-adv-x="0" 
d="M-496 549v7l96 148h130l-137 -155h-89zM-319 549v7l96 148h133l-137 -155h-92z" />
    <glyph glyph-name="uni030C" unicode="&#x30c;" horiz-adv-x="0" 
d="M-238 704h122l-130 -149h-130l-128 149h126l72 -67z" />
    <glyph glyph-name="uni0312" unicode="&#x312;" horiz-adv-x="0" 
d="M-290 683h40v-103h-111v95q0 60 41 108h68q-38 -52 -38 -97v-3z" />
    <glyph glyph-name="uni0326" unicode="&#x326;" horiz-adv-x="0" 
d="M-358 -48h109v-96q-3 -61 -37 -104h-61q32 58 32 96v5h-43v99z" />
    <glyph glyph-name="uni0327" unicode="&#x327;" horiz-adv-x="0" 
d="M-350 -46q39 -8 61 -28.5t22 -51.5q0 -39 -28.5 -64.5t-74.5 -25.5q-81 0 -97 73l64 9q6 -19 33 -19q30 0 30 27t-45 27h-33l32 99h45z" />
    <glyph glyph-name="uni0328" unicode="&#x328;" horiz-adv-x="0" 
d="M-313 -216q-59 0 -93 25.5t-34 75.5q0 46 33.5 83.5t84.5 53.5l66 -7v-12q-40 -19 -58 -44.5t-18 -45.5q0 -37 44 -37q20 0 43 9l4 -89q-36 -12 -72 -12z" />
    <glyph glyph-name="uni0335" unicode="&#x335;" horiz-adv-x="0" 
d="M-557 254v76h331v-76h-331z" />
    <glyph glyph-name="uni0374" unicode="&#x374;" horiz-adv-x="249" 
d="M26 523v7l44 174h152l-87 -181h-109z" />
    <glyph glyph-name="uni0375" unicode="&#x375;" horiz-adv-x="249" 
d="M19 -181v7l44 174h152l-87 -181h-109z" />
    <glyph glyph-name="uni037E" unicode="&#x37e;" horiz-adv-x="226" 
d="M39 469h150v-149h-150v149zM39 0v149h150v-139q0 -100 -57 -164h-90q47 77 47 150v4h-50z" />
    <glyph glyph-name="tonos" unicode="&#x384;" horiz-adv-x="600" 
d="M200 538q32 65 37 166h126q-9 -91 -67 -166h-96z" />
    <glyph glyph-name="dieresistonos" unicode="&#x385;" horiz-adv-x="600" 
d="M194 578q25 68 31 166h116q-6 -89 -56 -166h-91zM41 578v121h119v-121h-119zM364 578v121h118v-121h-118z" />
    <glyph glyph-name="Alphatonos" unicode="&#x386;" horiz-adv-x="720" 
d="M565 0l-50 120h-316l-51 -120h-155l309 704h119l306 -704h-162zM176 704q-9 -91 -67 -166h-96q32 65 37 166h126zM251 245h211l-105 250z" />
    <glyph glyph-name="anoteleia" unicode="&#x387;" horiz-adv-x="229" 
d="M37 279v155h155v-155h-155z" />
    <glyph glyph-name="Epsilontonos" unicode="&#x388;" horiz-adv-x="722" 
d="M-22 538q32 65 37 166h126q-9 -91 -67 -166h-96zM350 137h341v-137h-492v704h484v-137h-333v-149h292v-128h-292v-153z" />
    <glyph glyph-name="Etatonos" unicode="&#x389;" horiz-adv-x="861" 
d="M-22 538q32 65 37 166h126q-9 -91 -67 -166h-96zM649 704h151v-704h-151v287h-306v-287h-151v704h151v-279h306v279z" />
    <glyph glyph-name="Iotatonos" unicode="&#x38a;" horiz-adv-x="396" 
d="M-27 538q32 65 37 166h126q-9 -91 -67 -166h-96zM183 0v704h151v-704h-151z" />
    <glyph glyph-name="Omicrontonos" unicode="&#x38c;" horiz-adv-x="886" 
d="M487 -12q-156 0 -267 105.5t-111 258.5t111 258.5t267 105.5q157 0 267.5 -105t110.5 -259q0 -152 -110.5 -258t-267.5 -106zM-6 538q32 65 37 166h126q-9 -91 -67 -166h-96zM487 129q91 0 155.5 64t64.5 159q0 96 -64.5 159.5t-155.5 63.5q-92 0 -156 -64t-64 -159
q0 -96 64 -159.5t156 -63.5z" />
    <glyph glyph-name="Upsilontonos" unicode="&#x38e;" horiz-adv-x="847" 
d="M-21 538q32 65 37 166h126q-9 -91 -67 -166h-96zM691 704h171l-268 -439v-265h-151v265l-269 439h172l177 -285z" />
    <glyph glyph-name="Omegatonos" unicode="&#x38f;" horiz-adv-x="908" 
d="M651 128h213v-128h-332v211q77 13 125 63t48 121q0 77 -60.5 128.5t-154.5 51.5q-96 0 -156 -51.5t-60 -128.5q0 -72 48 -121.5t126 -62.5v-211h-332v128h212q-96 31 -154 102t-58 172q0 132 110 223t264 91q155 0 264 -90t109 -224q0 -100 -58 -171.5t-154 -102.5z
M32 704h126q-9 -91 -67 -166h-96q32 65 37 166z" />
    <glyph glyph-name="iotadieresistonos" unicode="&#x390;" horiz-adv-x="280" 
d="M48 578q25 68 31 166h116q-6 -89 -56 -166h-91zM-105 578v121h119v-121h-119zM218 578v121h118v-121h-118zM273 4q-34 -16 -80 -16q-70 -1 -110 41.5t-40 120.5v346h150v-336q0 -20 11 -31t27 -11t31 6z" />
    <glyph glyph-name="Alpha" unicode="&#x391;" horiz-adv-x="720" 
d="M565 0l-50 120h-316l-51 -120h-155l309 704h119l306 -704h-162zM251 245h211l-105 250z" />
    <glyph glyph-name="Beta" unicode="&#x392;" horiz-adv-x="652" 
d="M523 381q50 -25 77.5 -68.5t27.5 -96.5q0 -99 -66.5 -157.5t-172.5 -58.5h-327v704h314q90 0 154.5 -52.5t64.5 -142.5q0 -75 -72 -128zM358 573h-145v-159h145q39 0 61.5 22t22.5 58q0 33 -23.5 56t-60.5 23zM383 131q38 0 62.5 22t24.5 58q0 33 -26 56.5t-62 23.5h-169
v-160h170z" />
    <glyph glyph-name="Gamma" unicode="&#x393;" horiz-adv-x="530" 
d="M520 704v-137h-307v-567h-151v704h458z" />
    <glyph glyph-name="uni0394" unicode="&#x394;" horiz-adv-x="712" 
d="M416 704l303 -704h-726l305 704h118zM198 125h306l-153 366z" />
    <glyph glyph-name="Epsilon" unicode="&#x395;" horiz-adv-x="585" 
d="M213 137h341v-137h-492v704h484v-137h-333v-149h292v-128h-292v-153z" />
    <glyph glyph-name="Zeta" unicode="&#x396;" horiz-adv-x="641" 
d="M251 137h365v-137h-591v77l368 490h-368v137h582v-97z" />
    <glyph glyph-name="Eta" unicode="&#x397;" horiz-adv-x="732" 
d="M519 704h151v-704h-151v287h-306v-287h-151v704h151v-279h306v279z" />
    <glyph glyph-name="Theta" unicode="&#x398;" horiz-adv-x="798" 
d="M399 -12q-156 0 -267 105.5t-111 258.5t111 258.5t267 105.5q157 0 267.5 -105t110.5 -259q0 -152 -110.5 -258t-267.5 -106zM399 129q91 0 155.5 64t64.5 159q0 96 -64.5 159.5t-155.5 63.5q-92 0 -156 -64t-64 -159q0 -96 64 -159.5t156 -63.5zM239 304v98h312v-98
h-312z" />
    <glyph glyph-name="Iota" unicode="&#x399;" horiz-adv-x="275" 
d="M62 0v704h151v-704h-151z" />
    <glyph glyph-name="Kappa" unicode="&#x39a;" horiz-adv-x="689" 
d="M689 0h-191l-285 321v-321h-151v704h151v-318l283 318h176l-310 -344z" />
    <glyph glyph-name="Lambda" unicode="&#x39b;" horiz-adv-x="708" 
d="M716 0h-163l-203 492l-205 -492h-152l304 704h118z" />
    <glyph glyph-name="Mu" unicode="&#x39c;" horiz-adv-x="870" 
d="M808 704v-704h-142v367l-183 -367h-99l-180 360v-360h-142v704h124l254 -505l241 505h127z" />
    <glyph glyph-name="Nu" unicode="&#x39d;" horiz-adv-x="721" 
d="M509 704h150v-704h-91l-356 411v-411h-150v704h86l361 -417v417z" />
    <glyph glyph-name="Xi" unicode="&#x39e;" horiz-adv-x="601" 
d="M40 567v137h521v-137h-521zM78 287v134h445v-134h-445zM32 0v137h537v-137h-537z" />
    <glyph glyph-name="Omicron" unicode="&#x39f;" horiz-adv-x="798" 
d="M399 -12q-156 0 -267 105.5t-111 258.5t111 258.5t267 105.5q157 0 267.5 -105t110.5 -259q0 -152 -110.5 -258t-267.5 -106zM399 129q91 0 155.5 64t64.5 159q0 96 -64.5 159.5t-155.5 63.5q-92 0 -156 -64t-64 -159q0 -96 64 -159.5t156 -63.5z" />
    <glyph glyph-name="Pi" unicode="&#x3a0;" horiz-adv-x="724" 
d="M661 704v-704h-152v566h-296v-566h-151v704h599z" />
    <glyph glyph-name="Rho" unicode="&#x3a1;" horiz-adv-x="620" 
d="M356 704q105 0 173 -66.5t68 -165.5q0 -97 -67 -163.5t-174 -66.5h-143v-242h-151v704h294zM336 370q45 0 74 29t29 73q0 43 -29.5 70.5t-73.5 27.5h-123v-200h123z" />
    <glyph glyph-name="Sigma" unicode="&#x3a3;" horiz-adv-x="603" 
d="M247 137h316v-137h-534v78l207 272l-199 257v97h518v-137h-300l155 -203v-19z" />
    <glyph glyph-name="Tau" unicode="&#x3a4;" horiz-adv-x="622" 
d="M613 704v-137h-225v-567h-151v567h-228v137h604z" />
    <glyph glyph-name="Upsilon" unicode="&#x3a5;" horiz-adv-x="658" 
d="M502 704h171l-268 -439v-265h-151v265l-269 439h172l177 -285z" />
    <glyph glyph-name="Phi" unicode="&#x3a6;" horiz-adv-x="821" 
d="M805 352q0 -115 -83.5 -190.5t-238.5 -90.5v-71h-144v71q-155 15 -239 90.5t-84 190.5q0 114 85 189.5t238 91.5v71h144v-71q153 -16 237.5 -91.5t84.5 -189.5zM173 352q0 -132 166 -155v310q-166 -23 -166 -155zM483 197q165 23 165 155t-165 155v-310z" />
    <glyph glyph-name="Chi" unicode="&#x3a7;" horiz-adv-x="683" 
d="M689 0h-175l-174 242l-171 -242h-175l259 364l-243 340h173l157 -218l154 218h179l-246 -340z" />
    <glyph glyph-name="Psi" unicode="&#x3a8;" horiz-adv-x="852" 
d="M648 704h151v-244q0 -134 -76 -217t-227 -99v-144h-142v145q-152 16 -227 98.5t-75 216.5v244h152v-244q0 -156 150 -181v425h142v-426q78 12 115 56.5t37 125.5v244z" />
    <glyph glyph-name="uni03A9" unicode="&#x3a9;" horiz-adv-x="838" 
d="M580 128h213v-128h-332v211q77 13 125 63t48 121q0 77 -60.5 128.5t-154.5 51.5q-96 0 -156 -51.5t-60 -128.5q0 -72 48 -121.5t126 -62.5v-211h-332v128h212q-96 31 -154 102t-58 172q0 132 110 223t264 91q155 0 264 -90t109 -224q0 -100 -58 -171.5t-154 -102.5z" />
    <glyph glyph-name="Iotadieresis" unicode="&#x3aa;" horiz-adv-x="275" 
d="M-27 783v121h125v-121h-125zM177 783v121h126v-121h-126zM62 0v704h151v-704h-151z" />
    <glyph glyph-name="Upsilondieresis" unicode="&#x3ab;" horiz-adv-x="658" 
d="M290 904v-121h-125v121h125zM495 904v-121h-126v121h126zM502 704h171l-268 -439v-265h-151v265l-269 439h172l177 -285z" />
    <glyph glyph-name="alphatonos" unicode="&#x3ac;" horiz-adv-x="626" 
d="M394 703q-9 -91 -67 -166h-96q32 65 37 166h126zM605 123l11 -117q-33 -18 -82 -18q-84 0 -122 61q-49 -61 -142 -61q-108 0 -179 74.5t-71 185.5q0 110 72.5 185t183.5 75q75 0 132 -46l26 34h105v-336q0 -21 10.5 -31.5t26.5 -10.5q14 0 29 5zM297 119q59 0 92 41v179
q-35 38 -92 38q-54 0 -88.5 -36t-34.5 -93q0 -56 34.5 -92.5t88.5 -36.5z" />
    <glyph glyph-name="epsilontonos" unicode="&#x3ad;" horiz-adv-x="493" 
d="M362 701q-9 -91 -67 -166h-96q32 65 37 166h126zM348 150l132 -14q-11 -73 -71.5 -110.5t-162.5 -37.5q-107 0 -166 44t-59 110q0 81 77 115q-68 32 -68 101q0 68 60 109t163 41t157.5 -42t65.5 -108l-137 -15q-14 56 -87 56q-33 0 -53 -13t-20 -36q0 -50 73 -50h77v-102
h-76q-42 0 -63 -14.5t-21 -37.5q0 -49 86 -49q39 0 60.5 11.5t32.5 41.5z" />
    <glyph glyph-name="etatonos" unicode="&#x3ae;" horiz-adv-x="564" 
d="M394 704q-9 -91 -67 -166h-96q32 65 37 166h126zM320 508q93 0 146.5 -57.5t53.5 -145.5v-513h-150v490q0 44 -23.5 68t-64.5 24q-50 0 -85 -43v-331h-150v496h106l32 -57q51 69 135 69z" />
    <glyph glyph-name="iotatonos" unicode="&#x3af;" horiz-adv-x="280" 
d="M55 538q32 65 37 166h126q-9 -91 -67 -166h-96zM273 4q-34 -16 -80 -16q-70 -1 -110 41.5t-40 120.5v346h150v-336q0 -20 11 -31t27 -11t31 6z" />
    <glyph glyph-name="upsilondieresistonos" unicode="&#x3b0;" horiz-adv-x="552" 
d="M205 578q25 68 31 166h116q-6 -89 -56 -166h-91zM52 578v121h119v-121h-119zM375 578v121h118v-121h-118zM264 -12q-111 0 -166 58.5t-55 144.5v305h150v-285q0 -92 79 -92q99 0 99 149q0 125 -58 218l147 17q61 -98 61 -229q0 -125 -62 -205.5t-195 -80.5z" />
    <glyph glyph-name="alpha" unicode="&#x3b1;" horiz-adv-x="626" 
d="M605 123l11 -117q-33 -18 -82 -18q-84 0 -122 61q-49 -61 -142 -61q-108 0 -179 74.5t-71 185.5q0 110 72.5 185t183.5 75q75 0 132 -46l26 34h105v-336q0 -21 10.5 -31.5t26.5 -10.5q14 0 29 5zM297 119q59 0 92 41v179q-35 38 -92 38q-54 0 -88.5 -36t-34.5 -93
q0 -56 34.5 -92.5t88.5 -36.5z" />
    <glyph glyph-name="beta" unicode="&#x3b2;" horiz-adv-x="582" 
d="M446 378q57 -25 87 -72.5t30 -102.5q0 -92 -68.5 -153.5t-172.5 -61.5q-75 0 -126 36v-232h-150v682q0 107 63.5 174.5t176.5 67.5q111 0 176.5 -57.5t65.5 -137.5q0 -96 -82 -143zM300 116q48 0 78 25t30 67q0 40 -30 66t-77 26h-56v117h47q37 0 61 23t24 66
q0 36 -26.5 59t-64.5 23q-43 0 -66.5 -29.5t-23.5 -77.5v-325q43 -40 104 -40z" />
    <glyph glyph-name="gamma" unicode="&#x3b3;" horiz-adv-x="549" 
d="M549 496q-25 -113 -80.5 -248.5t-122.5 -247.5v-208h-150v221l-200 483h162l130 -345q67 155 112 345h149z" />
    <glyph glyph-name="delta" unicode="&#x3b4;" horiz-adv-x="587" 
d="M334 494q111 -39 172 -101.5t61 -158.5q0 -104 -77 -175t-198 -71q-122 0 -197 70.5t-75 173.5q0 77 44 133.5t121 81.5q-93 38 -93 126q0 69 59.5 106t157.5 37q101 0 177 -32l-13 -115q-73 26 -144 26q-85 0 -85 -37q0 -30 90 -64zM293 113q51 0 85.5 33.5t34.5 86.5
t-34.5 86t-85.5 33q-50 0 -84.5 -32t-34.5 -87q0 -54 34 -87t85 -33z" />
    <glyph glyph-name="epsilon" unicode="&#x3b5;" horiz-adv-x="493" 
d="M348 150l132 -14q-11 -73 -71.5 -110.5t-162.5 -37.5q-107 0 -166 44t-59 110q0 81 77 115q-68 32 -68 101q0 68 60 109t163 41t157.5 -42t65.5 -108l-137 -15q-14 56 -87 56q-33 0 -53 -13t-20 -36q0 -50 73 -50h77v-102h-76q-42 0 -63 -14.5t-21 -37.5q0 -49 86 -49
q39 0 60.5 11.5t32.5 41.5z" />
    <glyph glyph-name="zeta" unicode="&#x3b6;" horiz-adv-x="455" 
d="M339 100q104 -57 104 -132q0 -72 -67 -147l-131 16q54 59 54 93q0 18 -16.5 33.5t-56.5 36.5l-51 27q-153 80 -153 226q0 89 50.5 169.5t153.5 164.5h-206v117h409v-92q-122 -91 -187 -172t-65 -170q0 -51 26.5 -80t90.5 -65z" />
    <glyph glyph-name="eta" unicode="&#x3b7;" horiz-adv-x="564" 
d="M320 508q93 0 146.5 -57.5t53.5 -145.5v-513h-150v490q0 44 -23.5 68t-64.5 24q-50 0 -85 -43v-331h-150v496h106l32 -57q51 69 135 69z" />
    <glyph glyph-name="theta" unicode="&#x3b8;" horiz-adv-x="584" 
d="M291 716q122 0 193.5 -91t71.5 -273t-71.5 -273t-193.5 -91q-120 0 -191.5 91t-71.5 273t71.5 273t191.5 91zM291 588q-97 0 -108 -180h218q-12 180 -110 180zM291 116q96 0 110 175h-218q12 -175 108 -175z" />
    <glyph glyph-name="iota" unicode="&#x3b9;" horiz-adv-x="280" 
d="M273 4q-34 -16 -80 -16q-70 -1 -110 41.5t-40 120.5v346h150v-336q0 -20 11 -31t27 -11t31 6z" />
    <glyph glyph-name="kappa" unicode="&#x3ba;" horiz-adv-x="531" 
d="M539 0h-174l-168 209v-209h-150v496h150v-209l163 209h170l-201 -239z" />
    <glyph glyph-name="lambda" unicode="&#x3bb;" horiz-adv-x="540" 
d="M546 0h-152l-128 328l-126 -328h-146l203 503l-17 43q-9 21 -23 30.5t-41 9.5q-22 0 -45 -9l-10 120q38 19 79 19q70 0 110 -35.5t75 -124.5z" />
    <glyph glyph-name="uni03BC" unicode="&#x3bc;" horiz-adv-x="604" 
d="M583 123l11 -117q-36 -18 -82 -18q-92 0 -127 70q-39 -70 -123 -70q-42 0 -74 24v-220h-144v704h150v-282q0 -44 23 -68t63 -24q54 0 87 43v331h150v-336q0 -42 37 -42q14 0 29 5z" />
    <glyph glyph-name="nu" unicode="&#x3bd;" horiz-adv-x="531" 
d="M397 496h140q-55 -244 -225 -496h-97l-221 496h160l128 -309q77 152 115 309z" />
    <glyph glyph-name="xi" unicode="&#x3be;" horiz-adv-x="505" 
d="M377 103q102 -54 102 -132q0 -75 -67 -150l-131 16q54 57 54 92q0 21 -14.5 36t-56.5 37l-53 27q-77 39 -121 85t-44 112q0 121 119 168q-97 44 -97 146q0 77 61.5 126.5t176.5 49.5q102 0 168 -28l-16 -123q-62 28 -128 28q-108 0 -108 -70q0 -37 31 -58.5t86 -21.5h90
v-118h-112q-117 0 -117 -80q0 -33 23 -52.5t87 -53.5q11 -6 17 -9z" />
    <glyph glyph-name="omicron" unicode="&#x3bf;" horiz-adv-x="590" 
d="M295 -12q-120 0 -197.5 74t-77.5 186t77.5 186t197.5 74q121 0 198.5 -73.5t77.5 -186.5t-77.5 -186.5t-198.5 -73.5zM295 116q53 0 87 37.5t34 94.5t-34 94.5t-87 37.5t-87 -37.5t-34 -94.5t34 -94.5t87 -37.5z" />
    <glyph glyph-name="pi" unicode="&#x3c0;" horiz-adv-x="663" 
d="M647 379h-112v-216q0 -45 40 -45q20 0 35 8l13 -118q-37 -20 -88 -20q-71 0 -110.5 41.5t-39.5 119.5v230h-127v-379h-150v379h-96v117h635v-117z" />
    <glyph glyph-name="rho" unicode="&#x3c1;" horiz-adv-x="580" 
d="M297 508q121 0 192.5 -76t71.5 -181q0 -111 -71.5 -187t-182.5 -76q-63 0 -114 32v-228h-150v456q0 131 71 195.5t183 64.5zM296 116q48 0 79.5 35t31.5 100q0 58 -29.5 93.5t-79.5 35.5q-53 0 -79 -36t-26 -96v-88q38 -44 103 -44z" />
    <glyph glyph-name="sigma1" unicode="&#x3c2;" horiz-adv-x="529" 
d="M406 -179l-131 16q54 59 54 87q0 19 -10.5 32.5t-22 20.5t-40.5 22l-51 25q-42 21 -71 40.5t-57.5 47.5t-42.5 66.5t-14 85.5q0 104 68.5 174t182.5 70q98 0 163.5 -49t88.5 -138l-147 -15q-31 65 -102 65q-42 0 -71 -27t-29 -70q0 -49 28 -75.5t117 -72.5l53 -26
q101 -51 101 -131q0 -75 -67 -148z" />
    <glyph glyph-name="sigma" unicode="&#x3c3;" horiz-adv-x="632" 
d="M620 496v-117h-112q63 -56 63 -146q0 -101 -79 -173t-197 -72q-119 0 -197 74t-78 185q0 109 77 179t198 70h325zM295 119q53 0 87 36t34 92q0 55 -34 90.5t-87 35.5t-87 -35.5t-34 -90.5q0 -56 34 -92t87 -36z" />
    <glyph glyph-name="tau" unicode="&#x3c4;" horiz-adv-x="448" 
d="M436 379h-142v-219q0 -21 11 -31.5t29 -10.5q22 0 42 10l11 -119q-41 -21 -92 -21q-72 0 -111.5 41t-39.5 120v230h-132v117h424v-117z" />
    <glyph glyph-name="upsilon" unicode="&#x3c5;" horiz-adv-x="552" 
d="M264 -12q-111 0 -166 58.5t-55 144.5v305h150v-285q0 -92 79 -92q99 0 99 149q0 125 -58 218l147 17q61 -98 61 -229q0 -125 -62 -205.5t-195 -80.5z" />
    <glyph glyph-name="phi" unicode="&#x3c6;" horiz-adv-x="763" 
d="M741 276q0 -122 -77.5 -194.5t-212.5 -89.5v-200h-148v200q-129 16 -199.5 90.5t-70.5 199.5q0 120 78 220l144 -19q-72 -92 -72 -195q0 -146 120 -168v145q0 119 56 181t156 62q103 0 164.5 -63t61.5 -169zM451 120q136 25 136 159q0 49 -18 75t-50 26q-37 0 -52.5 -25
t-15.5 -79v-156z" />
    <glyph glyph-name="chi" unicode="&#x3c7;" horiz-adv-x="568" 
d="M587 -208h-162l-142 246l-142 -246h-160l225 379l-188 325h162l107 -184l105 184h158l-186 -318z" />
    <glyph glyph-name="psi" unicode="&#x3c8;" horiz-adv-x="742" 
d="M710 296q0 -273 -272 -304v-200h-129v198q-133 10 -199.5 72.5t-66.5 164.5v269h150v-244q0 -57 27.5 -89t88.5 -41v494h129v-490q69 13 95.5 55.5t26.5 114.5q0 97 -20 200h143q27 -97 27 -200z" />
    <glyph glyph-name="omega" unicode="&#x3c9;" horiz-adv-x="783" 
d="M680 503q73 -120 73 -241q0 -128 -55 -201t-155 -73q-113 0 -153 89q-42 -89 -151 -89q-101 0 -155 73t-54 199q0 137 72 240l144 -19q-36 -54 -49.5 -104t-13.5 -114q0 -144 75 -144q67 0 67 144v129h134v-130q0 -76 15.5 -109.5t50.5 -33.5q40 0 57.5 33t17.5 110
q0 116 -64 224z" />
    <glyph glyph-name="iotadieresis" unicode="&#x3ca;" horiz-adv-x="280" 
d="M-49 575v121h125v-121h-125zM155 575v121h126v-121h-126zM273 4q-34 -16 -80 -16q-70 -1 -110 41.5t-40 120.5v346h150v-336q0 -20 11 -31t27 -11t31 6z" />
    <glyph glyph-name="upsilondieresis" unicode="&#x3cb;" horiz-adv-x="552" 
d="M108 575v121h125v-121h-125zM312 575v121h126v-121h-126zM264 -12q-111 0 -166 58.5t-55 144.5v305h150v-285q0 -92 79 -92q99 0 99 149q0 125 -58 218l147 17q61 -98 61 -229q0 -125 -62 -205.5t-195 -80.5z" />
    <glyph glyph-name="omicrontonos" unicode="&#x3cc;" horiz-adv-x="590" 
d="M234 538q32 65 37 166h126q-9 -91 -67 -166h-96zM295 -12q-120 0 -197.5 74t-77.5 186t77.5 186t197.5 74q121 0 198.5 -73.5t77.5 -186.5t-77.5 -186.5t-198.5 -73.5zM295 116q53 0 87 37.5t34 94.5t-34 94.5t-87 37.5t-87 -37.5t-34 -94.5t34 -94.5t87 -37.5z" />
    <glyph glyph-name="upsilontonos" unicode="&#x3cd;" horiz-adv-x="552" 
d="M212 538q32 65 37 166h126q-9 -91 -67 -166h-96zM264 -12q-111 0 -166 58.5t-55 144.5v305h150v-285q0 -92 79 -92q99 0 99 149q0 125 -58 218l147 17q61 -98 61 -229q0 -125 -62 -205.5t-195 -80.5z" />
    <glyph glyph-name="omegatonos" unicode="&#x3ce;" horiz-adv-x="783" 
d="M494 704q-9 -91 -67 -166h-96q32 65 37 166h126zM680 503q73 -120 73 -241q0 -128 -55 -201t-155 -73q-113 0 -153 89q-42 -89 -151 -89q-101 0 -155 73t-54 199q0 137 72 240l144 -19q-36 -54 -49.5 -104t-13.5 -114q0 -144 75 -144q67 0 67 144v129h134v-130
q0 -76 15.5 -109.5t50.5 -33.5q40 0 57.5 33t17.5 110q0 116 -64 224z" />
    <glyph glyph-name="uni0400" unicode="&#x400;" horiz-adv-x="585" 
d="M360 768h-109l-121 144h153l77 -137v-7zM213 137h341v-137h-492v704h484v-137h-333v-149h292v-128h-292v-153z" />
    <glyph glyph-name="uni0401" unicode="&#x401;" horiz-adv-x="585" 
d="M253 907v-121h-125v121h125zM458 907v-121h-126v121h126zM213 137h341v-137h-492v704h484v-137h-333v-149h292v-128h-292v-153z" />
    <glyph glyph-name="uni0402" unicode="&#x402;" horiz-adv-x="807" 
d="M544 446q107 0 174.5 -65.5t67.5 -160.5q0 -101 -68.5 -166.5t-172.5 -65.5q-67 0 -102 22l16 125q33 -15 70 -15q45 0 72.5 25.5t27.5 71.5q0 43 -30.5 69t-76.5 26q-81 0 -134 -61v-251h-151v567h-228v137h604v-137h-225v-183q67 62 156 62z" />
    <glyph glyph-name="uni0403" unicode="&#x403;" horiz-adv-x="530" 
d="M440 912l-121 -144h-109v7l78 137h152zM520 704v-137h-307v-567h-151v704h458z" />
    <glyph glyph-name="uni0404" unicode="&#x404;" horiz-adv-x="734" 
d="M557 226l154 -17q-34 -97 -122 -159t-215 -62q-154 0 -253.5 105t-99.5 259q0 156 100.5 260t255.5 104q125 0 211.5 -61.5t121.5 -158.5l-154 -16q-55 95 -176 95q-75 0 -126 -42t-68 -115h300v-128h-301q16 -75 67 -118t128 -43q127 0 177 97z" />
    <glyph glyph-name="uni0405" unicode="&#x405;" horiz-adv-x="629" 
d="M314 -12q-261 0 -290 206l154 17q7 -45 40 -65t97 -20q69 0 98 18t29 55q0 31 -28 49t-87 30l-68 13q-106 21 -165.5 70t-59.5 141q0 98 71 156t207 58q249 0 274 -198l-149 -18q-15 78 -123 78q-66 0 -92.5 -16.5t-26.5 -52.5q0 -31 30 -49t101 -32l65 -14
q103 -21 159 -68.5t56 -139.5q0 -104 -73.5 -161t-218.5 -57z" />
    <glyph glyph-name="uni0406" unicode="&#x406;" horiz-adv-x="275" 
d="M62 0v704h151v-704h-151z" />
    <glyph glyph-name="uni0407" unicode="&#x407;" horiz-adv-x="275" 
d="M-26 786v121h125v-121h-125zM178 786v121h126v-121h-126zM62 0v704h151v-704h-151z" />
    <glyph glyph-name="uni0408" unicode="&#x408;" horiz-adv-x="550" 
d="M254 -12q-98 0 -161 47.5t-81 140.5l143 16q20 -69 99 -69q47 0 71.5 25.5t24.5 69.5v486h152v-483q0 -108 -69.5 -170.5t-178.5 -62.5z" />
    <glyph glyph-name="uni0409" unicode="&#x409;" horiz-adv-x="1060" 
d="M782 444q117 0 186 -61t69 -157q0 -100 -69 -163t-186 -63h-280v567h-195v-148q0 -164 -26.5 -260.5t-72 -133t-117.5 -37.5q-53 0 -96 18l14 128q25 -12 55 -12q34 0 52.5 17t30.5 78t12 176v311h495v-260h128zM776 134q45 0 74 24.5t29 67.5q0 42 -29 66.5t-74 24.5
h-122v-183h122z" />
    <glyph glyph-name="uni040A" unicode="&#x40a;" horiz-adv-x="1088" 
d="M815 435q115 0 183 -61.5t68 -155.5q0 -97 -67.5 -157.5t-181.5 -60.5h-298v301h-306v-301h-151v704h151v-272h306v272h151v-269h145zM808 134q43 0 71 22.5t28 61.5q0 38 -28 60.5t-71 22.5h-138v-167h138z" />
    <glyph glyph-name="uni040B" unicode="&#x40b;" horiz-adv-x="829" 
d="M542 432q109 0 174 -64.5t65 -171.5v-196h-151v183q0 54 -32.5 84.5t-86.5 30.5q-80 0 -123 -61v-237h-151v567h-228v137h604v-137h-225v-199q62 64 154 64z" />
    <glyph glyph-name="uni040C" unicode="&#x40c;" horiz-adv-x="684" 
d="M514 912l-121 -144h-109v7l78 137h152zM397 358l297 -358h-187l-235 288h-59v-288h-151v704h151v-286h63l227 286h175z" />
    <glyph glyph-name="uni040D" unicode="&#x40d;" horiz-adv-x="721" 
d="M439 771h-109l-121 144h153l77 -137v-7zM659 704v-704h-151v420l-356 -420h-90v704h151v-433l359 433h87z" />
    <glyph glyph-name="uni040E" unicode="&#x40e;" horiz-adv-x="642" 
d="M337 760q-67 0 -113 40t-50 112h96q2 -28 20 -45t47 -17q28 0 46.5 17t19.5 45h95q-3 -72 -48.5 -112t-112.5 -40zM506 704h155l-266 -561q-72 -152 -222 -152q-41 0 -83 13l18 125q30 -8 61 -8q32 0 63 19t47 55l-291 509h169l191 -354z" />
    <glyph glyph-name="uni040F" unicode="&#x40f;" horiz-adv-x="724" 
d="M511 704h151v-704h-220l-29 -172h-102l-30 172h-219v704h151v-567h298v567z" />
    <glyph glyph-name="uni0410" unicode="&#x410;" horiz-adv-x="720" 
d="M565 0l-50 120h-316l-51 -120h-155l309 704h119l306 -704h-162zM251 245h211l-105 250z" />
    <glyph glyph-name="uni0411" unicode="&#x411;" horiz-adv-x="632" 
d="M360 429q116 0 182.5 -59t66.5 -153q0 -96 -68 -156.5t-181 -60.5h-298v704h499v-137h-348v-138h147zM351 131q43 0 71.5 23.5t28.5 63.5q0 39 -28 61t-72 22h-137v-170h137z" />
    <glyph glyph-name="uni0412" unicode="&#x412;" horiz-adv-x="652" 
d="M523 381q50 -25 77.5 -68.5t27.5 -96.5q0 -99 -66.5 -157.5t-172.5 -58.5h-327v704h314q90 0 154.5 -52.5t64.5 -142.5q0 -75 -72 -128zM358 573h-145v-159h145q39 0 61.5 22t22.5 58q0 33 -23.5 56t-60.5 23zM383 131q38 0 62.5 22t24.5 58q0 33 -26 56.5t-62 23.5h-169
v-160h170z" />
    <glyph glyph-name="uni0413" unicode="&#x413;" horiz-adv-x="530" 
d="M520 704v-137h-307v-567h-151v704h458z" />
    <glyph glyph-name="uni0414" unicode="&#x414;" horiz-adv-x="777" 
d="M678 137h85v-298h-100l-34 161h-481l-34 -161h-100v298h64q70 62 72 263v304h528v-567zM300 412q0 -186 -72 -275h299v430h-227v-155z" />
    <glyph glyph-name="uni0415" unicode="&#x415;" horiz-adv-x="585" 
d="M213 137h341v-137h-492v704h484v-137h-333v-149h292v-128h-292v-153z" />
    <glyph glyph-name="uni0416" unicode="&#x416;" horiz-adv-x="986" 
d="M736 358l260 -358h-180l-204 290h-44v-290h-151v290h-44l-202 -290h-181l259 357l-242 347h173l194 -286h43v286h151v-286h45l196 286h170z" />
    <glyph glyph-name="uni0417" unicode="&#x417;" 
d="M468 370q53 -24 80.5 -69t27.5 -97q0 -94 -78 -155t-202 -61q-110 0 -188 52t-91 141l145 14q23 -73 132 -73q59 0 91.5 23.5t32.5 62.5q0 41 -35 64t-93 23h-77v120h75q52 0 83 21.5t31 59.5q0 39 -30.5 62.5t-87.5 23.5q-99 0 -121 -76l-142 15q18 89 85.5 142
t186.5 53q120 0 191 -59.5t71 -140.5q0 -100 -87 -146z" />
    <glyph glyph-name="uni0418" unicode="&#x418;" horiz-adv-x="721" 
d="M659 704v-704h-151v420l-356 -420h-90v704h151v-433l359 433h87z" />
    <glyph glyph-name="uni0419" unicode="&#x419;" horiz-adv-x="721" 
d="M372 763q-67 0 -113 40t-50 112h96q2 -28 20 -45t47 -17q28 0 46.5 17t19.5 45h95q-3 -72 -48.5 -112t-112.5 -40zM659 704v-704h-151v420l-356 -420h-90v704h151v-433l359 433h87z" />
    <glyph glyph-name="uni041A" unicode="&#x41a;" horiz-adv-x="684" 
d="M397 358l297 -358h-187l-235 288h-59v-288h-151v704h151v-286h63l227 286h175z" />
    <glyph glyph-name="uni041B" unicode="&#x41b;" horiz-adv-x="740" 
d="M678 704v-704h-151v567h-220v-148q0 -221 -48 -326t-172 -105q-50 0 -92 18l14 128q25 -12 55 -12q34 0 52.5 17t30.5 78t12 176v311h519z" />
    <glyph glyph-name="uni041C" unicode="&#x41c;" horiz-adv-x="870" 
d="M808 704v-704h-142v367l-183 -367h-99l-180 360v-360h-142v704h124l254 -505l241 505h127z" />
    <glyph glyph-name="uni041D" unicode="&#x41d;" horiz-adv-x="732" 
d="M519 704h151v-704h-151v287h-306v-287h-151v704h151v-279h306v279z" />
    <glyph glyph-name="uni041E" unicode="&#x41e;" horiz-adv-x="798" 
d="M399 -12q-156 0 -267 105.5t-111 258.5t111 258.5t267 105.5q157 0 267.5 -105t110.5 -259q0 -152 -110.5 -258t-267.5 -106zM399 129q91 0 155.5 64t64.5 159q0 96 -64.5 159.5t-155.5 63.5q-92 0 -156 -64t-64 -159q0 -96 64 -159.5t156 -63.5z" />
    <glyph glyph-name="uni041F" unicode="&#x41f;" horiz-adv-x="732" 
d="M670 704v-704h-151v566h-306v-566h-151v704h608z" />
    <glyph glyph-name="uni0420" unicode="&#x420;" horiz-adv-x="620" 
d="M356 704q105 0 173 -66.5t68 -165.5q0 -97 -67 -163.5t-174 -66.5h-143v-242h-151v704h294zM336 370q45 0 74 29t29 73q0 43 -29.5 70.5t-73.5 27.5h-123v-200h123z" />
    <glyph glyph-name="uni0421" unicode="&#x421;" horiz-adv-x="726" 
d="M366 -12q-154 0 -249.5 104.5t-95.5 259.5q0 156 97 260t251 104q133 0 220 -70t115 -178l-152 -17q-22 54 -68.5 89t-111.5 35q-90 0 -141.5 -63t-51.5 -160q0 -98 51.5 -160.5t141.5 -62.5q132 0 181 125l150 -16q-27 -108 -114 -179t-223 -71z" />
    <glyph glyph-name="uni0422" unicode="&#x422;" horiz-adv-x="622" 
d="M613 704v-137h-225v-567h-151v567h-228v137h604z" />
    <glyph glyph-name="uni0423" unicode="&#x423;" horiz-adv-x="642" 
d="M506 704h155l-266 -561q-72 -152 -222 -152q-41 0 -83 13l18 125q30 -8 61 -8q32 0 63 19t47 55l-291 509h169l191 -354z" />
    <glyph glyph-name="uni0424" unicode="&#x424;" horiz-adv-x="847" 
d="M829 360q0 -129 -90.5 -206t-240.5 -80v-86h-152v86q-147 5 -237.5 81.5t-90.5 204.5q0 127 91 204t237 82v70h152v-70q151 -3 241 -80t90 -206zM345 202h1v316h-1q-79 0 -124 -42t-45 -116q0 -75 44.5 -116.5t124.5 -41.5zM502 202q80 0 124.5 41.5t44.5 116.5
q0 74 -45 116t-124 42h-4v-316h4z" />
    <glyph glyph-name="uni0425" unicode="&#x425;" horiz-adv-x="683" 
d="M689 0h-175l-174 242l-171 -242h-175l259 364l-243 340h173l157 -218l154 218h179l-246 -340z" />
    <glyph glyph-name="uni0426" unicode="&#x426;" horiz-adv-x="764" 
d="M662 137h87v-298h-99l-34 161h-554v704h151v-567h298v567h151v-567z" />
    <glyph glyph-name="uni0427" unicode="&#x427;" horiz-adv-x="664" 
d="M450 704h152v-704h-152v296q-63 -62 -163 -62q-110 0 -177.5 65.5t-67.5 175.5v229h151v-216q0 -59 33.5 -89.5t91.5 -30.5q39 0 75 16.5t57 42.5v277z" />
    <glyph glyph-name="uni0428" unicode="&#x428;" horiz-adv-x="1054" 
d="M841 704h151v-704h-930v704h151v-567h238v567h152v-567h238v567z" />
    <glyph glyph-name="uni0429" unicode="&#x429;" horiz-adv-x="1095" 
d="M992 137h89v-298h-100l-35 161h-884v704h151v-567h238v567h152v-567h238v567h151v-567z" />
    <glyph glyph-name="uni042A" unicode="&#x42a;" horiz-adv-x="767" 
d="M489 444q117 0 186 -61t69 -157q0 -100 -69 -163t-186 -63h-292v567h-188v137h340v-260h140zM483 134q45 0 74 24.5t29 67.5q0 42 -29 66.5t-74 24.5h-134v-183h134z" />
    <glyph glyph-name="uni042B" unicode="&#x42b;" horiz-adv-x="886" 
d="M353 444q118 0 187 -61t69 -157q0 -100 -69.5 -163t-186.5 -63h-291v704h151v-260h140zM673 704h151v-704h-151v704zM348 134q45 0 74 24.5t29 67.5q0 42 -29 66.5t-74 24.5h-135v-183h135z" />
    <glyph glyph-name="uni042C" unicode="&#x42c;" horiz-adv-x="632" 
d="M353 444q118 0 187 -61t69 -157q0 -100 -69.5 -163t-186.5 -63h-291v704h151v-260h140zM348 134q45 0 74 24.5t29 67.5q0 42 -29 66.5t-74 24.5h-135v-183h135z" />
    <glyph glyph-name="uni042D" unicode="&#x42d;" horiz-adv-x="735" 
d="M358 716q158 0 257 -103.5t99 -260.5q0 -154 -98.5 -259t-254.5 -105q-127 0 -215 62t-123 159l152 17q53 -97 180 -97q77 0 128 43t67 118h-301v128h300q-17 73 -68 115t-126 42q-60 0 -106.5 -25t-71.5 -69l-152 16q35 96 121.5 157.5t211.5 61.5z" />
    <glyph glyph-name="uni042E" unicode="&#x42e;" horiz-adv-x="1053" 
d="M676 716q152 0 254 -104.5t102 -259.5t-102 -259.5t-254 -104.5q-135 0 -232.5 84t-119.5 215h-111v-287h-151v704h151v-279h113q23 128 120 209.5t230 81.5zM676 129q86 0 142 62.5t56 160.5t-56 160.5t-142 62.5q-87 0 -143 -62.5t-56 -160.5t56 -160.5t143 -62.5z" />
    <glyph glyph-name="uni042F" unicode="&#x42f;" horiz-adv-x="656" 
d="M594 704v-704h-152v245h-100l-163 -245h-179l188 274q-64 26 -100.5 79t-36.5 122q0 100 68 164.5t176 64.5h299zM314 376h128v194h-128q-46 0 -75.5 -26t-29.5 -69q0 -44 29 -71.5t76 -27.5z" />
    <glyph glyph-name="uni0430" unicode="&#x430;" horiz-adv-x="525" 
d="M258 508q115 0 169.5 -51t54.5 -132v-325h-104l-27 47q-61 -59 -149 -59q-84 0 -132 39t-48 106q0 136 223 169l87 13v3q0 69 -79 69q-59 0 -78 -50l-136 17q14 68 73 111t146 43zM170 147q0 -21 17.5 -33.5t43.5 -12.5q54 0 101 42v78l-54 -9q-59 -9 -83.5 -24
t-24.5 -41z" />
    <glyph glyph-name="uni0431" unicode="&#x431;" horiz-adv-x="588" 
d="M332 476q107 0 171.5 -64.5t64.5 -171.5q0 -110 -73.5 -181t-191.5 -71q-138 0 -207.5 85.5t-69.5 236.5q0 193 70 281.5t227 105.5l210 23l3 -127l-191 -21q-95 -11 -135 -53t-42 -129q55 86 164 86zM302 125q49 0 80.5 30.5t31.5 81.5q0 52 -31 81t-83 29
q-34 0 -67.5 -17.5t-54.5 -49.5q2 -80 35.5 -117.5t88.5 -37.5z" />
    <glyph glyph-name="uni0432" unicode="&#x432;" horiz-adv-x="536" 
d="M429 263q86 -31 86 -118q0 -69 -50 -107t-129 -38h-289v496h271q79 0 125 -36.5t46 -96.5q0 -66 -60 -100zM299 385h-102v-89h102q23 0 36 12.5t13 32.5t-13.5 32t-35.5 12zM316 105q22 0 35 12.5t13 32.5t-13.5 32t-35.5 12h-118v-89h119z" />
    <glyph glyph-name="uni0433" unicode="&#x433;" horiz-adv-x="411" 
d="M409 496v-117h-212v-379h-150v496h362z" />
    <glyph glyph-name="uni0434" unicode="&#x434;" horiz-adv-x="624" 
d="M548 117h71v-257h-91l-28 140h-376l-28 -140h-91v257h59q27 27 36 67t9 116v196h439v-379zM256 302q0 -123 -50 -185h192v262h-142v-77z" />
    <glyph glyph-name="uni0435" unicode="&#x435;" horiz-adv-x="554" 
d="M167 210q7 -49 38 -76t78 -27q67 0 103 50l137 -16q-24 -68 -89 -110.5t-154 -42.5q-110 0 -185 71t-75 189q0 110 72 185t187 75q108 0 180 -69t72 -180v-49h-364zM276 389q-39 0 -68 -23t-39 -62h213q-8 37 -35.5 61t-70.5 24z" />
    <glyph glyph-name="uni0436" unicode="&#x436;" horiz-adv-x="784" 
d="M613 259l179 -259h-164l-138 195h-23v-195h-149v195h-24l-137 -195h-165l185 259l-179 237h161l135 -183h24v183h149v-183h23l135 183h161z" />
    <glyph glyph-name="uni0437" unicode="&#x437;" horiz-adv-x="492" 
d="M384 260q87 -34 87 -121q0 -66 -59 -108.5t-167 -42.5q-97 0 -156 38t-73 104l137 16q9 -27 30 -38t61 -11q79 0 79 49t-84 49h-53v108h49q73 0 73 49q0 22 -19.5 34.5t-53.5 12.5q-67 0 -81 -47l-135 14q40 142 220 142q102 0 158.5 -40t56.5 -107q0 -69 -70 -101z" />
    <glyph glyph-name="uni0438" unicode="&#x438;" horiz-adv-x="578" 
d="M419 496h112v-496h-147v273l-233 -273h-104v496h146v-278z" />
    <glyph glyph-name="uni0439" unicode="&#x439;" horiz-adv-x="578" 
d="M292 552q-67 0 -113 40t-50 112h96q2 -28 20 -45t47 -17q28 0 46.5 17t19.5 45h95q-3 -72 -48.5 -112t-112.5 -40zM419 496h112v-496h-147v273l-233 -273h-104v496h146v-278z" />
    <glyph glyph-name="uni043A" unicode="&#x43a;" horiz-adv-x="557" 
d="M375 260l191 -260h-170l-144 195h-55v-195h-150v496h150v-183h55l145 183h162z" />
    <glyph glyph-name="uni043B" unicode="&#x43b;" horiz-adv-x="597" 
d="M550 496v-496h-150v379h-140v-91q0 -163 -49.5 -230t-141.5 -67q-36 0 -67 11l16 115q13 -4 32 -4q32 0 48 34t16 135v214h436z" />
    <glyph glyph-name="uni043C" unicode="&#x43c;" horiz-adv-x="664" 
d="M495 496h122v-496h-143v233l-111 -233h-69l-103 217v-217h-144v496h122l159 -331z" />
    <glyph glyph-name="uni043D" unicode="&#x43d;" horiz-adv-x="576" 
d="M378 496h150v-496h-150v194h-181v-194h-150v496h150v-182h181v182z" />
    <glyph glyph-name="uni043E" unicode="&#x43e;" horiz-adv-x="590" 
d="M295 -12q-120 0 -197.5 74t-77.5 186t77.5 186t197.5 74q121 0 198.5 -73.5t77.5 -186.5t-77.5 -186.5t-198.5 -73.5zM295 116q53 0 87 37.5t34 94.5t-34 94.5t-87 37.5t-87 -37.5t-34 -94.5t34 -94.5t87 -37.5z" />
    <glyph glyph-name="uni043F" unicode="&#x43f;" horiz-adv-x="570" 
d="M523 496v-496h-151v379h-175v-379h-150v496h476z" />
    <glyph glyph-name="uni0440" unicode="&#x440;" horiz-adv-x="588" 
d="M317 508q108 0 179.5 -74.5t71.5 -185.5q0 -110 -73 -185t-184 -75q-60 0 -113 32v-228h-150v704h105l29 -49q46 61 135 61zM290 119q54 0 89 36t35 93q0 56 -35 92.5t-89 36.5q-59 0 -92 -41v-179q35 -38 92 -38z" />
    <glyph glyph-name="uni0441" unicode="&#x441;" horiz-adv-x="541" 
d="M280 -12q-114 0 -187 72.5t-73 187.5q0 114 73 187t186 73q98 0 164 -49t89 -138l-148 -15q-32 65 -102 65q-50 0 -80.5 -33t-30.5 -90q0 -58 31 -90.5t81 -32.5q67 0 100 64l149 -17q-26 -86 -91.5 -135t-160.5 -49z" />
    <glyph glyph-name="uni0442" unicode="&#x442;" horiz-adv-x="474" 
d="M467 496v-117h-153v-379h-150v379h-153v117h456z" />
    <glyph glyph-name="uni0443" unicode="&#x443;" horiz-adv-x="547" 
d="M401 496h152l-307 -704h-145l108 241l-215 463h163l126 -287z" />
    <glyph glyph-name="uni0444" unicode="&#x444;" horiz-adv-x="759" 
d="M740 248q0 -112 -71.5 -179t-214.5 -81v-196h-149v197q-141 14 -213 81t-72 178t72 178t213 81v197h149v-196q141 -14 213.5 -81.5t72.5 -178.5zM454 112q68 10 100 43t32 93t-31.5 92t-100.5 41v-269zM174 248q0 -119 131 -136v269q-131 -17 -131 -133z" />
    <glyph glyph-name="uni0445" unicode="&#x445;" horiz-adv-x="511" 
d="M527 0h-177l-102 139l-98 -139h-166l186 246l-184 250h172l98 -132l93 132h169l-183 -238z" />
    <glyph glyph-name="uni0446" unicode="&#x446;" 
d="M519 117h70v-257h-90l-28 140h-424v496h150v-379h171v379h151v-379z" />
    <glyph glyph-name="uni0447" unicode="&#x447;" horiz-adv-x="555" 
d="M358 496h150v-496h-150v184q-48 -53 -128 -53q-86 0 -137.5 54.5t-51.5 146.5v164h150v-142q0 -41 21.5 -65t64.5 -24q53 0 81 36v195z" />
    <glyph glyph-name="uni0448" unicode="&#x448;" horiz-adv-x="847" 
d="M649 496h151v-496h-753v496h150v-379h151v379h151v-379h150v379z" />
    <glyph glyph-name="uni0449" unicode="&#x449;" horiz-adv-x="875" 
d="M800 117h70v-257h-90l-29 140h-704v496h150v-379h151v379h151v-379h150v379h151v-379z" />
    <glyph glyph-name="uni044A" unicode="&#x44a;" horiz-adv-x="617" 
d="M392 330q98 0 147.5 -45.5t49.5 -117.5q0 -78 -53 -122.5t-155 -44.5h-243v379h-133v117h283v-166h104zM375 112q29 0 46.5 15t17.5 40q0 26 -18 40.5t-46 14.5h-87v-110h87z" />
    <glyph glyph-name="uni044B" unicode="&#x44b;" horiz-adv-x="745" 
d="M299 330q98 0 147.5 -45.5t49.5 -117.5q0 -78 -53 -122.5t-155 -44.5h-241v496h150v-166h102zM548 496h150v-496h-150v496zM282 112q30 0 47 14.5t17 40.5t-18 40.5t-46 14.5h-85v-110h85z" />
    <glyph glyph-name="uni044C" unicode="&#x44c;" horiz-adv-x="527" 
d="M302 330q98 0 147.5 -45.5t49.5 -117.5q0 -78 -53.5 -122.5t-155.5 -44.5h-243v496h150v-166h105zM285 112q29 0 46 14.5t17 40.5t-17.5 40.5t-45.5 14.5h-88v-110h88z" />
    <glyph glyph-name="uni044D" unicode="&#x44d;" horiz-adv-x="552" 
d="M264 508q113 0 190.5 -73.5t77.5 -186.5t-77.5 -186.5t-192.5 -73.5q-85 0 -150.5 42.5t-97.5 117.5l139 15q38 -52 109 -52q42 0 73.5 24t44.5 66h-191v94h191q-12 42 -43 66t-73 24q-73 0 -111 -51l-138 14q32 76 98.5 118t150.5 42z" />
    <glyph glyph-name="uni044E" unicode="&#x44e;" horiz-adv-x="825" 
d="M542 508q118 0 190.5 -73t72.5 -187q0 -112 -73.5 -186t-189.5 -74q-100 0 -171 57.5t-88 148.5h-86v-194h-150v496h150v-184h88q20 88 89.5 142t167.5 54zM542 119q49 0 79 35.5t30 93.5t-30 93.5t-79 35.5q-47 0 -78.5 -35.5t-31.5 -93.5t31.5 -93.5t78.5 -35.5z" />
    <glyph glyph-name="uni044F" unicode="&#x44f;" horiz-adv-x="540" 
d="M248 496h245v-496h-151v159h-62l-113 -159h-163l130 185q-46 19 -71.5 56.5t-25.5 86.5q0 77 55.5 122.5t155.5 45.5zM252 271h90v113h-90q-29 0 -47 -15.5t-18 -40.5q0 -27 18.5 -42t46.5 -15z" />
    <glyph glyph-name="uni0450" unicode="&#x450;" horiz-adv-x="554" 
d="M345 560h-109l-121 144h153l77 -137v-7zM167 210q7 -49 38 -76t78 -27q67 0 103 50l137 -16q-24 -68 -89 -110.5t-154 -42.5q-110 0 -185 71t-75 189q0 110 72 185t187 75q108 0 180 -69t72 -180v-49h-364zM276 389q-39 0 -68 -23t-39 -62h213q-8 37 -35.5 61t-70.5 24z
" />
    <glyph glyph-name="uni0451" unicode="&#x451;" horiz-adv-x="554" 
d="M238 699v-121h-125v121h125zM443 699v-121h-126v121h126zM167 210q7 -49 38 -76t78 -27q67 0 103 50l137 -16q-24 -68 -89 -110.5t-154 -42.5q-110 0 -185 71t-75 189q0 110 72 185t187 75q108 0 180 -69t72 -180v-49h-364zM276 389q-39 0 -68 -23t-39 -62h213
q-8 37 -35.5 61t-70.5 24z" />
    <glyph glyph-name="uni0452" unicode="&#x452;" horiz-adv-x="564" 
d="M320 508q93 0 146.5 -57.5t53.5 -145.5v-348q0 -84 -45.5 -129t-124.5 -44q-38 0 -69 7l14 115q13 -3 27 -3q48 0 48 50v329q0 44 -23.5 68t-63.5 24q-51 0 -86 -43v-331h-150v564h-58v74h58v66h150v-66h130v-74h-130v-110q49 54 123 54z" />
    <glyph glyph-name="uni0453" unicode="&#x453;" horiz-adv-x="411" 
d="M403 704l-121 -144h-109v7l78 137h152zM409 496v-117h-212v-379h-150v496h362z" />
    <glyph glyph-name="uni0454" unicode="&#x454;" horiz-adv-x="552" 
d="M399 163l139 -15q-32 -75 -97.5 -117.5t-150.5 -42.5q-115 0 -192.5 73.5t-77.5 186.5t77.5 186.5t190.5 73.5q84 0 150.5 -42t98.5 -118l-138 -14q-37 51 -111 51q-42 0 -73 -24t-43 -66h191v-94h-191q13 -42 44.5 -66t73.5 -24q71 0 109 52z" />
    <glyph glyph-name="uni0455" unicode="&#x455;" horiz-adv-x="487" 
d="M242 -12q-100 0 -155.5 37t-60.5 110l129 15q6 -31 27 -42t61 -11q78 0 78 43q0 20 -16 31t-63 17l-43 7q-173 21 -173 154q0 77 58 118t158 41q97 0 152 -37t64 -105l-139 -15q-13 48 -79 48q-63 0 -63 -39q0 -20 14.5 -31.5t60.5 -17.5l43 -6q93 -13 134 -51.5
t41 -103.5q0 -76 -59 -119t-169 -43z" />
    <glyph glyph-name="uni0456" unicode="&#x456;" horiz-adv-x="245" 
d="M49 576v128h146v-128h-146zM47 0v496h150v-496h-150z" />
    <glyph glyph-name="uni0457" unicode="&#x457;" horiz-adv-x="245" 
d="M-42 578v121h125v-121h-125zM162 578v121h126v-121h-126zM47 0v496h150v-496h-150z" />
    <glyph glyph-name="uni0458" unicode="&#x458;" horiz-adv-x="245" 
d="M49 576v128h146v-128h-146zM-42 -209l14 115q14 -3 27 -3q48 0 48 50v543h150v-539q0 -84 -45.5 -129t-124.5 -44q-38 0 -69 7z" />
    <glyph glyph-name="uni0459" unicode="&#x459;" horiz-adv-x="871" 
d="M646 330q98 0 147.5 -46t49.5 -117q0 -78 -53.5 -122.5t-155.5 -44.5h-243v379h-131v-91q0 -163 -49.5 -230t-141.5 -67q-36 0 -67 11l16 115q13 -4 32 -4q32 0 48 34t16 135v214h427v-166h105zM629 112q29 0 46 14.5t17 40.5t-17.5 40.5t-45.5 14.5h-88v-110h88z" />
    <glyph glyph-name="uni045A" unicode="&#x45a;" horiz-adv-x="835" 
d="M610 320q94 0 145.5 -44t51.5 -116q0 -75 -52.5 -117.5t-152.5 -42.5h-244v206h-161v-206h-150v496h150v-176h161v176h150v-176h102zM602 109q24 0 39.5 13.5t15.5 35.5q0 20 -15 34t-40 14h-94v-97h94z" />
    <glyph glyph-name="uni045B" unicode="&#x45b;" horiz-adv-x="564" 
d="M320 508q93 0 146.5 -57.5t53.5 -145.5v-305h-150v282q0 44 -23.5 68t-63.5 24q-51 0 -86 -43v-331h-150v564h-58v74h58v66h150v-66h130v-74h-130v-110q49 54 123 54z" />
    <glyph glyph-name="uni045C" unicode="&#x45c;" horiz-adv-x="557" 
d="M451 704l-121 -144h-109v7l78 137h152zM375 260l191 -260h-170l-144 195h-55v-195h-150v496h150v-183h55l145 183h162z" />
    <glyph glyph-name="uni045D" unicode="&#x45d;" horiz-adv-x="578" 
d="M359 560h-109l-121 144h153l77 -137v-7zM419 496h112v-496h-147v273l-233 -273h-104v496h146v-278z" />
    <glyph glyph-name="uni045E" unicode="&#x45e;" horiz-adv-x="547" 
d="M276 552q-67 0 -113 40t-50 112h96q2 -28 20 -45t47 -17q28 0 46.5 17t19.5 45h95q-3 -72 -48.5 -112t-112.5 -40zM401 496h152l-307 -704h-145l108 241l-215 463h163l126 -287z" />
    <glyph glyph-name="uni045F" unicode="&#x45f;" horiz-adv-x="566" 
d="M368 496h151v-496h-171l-23 -140h-83l-22 140h-173v496h150v-379h171v379z" />
    <glyph glyph-name="uni0490" unicode="&#x490;" horiz-adv-x="534" 
d="M422 866h98v-299h-307v-567h-151v704h327z" />
    <glyph glyph-name="uni0491" unicode="&#x491;" horiz-adv-x="411" 
d="M325 631h84v-252h-212v-379h-150v496h251z" />
    <glyph glyph-name="uni0492" unicode="&#x492;" horiz-adv-x="571" 
d="M561 567h-307v-155h200v-117h-200v-295h-151v295h-103v117h103v292h458v-137z" />
    <glyph glyph-name="uni0493" unicode="&#x493;" horiz-adv-x="431" 
d="M420 379h-211v-97h163v-104h-163v-178h-151v178h-54v104h54v214h362v-117z" />
    <glyph glyph-name="uni0496" unicode="&#x496;" horiz-adv-x="1044" 
d="M896 137h154v-298h-99l-35 161h-100l-204 290h-44v-290h-151v290h-44l-202 -290h-181l259 357l-242 347h173l194 -286h43v286h151v-286h45l196 286h170l-243 -346z" />
    <glyph glyph-name="uni0497" unicode="&#x497;" horiz-adv-x="817" 
d="M711 117h101v-257h-90l-28 140h-68v3l-136 192h-23v-195h-149v195h-24l-137 -195h-165l185 259l-179 237h161l135 -183h24v183h149v-183h23l135 183h161l-173 -237z" />
    <glyph glyph-name="uni049A" unicode="&#x49a;" horiz-adv-x="705" 
d="M580 137h132v-298h-100l-34 161h-71l-235 288h-59v-288h-151v704h151v-286h63l227 286h175l-281 -346z" />
    <glyph glyph-name="uni049B" unicode="&#x49b;" horiz-adv-x="588" 
d="M480 117h103v-257h-91l-28 140h-68l-144 195h-55v-195h-150v496h150v-183h55l145 183h162l-184 -236z" />
    <glyph glyph-name="uni049C" unicode="&#x49c;" horiz-adv-x="723" 
d="M475 364l258 -364h-179l-205 293h-2v-153h-75v153h-59v-293h-151v704h151v-282h59v162h75v-162h2l197 282h173z" />
    <glyph glyph-name="uni049D" unicode="&#x49d;" horiz-adv-x="595" 
d="M603 0h-167l-126 190v-118h-74v122h-39v-194h-150v496h150v-183h39v108h74v-108h1l125 183h160l-173 -241z" />
    <glyph glyph-name="uni04A2" unicode="&#x4a2;" horiz-adv-x="772" 
d="M670 137h87v-298h-99l-34 161h-105v287h-306v-287h-151v704h151v-279h306v279h151v-567z" />
    <glyph glyph-name="uni04A3" unicode="&#x4a3;" horiz-adv-x="604" 
d="M528 117h71v-257h-91l-28 140h-102v194h-181v-194h-150v496h150v-182h181v182h150v-379z" />
    <glyph glyph-name="uni04AE" unicode="&#x4ae;" horiz-adv-x="658" 
d="M502 704h171l-268 -439v-265h-151v265l-269 439h172l177 -285z" />
    <glyph glyph-name="uni04AF" unicode="&#x4af;" horiz-adv-x="538" 
d="M395 496h149l-200 -482v-222h-150v222l-200 482h160l121 -310z" />
    <glyph glyph-name="uni04B0" unicode="&#x4b0;" horiz-adv-x="658" 
d="M405 265v-37h152v-75h-152v-153h-151v153h-151v75h151v37l-269 439h172l177 -285l168 285h171z" />
    <glyph glyph-name="uni04B1" unicode="&#x4b1;" horiz-adv-x="538" 
d="M344 14v-44h123v-74h-123v-104h-150v104h-120v74h120v44l-200 482h160l121 -310l120 310h149z" />
    <glyph glyph-name="uni04B2" unicode="&#x4b2;" horiz-adv-x="692" 
d="M591 137h115v-298h-98l-35 161h-59l-174 242l-171 -242h-175l259 364l-243 340h173l157 -218l154 218h179l-246 -340z" />
    <glyph glyph-name="uni04B3" unicode="&#x4b3;" horiz-adv-x="539" 
d="M440 117h97v-257h-91l-28 140h-68l-102 139l-98 -139h-166l186 246l-184 250h172l98 -132l93 132h169l-183 -238z" />
    <glyph glyph-name="uni04B8" unicode="&#x4b8;" horiz-adv-x="666" 
d="M453 704h152v-704h-152v297q-40 -40 -97 -56v-139h-70v132q-109 2 -175.5 67t-66.5 174v229h152v-216q0 -99 90 -117v176h70v-175q63 13 97 55v277z" />
    <glyph glyph-name="uni04B9" unicode="&#x4b9;" horiz-adv-x="555" 
d="M358 496h150v-496h-150v184q-19 -22 -49 -36v-114h-63v98q-5 -1 -16 -1q-86 0 -137.5 54.5t-51.5 146.5v164h150v-142q0 -69 55 -85v114h63v-114q30 9 49 32v195z" />
    <glyph glyph-name="uni04BA" unicode="&#x4ba;" horiz-adv-x="665" 
d="M385 465q107 0 172 -65.5t65 -175.5v-224h-152v210q0 121 -124 121q-36 0 -74 -17.5t-59 -41.5v-272h-151v704h151v-303q67 64 172 64z" />
    <glyph glyph-name="uni04BB" unicode="&#x4bb;" horiz-adv-x="564" 
d="M320 508q93 0 146.5 -57.5t53.5 -145.5v-305h-150v282q0 44 -23.5 68t-63.5 24q-51 0 -86 -43v-331h-150v704h150v-250q49 54 123 54z" />
    <glyph glyph-name="uni04C0" unicode="&#x4c0;" horiz-adv-x="275" 
d="M62 0v704h151v-704h-151z" />
    <glyph glyph-name="uni04CF" unicode="&#x4cf;" horiz-adv-x="245" 
d="M47 0v704h150v-704h-150z" />
    <glyph glyph-name="uni04D8" unicode="&#x4d8;" horiz-adv-x="779" 
d="M385 716q165 0 269.5 -106t104.5 -258q0 -95 -46 -178t-131 -134.5t-189 -51.5q-164 0 -268 105t-104 262q0 23 2 57h570q-18 72 -73.5 119t-133.5 47q-104 0 -167 -80l-160 18q42 86 127.5 143t198.5 57zM390 129q76 0 130.5 43t72.5 117h-406q19 -74 73.5 -117
t129.5 -43z" />
    <glyph glyph-name="uni04D9" unicode="&#x4d9;" horiz-adv-x="554" 
d="M274 508q110 0 185 -71t75 -189q0 -110 -72 -185t-187 -75q-108 0 -180 69t-72 180v49h364q-7 49 -38 76t-78 27q-67 0 -103 -50l-137 16q24 68 89 110.5t154 42.5zM278 107q39 0 68 23t39 62h-213q8 -37 35.5 -61t70.5 -24z" />
    <glyph glyph-name="uni04E8" unicode="&#x4e8;" horiz-adv-x="798" 
d="M399 716q157 0 267.5 -105t110.5 -259q0 -152 -110.5 -258t-267.5 -106q-156 0 -267 105.5t-111 258.5t111 258.5t267 105.5zM399 575q-75 0 -133.5 -44.5t-78.5 -115.5h424q-20 72 -78.5 116t-133.5 44zM399 129q75 0 134 45t78 118h-424q19 -73 77.5 -118t134.5 -45z
" />
    <glyph glyph-name="uni04E9" unicode="&#x4e9;" horiz-adv-x="590" 
d="M295 508q121 0 198.5 -73.5t77.5 -186.5t-77.5 -186.5t-198.5 -73.5q-120 0 -197.5 74t-77.5 186t77.5 186t197.5 74zM295 380q-40 0 -70 -22.5t-43 -59.5h226q-13 37 -43 59.5t-70 22.5zM295 116q41 0 71.5 23t42.5 63h-228q12 -40 42.5 -63t71.5 -23z" />
    <glyph glyph-name="Wgrave" unicode="&#x1e80;" horiz-adv-x="1069" 
d="M600 773h-109l-121 144h153l77 -137v-7zM916 704h161l-267 -704h-110l-164 430l-168 -430h-107l-269 704h165l159 -448l169 448h97l171 -442z" />
    <glyph glyph-name="wgrave" unicode="&#x1e81;" horiz-adv-x="836" 
d="M486 568h-109l-121 144h153l77 -137v-7zM690 496h151l-205 -496h-109l-110 259l-110 -259h-107l-206 496h163l100 -270l109 270h99l118 -276z" />
    <glyph glyph-name="Wacute" unicode="&#x1e82;" horiz-adv-x="1069" 
d="M695 917l-121 -144h-109v7l78 137h152zM916 704h161l-267 -704h-110l-164 430l-168 -430h-107l-269 704h165l159 -448l169 448h97l171 -442z" />
    <glyph glyph-name="wacute" unicode="&#x1e83;" horiz-adv-x="836" 
d="M581 712l-121 -144h-109v7l78 137h152zM690 496h151l-205 -496h-109l-110 259l-110 -259h-107l-206 496h163l100 -270l109 270h99l118 -276z" />
    <glyph glyph-name="Wdieresis" unicode="&#x1e84;" horiz-adv-x="1069" 
d="M493 912v-121h-125v121h125zM698 912v-121h-126v121h126zM916 704h161l-267 -704h-110l-164 430l-168 -430h-107l-269 704h165l159 -448l169 448h97l171 -442z" />
    <glyph glyph-name="wdieresis" unicode="&#x1e85;" horiz-adv-x="836" 
d="M379 707v-121h-125v121h125zM584 707v-121h-126v121h126zM690 496h151l-205 -496h-109l-110 259l-110 -259h-107l-206 496h163l100 -270l109 270h99l118 -276z" />
    <glyph glyph-name="uni1E9E" unicode="&#x1e9e;" horiz-adv-x="732" 
d="M505 424q93 -8 149.5 -68.5t56.5 -141.5q0 -99 -67.5 -162.5t-189.5 -63.5q-92 0 -163 45l24 114q52 -31 120 -31q55 0 87 27.5t32 70.5q0 39 -31.5 65t-97.5 26q-48 0 -96 -25l-15 101l176 192h-128q-162 0 -162 -155v-418h-152v416q0 132 85.5 210t224.5 78h324v-103z
" />
    <glyph glyph-name="Ygrave" unicode="&#x1ef2;" horiz-adv-x="658" 
d="M397 772h-109l-121 144h153l77 -137v-7zM502 704h171l-268 -439v-265h-151v265l-269 439h172l177 -285z" />
    <glyph glyph-name="ygrave" unicode="&#x1ef3;" horiz-adv-x="547" 
d="M333 568h-109l-121 144h153l77 -137v-7zM401 496h152l-307 -704h-145l108 241l-215 463h163l126 -287z" />
    <glyph glyph-name="uni2011" unicode="&#x2011;" horiz-adv-x="385" 
d="M40 325l212 28l93 -98l-212 -28z" />
    <glyph glyph-name="endash" unicode="&#x2013;" horiz-adv-x="532" 
d="M40 227v126h452v-126h-452z" />
    <glyph glyph-name="emdash" unicode="&#x2014;" horiz-adv-x="1052" 
d="M40 227v126h972v-126h-972z" />
    <glyph glyph-name="uni2015" unicode="&#x2015;" horiz-adv-x="1000" 
d="M40 227v126h920v-126h-920z" />
    <glyph glyph-name="quoteleft" unicode="&#x2018;" horiz-adv-x="221" 
d="M134 550h51v-151h-150v141q0 100 57 164h89q-47 -80 -47 -150v-4z" />
    <glyph glyph-name="quoteright" unicode="&#x2019;" horiz-adv-x="221" 
d="M36 704h150v-141q0 -100 -57 -164h-89q47 80 47 150v4h-51v151z" />
    <glyph glyph-name="quotesinglbase" unicode="&#x201a;" horiz-adv-x="221" 
d="M36 151h150v-141q0 -100 -57 -164h-89q47 80 47 150v4h-51v151z" />
    <glyph glyph-name="quotedblleft" unicode="&#x201c;" horiz-adv-x="421" 
d="M134 554v-4h51v-151h-150v141q0 100 57 164h89q-47 -80 -47 -150zM334 550h51v-151h-150v141q0 100 57 164h89q-47 -80 -47 -150v-4z" />
    <glyph glyph-name="quotedblright" unicode="&#x201d;" horiz-adv-x="421" 
d="M36 553v151h150v-141q0 -100 -57 -164h-89q47 80 47 150v4h-51zM236 704h150v-141q0 -100 -57 -164h-89q47 80 47 150v4h-51v151z" />
    <glyph glyph-name="quotedblbase" unicode="&#x201e;" horiz-adv-x="421" 
d="M36 0v151h150v-141q0 -100 -57 -164h-89q47 80 47 150v4h-51zM236 151h150v-141q0 -100 -57 -164h-89q47 80 47 150v4h-51v151z" />
    <glyph glyph-name="dagger" unicode="&#x2020;" horiz-adv-x="536" 
d="M422 392h103v-127h-103l-95 7l11 -378v-102h-141v102l13 378l-95 -7h-102v127h102l94 -6l-12 216v102h141v-102l-10 -216z" />
    <glyph glyph-name="daggerdbl" unicode="&#x2021;" horiz-adv-x="536" 
d="M422 330l-91 6v-176l91 6h103v-127h-103l-95 7l9 -152v-102h-139v102l11 152l-93 -7h-102v127h102l90 -6v176l-90 -6h-102v127h102l93 -7l-11 152v102h139v-102l-9 -152l95 7h103v-127h-103z" />
    <glyph glyph-name="bullet" unicode="&#x2022;" horiz-adv-x="333" 
d="M44 614l289 -257l-289 -256v147l115 107l-115 106v153z" />
    <glyph glyph-name="ellipsis" unicode="&#x2026;" horiz-adv-x="654" 
d="M37 0v152h152v-152h-152zM251 0v152h152v-152h-152zM465 0v152h152v-152h-152z" />
    <glyph glyph-name="perthousand" unicode="&#x2030;" horiz-adv-x="1186" 
d="M190 324q-81 0 -127.5 51.5t-46.5 144.5q1 93 48 144.5t126 51.5q82 0 128 -51t46 -145q0 -93 -46.5 -144.5t-127.5 -51.5zM126 0l454 704h99l-453 -704h-100zM190 416q33 0 49.5 28t16.5 76q0 52 -15 78t-51 26q-66 0 -66 -104q0 -48 16.5 -76t49.5 -28zM1002 -12
q-79 0 -124 51.5t-45 144.5q0 94 45 145t124 51q80 0 124 -50.5t44 -145.5q0 -93 -44.5 -144.5t-123.5 -51.5zM618 -15q-82 0 -128 51.5t-46 144.5t47 144.5t127 51.5q82 0 128 -51t46 -145q0 -93 -46.5 -144.5t-127.5 -51.5zM1002 80q66 0 66 104t-66 104q-67 0 -67 -104
t67 -104zM618 77q32 0 49 28t17 76q0 105 -66 105t-66 -105q0 -48 16.5 -76t49.5 -28z" />
    <glyph glyph-name="guilsinglleft" unicode="&#x2039;" horiz-adv-x="313" 
d="M293 463l-119 -182l118 -180l-134 -19l-139 198l139 202z" />
    <glyph glyph-name="guilsinglright" unicode="&#x203a;" horiz-adv-x="313" 
d="M155 482l139 -202l-139 -198l-134 19l118 180l-119 182z" />
    <glyph glyph-name="fraction" unicode="&#x2044;" horiz-adv-x="44" 
d="M-254 0l453 704h99l-453 -704h-99z" />
    <glyph glyph-name="uni2070" unicode="&#x2070;" horiz-adv-x="382" 
d="M192 324q-79 0 -124 51.5t-45 144.5q0 94 45 145t124 51q80 0 124 -50.5t44 -145.5q0 -93 -44.5 -144.5t-123.5 -51.5zM192 416q66 0 66 104t-66 104q-67 0 -67 -104t67 -104z" />
    <glyph glyph-name="uni2074" unicode="&#x2074;" horiz-adv-x="382" 
d="M348 493v-79h-44v-78h-98v78h-191v57l169 233h120v-211h44zM128 493h78v113z" />
    <glyph glyph-name="uni2075" unicode="&#x2075;" horiz-adv-x="382" 
d="M198 582q59 0 98.5 -35.5t39.5 -89.5q0 -59 -43 -96t-114 -37q-54 0 -94 25.5t-55 72.5l100 16q13 -32 52 -32q23 0 37.5 13t14.5 34t-14.5 34t-37.5 13q-37 0 -52 -23l-95 10l34 217h246v-82h-168l-10 -51q27 11 61 11z" />
    <glyph glyph-name="uni2076" unicode="&#x2076;" horiz-adv-x="382" 
d="M219 578q58 0 94 -33t36 -86q0 -58 -42 -96.5t-114 -38.5q-73 0 -118 49t-45 143t44.5 147t120.5 53q120 0 148 -101l-93 -10q-18 29 -54 29q-60 0 -64 -92q30 36 87 36zM196 406q22 0 36.5 14t14.5 36t-13.5 36t-37.5 14q-43 0 -63 -38q10 -62 63 -62z" />
    <glyph glyph-name="uni2077" unicode="&#x2077;" horiz-adv-x="382" 
d="M41 704h301v-62l-161 -306h-106l156 283h-190v85z" />
    <glyph glyph-name="uni2078" unicode="&#x2078;" horiz-adv-x="382" 
d="M294 525q55 -27 55 -86q0 -50 -41 -82.5t-116 -32.5q-76 0 -117 32.5t-41 82.5q0 59 55 86q-47 25 -47 80q0 48 39 79.5t111 31.5q71 0 110 -31.5t39 -79.5q0 -55 -47 -80zM192 638q-27 0 -41 -12t-14 -29t14 -29t41 -12q26 0 40 12.5t14 28.5q0 17 -13.5 29t-40.5 12z
M192 405q28 0 42 12t14 30q0 17 -14 29t-42 12t-42.5 -12t-14.5 -29q0 -18 14.5 -30t42.5 -12z" />
    <glyph glyph-name="uni2079" unicode="&#x2079;" horiz-adv-x="382" 
d="M189 716q73 0 118 -49t45 -143t-44.5 -147t-120.5 -53q-120 0 -148 101l93 10q18 -29 54 -29q60 0 64 92q-30 -36 -87 -36q-58 0 -94 33t-36 86q0 58 42 96.5t114 38.5zM186 534q43 0 63 38q-10 62 -63 62q-22 0 -36.5 -14t-14.5 -36t13.5 -36t37.5 -14z" />
    <glyph glyph-name="uni207A" unicode="&#x207a;" horiz-adv-x="385" 
d="M343 560v-83h-107v-97h-86v97h-108v83h108v97h86v-97h107z" />
    <glyph glyph-name="uni207B" unicode="&#x207b;" horiz-adv-x="387" 
d="M43 477v83h301v-83h-301z" />
    <glyph glyph-name="uni207C" unicode="&#x207c;" horiz-adv-x="387" 
d="M43 537v84h301v-84h-301zM43 416v84h301v-84h-301z" />
    <glyph glyph-name="uni207D" unicode="&#x207d;" horiz-adv-x="192" 
d="M105 277q-68 101 -68 243t68 243l83 -9q-59 -98 -59 -234q0 -134 59 -234z" />
    <glyph glyph-name="uni207E" unicode="&#x207e;" horiz-adv-x="192" 
d="M87 763q68 -101 68 -243t-68 -243l-83 9q59 98 59 234q0 134 -59 234z" />
    <glyph glyph-name="nmod" unicode="&#x207f;" horiz-adv-x="435" 
d="M246 716q73 0 113.5 -42.5t40.5 -109.5v-228h-106v214q0 36 -20.5 55t-55.5 19q-22 0 -41.5 -11t-27.5 -25v-252h-108v368h75l25 -40q37 52 105 52z" />
    <glyph glyph-name="uni2080" unicode="&#x2080;" horiz-adv-x="382" 
d="M192 -12q-79 0 -124 51.5t-45 144.5q0 94 45 145t124 51q80 0 124 -50.5t44 -145.5q0 -93 -44.5 -144.5t-123.5 -51.5zM192 80q66 0 66 104t-66 104q-67 0 -67 -104t67 -104z" />
    <glyph glyph-name="uni2081" unicode="&#x2081;" horiz-adv-x="382" 
d="M208 368h65v-368h-104v255l-108 -39l-9 88z" />
    <glyph glyph-name="uni2082" unicode="&#x2082;" horiz-adv-x="382" 
d="M195 86h147v-86h-300v48l122 115q34 32 46 48.5t12 36.5q0 18 -12 30t-32 12q-42 0 -50 -51l-93 8q19 133 149 133q67 0 105 -34t38 -88q0 -40 -23 -72t-82 -78z" />
    <glyph glyph-name="uni2083" unicode="&#x2083;" horiz-adv-x="382" 
d="M288 191q56 -22 56 -87q0 -50 -42.5 -83t-113.5 -33q-69 0 -112 31t-47 86l95 8q11 -40 62 -40q24 0 38.5 10.5t14.5 27.5q0 39 -57 39h-39v69h35q52 0 52 39q0 16 -12.5 26.5t-37.5 10.5q-47 0 -53 -42l-96 9q6 52 44.5 85t109.5 33q69 0 109.5 -32t40.5 -80
q0 -54 -47 -77z" />
    <glyph glyph-name="uni2084" unicode="&#x2084;" horiz-adv-x="382" 
d="M348 157v-79h-44v-78h-98v78h-191v57l169 233h120v-211h44zM128 157h78v113z" />
    <glyph glyph-name="uni2085" unicode="&#x2085;" horiz-adv-x="382" 
d="M198 246q59 0 98.5 -35.5t39.5 -89.5q0 -59 -43 -96t-114 -37q-54 0 -94 25.5t-55 72.5l100 16q13 -32 52 -32q23 0 37.5 13t14.5 34t-14.5 34t-37.5 13q-37 0 -52 -23l-95 10l34 217h246v-82h-168l-10 -51q27 11 61 11z" />
    <glyph glyph-name="uni2086" unicode="&#x2086;" horiz-adv-x="382" 
d="M219 242q58 0 94 -33t36 -86q0 -58 -42 -96.5t-114 -38.5q-73 0 -118 49t-45 143t44.5 147t120.5 53q120 0 148 -101l-93 -10q-18 29 -54 29q-60 0 -64 -92q30 36 87 36zM196 70q22 0 36.5 14t14.5 36t-13.5 36t-37.5 14q-43 0 -63 -38q10 -62 63 -62z" />
    <glyph glyph-name="uni2087" unicode="&#x2087;" horiz-adv-x="382" 
d="M41 368h301v-62l-161 -306h-106l156 283h-190v85z" />
    <glyph glyph-name="uni2088" unicode="&#x2088;" horiz-adv-x="382" 
d="M294 189q55 -27 55 -86q0 -50 -41 -82.5t-116 -32.5q-76 0 -117 32.5t-41 82.5q0 59 55 86q-47 25 -47 80q0 48 39 79.5t111 31.5q71 0 110 -31.5t39 -79.5q0 -55 -47 -80zM192 302q-27 0 -41 -12t-14 -29t14 -29t41 -12q26 0 40 12.5t14 28.5q0 17 -13.5 29t-40.5 12z
M192 69q28 0 42 12t14 30q0 17 -14 29t-42 12t-42.5 -12t-14.5 -29q0 -18 14.5 -30t42.5 -12z" />
    <glyph glyph-name="uni2089" unicode="&#x2089;" horiz-adv-x="382" 
d="M189 380q73 0 118 -49t45 -143t-44.5 -147t-120.5 -53q-120 0 -148 101l93 10q18 -29 54 -29q60 0 64 92q-30 -36 -87 -36q-58 0 -94 33t-36 86q0 58 42 96.5t114 38.5zM186 198q43 0 63 38q-10 62 -63 62q-22 0 -36.5 -14t-14.5 -36t13.5 -36t37.5 -14z" />
    <glyph glyph-name="uni208A" unicode="&#x208a;" horiz-adv-x="385" 
d="M343 224v-83h-107v-97h-86v97h-108v83h108v97h86v-97h107z" />
    <glyph glyph-name="uni208B" unicode="&#x208b;" horiz-adv-x="387" 
d="M43 141v83h301v-83h-301z" />
    <glyph glyph-name="uni208C" unicode="&#x208c;" horiz-adv-x="387" 
d="M43 200v84h301v-84h-301zM43 79v84h301v-84h-301z" />
    <glyph glyph-name="uni208D" unicode="&#x208d;" horiz-adv-x="192" 
d="M105 -59q-68 101 -68 243t68 243l83 -9q-59 -98 -59 -234q0 -134 59 -234z" />
    <glyph glyph-name="uni208E" unicode="&#x208e;" horiz-adv-x="192" 
d="M87 427q68 -101 68 -243t-68 -243l-83 9q59 98 59 234q0 134 -59 234z" />
    <glyph glyph-name="Euro" unicode="&#x20ac;" horiz-adv-x="773" 
d="M419 129q132 0 181 125l150 -16q-27 -108 -113.5 -179t-222.5 -71q-127 0 -216 73t-118 191h-70v72h59q-1 9 -1 28v20h-58v72h68q27 121 118 196.5t220 75.5q133 0 220 -70t115 -178l-152 -17q-22 54 -68.5 89t-111.5 35q-66 0 -112.5 -35.5t-66.5 -95.5h226v-72h-239
q-1 -7 -1 -20q0 -19 1 -28h239v-72h-223q21 -57 66.5 -90t109.5 -33z" />
    <glyph glyph-name="uni20B9" unicode="&#x20b9;" horiz-adv-x="576" 
d="M535 704v-122h-171q41 -28 54 -82h117v-72h-112q-7 -62 -48.5 -107t-106.5 -62l242 -259h-192l-264 278v68h86q49 0 80.5 21.5t42.5 60.5h-209v72h209q-11 39 -42.5 60.5t-80.5 21.5h-86v122h481z" />
    <glyph glyph-name="uni20BA" unicode="&#x20ba;" 
d="M434 304l141 -21q-27 -283 -362 -283h-105v274l-98 -38v75l98 38v48l-98 -38v75l98 38v232h151v-174l185 72v-75l-185 -71v-48l185 71v-75l-184 -71v-195h2q73 0 117 38.5t55 127.5z" />
    <glyph glyph-name="uni20BD" unicode="&#x20bd;" horiz-adv-x="659" 
d="M411 283h-145v-84h213v-72h-213v-127h-151v127h-106v72h106v84h-106v93h106v328h290q98 0 164.5 -59t66.5 -154q0 -98 -61.5 -153t-163.5 -55zM266 572v-196h102q52 0 81 27.5t29 71.5q0 42 -29.5 69.5t-80.5 27.5h-102z" />
    <glyph glyph-name="uni2113" unicode="&#x2113;" horiz-adv-x="402" 
d="M271 107q20 0 45 17l17 -107q-46 -29 -93 -29q-77 -1 -121 41.5t-44 127.5v32l-52 -49l-7 70l59 56v279q0 81 38.5 126t111.5 45q64 0 100.5 -36.5t36.5 -108.5q0 -60 -25.5 -110.5t-85.5 -107.5l-26 -24v-172q0 -50 46 -50zM225 566v-158l15 14q60 60 60 146
q0 55 -36 55q-39 0 -39 -57z" />
    <glyph glyph-name="uni2116" unicode="&#x2116;" horiz-adv-x="1051" 
d="M838 404q-74 0 -122 44t-48 112q0 69 48 112.5t122 43.5t122 -43.5t48 -112.5q0 -68 -48 -112t-122 -44zM451 304v400h149v-704h-90l-298 394v-394h-150v704h86zM838 626q-28 0 -48 -18t-20 -48t20 -48t48 -18t47.5 18t19.5 48t-19.5 48t-47.5 18zM683 275v93h313v-93
h-313z" />
    <glyph glyph-name="published" unicode="&#x2117;" horiz-adv-x="800" 
d="M400 716q162 0 268 -106t106 -258q0 -153 -105 -258.5t-269 -105.5q-162 0 -268 106t-106 258t106 258t268 106zM400 56q123 0 210 84t87 212t-87 212t-210 84t-210 -84t-87 -212t87 -212t210 -84zM442 546q61 0 99 -37t38 -93q0 -54 -37.5 -90.5t-99.5 -36.5h-65v-121
h-109v378h174zM421 373q19 0 32.5 11.5t13.5 31.5q0 21 -13.5 31.5t-32.5 10.5h-44v-85h44z" />
    <glyph glyph-name="trademark" unicode="&#x2122;" horiz-adv-x="907" 
d="M14 616v88h355v-88h-125v-292h-104v292h-126zM860 704v-380h-96v174l-99 -174h-59l-99 175v-175h-96v380h84l142 -254l139 254h84z" />
    <glyph glyph-name="uni2126" unicode="&#x2126;" horiz-adv-x="838" 
d="M580 128h213v-128h-332v211q77 13 125 63t48 121q0 77 -60.5 128.5t-154.5 51.5q-96 0 -156 -51.5t-60 -128.5q0 -72 48 -121.5t126 -62.5v-211h-332v128h212q-96 31 -154 102t-58 172q0 132 110 223t264 91q155 0 264 -90t109 -224q0 -100 -58 -171.5t-154 -102.5z" />
    <glyph glyph-name="estimated" unicode="&#x212e;" horiz-adv-x="888" 
d="M444 -12q-179 0 -289.5 102t-110.5 262q0 155 110.5 259.5t289.5 104.5q178 0 289 -110t111 -266h-636q-16 0 -16 -12v-172q0 -34 16 -48q94 -80 236 -80q166 0 248 100h72q-45 -62 -128 -101t-192 -39zM208 380h472q12 0 12 12v160q0 26 -16 40q-98 84 -232 84
q-152 0 -236 -84q-16 -16 -16 -40v-160q0 -12 16 -12z" />
    <glyph glyph-name="oneeighth" unicode="&#x215b;" horiz-adv-x="811" 
d="M175 336v255l-108 -39l-9 88l156 64h65v-368h-104zM581 704h99l-453 -704h-99zM720 189q55 -27 55 -86q0 -50 -41 -82.5t-116 -32.5q-76 0 -117 32.5t-41 82.5q0 59 55 86q-47 25 -47 80q0 48 39 79.5t111 31.5q71 0 110 -31.5t39 -79.5q0 -55 -47 -80zM618 302
q-27 0 -41 -12t-14 -29t14 -29t41 -12q26 0 40 12.5t14 28.5q0 17 -13.5 29t-40.5 12zM618 69q28 0 42 12t14 30q0 17 -14 29t-42 12t-42.5 -12t-14.5 -29q0 -18 14.5 -30t42.5 -12z" />
    <glyph glyph-name="threeeighths" unicode="&#x215c;" horiz-adv-x="811" 
d="M344 440q0 -50 -42.5 -83t-113.5 -33q-69 0 -112 31t-47 86l95 8q11 -40 62 -40q24 0 38.5 10.5t14.5 27.5q0 39 -57 39h-39v69h35q52 0 52 39q0 16 -12.5 26.5t-37.5 10.5q-47 0 -53 -42l-96 9q6 52 44.5 85t109.5 33q69 0 109.5 -32t40.5 -80q0 -54 -47 -77
q56 -22 56 -87zM581 704h99l-453 -704h-99zM720 189q55 -27 55 -86q0 -50 -41 -82.5t-116 -32.5q-76 0 -117 32.5t-41 82.5q0 59 55 86q-47 25 -47 80q0 48 39 79.5t111 31.5q71 0 110 -31.5t39 -79.5q0 -55 -47 -80zM618 302q-27 0 -41 -12t-14 -29t14 -29t41 -12
q26 0 40 12.5t14 28.5q0 17 -13.5 29t-40.5 12zM618 69q28 0 42 12t14 30q0 17 -14 29t-42 12t-42.5 -12t-14.5 -29q0 -18 14.5 -30t42.5 -12z" />
    <glyph glyph-name="fiveeighths" unicode="&#x215d;" horiz-adv-x="811" 
d="M336 457q0 -59 -43 -96t-114 -37q-54 0 -94 25.5t-55 72.5l100 16q13 -32 52 -32q23 0 37.5 13t14.5 34t-14.5 34t-37.5 13q-37 0 -52 -23l-95 10l34 217h246v-82h-168l-10 -51q27 11 61 11q59 0 98.5 -35.5t39.5 -89.5zM581 704h99l-453 -704h-99zM720 189
q55 -27 55 -86q0 -50 -41 -82.5t-116 -32.5q-76 0 -117 32.5t-41 82.5q0 59 55 86q-47 25 -47 80q0 48 39 79.5t111 31.5q71 0 110 -31.5t39 -79.5q0 -55 -47 -80zM618 302q-27 0 -41 -12t-14 -29t14 -29t41 -12q26 0 40 12.5t14 28.5q0 17 -13.5 29t-40.5 12zM618 69
q28 0 42 12t14 30q0 17 -14 29t-42 12t-42.5 -12t-14.5 -29q0 -18 14.5 -30t42.5 -12z" />
    <glyph glyph-name="seveneighths" unicode="&#x215e;" horiz-adv-x="811" 
d="M215 336h-106l156 283h-190v85h301v-62zM581 704h99l-453 -704h-99zM720 189q55 -27 55 -86q0 -50 -41 -82.5t-116 -32.5q-76 0 -117 32.5t-41 82.5q0 59 55 86q-47 25 -47 80q0 48 39 79.5t111 31.5q71 0 110 -31.5t39 -79.5q0 -55 -47 -80zM618 302q-27 0 -41 -12
t-14 -29t14 -29t41 -12q26 0 40 12.5t14 28.5q0 17 -13.5 29t-40.5 12zM618 69q28 0 42 12t14 30q0 17 -14 29t-42 12t-42.5 -12t-14.5 -29q0 -18 14.5 -30t42.5 -12z" />
    <glyph glyph-name="arrowleft" unicode="&#x2190;" horiz-adv-x="724" 
d="M705 420v-136h-506l178 -244l-145 -16l-238 328l235 328l148 -16l-179 -244h507z" />
    <glyph glyph-name="arrowup" unicode="&#x2191;" horiz-adv-x="679" 
d="M662 475l-16 -143l-239 180v-512h-135v511l-239 -173l-15 137l322 241z" />
    <glyph glyph-name="arrowright" unicode="&#x2192;" horiz-adv-x="724" 
d="M489 680l238 -328l-235 -328l-148 16l179 244h-507v136h506l-178 244z" />
    <glyph glyph-name="arrowdown" unicode="&#x2193;" horiz-adv-x="679" 
d="M646 366l15 -137l-322 -241l-322 241l16 143l239 -180v512h135v-511z" />
    <glyph glyph-name="arrowboth" unicode="&#x2194;" horiz-adv-x="928" 
d="M691 680l238 -328l-235 -328l-148 16l179 244h-524l178 -244l-145 -16l-238 328l235 328l148 -16l-179 -244h524l-178 244z" />
    <glyph glyph-name="arrowupdn" unicode="&#x2195;" horiz-adv-x="678" 
d="M406 168l238 135l14 -127l-320 -188l-319 188l15 131l238 -139v369l-238 -134l-15 126l319 187l320 -188l-14 -130l-238 138v-368z" />
    <glyph glyph-name="uni2196" unicode="&#x2196;" horiz-adv-x="713" 
d="M672 96l-110 -80l-341 453l-99 -294l-100 108l130 386h412l72 -125l-300 2z" />
    <glyph glyph-name="uni2197" unicode="&#x2197;" horiz-adv-x="693" 
d="M672 294l-92 -111l-115 283l-306 -449l-115 80l312 449l-292 -2l64 125h395z" />
    <glyph glyph-name="uni2198" unicode="&#x2198;" horiz-adv-x="713" 
d="M591 525l99 -107l-128 -386h-413l-73 125l305 -2l-342 449l109 79l346 -450z" />
    <glyph glyph-name="uni2199" unicode="&#x2199;" horiz-adv-x="690" 
d="M648 606l-308 -451l293 2l-64 -125h-402l-142 369l93 111l107 -288l307 460z" />
    <glyph glyph-name="partialdiff" unicode="&#x2202;" 
d="M257 716q65 0 119.5 -18.5t99 -56.5t69.5 -105t25 -157q0 -183 -82.5 -287t-218.5 -104q-113 0 -177.5 62.5t-64.5 161.5q0 103 64.5 170.5t168.5 67.5q113 0 157 -71q0 105 -47.5 154.5t-126.5 49.5q-69 0 -128 -35l-26 130q76 38 168 38zM273 122q47 0 84.5 37.5
t51.5 104.5q-17 28 -50.5 45t-72.5 17q-46 0 -77 -30t-31 -80q0 -41 24.5 -67.5t70.5 -26.5z" />
    <glyph glyph-name="emptyset" unicode="&#x2205;" 
d="M604 653l-110 -124q65 -70 65 -169q0 -104 -73.5 -178t-185.5 -74q-81 0 -144 41l-72 -80h-87l109 122q-64 72 -64 169q0 105 73.5 178.5t184.5 73.5q79 0 144 -41l73 82h87zM158 360q0 -46 24 -83l187 210q-34 16 -69 16q-60 0 -101 -40t-41 -103zM442 360q0 47 -24 84
l-187 -210q31 -17 69 -17q60 0 101 40t41 103z" />
    <glyph glyph-name="uni2206" unicode="&#x2206;" horiz-adv-x="712" 
d="M416 704l303 -704h-726l305 704h118zM198 125h306l-153 366z" />
    <glyph glyph-name="product" unicode="&#x220f;" horiz-adv-x="751" 
d="M689 704v-912h-151v777h-325v-777h-151v912h627z" />
    <glyph glyph-name="summation" unicode="&#x2211;" horiz-adv-x="626" 
d="M233 -71h367v-137h-572v77l242 380l-242 374v81h570v-137h-359l200 -320z" />
    <glyph glyph-name="minus" unicode="&#x2212;" 
d="M61 295v120h473v-120h-473z" />
    <glyph glyph-name="uni2215" unicode="&#x2215;" 
d="M47 -52l344 808h157l-344 -808h-157z" />
    <glyph glyph-name="uni2219" unicode="&#x2219;" 
d="M219 279v155h155v-155h-155z" />
    <glyph glyph-name="radical" unicode="&#x221a;" 
d="M469 704h153l-280 -912h-103l-134 324h-108v131h198l81 -222z" />
    <glyph glyph-name="infinity" unicode="&#x221e;" horiz-adv-x="1041" 
d="M778 592q102 0 169 -65t67 -167q0 -100 -67 -166t-171 -66q-66 0 -119.5 26.5t-113.5 92.5l-22 24l-22 -24q-58 -65 -113 -92t-120 -27q-105 0 -171.5 65t-66.5 167q0 100 67 166t171 66q125 0 233 -119l22 -24l22 24q59 65 114 92t121 27zM413 331l27 29l-27 29
q-46 50 -77.5 68t-67.5 18q-48 0 -80 -33t-32 -82q0 -51 32 -83t80 -32q36 0 68 18t77 68zM774 245q47 0 79.5 33t32.5 82q0 50 -32.5 82.5t-79.5 32.5q-37 0 -69 -18t-77 -68l-26 -29l27 -29q46 -50 77 -68t68 -18z" />
    <glyph glyph-name="integral" unicode="&#x222b;" horiz-adv-x="437" 
d="M112 -216q-60 0 -113 34l32 114q29 -15 60 -15q75 0 75 72q0 36 -13 120l-41 245q-17 98 -17 171q0 87 58 139t154 52q64 0 114 -29l-33 -117q-36 13 -62 13q-76 0 -76 -73q0 -50 12 -117l38 -232q20 -123 20 -189q0 -87 -55.5 -137.5t-152.5 -50.5z" />
    <glyph glyph-name="approxequal" unicode="&#x2248;" 
d="M421 366q-53 0 -121 23l-36 12q-42 14 -64 14q-28 0 -28 -28v-10h-125v35q0 60 33.5 96t93.5 36q52 0 120 -23l36 -12q43 -14 65 -14q28 0 28 28v10h124v-35q0 -60 -33.5 -96t-92.5 -36zM421 167q-53 0 -121 23l-36 12q-42 14 -64 14q-28 0 -28 -28v-10h-125v35
q0 60 33.5 96t93.5 36q52 0 120 -23l36 -12q43 -14 65 -14q28 0 28 28v10h124v-35q0 -60 -33.5 -96t-92.5 -36z" />
    <glyph glyph-name="notequal" unicode="&#x2260;" 
d="M534 395h-181l-37 -80h218v-120h-272l-48 -105h-72l48 105h-129v120h183l37 80h-220v121h274l45 98h72l-45 -98h127v-121z" />
    <glyph glyph-name="lessequal" unicode="&#x2264;" 
d="M522 678v-130l-260 -104l260 -101v-137l-456 190v91zM66 49v119h456v-119h-456z" />
    <glyph glyph-name="greaterequal" unicode="&#x2265;" 
d="M72 678l456 -198v-90l-456 -184v131l261 98l-261 107v136zM72 49v119h456v-119h-456z" />
    <glyph glyph-name="filledbox" unicode="&#x25a0;" horiz-adv-x="695" 
d="M0 0v704h695v-704h-695z" />
    <glyph glyph-name="uni25A1" unicode="&#x25a1;" horiz-adv-x="695" 
d="M0 0v704h695v-704h-695zM145 131h405v442h-405v-442z" />
    <glyph glyph-name="uni25B6" unicode="&#x25b6;" horiz-adv-x="610" 
d="M0 -12v728l632 -364z" />
    <glyph glyph-name="uni25B7" unicode="&#x25b7;" horiz-adv-x="610" 
d="M0 716l631 -364l-631 -364v728zM383 354l-249 136v-276z" />
    <glyph glyph-name="uni25C0" unicode="&#x25c0;" horiz-adv-x="610" 
d="M630 -11l-630 364l630 364v-728z" />
    <glyph glyph-name="uni25C1" unicode="&#x25c1;" horiz-adv-x="610" 
d="M-21 352l631 364v-728zM476 214v276l-249 -136z" />
    <glyph glyph-name="lozenge" unicode="&#x25ca;" 
d="M350 704l212 -351l-212 -353h-104l-214 353l214 351h104zM298 163l110 191l-112 184l-109 -183z" />
    <glyph glyph-name="uni25FB" unicode="&#x25fb;" horiz-adv-x="494" 
d="M0 0v496h493v-496h-493zM125 120h243v256h-243v-256z" />
    <glyph glyph-name="uni25FC" unicode="&#x25fc;" horiz-adv-x="494" 
d="M0 0v496h493v-496h-493z" />
    <glyph glyph-name="uniF8FF" unicode="&#xf8ff;" horiz-adv-x="511" 
d="M0 0v704h511v-704h-511zM128 125h255v454h-255v-454z" />
    <glyph glyph-name="uniFEFF" unicode="&#xfeff;" horiz-adv-x="418" 
 />
    <glyph glyph-name="i.loclTRK" horiz-adv-x="245" 
d="M49 576v128h146v-128h-146zM47 0v496h150v-496h-150z" />
    <glyph glyph-name="f.alt" horiz-adv-x="358" 
d="M223 519v-23h131v-117h-131v-379h-151v379h-71v117h71v17q0 91 47.5 147t150.5 56q44 0 85 -11l-14 -120q-24 8 -50 8q-31 0 -49.5 -19.5t-18.5 -54.5z" />
    <glyph glyph-name="f_b" horiz-adv-x="928" 
d="M291 593q-31 0 -49.5 -19.5t-18.5 -54.5v-23h131v-117h-131v-379h-151v379h-71v117h71v17q0 91 47.5 147t150.5 56q44 0 85 -11l-14 -120q-24 8 -50 8zM658 508q108 0 179.5 -74.5t71.5 -185.5q0 -110 -73 -185t-183 -75q-81 0 -137 51l-22 -39h-106v704h150v-240
q46 44 120 44zM632 119q54 0 88.5 36t34.5 93q0 56 -35 92.5t-89 36.5q-57 0 -93 -41v-176q33 -41 94 -41z" />
    <glyph glyph-name="f_f_b" horiz-adv-x="1244" 
d="M607 593q-31 0 -49.5 -19.5t-18.5 -54.5v-23h131v-117h-131v-379h-151v379h-165v-379h-151v379h-71v117h71v17q0 91 48.5 147t155.5 56q40 0 85 -12l-14 -120q-27 9 -56 9q-31 0 -49.5 -19.5t-18.5 -54.5v-23h165v17q0 91 47.5 147t150.5 56q44 0 85 -11l-14 -120
q-24 8 -50 8zM973 508q108 0 179.5 -74.5t71.5 -185.5q0 -110 -73 -185t-183 -75q-81 0 -137 51l-22 -39h-106v704h150v-240q46 44 120 44zM947 119q54 0 88.5 36t34.5 93q0 56 -35 92.5t-89 36.5q-57 0 -93 -41v-176q33 -41 94 -41z" />
    <glyph glyph-name="f_f_h" horiz-adv-x="1219" 
d="M607 593q-31 0 -49.5 -19.5t-18.5 -54.5v-23h131v-117h-131v-379h-151v379h-165v-379h-151v379h-71v117h71v17q0 91 48.5 147t155.5 56q40 0 85 -12l-14 -120q-27 9 -56 9q-31 0 -49.5 -19.5t-18.5 -54.5v-23h165v17q0 91 47.5 147t150.5 56q44 0 85 -11l-14 -120
q-24 8 -50 8zM975 508q93 0 146.5 -57.5t53.5 -145.5v-305h-150v282q0 44 -23.5 68t-63.5 24q-51 0 -86 -43v-331h-150v704h150v-250q49 54 123 54z" />
    <glyph glyph-name="f_f_j" horiz-adv-x="901" 
d="M670 379h-131v-379h-151v379h-165v-379h-151v379h-71v117h71v17q0 91 48.5 147t155.5 56q40 0 85 -12l-14 -120q-27 9 -56 9q-31 0 -49.5 -19.5t-18.5 -54.5v-23h165v17q0 91 47.5 147t150.5 56q44 0 85 -11l-14 -120q-24 8 -50 8q-31 0 -49.5 -19.5t-18.5 -54.5v-23h131
v-117zM851 704v-128h-146v128h146zM703 496h150v-539q0 -84 -45.5 -129t-124.5 -44q-38 0 -69 7l14 115q14 -3 27 -3q48 0 48 50v543z" />
    <glyph glyph-name="f_f_k" horiz-adv-x="1209" 
d="M607 593q-31 0 -49.5 -19.5t-18.5 -54.5v-23h131v-117h-131v-379h-151v379h-165v-379h-151v379h-71v117h71v17q0 91 48.5 147t155.5 56q40 0 85 -12l-14 -120q-27 9 -56 9q-31 0 -49.5 -19.5t-18.5 -54.5v-23h165v17q0 91 47.5 147t150.5 56q44 0 85 -11l-14 -120
q-24 8 -50 8zM1040 0l-120 184l-68 -77v-107h-150v704h150v-416l174 208h173l-181 -203l200 -293h-178z" />
    <glyph glyph-name="f_h" horiz-adv-x="904" 
d="M291 593q-31 0 -49.5 -19.5t-18.5 -54.5v-23h131v-117h-131v-379h-151v379h-71v117h71v17q0 91 47.5 147t150.5 56q44 0 85 -11l-14 -120q-24 8 -50 8zM661 508q93 0 146.5 -57.5t53.5 -145.5v-305h-150v282q0 44 -23.5 68t-63.5 24q-51 0 -86 -43v-331h-150v704h150
v-250q49 54 123 54z" />
    <glyph glyph-name="f_i" horiz-adv-x="585" 
d="M291 593q-31 0 -49.5 -19.5t-18.5 -54.5v-23h131v-117h-131v-379h-151v379h-71v117h71v17q0 91 47.5 147t150.5 56q44 0 85 -11l-14 -120q-24 8 -50 8zM536 704v-128h-146v128h146zM388 496h150v-496h-150v496z" />
    <glyph glyph-name="f_j" horiz-adv-x="585" 
d="M354 379h-131v-379h-151v379h-71v117h71v17q0 91 47.5 147t150.5 56q44 0 85 -11l-14 -120q-24 8 -50 8q-31 0 -49.5 -19.5t-18.5 -54.5v-23h131v-117zM536 704v-128h-146v128h146zM388 496h150v-539q0 -84 -45.5 -129t-124.5 -44q-38 0 -69 7l14 115q13 -3 27 -3
q48 0 48 50v543z" />
    <glyph glyph-name="f_k" horiz-adv-x="895" 
d="M291 593q-31 0 -49.5 -19.5t-18.5 -54.5v-23h131v-117h-131v-379h-151v379h-71v117h71v17q0 91 47.5 147t150.5 56q44 0 85 -11l-14 -120q-24 8 -50 8zM726 0l-120 184l-68 -77v-107h-150v704h150v-416l174 208h173l-181 -203l200 -293h-178z" />
    <glyph glyph-name="f_l" horiz-adv-x="585" 
d="M291 593q-31 0 -49.5 -19.5t-18.5 -54.5v-23h131v-117h-131v-379h-151v379h-71v117h71v17q0 91 47.5 147t150.5 56q44 0 85 -11l-14 -120q-24 8 -50 8zM388 704h150v-704h-150v704z" />
    <glyph glyph-name="f_t" horiz-adv-x="695" 
d="M664 134l15 -119q-54 -27 -122 -27q-79 0 -130.5 48t-51.5 128v215h-152v-379h-151v379h-71v117h71v17q0 91 48.5 147t155.5 56q40 0 85 -12l-14 -120q-27 9 -56 9q-31 0 -49.5 -19.5t-18.5 -54.5v-23h160v101l136 81h6v-182h153v-117h-153v-190q0 -35 19.5 -53t47.5 -18
q37 0 72 16z" />
    <glyph glyph-name="t_f" horiz-adv-x="712" 
d="M709 496v-117h-157v-379h-151v379h-184v-190q0 -35 19.5 -53t47.5 -18q37 0 72 16l15 -119q-54 -27 -122 -27q-79 0 -130.5 48t-51.5 128v215h-66v117h74v101l136 81h6v-182h184v17q0 91 48.5 147t155.5 56q40 0 85 -12l-14 -120q-27 9 -56 9q-31 0 -49.5 -19.5
t-18.5 -54.5v-23h157z" />
    <glyph glyph-name="t_t" horiz-adv-x="720" 
d="M690 134l15 -119q-54 -27 -122 -27q-79 0 -130.5 48t-51.5 128v215h-184v-190q0 -35 19.5 -53t47.5 -18q37 0 72 16l15 -119q-54 -27 -122 -27q-79 0 -130.5 48t-51.5 128v215h-66v117h74v101l136 81h6v-182h192v101l136 81h6v-182h153v-117h-153v-190q0 -35 19.5 -53
t47.5 -18q37 0 72 16z" />
    <glyph glyph-name="zero.pnum" horiz-adv-x="654" 
d="M327 -12q-138 0 -218.5 96t-80.5 268t80.5 268t218.5 96q139 0 219.5 -96t80.5 -268t-80.5 -268t-219.5 -96zM327 129q141 0 141 223t-141 223q-66 0 -103.5 -56t-37.5 -167q0 -110 37.5 -166.5t103.5 -56.5z" />
    <glyph glyph-name="one.pnum" horiz-adv-x="426" 
d="M265 704h100v-704h-152v526l-178 -92l-13 137z" />
    <glyph glyph-name="two.pnum" horiz-adv-x="580" 
d="M275 137h269v-137h-504v78l199 205q67 69 98 114.5t31 83.5q0 43 -23.5 70t-73.5 27q-83 0 -100 -98l-149 16q17 111 84 165.5t172 54.5q124 0 187.5 -65.5t63.5 -160.5q0 -69 -44.5 -131t-152.5 -167z" />
    <glyph glyph-name="three.pnum" horiz-adv-x="589" 
d="M457 367q53 -24 80 -67.5t27 -95.5q0 -95 -74 -155.5t-195 -60.5q-107 0 -181.5 51.5t-85.5 140.5l144 15q10 -37 43 -55t77 -18q54 0 84 24t30 62q0 41 -34 62.5t-96 21.5h-57v120h61q52 0 81 23t29 61q0 39 -27 62.5t-79 23.5q-94 0 -113 -80l-141 15q13 90 78.5 144.5
t183.5 54.5q115 0 183 -59.5t68 -140.5q0 -101 -86 -149z" />
    <glyph glyph-name="four.pnum" horiz-adv-x="593" 
d="M584 294v-130h-81v-164h-148v164h-346v92l312 448h182v-410h81zM191 294h164v246z" />
    <glyph glyph-name="five.pnum" horiz-adv-x="588" 
d="M302 470q119 0 186 -71.5t67 -167.5q0 -101 -74 -172t-187 -71q-104 0 -174.5 51t-93.5 146l147 20q35 -80 113 -80q48 0 79.5 30t31.5 75q0 44 -31 75t-83 31q-64 0 -103 -55l-134 20l53 403h408v-137h-288l-16 -121q48 24 99 24z" />
    <glyph glyph-name="six.pnum" horiz-adv-x="604" 
d="M335 468q114 0 180.5 -66t66.5 -170q0 -100 -71.5 -172t-191.5 -72q-134 0 -212.5 89t-78.5 267q0 177 75 274.5t215 97.5q92 0 159 -42.5t96 -132.5l-144 -17q-34 57 -109 57q-129 0 -139 -180q54 67 154 67zM317 123q48 0 80 32t32 79t-32 77t-81 30q-39 0 -76.5 -17
t-58.5 -48q7 -76 43 -114.5t93 -38.5z" />
    <glyph glyph-name="seven.pnum" horiz-adv-x="560" 
d="M35 704h495v-99l-281 -605h-162l267 567h-319v137z" />
    <glyph glyph-name="eight.pnum" horiz-adv-x="590" 
d="M467 360q98 -52 98 -164q0 -90 -74.5 -149t-195.5 -59q-122 0 -196 59t-74 149q0 112 97 164q-81 51 -81 150q0 89 69.5 147.5t184.5 58.5q114 0 184 -57.5t70 -146.5q0 -102 -82 -152zM295 585q-47 0 -71.5 -25t-24.5 -63q0 -37 24.5 -62t71.5 -25t71.5 25t24.5 62
q0 38 -25 63t-71 25zM295 119q51 0 78.5 24t27.5 65t-26.5 64.5t-79.5 23.5q-52 0 -79 -23.5t-27 -64.5q0 -40 27.5 -64.5t78.5 -24.5z" />
    <glyph glyph-name="nine.pnum" horiz-adv-x="604" 
d="M285 716q134 0 212.5 -89t78.5 -267q0 -177 -75 -274.5t-215 -97.5q-92 0 -159 42.5t-96 132.5l144 17q34 -57 109 -57q129 0 139 180q-54 -67 -154 -67q-114 0 -180.5 66t-66.5 170q0 100 71.5 172t191.5 72zM288 363q39 0 76.5 17t58.5 48q-7 76 -43 114.5t-93 38.5
q-48 0 -80 -32t-32 -79t32 -77t81 -30z" />
    <glyph glyph-name="zero.tnum" 
d="M297 -12q-134 0 -206 92t-72 272t72 272t206 92q135 0 206.5 -92t71.5 -272t-71.5 -272t-206.5 -92zM297 129q60 0 90 53t30 170t-30 170t-90 53t-90 -53t-30 -170t30 -170t90 -53z" />
    <glyph glyph-name="one.tnum" 
d="M330 704h100v-704h-152v532l-189 -77l-13 132z" />
    <glyph glyph-name="two.tnum" 
d="M279 137h270v-137h-505v78l200 205q67 68 98 114t31 84q0 43 -24 70t-73 27q-83 0 -100 -98l-150 16q17 110 85 165t172 55q123 0 187 -66t64 -160q0 -69 -45 -131.5t-152 -164.5z" />
    <glyph glyph-name="three.tnum" 
d="M455 367q54 -24 81 -67.5t27 -95.5q0 -96 -73.5 -156t-190.5 -60q-106 0 -179.5 51t-85.5 141l147 16q18 -74 115 -74q51 0 80 24t29 62q0 41 -33 62.5t-91 21.5h-59v120h62q50 0 77.5 23t27.5 61q0 39 -26 62.5t-75 23.5q-89 0 -108 -80l-143 15q12 88 78.5 143.5
t179.5 55.5t180 -60t67 -140q0 -103 -87 -149z" />
    <glyph glyph-name="four.tnum" 
d="M586 294v-130h-82v-164h-148v164h-348v92l314 448h182v-410h82zM190 294h166v247z" />
    <glyph glyph-name="five.tnum" 
d="M304 470q118 0 184.5 -71.5t66.5 -167.5q0 -101 -74 -172t-187 -71q-104 0 -174.5 51t-93.5 146l147 19q33 -79 113 -79q48 0 79.5 30t31.5 75q0 44 -31 75t-83 31q-64 0 -100 -56l-139 21l55 403h408v-137h-288l-16 -123q46 26 101 26z" />
    <glyph glyph-name="six.tnum" 
d="M326 468q112 0 178 -66.5t66 -169.5q0 -101 -71.5 -172.5t-189.5 -71.5q-127 0 -202.5 90.5t-75.5 268.5q0 172 73.5 270.5t210.5 98.5q188 0 250 -176l-144 -17q-34 58 -105 58q-121 0 -132 -175q53 62 142 62zM308 123q46 0 77 32t31 79t-32 77t-79 30q-34 0 -67.5 -16
t-53.5 -46q6 -79 39.5 -117.5t84.5 -38.5z" />
    <glyph glyph-name="seven.tnum" 
d="M32 704h528v-99l-297 -605h-162l282 567h-351v137z" />
    <glyph glyph-name="eight.tnum" 
d="M470 359q98 -51 98 -163q0 -91 -75 -149.5t-199 -58.5q-125 0 -199.5 58.5t-74.5 149.5q0 112 98 163q-82 51 -82 149q0 90 70.5 149t187.5 59t187.5 -58.5t70.5 -148.5q0 -97 -82 -150zM294 582q-47 0 -72 -24.5t-25 -60.5t24.5 -60t72.5 -24q49 0 73 23.5t24 60.5
t-24.5 61t-72.5 24zM294 119q51 0 79.5 24t28.5 63q0 38 -27.5 61.5t-80.5 23.5q-51 0 -79 -23t-28 -62t28 -63t79 -24z" />
    <glyph glyph-name="nine.tnum" 
d="M285 716q127 0 202.5 -90.5t75.5 -268.5q0 -172 -73.5 -270.5t-210.5 -98.5q-188 0 -250 176l144 17q34 -58 105 -58q121 0 132 175q-53 -62 -142 -62q-112 0 -178 66.5t-66 169.5q0 101 71.5 172.5t189.5 71.5zM289 363q34 0 67.5 16t53.5 46q-6 79 -39.5 117.5
t-84.5 38.5q-46 0 -77 -32t-31 -79t32 -77t79 -30z" />
    <glyph glyph-name="zero.dnom" horiz-adv-x="382" 
d="M192 -12q-79 0 -124 51.5t-45 144.5q0 94 45 145t124 51q80 0 124 -50.5t44 -145.5q0 -93 -44.5 -144.5t-123.5 -51.5zM192 80q66 0 66 104t-66 104q-67 0 -67 -104t67 -104z" />
    <glyph glyph-name="one.dnom" horiz-adv-x="382" 
d="M208 368h65v-368h-104v255l-108 -39l-9 88z" />
    <glyph glyph-name="two.dnom" horiz-adv-x="382" 
d="M195 86h147v-86h-300v48l122 115q34 32 46 48.5t12 36.5q0 18 -12 30t-32 12q-42 0 -50 -51l-93 8q19 133 149 133q67 0 105 -34t38 -88q0 -40 -23 -72t-82 -78z" />
    <glyph glyph-name="three.dnom" horiz-adv-x="382" 
d="M288 191q56 -22 56 -87q0 -50 -42.5 -83t-113.5 -33q-69 0 -112 31t-47 86l95 8q11 -40 62 -40q24 0 38.5 10.5t14.5 27.5q0 39 -57 39h-39v69h35q52 0 52 39q0 16 -12.5 26.5t-37.5 10.5q-47 0 -53 -42l-96 9q6 52 44.5 85t109.5 33q69 0 109.5 -32t40.5 -80
q0 -54 -47 -77z" />
    <glyph glyph-name="four.dnom" horiz-adv-x="382" 
d="M348 157v-79h-44v-78h-98v78h-191v57l169 233h120v-211h44zM128 157h78v113z" />
    <glyph glyph-name="five.dnom" horiz-adv-x="382" 
d="M198 246q59 0 98.5 -35.5t39.5 -89.5q0 -59 -43 -96t-114 -37q-54 0 -94 25.5t-55 72.5l100 16q13 -32 52 -32q23 0 37.5 13t14.5 34t-14.5 34t-37.5 13q-37 0 -52 -23l-95 10l34 217h246v-82h-168l-10 -51q27 11 61 11z" />
    <glyph glyph-name="six.dnom" horiz-adv-x="382" 
d="M219 242q58 0 94 -33t36 -86q0 -58 -42 -96.5t-114 -38.5q-73 0 -118 49t-45 143t44.5 147t120.5 53q120 0 148 -101l-93 -10q-18 29 -54 29q-60 0 -64 -92q30 36 87 36zM196 70q22 0 36.5 14t14.5 36t-13.5 36t-37.5 14q-43 0 -63 -38q10 -62 63 -62z" />
    <glyph glyph-name="seven.dnom" horiz-adv-x="382" 
d="M41 368h301v-62l-161 -306h-106l156 283h-190v85z" />
    <glyph glyph-name="eight.dnom" horiz-adv-x="382" 
d="M294 189q55 -27 55 -86q0 -50 -41 -82.5t-116 -32.5q-76 0 -117 32.5t-41 82.5q0 59 55 86q-47 25 -47 80q0 48 39 79.5t111 31.5q71 0 110 -31.5t39 -79.5q0 -55 -47 -80zM192 302q-27 0 -41 -12t-14 -29t14 -29t41 -12q26 0 40 12.5t14 28.5q0 17 -13.5 29t-40.5 12z
M192 69q28 0 42 12t14 30q0 17 -14 29t-42 12t-42.5 -12t-14.5 -29q0 -18 14.5 -30t42.5 -12z" />
    <glyph glyph-name="nine.dnom" horiz-adv-x="382" 
d="M189 380q73 0 118 -49t45 -143t-44.5 -147t-120.5 -53q-120 0 -148 101l93 10q18 -29 54 -29q60 0 64 92q-30 -36 -87 -36q-58 0 -94 33t-36 86q0 58 42 96.5t114 38.5zM186 198q43 0 63 38q-10 62 -63 62q-22 0 -36.5 -14t-14.5 -36t13.5 -36t37.5 -14z" />
    <glyph glyph-name="zero.numr" horiz-adv-x="382" 
d="M192 324q-79 0 -124 51.5t-45 144.5q0 94 45 145t124 51q80 0 124 -50.5t44 -145.5q0 -93 -44.5 -144.5t-123.5 -51.5zM192 416q66 0 66 104t-66 104q-67 0 -67 -104t67 -104z" />
    <glyph glyph-name="one.numr" horiz-adv-x="382" 
d="M208 704h65v-368h-104v255l-108 -39l-9 88z" />
    <glyph glyph-name="two.numr" horiz-adv-x="382" 
d="M195 422h147v-86h-300v48l122 115q34 32 46 48.5t12 36.5q0 18 -12 30t-32 12q-42 0 -50 -51l-93 8q19 133 149 133q67 0 105 -34t38 -88q0 -40 -23 -72t-82 -78z" />
    <glyph glyph-name="three.numr" horiz-adv-x="382" 
d="M288 527q56 -22 56 -87q0 -50 -42.5 -83t-113.5 -33q-69 0 -112 31t-47 86l95 8q11 -40 62 -40q24 0 38.5 10.5t14.5 27.5q0 39 -57 39h-39v69h35q52 0 52 39q0 16 -12.5 26.5t-37.5 10.5q-47 0 -53 -42l-96 9q6 52 44.5 85t109.5 33q69 0 109.5 -32t40.5 -80
q0 -54 -47 -77z" />
    <glyph glyph-name="four.numr" horiz-adv-x="382" 
d="M348 493v-79h-44v-78h-98v78h-191v57l169 233h120v-211h44zM128 493h78v113z" />
    <glyph glyph-name="five.numr" horiz-adv-x="382" 
d="M198 582q59 0 98.5 -35.5t39.5 -89.5q0 -59 -43 -96t-114 -37q-54 0 -94 25.5t-55 72.5l100 16q13 -32 52 -32q23 0 37.5 13t14.5 34t-14.5 34t-37.5 13q-37 0 -52 -23l-95 10l34 217h246v-82h-168l-10 -51q27 11 61 11z" />
    <glyph glyph-name="six.numr" horiz-adv-x="382" 
d="M219 578q58 0 94 -33t36 -86q0 -58 -42 -96.5t-114 -38.5q-73 0 -118 49t-45 143t44.5 147t120.5 53q120 0 148 -101l-93 -10q-18 29 -54 29q-60 0 -64 -92q30 36 87 36zM196 406q22 0 36.5 14t14.5 36t-13.5 36t-37.5 14q-43 0 -63 -38q10 -62 63 -62z" />
    <glyph glyph-name="seven.numr" horiz-adv-x="382" 
d="M41 704h301v-62l-161 -306h-106l156 283h-190v85z" />
    <glyph glyph-name="eight.numr" horiz-adv-x="382" 
d="M294 525q55 -27 55 -86q0 -50 -41 -82.5t-116 -32.5q-76 0 -117 32.5t-41 82.5q0 59 55 86q-47 25 -47 80q0 48 39 79.5t111 31.5q71 0 110 -31.5t39 -79.5q0 -55 -47 -80zM192 638q-27 0 -41 -12t-14 -29t14 -29t41 -12q26 0 40 12.5t14 28.5q0 17 -13.5 29t-40.5 12z
M192 405q28 0 42 12t14 30q0 17 -14 29t-42 12t-42.5 -12t-14.5 -29q0 -18 14.5 -30t42.5 -12z" />
    <glyph glyph-name="nine.numr" horiz-adv-x="382" 
d="M189 716q73 0 118 -49t45 -143t-44.5 -147t-120.5 -53q-120 0 -148 101l93 10q18 -29 54 -29q60 0 64 92q-30 -36 -87 -36q-58 0 -94 33t-36 86q0 58 42 96.5t114 38.5zM186 534q43 0 63 38q-10 62 -63 62q-22 0 -36.5 -14t-14.5 -36t13.5 -36t37.5 -14z" />
    <glyph glyph-name="bullet.ss01" horiz-adv-x="266" 
d="M37 260v192h192v-192h-192z" />
    <glyph glyph-name="cent.pnum" horiz-adv-x="541" 
d="M317 234q43 13 66 59l149 -17q-24 -78 -79 -125.5t-136 -56.5v-94h-72v94q-100 11 -162.5 82t-62.5 176t62.5 176t162.5 82v94h72v-94q83 -9 138.5 -57t76.5 -128l-148 -15q-23 47 -67 60v-236zM171 352q0 -94 74 -117v235q-74 -25 -74 -118z" />
    <glyph glyph-name="dollar.pnum" horiz-adv-x="623" 
d="M600 206q0 -97 -64.5 -153.5t-191.5 -63.5v-109h-72v109q-223 15 -247 205l155 17q11 -71 92 -83v160l-18 3q-219 42 -219 211q0 93 59 149.5t178 63.5v109h72v-109q209 -16 230 -198l-144 -17q-15 63 -86 75v-152l43 -9q103 -20 158 -67t55 -141zM196 509q0 -46 76 -69
v136q-76 -8 -76 -67zM344 127q50 4 71.5 22t21.5 50q0 30 -22 46.5t-71 28.5v-147z" />
    <glyph glyph-name="Euro.pnum" horiz-adv-x="773" 
d="M419 129q132 0 181 125l150 -16q-27 -108 -113.5 -179t-222.5 -71q-127 0 -216 73t-118 191h-70v72h59q-1 9 -1 28v20h-58v72h68q27 121 118 196.5t220 75.5q133 0 220 -70t115 -178l-152 -17q-22 54 -68.5 89t-111.5 35q-66 0 -112.5 -35.5t-66.5 -95.5h226v-72h-239
q-1 -7 -1 -20q0 -19 1 -28h239v-72h-223q21 -57 66.5 -90t109.5 -33z" />
    <glyph glyph-name="florin.pnum" horiz-adv-x="512" 
d="M300 511q0 -40 22 -115h134v-72h-115q28 -97 28 -151q0 -86 -58 -135.5t-159 -49.5q-64 0 -122 41l32 113q35 -21 69 -21q37 0 58.5 18.5t20.5 54.5q0 35 -25 127l-1 3h-110v72h91q-24 92 -24 132q0 87 61 137.5t159 50.5q64 0 123 -36l-33 -115q-39 18 -72 18
q-79 0 -79 -72z" />
    <glyph glyph-name="uni20B9.pnum" horiz-adv-x="576" 
d="M535 704v-122h-171q41 -28 54 -82h117v-72h-112q-7 -62 -48.5 -107t-106.5 -62l242 -259h-192l-264 278v68h86q49 0 80.5 21.5t42.5 60.5h-209v72h209q-11 39 -42.5 60.5t-80.5 21.5h-86v122h481z" />
    <glyph glyph-name="sterling.pnum" 
d="M255 137h291v-137h-496v78q109 80 108 173q0 14 -1 21h-102v72h86q-2 5 -9.5 31t-10 36.5t-7 31t-6.5 37t-2 33.5q0 88 64 145.5t171 57.5q109 0 186 -54l-33 -121q-57 34 -127 34q-47 0 -72 -23t-25 -64q0 -27 13 -78.5t16 -65.5h178v-72h-172q-2 -87 -50 -135z" />
    <glyph glyph-name="yen.pnum" horiz-adv-x="646" 
d="M663 704l-223 -370h130v-72h-171v-48h171v-72h-171v-142h-152l1 142h-172v72h172v48h-172v72h132l-224 370h171l173 -290l163 290h172z" />
    <glyph glyph-name="cent.tnum" 
d="M343 233q44 13 67 60l148 -17q-24 -78 -79 -125.5t-136 -56.5v-94h-72v94q-100 11 -163 82.5t-63 175.5q0 105 63 176t163 82v94h72v-94q84 -9 139 -56.5t76 -128.5l-146 -15q-23 48 -69 61v-238zM196 352q0 -47 20 -77.5t55 -41.5v238q-75 -23 -75 -119z" />
    <glyph glyph-name="dollar.tnum" 
d="M600 206q0 -97 -65 -153.5t-194 -63.5v-109h-72v109q-221 15 -247 205l153 17q13 -75 94 -85v163l-18 4q-102 21 -159.5 70t-57.5 140q0 92 58.5 148.5t176.5 63.5v109h72v-109q210 -14 233 -198l-143 -16q-14 65 -90 77v-155l47 -10q103 -20 157.5 -67.5t54.5 -139.5z
M192 511q0 -25 18 -42t59 -29v139q-77 -8 -77 -68zM341 124q98 8 98 75q0 30 -22.5 47t-75.5 29v-151z" />
    <glyph glyph-name="Euro.tnum" 
d="M328 130q45 0 73.5 27.5t42.5 90.5l148 -18q-17 -115 -85 -178.5t-182 -63.5t-186.5 68.5t-92.5 195.5h-50v72h43q-1 9 -1 28v20h-42v72h48q20 130 93 201t188 71q114 0 182 -63t86 -176l-149 -19q-14 61 -42.5 88.5t-73.5 27.5q-98 0 -123 -130h147v-72h-154v-20
q0 -19 1 -28h153v-72h-145q25 -122 121 -122z" />
    <glyph glyph-name="florin.tnum" 
d="M427 584q-90 0 -90 -86q0 -25 22 -102h151v-72h-131q26 -89 26 -143q0 -89 -60 -141t-165 -52q-72 0 -132 42l31 115q41 -25 80 -25q40 0 64.5 20.5t24.5 60.5q0 32 -25 119l-1 4h-128v72h109q-23 84 -23 119q0 95 63.5 148t168.5 53q67 0 142 -40l-32 -115
q-60 23 -95 23z" />
    <glyph glyph-name="uni20B9.tnum" 
d="M546 704v-122h-171q40 -28 53 -82h118v-72h-113q-7 -64 -49.5 -108.5t-105.5 -59.5l243 -260h-191l-266 278v68h87q100 0 122 82h-209v72h209q-22 82 -122 82h-87v122h482z" />
    <glyph glyph-name="sterling.tnum" 
d="M298 269q-2 -84 -45 -132h293v-137h-495v78q99 70 99 170q0 7 -2 21h-93v72h75q-38 116 -38 172q0 89 61.5 146t168.5 57q91 0 154 -46.5t78 -151.5l-148 -21q-16 78 -80 78q-35 0 -53 -20.5t-18 -55.5q0 -32 17 -89t19 -69h180v-72h-173z" />
    <glyph glyph-name="yen.tnum" 
d="M608 704l-198 -373h124v-72h-158v-48h158v-72h-158v-139h-152v139h-158v72h158v48h-158v72h124l-204 373h172l146 -286l135 286h169z" />
    <glyph glyph-name="ampersand.ss01" horiz-adv-x="676" 
d="M693 0h-184l-57 60q-85 -72 -194 -72q-102 0 -167.5 53t-65.5 141q0 129 128 194q-63 76 -63 151q0 79 58.5 134t156.5 55q106 0 174 -50l-30 -109q-56 38 -124 38q-38 0 -60 -19.5t-22 -49.5q0 -22 10.5 -42t43.5 -57l149 -160q16 44 19 100h126q0 -105 -52 -201z
M267 107q57 0 103 40l-136 142q-66 -36 -66 -97q0 -36 28 -60.5t71 -24.5z" />
    <glyph glyph-name="section.ss01" 
d="M294 -12q-238 0 -273 187l136 21q11 -45 42 -66t88 -21q91 0 91 50q0 22 -18.5 35.5t-67.5 26.5l-60 15q-103 26 -156.5 83t-53.5 163q0 104 72 169t205 65q231 0 266 -179l-133 -22q-18 80 -124 80q-44 0 -65 -13.5t-21 -33.5q0 -21 18.5 -34.5t73.5 -30.5l63 -18
q102 -29 156 -79t54 -146q0 -115 -76 -183.5t-217 -68.5zM476 173q23 65 -3.5 118t-114.5 76l-82 24q-77 22 -112 52.5t-34 83.5q-23 -66 2.5 -115.5t103.5 -71.5l97 -26q76 -21 109.5 -53.5t33.5 -87.5z" />
    <glyph glyph-name="registered.ss01" horiz-adv-x="800" 
d="M400 716q162 0 268 -106t106 -258q0 -153 -105 -258.5t-269 -105.5q-162 0 -268 106t-106 258t106 258t268 106zM400 56q123 0 210 84t87 212t-87 212t-210 84t-210 -84t-87 -212t87 -212t210 -84zM566 416q0 -73 -68 -108l96 -140h-131l-73 119h-39v-119h-109v380h187
q59 0 98 -38t39 -94zM351 460v-89h56q20 0 33 12.5t13 32.5q0 21 -13.5 32.5t-32.5 11.5h-56z" />
    <glyph glyph-name="ampersand.ss02" horiz-adv-x="719" 
d="M708 294h-144v-105q0 -34 20.5 -52.5t51.5 -18.5q32 0 56 10l15 -115q-46 -22 -97 -22q-117 0 -165 74q-56 -77 -187 -77q-108 0 -170.5 55.5t-62.5 148.5q0 121 117 170q-95 44 -95 156q0 85 67 141.5t186 56.5q112 0 174 -36l-33 -123q-53 26 -128 26
q-57 0 -85.5 -23.5t-28.5 -63.5q0 -39 26.5 -62t74.5 -23h122v44l135 57h7v-101h144v-117zM414 207v87h-114q-53 0 -83.5 -23t-30.5 -65q0 -38 25.5 -61t74.5 -23q52 0 86 22.5t42 62.5z" />
    <glyph glyph-name="acutecomb_alt" horiz-adv-x="0" 
 />
    <glyph glyph-name="caroncomb.alt" horiz-adv-x="0" 
d="M-157 536q10 100 12 168h107q-8 -83 -38 -168h-81z" />
    <glyph glyph-name="uni0312.001" horiz-adv-x="0" 
d="M-290 683h40v-103h-111v95q0 60 41 108h68q-38 -52 -38 -97v-3z" />
    <glyph glyph-name="uni0326.001" horiz-adv-x="0" 
d="M-358 -48h109v-96q-3 -62 -36 -103h-61q31 56 31 95v5h-43v99z" />
    <glyph glyph-name="uni0335.001" horiz-adv-x="0" 
d="M-548 314v76h313v-76h-313z" />
    <glyph glyph-name="caron.cap.alt" horiz-adv-x="196" 
d="M37 488q5 39 15 216h112q-13 -129 -42 -216h-85z" />
    <glyph glyph-name="caron.alt" horiz-adv-x="197" 
d="M39 536q10 100 12 168h107q-8 -83 -38 -168h-81z" />
    <glyph glyph-name="acute.cap" horiz-adv-x="570" 
d="M185 772v7l78 137h152l-121 -144h-109z" />
    <glyph glyph-name="breve.cap" horiz-adv-x="570" 
d="M240 764q-67 0 -113 40t-50 112h96q2 -28 20 -45t47 -17q28 0 46.5 17t19.5 45h95q-3 -72 -48.5 -112t-112.5 -40z" />
    <glyph glyph-name="caron.cap" horiz-adv-x="600" 
d="M362 916h122l-130 -149h-130l-128 149h126l72 -67z" />
    <glyph glyph-name="circumflex.cap" horiz-adv-x="570" 
d="M469 767h-125l-71 66l-70 -66h-121l129 149h130z" />
    <glyph glyph-name="dieresis.cap" horiz-adv-x="570" 
d="M95 790v121h125v-121h-125zM299 790v121h126v-121h-126z" />
    <glyph glyph-name="dotaccent.cap" horiz-adv-x="570" 
d="M49 788v128h146v-128h-146z" />
    <glyph glyph-name="grave.cap" horiz-adv-x="570" 
d="M252 772l-121 144h153l77 -137v-7h-109z" />
    <glyph glyph-name="hungarumlaut.cap" horiz-adv-x="570" 
d="M104 761v7l96 148h130l-137 -155h-89zM281 761v7l96 148h133l-137 -155h-92z" />
    <glyph glyph-name="macron.cap" horiz-adv-x="570" 
d="M168 802v96h345v-96h-345z" />
    <glyph glyph-name="ring.cap" horiz-adv-x="570" 
d="M297 749q-46 0 -77.5 30t-31.5 72q0 44 31.5 72.5t77.5 28.5q47 0 78.5 -28.5t31.5 -72.5q0 -43 -31.5 -72.5t-78.5 -29.5zM297 812q17 0 28 11.5t11 27.5t-11 27t-28 11q-16 0 -27 -11t-11 -27t11 -27.5t27 -11.5z" />
    <glyph glyph-name="tilde.cap" horiz-adv-x="570" 
d="M389 760q-31 0 -91 31t-64 31q-10 0 -10 -10v-47h-86v85q0 71 61 71q31 0 90 -31.5t67 -31.5q9 0 9 9v49h86v-87q0 -69 -62 -69z" />
    <glyph glyph-name="tonos.cap" horiz-adv-x="600" 
d="M200 538q32 65 37 166h126q-9 -91 -67 -166h-96z" />
    <glyph glyph-name="_circleSign" horiz-adv-x="800" 
d="M400 -12q-162 0 -268 106t-106 258t106 258t268 106t268 -106t106 -258q0 -153 -105 -258.5t-269 -105.5zM400 56q123 0 210 84t87 212t-87 212t-210 84t-210 -84t-87 -212t87 -212t210 -84z" />
    <glyph glyph-name="Logotype.001" horiz-adv-x="4464" 
d="M540 776h-252l-156 156h184l106 -92l98 92h188zM536 436q145 -12 216.5 -64.5t71.5 -155.5q0 -119 -96 -177.5t-300 -58.5q-110 0 -186.5 17t-119.5 50.5t-63 73.5t-25 95h219q9 -42 52.5 -59t122.5 -17q100 0 136 13.5t36 42.5q0 25 -29.5 40t-106.5 24l-120 12
q-77 8 -130 21t-95.5 37.5t-62.5 64.5t-20 97q0 232 384 232q110 0 187 -18.5t118.5 -52.5t59.5 -75t18 -94h-213q-3 42 -46 61t-136 19q-86 0 -119 -13.5t-33 -42.5q0 -27 30.5 -39t125.5 -21zM2140 724q199 0 329.5 -105t130.5 -267q0 -161 -132 -266.5t-328 -105.5
q-202 0 -335 105.5t-133 266.5t133 266.5t335 105.5zM3072 704q185 0 306.5 -98.5t121.5 -253.5q0 -152 -122 -252t-306 -100h-388v704h388zM4200 0l-47 92h-422l-47 -92h-224l384 704h212l376 -704h-232zM1744 700l-351 -310l355 -394h-256l-239 271l-125 -111v-160h-212
v704h212v-327l356 327h260zM2140 152q108 0 178 56.5t70 143.5t-70 143.5t-178 56.5q-114 0 -185 -54.5t-71 -141.5q0 -88 71.5 -146t184.5 -58zM3072 172q94 0 154.5 53t57.5 127q0 77 -59 128.5t-153 51.5h-176v-360h176zM3814 252h256l-128 249z" />
    </font>
</defs>
</svg>
