<svg width="552" height="159" viewBox="0 0 552 159" fill="none" xmlns="http://www.w3.org/2000/svg">
<g filter="url(#filter0_d)">
<path d="M164.918 84.032C160.159 84.032 155.544 83.4013 151.072 82.14C146.657 80.8213 143.103 79.13 140.408 77.066L145.138 66.574C147.718 68.466 150.785 69.9853 154.34 71.132C157.895 72.2787 161.449 72.852 165.004 72.852C168.96 72.852 171.884 72.2787 173.776 71.132C175.668 69.928 176.614 68.3513 176.614 66.402C176.614 64.9687 176.041 63.7933 174.894 62.876C173.805 61.9013 172.371 61.1273 170.594 60.554C168.874 59.9807 166.523 59.35 163.542 58.662C158.955 57.5727 155.2 56.4833 152.276 55.394C149.352 54.3047 146.829 52.556 144.708 50.148C142.644 47.74 141.612 44.5293 141.612 40.516C141.612 37.0187 142.558 33.8653 144.45 31.056C146.342 28.1893 149.18 25.9247 152.964 24.262C156.805 22.5993 161.478 21.768 166.982 21.768C170.823 21.768 174.579 22.2267 178.248 23.144C181.917 24.0613 185.128 25.38 187.88 27.1L183.58 37.678C178.019 34.5247 172.457 32.948 166.896 32.948C162.997 32.948 160.102 33.5787 158.21 34.84C156.375 36.1013 155.458 37.764 155.458 39.828C155.458 41.892 156.519 43.44 158.64 44.472C160.819 45.4467 164.115 46.4213 168.53 47.396C173.117 48.4853 176.872 49.5747 179.796 50.664C182.72 51.7533 185.214 53.4733 187.278 55.824C189.399 58.1747 190.46 61.3567 190.46 65.37C190.46 68.81 189.485 71.9633 187.536 74.83C185.644 77.6393 182.777 79.8753 178.936 81.538C175.095 83.2007 170.422 84.032 164.918 84.032ZM250.892 71.82V83H204.28V22.8H249.774V33.98H218.126V47.052H246.076V57.888H218.126V71.82H250.892ZM304.633 83L293.023 66.23H292.335H280.209V83H266.277V22.8H292.335C297.667 22.8 302.282 23.6887 306.181 25.466C310.137 27.2433 313.176 29.766 315.297 33.034C317.418 36.302 318.479 40.172 318.479 44.644C318.479 49.116 317.39 52.986 315.211 56.254C313.09 59.4647 310.051 61.93 306.095 63.65L319.597 83H304.633ZM304.375 44.644C304.375 41.2613 303.286 38.6813 301.107 36.904C298.928 35.0693 295.746 34.152 291.561 34.152H280.209V55.136H291.561C295.746 55.136 298.928 54.2187 301.107 52.384C303.286 50.5493 304.375 47.9693 304.375 44.644ZM391.695 22.8L365.637 83H351.877L325.905 22.8H340.955L359.273 65.8L377.849 22.8H391.695ZM401.022 22.8H414.954V83H401.022V22.8ZM462.35 84.032C456.216 84.032 450.654 82.7133 445.666 80.076C440.736 77.3813 436.837 73.6833 433.97 68.982C431.161 64.2233 429.756 58.8627 429.756 52.9C429.756 46.9373 431.161 41.6053 433.97 36.904C436.837 32.1453 440.736 28.4473 445.666 25.81C450.654 23.1153 456.244 21.768 462.436 21.768C467.654 21.768 472.355 22.6853 476.54 24.52C480.783 26.3547 484.338 28.992 487.204 32.432L478.26 40.688C474.19 35.9867 469.144 33.636 463.124 33.636C459.398 33.636 456.072 34.4673 453.148 36.13C450.224 37.7353 447.931 40 446.268 42.924C444.663 45.848 443.86 49.1733 443.86 52.9C443.86 56.6267 444.663 59.952 446.268 62.876C447.931 65.8 450.224 68.0933 453.148 69.756C456.072 71.3613 459.398 72.164 463.124 72.164C469.144 72.164 474.19 69.7847 478.26 65.026L487.204 73.282C484.338 76.7793 480.783 79.4453 476.54 81.28C472.298 83.1147 467.568 84.032 462.35 84.032ZM547.525 71.82V83H500.913V22.8H546.407V33.98H514.759V47.052H542.709V57.888H514.759V71.82H547.525Z" fill="black" fill-opacity="0.11"/>
</g>
<path d="M9.98102 44.0943C9.82259 44.2514 9.66414 44.2514 9.66414 44.2514C9.66414 44.2514 9.5057 44.2514 9.5057 44.4085C9.34727 44.4085 9.3473 44.5656 9.18887 44.5656L9.03044 44.7227L8.872 44.8799C8.71357 44.8799 8.7136 45.037 8.55517 45.037L8.39673 45.1941C8.2383 45.1941 8.23829 45.3512 8.07986 45.5083L7.92142 45.6654C7.76299 45.8226 7.76302 45.8226 7.60459 45.9797L7.44615 46.1368C7.28772 46.2939 7.2877 46.451 7.12928 46.451L6.97089 46.6081C6.81246 46.7653 6.81244 46.9224 6.65401 47.0795L6.49557 47.2366C6.33714 47.3937 6.33717 47.5508 6.17875 47.708L6.02031 47.8651C5.86188 48.0222 5.86186 48.1793 5.70343 48.4935C5.70343 48.6507 5.54499 48.6506 5.54499 48.8078C5.38656 48.9649 5.38659 49.2791 5.22817 49.4362C5.22817 49.5933 5.22816 49.5934 5.06973 49.7505C5.06973 49.9076 4.91129 50.2218 4.91129 50.3789C4.91129 50.536 4.91128 50.5361 4.75285 50.6932C4.75285 51.0074 4.59446 51.1645 4.59446 51.4787C4.59446 51.6359 4.59446 51.793 4.59446 51.793C4.59446 52.1072 4.59445 52.4214 4.43602 52.7357C4.43602 52.8928 4.43602 52.8928 4.43602 53.0499C4.43602 53.5213 4.43602 53.9926 4.43602 54.464L5.86187 80.8595C5.86187 81.0166 5.86187 81.1738 5.86187 81.3309V81.488C5.86187 81.6451 5.86187 81.6451 5.86187 81.8022C5.86187 81.9593 5.86187 81.9593 5.86187 82.1165C5.86187 82.2736 5.86188 82.2736 6.02031 82.4307C6.02031 82.5878 6.02032 82.5878 6.17875 82.7449C6.17875 82.902 6.17871 82.902 6.33713 83.0592C6.33713 83.2163 6.49557 83.2163 6.49557 83.3734C6.49557 83.3734 6.49558 83.5305 6.65401 83.5305C6.65401 83.6876 6.81245 83.6876 6.81245 83.8447C6.81245 83.8447 6.81246 84.0018 6.97089 84.0018C6.97089 84.159 7.12928 84.3161 7.12928 84.3161C7.12928 84.3161 7.12928 84.3161 7.12928 84.4732C7.2877 84.6303 7.28772 84.7874 7.44615 84.9445V92.1719C12.0406 93.2717 17.9024 94.2144 25.1901 95V89.0296C28.0419 89.1867 30.8936 89.5009 33.7453 89.658C33.9037 89.658 33.9037 89.658 34.0621 89.658C36.9138 89.8152 39.7656 89.9723 42.6173 90.1294H42.7757C45.3105 90.2865 47.8454 90.2865 50.3803 90.2865C51.014 90.2865 51.6477 90.2865 52.123 90.2865C54.8163 90.2865 57.3511 90.2865 60.0444 90.2865C62.7377 90.2865 65.431 90.2865 67.9658 90.2865C68.5995 90.2865 69.2332 90.2865 69.7085 90.2865C72.2433 90.2865 74.7782 90.1294 77.3131 90.1294H77.4715C80.3232 89.9723 83.1749 89.8152 86.0266 89.658C86.1851 89.658 86.3435 89.658 86.5019 89.658C88.5615 89.3438 90.4626 89.0296 92.5222 89.0296H94.8986V95C102.186 94.2144 108.207 93.1146 112.643 92.1719V84.9445C112.801 84.7874 112.801 84.6303 112.959 84.4732C112.959 84.4732 112.959 84.4732 112.959 84.3161C112.959 84.159 113.118 84.0018 113.118 84.0018C113.118 84.0018 113.118 83.8447 113.276 83.8447C113.276 83.6876 113.435 83.6876 113.435 83.5305C113.435 83.5305 113.435 83.3734 113.593 83.3734C113.593 83.2163 113.752 83.2163 113.752 83.0592C113.752 82.902 113.752 82.902 113.91 82.7449C113.91 82.5878 113.91 82.5878 114.068 82.4307C114.068 82.2736 114.068 82.2736 114.227 82.1165C114.227 81.9593 114.227 81.9593 114.227 81.8022C114.227 81.6451 114.227 81.6451 114.227 81.488V81.3309C114.227 81.1738 114.227 81.0166 114.227 80.8595V79.2884L115.494 54.3068C115.494 46.7652 111.058 44.4085 109.474 43.78C109.632 43.6229 109.791 43.4658 109.949 43.3087C110.108 43.3087 110.108 43.3087 110.266 43.3087H116.286C117.237 43.3087 118.188 42.5231 118.346 41.5804L118.98 37.6525C119.138 36.7098 118.346 35.7671 117.395 35.7671H110.425C109.474 35.7671 108.682 36.5527 108.682 37.4954V40.9519C108.365 41.1091 108.048 41.2662 107.89 41.4233C107.731 41.1091 107.731 40.6377 107.573 40.1664L106.622 35.1386C106.622 34.9815 106.622 34.9815 106.622 34.8244V34.5102C105.355 28.0684 102.345 20.2126 99.9683 15.9704L99.8099 15.8133C99.0177 14.5564 97.5919 12.0425 94.4233 11.8854C93.6312 11.8854 92.9975 11.7283 92.2053 11.7283V11.0998C92.2053 10.6285 91.8885 10.3142 91.4132 10.3142C88.403 10.1571 85.5513 10 82.6996 10C82.2243 10 81.9075 10.3142 81.9075 10.7856V11.2569C74.4614 10.9427 67.0152 10.7856 59.5691 10.7856C52.1229 10.7856 44.6768 10.9427 37.2307 11.2569V10.7856C37.2307 10.3142 36.9138 10 36.4385 10C34.5374 10 32.4778 10 30.2598 10.1571C29.4677 10.1571 28.5171 10.3142 27.725 10.3142C27.5665 10.3142 27.5666 10.3142 27.4081 10.4713C27.0913 10.6285 26.9328 10.9427 26.9328 11.2569V11.8854C26.1407 11.8854 25.507 12.0425 24.7148 12.0425C21.3878 12.1996 20.1204 14.7135 19.3283 15.9704L19.1698 16.1275C16.7934 20.3697 13.7833 28.2255 12.5159 34.6673V34.9815C12.5159 35.1386 12.5159 35.1386 12.5159 35.2957L11.5653 40.3235C11.5653 40.4806 11.5653 40.7948 11.4069 40.9519C11.4069 41.1091 11.2484 41.2662 11.2484 41.4233C11.09 41.2662 10.9316 41.2662 10.7732 41.2662C10.7732 41.2662 10.7731 41.2662 10.6147 41.2662C10.4563 41.2662 10.4563 41.1091 10.2978 41.1091V37.6525C10.2978 37.024 9.98099 36.5527 9.5057 36.2384C9.18884 36.0813 8.87203 35.9242 8.55517 35.9242H1.58428C1.26743 35.9242 0.792181 36.0813 0.633752 36.2384C0.475324 36.3956 0.316866 36.5527 0.158438 36.7098C9.6682e-06 36.8669 0 37.1812 0 37.3383C0 37.4954 0 37.6525 0 37.6525L0.633752 41.5804C0.633752 41.8946 0.792152 42.0518 0.95058 42.2089C1.26744 42.8373 2.05959 43.1516 2.6933 43.1516H8.71356C8.87199 43.1516 8.87201 43.1516 9.03044 43.1516C9.18886 43.3087 9.34727 43.4658 9.5057 43.6229C10.2978 43.9372 10.1394 44.0943 9.98102 44.0943ZM56.7174 71.5896L55.9252 73.6322L52.5982 73.1608L51.4892 74.8891L53.0735 77.8743L51.4892 79.2884L48.6375 77.2458L46.8948 78.1886V81.6451L44.6768 82.1165L43.0925 79.1312H41.033L39.4487 82.1165L37.2307 81.6451V78.1886L35.488 77.2458L32.6363 79.2884L31.052 77.8743L32.6363 74.8891L31.5273 73.1608L28.2003 73.6322L27.4081 71.5896L30.2598 69.7043L29.943 67.6617L26.7744 66.5619L27.0913 64.3623L30.5767 64.0481L31.3688 62.1627L28.9924 59.6488L30.2598 57.9205L33.4284 59.1775L35.0127 57.9205L34.2205 54.6211L36.1217 53.6784L38.3397 56.1922L40.2408 55.7209L41.033 52.4214H43.251L44.0431 55.7209L45.9442 56.1922L48.1623 53.6784L50.0634 54.6211L49.2712 57.9205L50.8555 59.1775L54.0241 57.9205L55.2915 59.6488L52.9151 62.1627L53.7073 64.0481L57.1926 64.3623L57.5095 66.5619L54.341 67.6617L54.0241 69.7043L56.7174 71.5896ZM91.8885 15.8133C92.3637 15.8133 93.7896 15.6562 95.5323 16.5989C96.6413 17.0702 97.7503 18.1701 98.5425 19.427C99.3346 20.6839 99.9683 22.2551 100.444 23.8262C101.394 26.9686 102.028 30.268 102.662 32.939C103.295 35.61 103.771 37.6525 103.929 38.281C103.929 38.5952 104.087 39.3808 104.246 40.3235C104.404 40.7948 104.404 41.4233 104.563 41.8946C104.721 42.366 104.88 42.9945 105.196 43.4658C105.83 44.5656 106.781 45.8226 107.89 46.9224C108.999 48.0222 110.425 49.122 111.534 50.5361C112.167 51.3216 112.326 52.2643 112.484 53.0499C112.643 53.8355 112.643 54.6211 112.643 55.4067C112.643 56.9778 112.643 58.3919 112.484 59.4917C112.326 61.8484 112.167 63.4196 112.167 63.4196C112.167 63.4196 112.167 61.8484 112.167 59.4917C112.167 58.2348 112.167 56.8207 112.009 55.4067C112.009 54.6211 111.85 53.8355 111.692 53.0499C111.534 52.2643 111.217 51.4787 110.741 51.0074C109.632 49.9076 108.207 48.9649 107.098 47.8651C106.464 47.2366 105.83 46.7653 105.355 46.1368C105.038 45.8226 104.88 45.5083 104.563 45.1941C104.246 44.8799 104.087 44.5656 103.929 44.2514C103.454 43.6229 103.295 42.9945 103.137 42.366C102.978 41.7375 102.82 41.2662 102.662 40.7948C102.503 39.8521 102.345 39.2237 102.186 38.7523C101.869 37.4954 102.028 37.8096 101.394 34.8244C101.077 33.2532 100.602 31.0536 100.127 27.2828C99.8099 25.3974 99.493 23.1978 98.5425 20.841C98.0672 19.5841 97.275 18.3272 96.166 17.3845C95.2155 16.4418 93.6312 15.8133 91.8885 15.8133ZM63.5298 22.4122C63.5298 22.2551 63.8467 22.2551 63.8467 22.4122C64.4804 23.6691 65.2725 24.9261 65.9062 26.183C66.0646 26.3401 66.3815 26.6543 66.6983 26.4972C68.2826 26.183 69.7085 25.3974 70.6591 24.2976C70.8175 24.1405 70.8175 23.6691 70.8175 23.512C70.0254 22.098 69.3917 20.9981 68.5995 19.5841C68.4411 19.2699 69.2332 19.427 69.5501 19.5841C73.5108 20.5268 74.4614 23.512 74.3029 26.0259C74.1445 26.9686 74.4614 27.9113 75.0951 28.5397L94.5818 47.708C95.057 48.1793 95.8492 48.4935 96.6413 48.4935C97.7503 48.4935 98.8593 48.9649 99.6515 49.7505C102.028 52.1072 101.236 56.5065 97.1166 57.6063C96.6413 57.7634 96.0076 57.7634 95.5323 57.6063C93.1559 56.9778 91.8885 55.2495 91.7301 53.3641C91.7301 52.5786 91.4132 51.793 90.7795 51.1645L70.9759 31.6821C70.3422 31.0536 69.3917 30.7394 68.5995 30.8965C67.0152 31.0536 64.7972 30.1109 63.6882 28.854C62.7376 27.597 62.2624 24.6118 63.5298 22.4122ZM47.6869 24.1405C47.8454 23.9834 48.0038 23.9834 48.0038 24.1405C48.796 25.7116 49.7465 27.2828 50.5387 28.6969C50.6971 29.0111 51.1724 29.1682 51.4892 29.1682C53.3904 28.854 55.2915 27.9113 56.5589 26.3401C56.7174 26.0259 56.8758 25.5545 56.7174 25.2403C55.7668 23.512 54.9747 22.098 54.0241 20.3697C53.8657 19.8983 54.8163 20.2126 55.2915 20.3697C60.3612 21.4695 61.4702 25.2403 61.1534 28.3826C60.9949 29.4824 61.3118 30.5823 62.1039 31.525L86.5019 55.7209C87.1356 56.3494 88.0862 56.6636 89.0368 56.8207C90.4626 56.8207 91.73 57.4492 92.839 58.549C95.8492 61.5342 94.8986 67.0333 89.8289 68.2902C89.1952 68.4473 88.5615 68.4473 87.7694 68.2902C84.7592 67.5046 83.1749 65.305 83.0165 62.9482C83.0165 61.8484 82.5412 60.9057 81.749 60.2773L57.0342 35.7671C56.2421 34.9815 55.1331 34.6673 54.0241 34.6673C51.9645 34.8244 49.2713 33.7246 48.0038 32.1534C46.7364 30.7394 46.1027 26.9686 47.6869 24.1405ZM31.6857 32.6248C31.8441 32.939 32.4778 33.2532 32.7947 33.2532C35.1711 32.7819 37.5475 31.6821 39.1318 29.7967C39.4487 29.4824 39.4487 28.854 39.2903 28.5397C38.0228 26.3401 37.0722 24.6118 35.8048 22.4122C35.488 21.9409 36.7554 22.2551 37.3891 22.2551C43.7262 23.6691 45.1521 28.3826 44.6768 32.3105C44.5184 33.7246 44.9937 35.1386 45.9442 36.0813L76.3625 66.2477C77.1546 67.0333 78.4221 67.5046 79.5311 67.5046C81.2738 67.6617 83.0165 68.2902 84.2839 69.5471C88.0862 73.3179 86.8188 80.0739 80.4816 81.8022C79.6895 81.9593 78.7389 81.9593 77.9468 81.8022C74.1445 80.8595 72.2433 78.0314 72.0849 75.0462C71.9265 73.7893 71.4512 72.5323 70.6591 71.5896L39.7655 40.9519C38.815 40.0092 37.3891 39.5379 35.9633 39.695C33.4284 39.8521 30.1014 38.5952 28.3587 36.5527C26.7744 34.6673 25.9823 29.9538 27.8834 26.4972C28.0418 26.3401 28.2003 26.3401 28.3587 26.4972C29.6261 28.6969 30.7351 30.5823 31.6857 32.6248ZM28.9924 14.3993C28.9924 14.3993 28.5171 15.1848 27.725 16.4418C27.0912 17.6987 26.2991 19.427 25.8239 21.3124C25.1901 23.1978 24.7149 25.0832 24.2396 26.6543C23.9227 28.2255 23.6059 29.4824 23.4474 29.7967C23.289 30.268 22.9721 31.3678 22.6553 32.939C22.4969 33.7246 22.3384 34.6673 22.0216 35.61C21.8632 36.5527 21.7047 37.4954 21.5463 38.4381C21.2294 40.3235 20.9126 42.2089 20.7541 43.6229C20.5957 45.037 20.4373 45.9797 20.4373 45.9797C20.4373 45.9797 20.4373 45.037 20.5957 43.6229C20.5957 42.2089 20.7541 40.3235 21.071 38.281C21.2294 37.3383 21.2294 36.2384 21.3878 35.2957C21.5463 34.3531 21.7047 33.4104 21.8631 32.6248C22.18 31.0536 22.3384 29.7967 22.4968 29.3253C22.6553 28.6969 22.6553 28.6969 23.1306 26.9686C23.289 26.0259 23.9227 24.7689 24.5564 22.7264C25.507 20.841 26.4576 17.8558 28.9924 14.3993ZM12.0406 47.5508C12.6743 47.0795 12.9911 46.9224 13.4664 46.6081C13.7833 46.451 13.9417 46.2939 14.417 45.9797C14.5754 45.8226 14.7339 45.6654 14.8923 45.3512C15.0507 45.037 15.3676 44.7227 15.526 44.4085C16.0013 43.6229 16.4766 42.5231 16.7934 40.9519C17.1103 39.3808 17.4271 37.4954 17.9024 34.9815C19.0114 30.268 20.5957 23.3549 25.1901 15.1848C25.1901 15.1848 24.398 17.0702 22.9721 19.8983C22.4968 21.3124 21.8632 23.0407 21.2294 24.9261C20.7542 26.8115 20.1204 28.854 19.6452 30.8965C19.3283 32.939 18.6946 35.1386 18.5361 37.1812C18.2193 39.2237 18.0608 41.2662 17.4271 43.1516C16.9518 44.8799 16.1597 46.6081 14.8923 47.5508C13.7833 48.4935 12.9911 48.8078 12.6743 49.122C12.3574 49.4362 11.4069 49.9076 10.9316 50.5361C10.4563 51.3216 10.1394 52.8928 9.82258 54.6211C9.50572 58.0776 9.50571 62.634 9.66414 67.0333C9.82257 71.4325 9.98103 75.6747 10.1395 78.817C10.2979 81.9593 10.4563 84.0018 10.4563 84.0018C10.4563 84.0018 10.2979 81.9593 9.98102 78.817C9.66416 75.6747 9.18886 71.4325 8.872 67.1904C8.55514 62.7911 8.23831 58.3919 8.55517 54.6211C8.7136 52.7357 8.872 51.1645 9.66414 49.7505C10.7731 48.3364 11.7237 47.8651 12.0406 47.5508Z" fill="#4D4D4D" fill-opacity="0.19"/>
<defs>
<filter id="filter0_d" x="136.408" y="21.7681" width="415.117" height="136.264" filterUnits="userSpaceOnUse" color-interpolation-filters="sRGB">
<feFlood flood-opacity="0" result="BackgroundImageFix"/>
<feColorMatrix in="SourceAlpha" type="matrix" values="0 0 0 0 0 0 0 0 0 0 0 0 0 0 0 0 0 0 127 0"/>
<feOffset dy="70"/>
<feGaussianBlur stdDeviation="2"/>
<feColorMatrix type="matrix" values="0 0 0 0 0.8125 0 0 0 0 0.809115 0 0 0 0 0.809115 0 0 0 0.1 0"/>
<feBlend mode="normal" in2="BackgroundImageFix" result="effect1_dropShadow"/>
<feBlend mode="normal" in="SourceGraphic" in2="effect1_dropShadow" result="shape"/>
</filter>
</defs>
</svg>
