<svg width="69" height="54" viewBox="0 0 69 54" fill="none" xmlns="http://www.w3.org/2000/svg">
<path d="M23.9506 22.6653C23.9506 22.9787 23.7383 23.1876 23.4198 23.1876C23.1014 23.1876 22.8891 22.9787 22.8891 22.6653C22.8891 22.352 23.1014 22.1431 23.4198 22.1431C23.6321 22.1431 23.9506 22.352 23.9506 22.6653Z" fill="#4D4D4D"/>
<path d="M42.4204 28.2011C41.5712 28.2011 40.8281 28.9322 40.8281 29.7678C40.8281 30.6034 41.5712 31.3346 42.4204 31.3346C43.2696 31.3346 44.0126 30.6034 44.0126 29.7678C44.1188 28.8278 43.3757 28.2011 42.4204 28.2011ZM42.4204 28.2011C41.5712 28.2011 40.8281 28.9322 40.8281 29.7678C40.8281 30.6034 41.5712 31.3346 42.4204 31.3346C43.2696 31.3346 44.0126 30.6034 44.0126 29.7678C44.1188 28.8278 43.3757 28.2011 42.4204 28.2011ZM38.1744 37.8104C35.2023 36.2437 33.1854 33.2146 33.1854 29.7678C33.1854 26.8433 34.5654 24.2321 36.7945 22.5609L29.4702 20.9942C29.6825 21.5164 29.6825 22.1431 29.6825 22.7698C29.6825 26.2166 26.8165 29.0367 23.3136 29.0367C22.9951 29.0367 22.5705 29.0367 22.2521 28.9323L24.2689 35.7214C25.2243 34.9903 26.2858 34.5725 27.5595 34.5725C30.5317 34.5725 32.9731 36.9748 32.9731 39.8994L38.1744 37.8104ZM27.6657 39.586C27.4534 39.586 27.3472 39.6905 27.3472 39.8994C27.3472 40.0038 27.4534 40.2127 27.6657 40.2127C27.7718 40.2127 27.878 40.1083 27.878 39.8994C27.9841 39.6905 27.878 39.586 27.6657 39.586ZM42.4204 28.2011C41.5712 28.2011 40.8281 28.9322 40.8281 29.7678C40.8281 30.6034 41.5712 31.3346 42.4204 31.3346C43.2696 31.3346 44.0126 30.6034 44.0126 29.7678C44.1188 28.8278 43.3757 28.2011 42.4204 28.2011ZM42.4204 28.2011C41.5712 28.2011 40.8281 28.9322 40.8281 29.7678C40.8281 30.6034 41.5712 31.3346 42.4204 31.3346C43.2696 31.3346 44.0126 30.6034 44.0126 29.7678C44.1188 28.8278 43.3757 28.2011 42.4204 28.2011ZM38.1744 37.8104C35.2023 36.2437 33.1854 33.2146 33.1854 29.7678C33.1854 26.8433 34.5654 24.2321 36.7945 22.5609L29.4702 20.9942C29.6825 21.5164 29.6825 22.1431 29.6825 22.7698C29.6825 26.2166 26.8165 29.0367 23.3136 29.0367C22.9951 29.0367 22.5705 29.0367 22.2521 28.9323L24.2689 35.7214C25.2243 34.9903 26.2858 34.5725 27.5595 34.5725C30.5317 34.5725 32.9731 36.9748 32.9731 39.8994L38.1744 37.8104ZM27.6657 39.586C27.4534 39.586 27.3472 39.6905 27.3472 39.8994C27.3472 40.0038 27.4534 40.2127 27.6657 40.2127C27.7718 40.2127 27.878 40.1083 27.878 39.8994C27.9841 39.6905 27.878 39.586 27.6657 39.586ZM27.6657 39.586C27.4534 39.586 27.3472 39.6905 27.3472 39.8994C27.3472 40.0038 27.4534 40.2127 27.6657 40.2127C27.7718 40.2127 27.878 40.1083 27.878 39.8994C27.9841 39.6905 27.878 39.586 27.6657 39.586ZM38.1744 37.8104C35.2023 36.2437 33.1854 33.2146 33.1854 29.7678C33.1854 26.8433 34.5654 24.2321 36.7945 22.5609L29.4702 20.9942C29.6825 21.5164 29.6825 22.1431 29.6825 22.7698C29.6825 26.2166 26.8165 29.0367 23.3136 29.0367C22.9951 29.0367 22.5705 29.0367 22.2521 28.9323L24.2689 35.7214C25.2243 34.9903 26.2858 34.5725 27.5595 34.5725C30.5317 34.5725 32.9731 36.9748 32.9731 39.8994L38.1744 37.8104ZM42.4204 28.2011C41.5712 28.2011 40.8281 28.9322 40.8281 29.7678C40.8281 30.6034 41.5712 31.3346 42.4204 31.3346C43.2696 31.3346 44.0126 30.6034 44.0126 29.7678C44.1188 28.8278 43.3757 28.2011 42.4204 28.2011ZM42.4204 28.2011C41.5712 28.2011 40.8281 28.9322 40.8281 29.7678C40.8281 30.6034 41.5712 31.3346 42.4204 31.3346C43.2696 31.3346 44.0126 30.6034 44.0126 29.7678C44.1188 28.8278 43.3757 28.2011 42.4204 28.2011ZM38.1744 37.8104C35.2023 36.2437 33.1854 33.2146 33.1854 29.7678C33.1854 26.8433 34.5654 24.2321 36.7945 22.5609L29.4702 20.9942C29.6825 21.5164 29.6825 22.1431 29.6825 22.7698C29.6825 26.2166 26.8165 29.0367 23.3136 29.0367C22.9951 29.0367 22.5705 29.0367 22.2521 28.9323L24.2689 35.7214C25.2243 34.9903 26.2858 34.5725 27.5595 34.5725C30.5317 34.5725 32.9731 36.9748 32.9731 39.8994L38.1744 37.8104ZM27.6657 39.586C27.4534 39.586 27.3472 39.6905 27.3472 39.8994C27.3472 40.0038 27.4534 40.2127 27.6657 40.2127C27.7718 40.2127 27.878 40.1083 27.878 39.8994C27.9841 39.6905 27.878 39.586 27.6657 39.586ZM27.6657 39.586C27.4534 39.586 27.3472 39.6905 27.3472 39.8994C27.3472 40.0038 27.4534 40.2127 27.6657 40.2127C27.7718 40.2127 27.878 40.1083 27.878 39.8994C27.9841 39.6905 27.878 39.586 27.6657 39.586ZM38.1744 37.8104C35.2023 36.2437 33.1854 33.2146 33.1854 29.7678C33.1854 26.8433 34.5654 24.2321 36.7945 22.5609L29.4702 20.9942C29.6825 21.5164 29.6825 22.1431 29.6825 22.7698C29.6825 26.2166 26.8165 29.0367 23.3136 29.0367C22.9951 29.0367 22.5705 29.0367 22.2521 28.9323L24.2689 35.7214C25.2243 34.9903 26.2858 34.5725 27.5595 34.5725C30.5317 34.5725 32.9731 36.9748 32.9731 39.8994L38.1744 37.8104ZM42.4204 28.2011C41.5712 28.2011 40.8281 28.9322 40.8281 29.7678C40.8281 30.6034 41.5712 31.3346 42.4204 31.3346C43.2696 31.3346 44.0126 30.6034 44.0126 29.7678C44.1188 28.8278 43.3757 28.2011 42.4204 28.2011ZM41.5712 12.116L40.722 11.4893L40.8281 11.3849H28.5149L28.621 11.4893L27.5595 12.2205L20.5537 16.9207L20.6599 17.0251C21.5091 16.6073 22.4644 16.294 23.5259 16.294C24.4812 16.294 25.4366 16.5029 26.2857 16.9207L42.9511 20.4719C47.9401 20.5764 51.9738 24.6499 51.9738 29.559C51.9738 33.4236 49.5323 36.7659 46.1356 38.1237L45.9233 38.2282L41.9958 39.6905L31.1686 44.0773C30.3194 44.704 29.1518 45.1218 27.9841 45.1218C25.012 45.1218 22.5705 42.7195 22.5705 39.7949C22.5705 39.6905 22.5705 39.6905 22.5705 39.586L18.5369 26.321C17.6877 25.2766 17.2631 24.0232 17.2631 22.5609C17.2631 20.7853 18.0061 19.2185 19.1738 18.0696L19.0676 17.9651L11.8495 22.8742L16.6262 34.7814L24.2689 54H45.3925L53.0353 34.7814L57.812 22.8742L41.5712 12.116ZM44.1187 29.7678C44.1187 28.9322 43.3757 28.2011 42.5265 28.2011C41.6773 28.2011 40.9343 28.9322 40.9343 29.7678C40.9343 30.6034 41.6773 31.3346 42.5265 31.3346C43.3757 31.3346 44.1187 30.6034 44.1187 29.7678ZM23.3136 28.9323C22.9951 28.9323 22.5705 28.9323 22.2521 28.8278L24.2689 35.617C25.2243 34.8858 26.2858 34.468 27.5595 34.468C30.5317 34.468 32.9731 36.8704 32.9731 39.7949L38.0683 37.8104C35.0961 36.2437 33.0793 33.2146 33.0793 29.7678C33.0793 26.8433 34.4592 24.2321 36.6883 22.5609L29.3641 20.9942C29.5764 21.5164 29.5764 22.1431 29.5764 22.7698C29.6825 26.1122 26.9227 28.9323 23.3136 28.9323ZM27.4534 39.7949C27.4534 39.8994 27.5595 40.1083 27.7718 40.1083C27.878 40.1083 27.9841 40.0038 27.9841 39.7949C27.9841 39.6905 27.878 39.4816 27.7718 39.4816C27.5595 39.586 27.4534 39.6905 27.4534 39.7949ZM42.4204 28.2011C41.5712 28.2011 40.8281 28.9322 40.8281 29.7678C40.8281 30.6034 41.5712 31.3346 42.4204 31.3346C43.2696 31.3346 44.0126 30.6034 44.0126 29.7678C44.1188 28.8278 43.3757 28.2011 42.4204 28.2011ZM38.1744 37.8104C35.2023 36.2437 33.1854 33.2146 33.1854 29.7678C33.1854 26.8433 34.5654 24.2321 36.7945 22.5609L29.4702 20.9942C29.6825 21.5164 29.6825 22.1431 29.6825 22.7698C29.6825 26.2166 26.8165 29.0367 23.3136 29.0367C22.9951 29.0367 22.5705 29.0367 22.2521 28.9323L24.2689 35.7214C25.2243 34.9903 26.2858 34.5725 27.5595 34.5725C30.5317 34.5725 32.9731 36.9748 32.9731 39.8994L38.1744 37.8104ZM27.6657 39.586C27.4534 39.586 27.3472 39.6905 27.3472 39.8994C27.3472 40.0038 27.4534 40.2127 27.6657 40.2127C27.7718 40.2127 27.878 40.1083 27.878 39.8994C27.9841 39.6905 27.878 39.586 27.6657 39.586ZM27.6657 39.586C27.4534 39.586 27.3472 39.6905 27.3472 39.8994C27.3472 40.0038 27.4534 40.2127 27.6657 40.2127C27.7718 40.2127 27.878 40.1083 27.878 39.8994C27.9841 39.6905 27.878 39.586 27.6657 39.586ZM38.1744 37.8104C35.2023 36.2437 33.1854 33.2146 33.1854 29.7678C33.1854 26.8433 34.5654 24.2321 36.7945 22.5609L29.4702 20.9942C29.6825 21.5164 29.6825 22.1431 29.6825 22.7698C29.6825 26.2166 26.8165 29.0367 23.3136 29.0367C22.9951 29.0367 22.5705 29.0367 22.2521 28.9323L24.2689 35.7214C25.2243 34.9903 26.2858 34.5725 27.5595 34.5725C30.5317 34.5725 32.9731 36.9748 32.9731 39.8994L38.1744 37.8104ZM42.4204 28.2011C41.5712 28.2011 40.8281 28.9322 40.8281 29.7678C40.8281 30.6034 41.5712 31.3346 42.4204 31.3346C43.2696 31.3346 44.0126 30.6034 44.0126 29.7678C44.1188 28.8278 43.3757 28.2011 42.4204 28.2011ZM42.4204 28.2011C41.5712 28.2011 40.8281 28.9322 40.8281 29.7678C40.8281 30.6034 41.5712 31.3346 42.4204 31.3346C43.2696 31.3346 44.0126 30.6034 44.0126 29.7678C44.1188 28.8278 43.3757 28.2011 42.4204 28.2011ZM38.1744 37.8104C35.2023 36.2437 33.1854 33.2146 33.1854 29.7678C33.1854 26.8433 34.5654 24.2321 36.7945 22.5609L29.4702 20.9942C29.6825 21.5164 29.6825 22.1431 29.6825 22.7698C29.6825 26.2166 26.8165 29.0367 23.3136 29.0367C22.9951 29.0367 22.5705 29.0367 22.2521 28.9323L24.2689 35.7214C25.2243 34.9903 26.2858 34.5725 27.5595 34.5725C30.5317 34.5725 32.9731 36.9748 32.9731 39.8994L38.1744 37.8104ZM27.6657 39.586C27.4534 39.586 27.3472 39.6905 27.3472 39.8994C27.3472 40.0038 27.4534 40.2127 27.6657 40.2127C27.7718 40.2127 27.878 40.1083 27.878 39.8994C27.9841 39.6905 27.878 39.586 27.6657 39.586ZM38.1744 37.8104C35.2023 36.2437 33.1854 33.2146 33.1854 29.7678C33.1854 26.8433 34.5654 24.2321 36.7945 22.5609L29.4702 20.9942C29.6825 21.5164 29.6825 22.1431 29.6825 22.7698C29.6825 26.2166 26.8165 29.0367 23.3136 29.0367C22.9951 29.0367 22.5705 29.0367 22.2521 28.9323L24.2689 35.7214C25.2243 34.9903 26.2858 34.5725 27.5595 34.5725C30.5317 34.5725 32.9731 36.9748 32.9731 39.8994L38.1744 37.8104ZM42.4204 28.2011C41.5712 28.2011 40.8281 28.9322 40.8281 29.7678C40.8281 30.6034 41.5712 31.3346 42.4204 31.3346C43.2696 31.3346 44.0126 30.6034 44.0126 29.7678C44.1188 28.8278 43.3757 28.2011 42.4204 28.2011ZM42.4204 28.2011C41.5712 28.2011 40.8281 28.9322 40.8281 29.7678C40.8281 30.6034 41.5712 31.3346 42.4204 31.3346C43.2696 31.3346 44.0126 30.6034 44.0126 29.7678C44.1188 28.8278 43.3757 28.2011 42.4204 28.2011ZM38.1744 37.8104C35.2023 36.2437 33.1854 33.2146 33.1854 29.7678C33.1854 26.8433 34.5654 24.2321 36.7945 22.5609L29.4702 20.9942C29.6825 21.5164 29.6825 22.1431 29.6825 22.7698C29.6825 26.2166 26.8165 29.0367 23.3136 29.0367C22.9951 29.0367 22.5705 29.0367 22.2521 28.9323L24.2689 35.7214C25.2243 34.9903 26.2858 34.5725 27.5595 34.5725C30.5317 34.5725 32.9731 36.9748 32.9731 39.8994L38.1744 37.8104ZM42.4204 28.2011C41.5712 28.2011 40.8281 28.9322 40.8281 29.7678C40.8281 30.6034 41.5712 31.3346 42.4204 31.3346C43.2696 31.3346 44.0126 30.6034 44.0126 29.7678C44.1188 28.8278 43.3757 28.2011 42.4204 28.2011ZM42.4204 28.2011C41.5712 28.2011 40.8281 28.9322 40.8281 29.7678C40.8281 30.6034 41.5712 31.3346 42.4204 31.3346C43.2696 31.3346 44.0126 30.6034 44.0126 29.7678C44.1188 28.8278 43.3757 28.2011 42.4204 28.2011ZM27.6657 39.586C27.4534 39.586 27.3472 39.6905 27.3472 39.8994C27.3472 40.0038 27.4534 40.2127 27.6657 40.2127C27.7718 40.2127 27.878 40.1083 27.878 39.8994C27.9841 39.6905 27.878 39.586 27.6657 39.586ZM38.1744 37.8104C35.2023 36.2437 33.1854 33.2146 33.1854 29.7678C33.1854 26.8433 34.5654 24.2321 36.7945 22.5609L29.4702 20.9942C29.6825 21.5164 29.6825 22.1431 29.6825 22.7698C29.6825 26.2166 26.8165 29.0367 23.3136 29.0367C22.9951 29.0367 22.5705 29.0367 22.2521 28.9323L24.2689 35.7214C25.2243 34.9903 26.2858 34.5725 27.5595 34.5725C30.5317 34.5725 32.9731 36.9748 32.9731 39.8994L38.1744 37.8104ZM42.4204 28.2011C41.5712 28.2011 40.8281 28.9322 40.8281 29.7678C40.8281 30.6034 41.5712 31.3346 42.4204 31.3346C43.2696 31.3346 44.0126 30.6034 44.0126 29.7678C44.1188 28.8278 43.3757 28.2011 42.4204 28.2011Z" fill="#4D4D4D"/>
<path d="M41.3589 38.8549L32.4424 42.4062C32.6547 41.9884 32.867 41.5706 32.9732 41.0484L39.5544 38.4371C40.0851 38.646 40.722 38.7505 41.3589 38.8549Z" fill="#4D4D4D"/>
<path d="M39.6605 20.9942C39.1297 21.2031 38.4928 21.412 37.9621 21.7253L28.9394 19.7408C28.7271 19.323 28.4087 18.9052 28.0902 18.4874L39.6605 20.9942Z" fill="#4D4D4D"/>
<path d="M23.5259 36.4525C23.2075 36.7659 22.9952 37.1836 22.7829 37.6014L19.8107 27.8877C20.2353 28.201 20.6599 28.4099 21.0845 28.5144L23.5259 36.4525Z" fill="#4D4D4D"/>
<path d="M42.5265 21.6208C37.9621 21.6208 34.2469 25.2765 34.2469 29.7678C34.2469 34.2591 37.9621 37.9149 42.5265 37.9149C47.0909 37.9149 50.8061 34.2591 50.8061 29.7678C50.6999 25.2765 46.9847 21.6208 42.5265 21.6208ZM42.5265 32.3791C41.0404 32.3791 39.8727 31.2301 39.8727 29.7678C39.8727 28.3056 41.0404 27.1566 42.5265 27.1566C44.0125 27.1566 45.1802 28.3056 45.1802 29.7678C45.1802 31.2301 43.9064 32.3791 42.5265 32.3791Z" fill="#4D4D4D"/>
<path d="M23.4198 17.4429C20.4476 17.4429 18.1123 19.7407 18.1123 22.6653C18.1123 25.5899 20.4476 27.8877 23.4198 27.8877C26.3919 27.8877 28.7272 25.5899 28.7272 22.6653C28.6211 19.8452 26.2858 17.4429 23.4198 17.4429ZM23.4198 24.232C22.5706 24.232 21.8275 23.5009 21.8275 22.6653C21.8275 21.8297 22.5706 21.0986 23.4198 21.0986C24.269 21.0986 25.012 21.8297 25.012 22.6653C25.012 23.6053 24.269 24.232 23.4198 24.232Z" fill="#4D4D4D"/>
<path d="M27.6656 35.6169C25.2242 35.6169 23.3135 37.497 23.3135 39.8993C23.3135 42.3017 25.2242 44.1818 27.6656 44.1818C30.0009 44.1818 32.0177 42.3017 32.0177 39.8993C32.0177 37.497 30.107 35.6169 27.6656 35.6169ZM27.6656 41.1527C26.9226 41.1527 26.2857 40.526 26.2857 39.7949C26.2857 39.0638 26.9226 38.4371 27.6656 38.4371C28.4086 38.4371 28.9394 39.0638 28.9394 39.7949C29.0455 40.526 28.4086 41.1527 27.6656 41.1527Z" fill="#4D4D4D"/>
<path d="M20.8721 0V7.52032H48.2585V0H20.8721ZM22.252 6.78917H21.4028V0.626699H22.252V6.78917ZM23.7381 6.78917H22.8889V0.626699H23.7381V6.78917ZM25.2242 6.78917H24.375V0.626699H25.2242V6.78917ZM26.8164 6.78917H25.9672V0.626699H26.8164V6.78917ZM28.3025 6.78917H27.4533V0.626699H28.3025V6.78917ZM29.7886 6.78917H28.9394V0.626699H29.7886V6.78917ZM31.2747 6.78917H30.4255V0.626699H31.2747V6.78917ZM32.7608 6.78917H31.9116V0.626699H32.7608V6.78917ZM34.2468 6.78917H33.3977V0.626699H34.2468V6.78917ZM35.7329 6.78917H34.8837V0.626699H35.7329V6.78917ZM37.219 6.78917H36.3698V0.626699H37.219V6.78917ZM38.7051 6.78917H37.8559V0.626699H38.7051V6.78917ZM40.1912 6.78917H39.342V0.626699H40.1912V6.78917ZM41.6773 6.78917H40.8281V0.626699H41.6773V6.78917ZM43.1633 6.78917H42.3142V0.626699H43.1633V6.78917ZM44.6494 6.78917H43.8002V0.626699H44.6494V6.78917ZM46.1355 6.78917H45.2863V0.626699H46.1355V6.78917ZM47.7278 6.78917H46.8786V0.626699H47.7278V6.78917Z" fill="#4D4D4D"/>
<path d="M41.6774 8.25146H27.5596V10.236H41.6774V8.25146Z" fill="#4D4D4D"/>
<path d="M27.0288 11.2805L26.8165 11.4893L11.2126 22.1431L4.8437 26.53L4.10066 27.0522L1.44694 23.1876C0.0670104 21.3075 0.597755 18.6963 2.50843 17.3385L18.5369 6.47582C18.9615 6.16247 19.3861 5.95357 19.9168 5.84912V8.56479H25.2243L27.0288 11.2805Z" fill="#4D4D4D"/>
<path d="M15.1401 34.9903H10.5757C9.30194 34.9903 8.87733 33.6325 8.87733 33.6325L5.37442 27.3655L10.788 23.7098L15.1401 34.9903Z" fill="#4D4D4D"/>
<path d="M67.7898 23.0831L65.03 26.9477L64.2869 26.4255L57.918 22.0386L42.3141 11.3849L42.1018 11.176L44.0125 8.4603H49.32V5.74463C49.7446 5.84908 50.2753 6.05798 50.6999 6.37133L66.7284 17.234C68.639 18.5918 69.1698 21.0986 67.7898 23.0831Z" fill="#4D4D4D"/>
<path d="M63.7562 27.3655L60.2533 33.6325C60.2533 33.6325 59.8287 34.9903 58.5549 34.9903H53.9905L58.4488 23.7098L63.7562 27.3655Z" fill="#4D4D4D"/>
</svg>
