<svg width="69" height="67" viewBox="0 0 69 67" fill="none" xmlns="http://www.w3.org/2000/svg">
<g clip-path="url(#clip0)">
<path d="M49.1688 20.3299C49.7744 20.3299 50.2653 19.8468 50.2653 19.2509C50.2653 18.6551 49.7744 18.172 49.1688 18.172C48.5632 18.172 48.0723 18.6551 48.0723 19.2509C48.0723 19.8468 48.5632 20.3299 49.1688 20.3299Z" fill="black"/>
<path d="M42.8731 28.4499C42.8815 28.441 42.8642 28.4584 42.8731 28.4499V28.4499Z" fill="black"/>
<path d="M39.8188 25.4456C39.8105 25.4542 39.8273 25.4373 39.8188 25.4456V25.4456Z" fill="black"/>
<path d="M65.5801 16.8575H64.2402C63.8108 15.14 63.1231 13.5073 62.1907 11.9918L63.1391 11.0586C64.208 10.0066 64.2079 8.29509 63.1391 7.24337L60.9607 5.09988C59.8917 4.04803 58.1523 4.04803 57.0835 5.09988L56.1351 6.03305C54.5945 5.11532 52.935 4.43878 51.19 4.01636V2.69768C51.19 1.21019 49.96 0 48.4482 0H45.3673C43.8556 0 42.6257 1.21019 42.6257 2.69768V4.0161C40.8804 4.43865 39.2213 5.11506 37.6806 6.03278L36.7323 5.09962C35.6633 4.04803 33.9241 4.04803 32.8551 5.09962L30.6767 7.24311C29.6077 8.29496 29.6077 10.0065 30.6767 11.0585L31.6251 11.9915C30.6927 13.5073 30.0048 15.1401 29.5756 16.8573H28.2357C26.724 16.8573 25.4941 18.0675 25.4941 19.5551V22.5865C25.4941 24.0739 26.724 25.2841 28.2357 25.2841H29.5756C30.0022 26.99 30.6858 28.617 31.6111 30.1274L31.8472 30.5269L13.7241 48.3598C10.2014 47.112 6.17036 47.9732 3.49965 50.6009C0.776149 53.2808 -0.0910793 57.3005 1.29016 60.8417C1.41064 61.1506 1.68168 61.3784 2.01043 61.4471C2.33931 61.5158 2.6811 61.4163 2.91889 61.1825L8.00828 56.1746L10.5229 57.1923L11.6371 59.7586L6.55457 64.7597C6.31678 64.9935 6.21558 65.33 6.28553 65.6536C6.35548 65.9771 6.58689 66.2439 6.90074 66.3623C8.03741 66.7915 9.22275 67.0001 10.3982 67.0001C12.9445 67.0001 15.4451 66.0217 17.3084 64.1882C19.9791 61.5603 20.8541 57.5938 19.586 54.1276L22.9479 50.8195C23.3355 50.438 23.3355 49.8195 22.9479 49.438C22.5602 49.0567 21.9316 49.0567 21.544 49.438L17.7194 53.2015C17.429 53.4871 17.3474 53.9191 17.5139 54.2884C18.8093 57.1619 18.1626 60.585 15.9046 62.8067C14.1201 64.5626 11.6022 65.3336 9.16862 64.9503L13.5158 60.6728C13.8027 60.3905 13.886 59.9652 13.7267 59.5983L12.1892 56.057C12.0871 55.8214 11.8948 55.6348 11.6539 55.5373L8.15191 54.12C7.78167 53.9703 7.35557 54.0537 7.07243 54.3326L2.72525 58.6102C2.33533 56.2158 3.11944 53.7379 4.90363 51.9821C7.16154 49.7601 10.6404 49.124 13.5606 50.3987C13.9359 50.5623 14.3749 50.4823 14.6652 50.1965L39.819 25.4456C40.1093 25.16 40.191 24.728 40.0245 24.3587C38.729 21.4853 39.3757 18.0621 41.6338 15.8404C43.4181 14.0845 45.9363 13.3128 48.3697 13.6969C48.3665 13.6999 48.3697 13.6969 48.3665 13.6999L44.0095 17.9871C44.0017 17.9948 43.9942 18.0026 43.9866 18.0104C43.9856 18.0116 43.9845 18.0126 43.9834 18.0138C43.9821 18.0153 43.9808 18.0167 43.9793 18.0183C43.9721 18.026 43.9651 18.0337 43.9583 18.0416C43.9567 18.0434 43.9551 18.0452 43.9536 18.0471C43.9511 18.0499 43.9487 18.0528 43.9462 18.0557C43.9438 18.0586 43.9414 18.0616 43.939 18.0645C43.9376 18.0663 43.9361 18.068 43.9346 18.0698C43.9324 18.0726 43.9301 18.0755 43.9278 18.0782C43.9263 18.0803 43.9245 18.0824 43.9229 18.0845C43.9207 18.0875 43.9184 18.0904 43.9161 18.0934C43.9148 18.0952 43.9134 18.097 43.9119 18.0989C43.9098 18.1016 43.9078 18.1045 43.9058 18.1073C43.9042 18.1095 43.9025 18.1117 43.9009 18.1139C43.8989 18.1167 43.897 18.1194 43.8951 18.122C43.8935 18.1243 43.8919 18.1265 43.8905 18.1287C43.8886 18.1315 43.8868 18.1342 43.8849 18.137C43.8833 18.1393 43.8817 18.1418 43.8801 18.1442C43.8782 18.147 43.8764 18.1499 43.8745 18.1528C43.8732 18.1549 43.8717 18.157 43.8704 18.1591C43.8684 18.1623 43.8663 18.1656 43.8643 18.1689C43.8631 18.1708 43.8619 18.1727 43.8607 18.1746C43.8588 18.1777 43.857 18.1809 43.8551 18.1841C43.8539 18.1862 43.8526 18.1883 43.8514 18.1903C43.8497 18.1932 43.8481 18.1961 43.8463 18.199C43.845 18.2013 43.8435 18.2038 43.8422 18.2062C43.8406 18.2091 43.839 18.2119 43.8374 18.2148C43.8361 18.2173 43.8348 18.2197 43.8336 18.222C43.8317 18.2254 43.83 18.2288 43.8282 18.2322C43.8273 18.2342 43.8262 18.236 43.8253 18.2378C43.8237 18.2411 43.822 18.2444 43.8204 18.2475C43.8193 18.2498 43.8181 18.252 43.8171 18.2543C43.8156 18.2573 43.8141 18.2604 43.8127 18.2634C43.8115 18.2659 43.8104 18.2682 43.8092 18.2706C43.8076 18.2738 43.8062 18.2771 43.8047 18.2804C43.8038 18.2826 43.8027 18.2847 43.8018 18.2868C43.8004 18.2897 43.7992 18.2925 43.7979 18.2956C43.7967 18.2983 43.7955 18.3011 43.7943 18.3039C43.7931 18.3067 43.7921 18.3094 43.7909 18.3122C43.7898 18.3149 43.7887 18.3175 43.7877 18.3202C43.7863 18.3236 43.785 18.327 43.7837 18.3304C43.7829 18.3326 43.782 18.3347 43.7812 18.3369C43.7798 18.3403 43.7786 18.3437 43.7774 18.3471C43.7766 18.3493 43.7758 18.3516 43.775 18.3538C43.7737 18.3573 43.7725 18.361 43.7713 18.3647C43.7707 18.3667 43.77 18.3687 43.7692 18.3707C43.768 18.3741 43.7669 18.3775 43.7659 18.3807C43.7651 18.3834 43.7643 18.3857 43.7635 18.3882C43.7625 18.3911 43.7616 18.3941 43.7608 18.397C43.7599 18.3999 43.7591 18.4026 43.7583 18.4055C43.7575 18.4084 43.7566 18.4112 43.7558 18.4141C43.755 18.4169 43.7542 18.4197 43.7534 18.4225C43.7524 18.4256 43.7516 18.4288 43.7508 18.432C43.7502 18.4347 43.7495 18.4371 43.7488 18.4398C43.7479 18.4433 43.7471 18.4467 43.7462 18.4502C43.7457 18.4525 43.7451 18.4546 43.7446 18.4568C43.7437 18.4604 43.7429 18.4642 43.7421 18.4679C43.7415 18.4701 43.741 18.4723 43.7406 18.4746C43.7399 18.4778 43.7391 18.4812 43.7385 18.4847C43.7379 18.4871 43.7374 18.4896 43.737 18.4921C43.7363 18.4956 43.7357 18.499 43.735 18.5026C43.7346 18.5049 43.7341 18.5073 43.7337 18.5096C43.733 18.513 43.7325 18.5164 43.732 18.5199C43.7316 18.5225 43.731 18.525 43.7306 18.5276C43.7301 18.5308 43.7296 18.5341 43.7292 18.5373C43.7288 18.5399 43.7284 18.5425 43.728 18.5451C43.7274 18.5489 43.7269 18.5527 43.7265 18.5564C43.7262 18.5583 43.726 18.5603 43.7257 18.5623C43.7252 18.5662 43.7248 18.5702 43.7244 18.5743C43.7241 18.5763 43.724 18.5782 43.7237 18.5802C43.7233 18.584 43.7229 18.5879 43.7226 18.5918C43.7224 18.594 43.7222 18.5961 43.722 18.5984C43.7217 18.6019 43.7214 18.6056 43.7212 18.6091C43.7211 18.6116 43.7208 18.6139 43.7206 18.6163C43.7204 18.62 43.7202 18.6236 43.72 18.6273C43.7199 18.6296 43.7197 18.6319 43.7196 18.6342C43.7195 18.638 43.7193 18.6418 43.7192 18.6455C43.7191 18.6476 43.7191 18.6497 43.7189 18.6518C43.7188 18.6558 43.7187 18.66 43.7187 18.6641C43.7187 18.6659 43.7185 18.6677 43.7185 18.6696C43.7185 18.6736 43.7185 18.6777 43.7185 18.6817C43.7185 18.6837 43.7185 18.6857 43.7185 18.6876C43.7185 18.6919 43.7187 18.6961 43.7187 18.7004C43.7187 18.702 43.7187 18.7036 43.7188 18.7052C43.7189 18.7095 43.7191 18.7137 43.7192 18.718C43.7193 18.7198 43.7193 18.7216 43.7195 18.7235C43.7196 18.7275 43.7199 18.7317 43.7201 18.7358C43.7203 18.7376 43.7204 18.7394 43.7204 18.7413C43.7206 18.7456 43.7209 18.75 43.7213 18.7544C43.7215 18.7558 43.7216 18.7574 43.7217 18.7588C43.7221 18.7631 43.7225 18.7676 43.7229 18.7719C43.723 18.7736 43.7233 18.7753 43.7234 18.7771C43.7238 18.7814 43.7244 18.7858 43.7249 18.7901C43.725 18.7916 43.7253 18.7934 43.7254 18.7949C43.726 18.7992 43.7265 18.8034 43.727 18.8077C43.7273 18.8096 43.7276 18.8113 43.7277 18.8131C43.7284 18.8174 43.7289 18.8217 43.7296 18.8261C43.7298 18.8276 43.7301 18.8292 43.7302 18.8308C43.7309 18.8352 43.7317 18.8395 43.7323 18.844C43.7326 18.8457 43.7329 18.8474 43.7333 18.8491C43.7341 18.8533 43.7349 18.8575 43.7357 18.8617C43.7359 18.8634 43.7363 18.8649 43.7366 18.8666C43.7375 18.8709 43.7383 18.8754 43.7393 18.8798C43.7395 18.8814 43.7399 18.883 43.7403 18.8846C43.7413 18.889 43.7423 18.8936 43.7434 18.8979C43.7437 18.8993 43.7441 18.9007 43.7443 18.9021C43.7454 18.9063 43.7463 18.9106 43.7474 18.9148C43.7479 18.9168 43.7484 18.9187 43.7488 18.9207C43.7499 18.9246 43.751 18.9287 43.752 18.9325L43.7535 18.938C43.7547 18.9421 43.7559 18.9463 43.7571 18.9505C43.7576 18.9522 43.758 18.9538 43.7586 18.9555C43.7598 18.9595 43.7609 18.9636 43.7623 18.9677C43.7629 18.9697 43.7636 18.9717 43.7641 18.9737C43.7653 18.9775 43.7665 18.9811 43.7677 18.9849C43.7685 18.9872 43.7692 18.9894 43.77 18.9915C43.7712 18.995 43.7725 18.9987 43.7737 19.0023C43.7745 19.0046 43.7753 19.0069 43.7761 19.0091C43.7773 19.0125 43.7785 19.0158 43.7798 19.0192C43.7809 19.022 43.7818 19.0246 43.7829 19.0273C43.7841 19.0305 43.7853 19.0335 43.7865 19.0366C43.7875 19.0392 43.7886 19.0419 43.7897 19.0445C43.791 19.0476 43.7922 19.0508 43.7935 19.0539C43.7941 19.0552 43.7946 19.0565 43.7951 19.0577L45.2488 22.4905C45.3478 22.7243 45.535 22.911 45.7711 23.0114L49.3569 24.5373C49.7307 24.6963 50.1651 24.6147 50.4529 24.3315L54.8131 20.041C55.203 22.4353 54.4189 24.9134 52.6347 26.669C50.3768 28.8909 46.8978 29.527 43.9777 28.2526C43.6023 28.0889 43.1634 28.169 42.8731 28.4548L24.3525 46.6748C23.9648 47.0564 23.9648 47.6748 24.3525 48.0563C24.7402 48.4376 25.3688 48.4376 25.7563 48.0563L37.8175 36.1883C39.3201 37.065 40.935 37.7153 42.6265 38.1251V39.4436C42.6265 40.9311 43.8564 42.1413 45.3681 42.1413H48.449C49.9607 42.1413 51.1906 40.9311 51.1906 39.4436V38.1251C52.9363 37.7025 54.5955 37.0258 56.1357 36.1084L57.084 37.0415C57.6018 37.551 58.2904 37.8315 59.0226 37.8315C59.7549 37.8315 60.4434 37.551 60.9612 37.0415L63.1396 34.898C63.6575 34.3886 63.9426 33.711 63.9426 32.9905C63.9426 32.2699 63.6575 31.5925 63.1396 31.0828L62.1912 30.1498C63.1236 28.634 63.8115 27.0012 64.2408 25.2839H65.5806C67.0923 25.2839 68.3222 24.0737 68.3222 22.5862V19.5548C68.3218 18.0677 67.0919 16.8575 65.5801 16.8575ZM51.5475 20.4876L49.5374 22.4655L46.9268 21.2853L45.8884 18.9014L48.3859 16.4438L51.1825 17.2695L52.0215 20.0212L51.5475 20.4876ZM66.3364 22.5867C66.3364 22.997 65.9972 23.3308 65.5802 23.3308H63.7365C63.1042 23.3308 62.5479 23.7735 62.4144 24.3834C62.0128 26.213 61.2853 27.9402 60.252 29.5175C59.9086 30.0417 59.9839 30.7417 60.4309 31.1815L61.7352 32.465C61.8781 32.6055 61.9566 32.7924 61.9566 32.991C61.9566 33.1898 61.8781 33.3767 61.7351 33.5172L59.5567 35.6607C59.2619 35.9509 58.782 35.9509 58.4872 35.6607L57.1828 34.3772C56.736 33.9375 56.0246 33.8635 55.4915 34.2013C53.8891 35.218 52.1336 35.9338 50.2743 36.3291C49.6543 36.4606 49.2044 37.0078 49.2044 37.63V39.4444C49.2044 39.8546 48.8651 40.1885 48.4482 40.1885H45.3676C44.9507 40.1885 44.6114 39.8546 44.6114 39.4444V37.6301C44.6114 37.0079 44.1614 36.4606 43.5418 36.3291C42.0451 36.0111 40.6117 35.4831 39.272 34.7575L41.1566 32.9032C42.9428 33.7437 44.9161 34.1852 46.9082 34.1852C53.2708 34.1852 58.7717 29.7313 59.9883 23.5947C60.0932 23.0653 59.7421 22.5523 59.204 22.4491C58.6658 22.3455 58.1445 22.6912 58.0397 23.2209C57.0048 28.4421 52.3232 32.2319 46.9084 32.2319C45.4503 32.2319 44.0047 31.9542 42.6623 31.4219L43.8147 30.288C47.3377 31.5356 51.3685 30.6748 54.0391 28.0469C56.7626 25.367 57.6298 21.3472 56.2486 17.8057C56.1281 17.4969 55.8571 17.2691 55.5283 17.2004C55.1998 17.1318 54.8576 17.2311 54.6199 17.465L53.6166 18.4522L52.9311 16.2043C52.8353 15.8897 52.5851 15.6437 52.2657 15.5495L49.9812 14.875L50.9843 13.8879C51.222 13.6541 51.3233 13.3176 51.2533 12.994C51.1834 12.6705 50.9519 12.4037 50.638 12.2853C47.039 10.9263 42.954 11.7796 40.2305 14.4593C37.5599 17.0873 36.6848 21.0537 37.9529 24.5199L36.6388 25.813C35.9343 24.337 35.5662 22.7195 35.5662 21.0712C35.5662 14.9171 40.6543 9.91056 46.9086 9.91056C52.5938 9.91056 57.4291 14.0871 58.1565 19.6259C58.2267 20.161 58.7243 20.5386 59.2681 20.4695C59.8119 20.4003 60.1957 19.9106 60.1254 19.3757C59.2707 12.866 53.5886 7.95708 46.9084 7.95708C39.5597 7.95708 33.5807 13.8402 33.5807 21.0714C33.5807 23.2427 34.1249 25.3692 35.1605 27.2677L33.2994 29.0988C32.4059 27.6353 31.7675 26.0492 31.402 24.3837C31.2681 23.7738 30.7121 23.3311 30.0797 23.3311H28.2361C27.8192 23.3311 27.4799 22.9972 27.4799 22.587V19.5556C27.4799 19.1454 27.8192 18.8114 28.2361 18.8114H30.0799C30.7121 18.8114 31.2681 18.3688 31.4019 17.7589C31.8035 15.9293 32.531 14.2021 33.5643 12.6249C33.908 12.1002 33.8324 11.4003 33.3855 10.9608L32.0811 9.6775C31.7863 9.38725 31.7863 8.91511 32.0811 8.62499L34.2595 6.4815C34.5543 6.19126 35.0341 6.19126 35.329 6.4815L36.6332 7.76485C37.0802 8.20493 37.7916 8.279 38.3247 7.94099C39.9276 6.9242 41.683 6.2084 43.5427 5.8132C44.1622 5.68116 44.6118 5.13417 44.6118 4.51245V2.69768C44.6118 2.28744 44.9511 1.95361 45.368 1.95361H48.4488C48.8658 1.95361 49.205 2.28744 49.205 2.69768V4.51206C49.205 5.13364 49.6547 5.6809 50.2747 5.81294C52.1339 6.20801 53.8892 6.92381 55.4919 7.94046C56.0248 8.27861 56.7361 8.20441 57.1835 7.76472L58.4879 6.48124C58.7827 6.19099 59.2625 6.19099 59.5574 6.48124L61.7358 8.62473C62.0306 8.91485 62.0306 9.38699 61.7358 9.67711L60.4317 10.9603C59.9843 11.4001 59.9089 12.1001 60.2525 12.625C61.2857 14.202 62.0132 15.9292 62.4148 17.7586C62.5486 18.3687 63.1045 18.8113 63.7369 18.8113H65.5806C65.9976 18.8113 66.3368 19.1451 66.3368 19.5555V22.5867H66.3364Z" fill="black"/>
<path d="M20.837 19.3477H20.2808C20.1751 19.0469 20.0516 18.7532 19.9107 18.4672L20.3039 18.0805C20.8842 17.5092 20.8842 16.5797 20.3037 16.0082L18.5723 14.3047C18.291 14.0279 17.9171 13.8756 17.5193 13.8756C17.1215 13.8756 16.7476 14.0281 16.4664 14.3047L16.0734 14.6914C15.783 14.5529 15.4843 14.4312 15.1787 14.3272V13.7799C15.1787 12.9719 14.5107 12.3146 13.6895 12.3146H11.2408C10.4196 12.3146 9.75162 12.9719 9.75162 13.7799V14.3272C9.44601 14.4312 9.14744 14.5528 8.85686 14.6914L8.46401 14.3048C8.18273 14.0281 7.80877 13.8756 7.41099 13.8756C7.01322 13.8756 6.63925 14.0279 6.35798 14.3047L4.62645 16.0084C4.04608 16.5797 4.04608 17.5092 4.62658 18.0807L5.01956 18.4672C4.87886 18.753 4.75518 19.0469 4.64945 19.3477H4.09329C3.27207 19.3477 2.60406 20.005 2.60406 20.813V23.2223C2.6042 24.0304 3.27221 24.6877 4.09342 24.6877H4.64959C4.75531 24.9884 4.87886 25.2822 5.0197 25.5681L4.62658 25.9548C4.04621 26.5261 4.04621 27.4556 4.62671 28.0271L6.35811 29.7306C6.63938 30.0074 7.01335 30.1597 7.41113 30.1597C7.80903 30.1597 8.18287 30.0073 8.46401 29.7306L8.85699 29.3439C9.14744 29.4824 9.44614 29.6041 9.75175 29.7081V30.2554C9.75175 31.0634 10.4198 31.7207 11.241 31.7207H13.6895C14.5107 31.7207 15.1787 31.0634 15.1787 30.2554V29.7081C15.4843 29.6041 15.7829 29.4825 16.0734 29.3439L16.4663 29.7305C16.7476 30.0073 17.1215 30.1597 17.5193 30.1597C17.9171 30.1597 18.291 30.0074 18.5723 29.7306L20.3039 28.027C20.8842 27.4556 20.8842 26.5261 20.3037 25.9547L19.9107 25.5681C20.0514 25.2823 20.1751 24.9884 20.2808 24.6877H20.837C21.6582 24.6877 22.3262 24.0304 22.3262 23.2223V20.813C22.3262 20.0051 21.6582 19.3477 20.837 19.3477ZM20.3403 22.7339H19.5382C19.0801 22.7339 18.6814 23.0425 18.5734 23.4806C18.4203 24.1019 18.1723 24.6918 17.8362 25.2337C17.5976 25.6187 17.6576 26.1144 17.9818 26.4332L18.5484 26.9905L17.5189 28.0035L16.9524 27.4461C16.6283 27.1275 16.1249 27.0683 15.7336 27.3028C15.1827 27.6336 14.5831 27.8775 13.9518 28.0281C13.5066 28.1343 13.193 28.5266 13.193 28.9775V29.7667H11.7369V28.9775C11.7369 28.5266 11.4233 28.1344 10.9781 28.0281C10.3467 27.8775 9.74723 27.6336 9.19625 27.3028C8.80513 27.068 8.30136 27.1269 7.97753 27.4461L7.41099 28.0035L6.38152 26.9905L6.94805 26.4332C7.27202 26.1144 7.33213 25.6187 7.09368 25.2337C6.75761 24.6918 6.50959 24.1019 6.35651 23.4806C6.24866 23.0425 5.84982 22.7339 5.39167 22.7339H4.58961V21.3013H5.39167C5.84982 21.3013 6.24853 20.9927 6.35651 20.5546C6.50959 19.9333 6.75761 19.3433 7.09368 18.8014C7.33226 18.4165 7.27228 17.9208 6.94805 17.602L6.38152 17.0446L7.41099 16.0317L7.97753 16.5891C8.30163 16.9078 8.80513 16.967 9.19625 16.7324C9.74723 16.4016 10.3467 16.1577 10.9781 16.0071C11.4233 15.9009 11.7369 15.5086 11.7369 15.0577V14.2684H13.1929V15.0577C13.1929 15.5086 13.5065 15.9008 13.9517 16.0071C14.583 16.1577 15.1825 16.4016 15.7335 16.7324C16.1244 16.9669 16.6283 16.908 16.9522 16.5891L17.5188 16.0317L18.5482 17.0446L17.9817 17.602C17.6577 17.9208 17.5976 18.4165 17.8361 18.8014C18.1722 19.3433 18.4202 19.9333 18.5733 20.5546C18.6811 20.9927 19.0799 21.3013 19.5381 21.3013H20.3402V22.7339H20.3403Z" fill="black"/>
<path d="M12.465 17.2638C9.80109 17.2638 7.63388 19.3964 7.63388 22.0176C7.63388 24.6387 9.80122 26.7713 12.465 26.7713C15.1288 26.7713 17.2961 24.6387 17.2961 22.0176C17.2961 19.3964 15.1289 17.2638 12.465 17.2638ZM12.465 24.8178C10.8959 24.8178 9.61929 23.5617 9.61929 22.0177C9.61929 20.4737 10.8959 19.2175 12.465 19.2175C14.0342 19.2175 15.3107 20.4737 15.3107 22.0177C15.3109 23.5616 14.0342 24.8178 12.465 24.8178Z" fill="black"/>
<path d="M55.5154 51.6477H54.9592C54.8535 51.347 54.73 51.0532 54.5891 50.7673L54.9822 50.3806C55.5626 49.8092 55.5626 48.8797 54.9821 48.3083L53.2507 46.6047C52.9694 46.328 52.5955 46.1757 52.1977 46.1757C51.7999 46.1757 51.426 46.3281 51.1448 46.6047L50.7518 46.9914C50.4614 46.853 50.1627 46.7313 49.8571 46.6272V46.08C49.8571 45.2719 49.1891 44.6146 48.3678 44.6146H45.9195C45.0983 44.6146 44.4303 45.2719 44.4303 46.08V46.6272C44.1247 46.7313 43.8261 46.8529 43.5355 46.9914L43.1427 46.6049C42.8614 46.3281 42.4874 46.1757 42.0896 46.1757C41.6919 46.1757 41.3179 46.328 41.0366 46.6047L39.3051 48.3084C38.7247 48.8797 38.7247 49.8092 39.3052 50.3807L39.6982 50.7673C39.5575 51.0531 39.4338 51.347 39.3281 51.6477H38.7719C37.9507 51.6477 37.2827 52.305 37.2827 53.1131V55.5223C37.2827 56.3304 37.9507 56.9877 38.7719 56.9877H39.3281C39.4338 57.2884 39.5574 57.5822 39.6982 57.8681L39.3051 58.2548C38.7247 58.8262 38.7247 59.7557 39.3052 60.3271L41.0366 62.0307C41.3179 62.3074 41.6919 62.4598 42.0896 62.4598C42.4874 62.4598 42.8614 62.3073 43.1425 62.0307L43.5355 61.644C43.826 61.7824 44.1247 61.9041 44.4303 62.0082V62.5554C44.4303 63.3635 45.0983 64.0208 45.9195 64.0208H48.3678C49.1891 64.0208 49.8571 63.3635 49.8571 62.5554V62.0082C50.1627 61.9041 50.4612 61.7826 50.7518 61.644L51.1447 62.0305C51.426 62.3073 51.7999 62.4598 52.1977 62.4598C52.5955 62.4598 52.9694 62.3074 53.2507 62.0307L54.9822 60.327C55.5626 59.7557 55.5626 58.8262 54.9821 58.2547L54.5891 57.8681C54.7298 57.5823 54.8535 57.2884 54.9592 56.9877H55.5154C56.3366 56.9877 57.0046 56.3304 57.0046 55.5223V53.1131C57.0046 52.305 56.3365 51.6477 55.5154 51.6477ZM55.0192 55.034H54.2171C53.759 55.034 53.3603 55.3425 53.2523 55.7807C53.0992 56.402 52.8512 56.9919 52.5151 57.5338C52.2766 57.9188 52.3365 58.4145 52.6608 58.7333L53.2273 59.2906L52.1978 60.3036L51.6313 59.7461C51.3073 59.4275 50.8037 59.3683 50.4126 59.6028C49.8616 59.9336 49.2621 60.1776 48.6308 60.3282C48.1855 60.4343 47.8719 60.8266 47.8719 61.2776V62.0668H46.4159V61.2776C46.4159 60.8266 46.1024 60.4344 45.6571 60.3282C45.0258 60.1776 44.4263 59.9336 43.8753 59.6028C43.4842 59.3681 42.9804 59.4271 42.6566 59.7461L42.09 60.3036L41.0606 59.2906L41.6271 58.7333C41.9511 58.4145 42.0112 57.9188 41.7727 57.5338C41.4367 56.9919 41.1886 56.402 41.0356 55.7807C40.9277 55.3425 40.5289 55.034 40.0707 55.034H39.2687V53.6013H40.0707C40.5289 53.6013 40.9276 53.2927 41.0356 52.8546C41.1886 52.2333 41.4367 51.6434 41.7727 51.1015C42.0113 50.7165 41.9513 50.2208 41.6271 49.902L41.0606 49.3447L42.09 48.3317L42.6566 48.8892C42.9807 49.2078 43.4842 49.2671 43.8753 49.0325C44.4263 48.7016 45.0258 48.4577 45.6571 48.3071C46.1024 48.201 46.4159 47.8087 46.4159 47.3577V46.5685H47.8719V47.3577C47.8719 47.8087 48.1855 48.2008 48.6308 48.3071C49.2621 48.4577 49.8616 48.7016 50.4126 49.0325C50.8034 49.267 51.3072 49.2081 51.6313 48.8892L52.1978 48.3317L53.2273 49.3447L52.6608 49.902C52.3368 50.2208 52.2767 50.7165 52.5151 51.1015C52.8512 51.6434 53.0992 52.2333 53.2523 52.8546C53.3602 53.2927 53.759 53.6013 54.2171 53.6013H55.0192V55.034Z" fill="black"/>
<path d="M47.1437 49.5637C44.4797 49.5637 42.3125 51.6963 42.3125 54.3175C42.3125 56.9386 44.4799 59.0712 47.1437 59.0712C49.8075 59.0712 51.9748 56.9386 51.9748 54.3175C51.9748 51.6963 49.8076 49.5637 47.1437 49.5637ZM47.1437 57.1178C45.5745 57.1178 44.2979 55.8616 44.2979 54.3176C44.2979 52.7736 45.5745 51.5175 47.1437 51.5175C48.7128 51.5175 49.9894 52.7736 49.9894 54.3176C49.9894 55.8616 48.7128 57.1178 47.1437 57.1178Z" fill="black"/>
</g>
<defs>
<clipPath id="clip0">
<rect width="68.0905" height="67" fill="white" transform="translate(0.436462)"/>
</clipPath>
</defs>
</svg>
