<svg width="62" height="60" viewBox="0 0 62 60" fill="none" xmlns="http://www.w3.org/2000/svg">
<g clip-path="url(#clip0)">
<path d="M56.9664 16.2794L56.9645 16.2327C56.938 15.6564 56.9203 15.0466 56.9096 14.3682C56.8598 11.06 54.1872 8.32349 50.8247 8.13855C43.8141 7.75357 38.3907 5.50413 33.7568 1.05971L33.7172 1.02263C32.2058 -0.341041 29.9258 -0.341041 28.4139 1.02263L28.3743 1.05971C23.7404 5.50413 18.3171 7.75357 11.3064 8.13901C7.94438 8.32349 5.2713 11.06 5.22153 14.3687C5.21129 15.0425 5.19315 15.6523 5.16663 16.2327L5.16384 16.3412C5.02754 23.3756 4.8582 32.1303 7.83459 40.0766C9.47118 44.4464 11.9498 48.2449 15.2011 51.3673C18.9042 54.9232 23.7544 57.7463 29.6169 59.7577C29.8076 59.8231 30.0058 59.8762 30.2077 59.9161C30.4924 59.9719 30.779 59.9998 31.0656 59.9998C31.3521 59.9998 31.6392 59.9719 31.9234 59.9161C32.1253 59.8762 32.3249 59.8227 32.5165 59.7568C38.3721 57.7417 43.2172 54.9173 46.917 51.3618C50.1669 48.2385 52.6455 44.4391 54.2835 40.0684C57.2711 32.0983 57.1022 23.3271 56.9664 16.2794ZM50.9266 38.8503C47.7874 47.2255 41.3792 52.9773 31.3358 56.4334C31.3 56.4453 31.2619 56.4558 31.2223 56.4636C31.1186 56.4838 31.013 56.4838 30.9079 56.4632C30.8688 56.4554 30.8306 56.4453 30.7953 56.4334C20.7413 52.9837 14.3289 47.2351 11.192 38.8594C8.44866 31.5348 8.60404 23.4983 8.74127 16.4085L8.7422 16.3691C8.77012 15.7598 8.78872 15.1217 8.79896 14.4204C8.82129 12.9515 10.0104 11.7361 11.506 11.6542C15.4733 11.4363 18.9586 10.6819 22.1611 9.34796C25.3594 8.01587 28.1999 6.13813 30.8441 3.60762C30.9786 3.49592 31.153 3.49547 31.287 3.60762C33.9317 6.13813 36.7722 8.01587 39.9701 9.34796C43.1725 10.6819 46.6579 11.4363 50.6256 11.6542C52.1212 11.7361 53.3103 12.9515 53.3322 14.4209C53.3429 15.1258 53.3615 15.764 53.3894 16.3691C53.5262 23.4672 53.6778 31.5101 50.9266 38.8503Z" fill="black"/>
<path d="M31.0647 15.0481C22.6854 15.0481 15.8687 21.7562 15.8687 30.0009C15.8687 38.2462 22.6854 44.9543 31.0647 44.9543C39.4435 44.9543 46.2607 38.2462 46.2607 30.0009C46.2607 21.7562 39.4435 15.0481 31.0647 15.0481ZM31.0647 41.4331C24.6583 41.4331 19.4466 36.3048 19.4466 30.0009C19.4466 23.6971 24.6583 18.5688 31.0647 18.5688C37.4706 18.5688 42.6823 23.6971 42.6823 30.0009C42.6823 36.3048 37.4706 41.4331 31.0647 41.4331Z" fill="black"/>
<path d="M35.4321 25.3588L28.374 32.304L26.4582 30.4189C25.7595 29.7313 24.6267 29.7313 23.928 30.4189C23.2297 31.1065 23.2297 32.2211 23.928 32.9082L27.1091 36.0384C27.4584 36.3822 27.9162 36.5539 28.374 36.5539C28.8317 36.5539 29.2895 36.3822 29.6389 36.0384L37.9623 27.8481C38.6606 27.1605 38.6606 26.0459 37.9623 25.3588C37.2636 24.6708 36.1308 24.6708 35.4321 25.3588Z" fill="black"/>
</g>
<defs>
<clipPath id="clip0">
<rect width="60.9756" height="60" fill="white" transform="translate(0.577301)"/>
</clipPath>
</defs>
</svg>
