<svg width="62" height="60" viewBox="0 0 62 60" fill="none" xmlns="http://www.w3.org/2000/svg">
<path d="M33.4736 30.553L20.3191 21.19C19.9167 20.905 19.3588 20.947 19.0051 21.294C18.6515 21.642 18.6078 22.19 18.8994 22.587L28.4167 35.533C29.0407 36.378 30.0051 36.909 31.063 36.99C31.1586 36.997 31.2531 37 31.3466 37C32.3039 37 33.2246 36.628 33.9065 35.956C34.6555 35.219 35.0386 34.2 34.9563 33.159C34.874 32.118 34.3344 31.169 33.4736 30.553ZM32.4695 34.542C32.1403 34.865 31.6819 35.03 31.2216 34.995C30.7582 34.96 30.3344 34.726 30.062 34.358L24.2561 26.461L32.2795 32.172C32.6565 32.442 32.8933 32.859 32.9299 33.316C32.9665 33.771 32.7978 34.219 32.4695 34.542Z" fill="black"/>
<path d="M57.4076 26.022C57.4065 26.019 57.4076 26.015 57.4065 26.012C57.4055 26.008 57.4025 26.005 57.4015 26.001C56.7795 23.722 55.8588 21.564 54.688 19.564C54.6779 19.543 54.6779 19.521 54.6657 19.5C54.6535 19.48 54.6342 19.469 54.621 19.45C53.5935 17.715 52.3781 16.103 50.997 14.641L53.1789 12.494L54.6169 13.908L58.9279 9.666L54.6169 5.423L50.3049 9.666L51.7419 11.08L49.56 13.227C48.0742 11.869 46.436 10.672 44.6728 9.661C44.6535 9.648 44.6423 9.629 44.622 9.617C44.6017 9.605 44.5773 9.606 44.557 9.595C42.5244 8.442 40.3313 7.537 38.0163 6.925C38.0122 6.924 38.0092 6.921 38.0051 6.92C38.0011 6.919 37.998 6.92 37.995 6.92C36.682 6.574 35.3324 6.322 33.9513 6.171V5H35.4757C36.8771 5 38.0163 3.879 38.0163 2.5C38.0163 1.121 36.8771 0 35.4757 0H26.3293C24.9279 0 23.7887 1.121 23.7887 2.5C23.7887 3.879 24.9279 5 26.3293 5H27.8537V6.171C26.4726 6.322 25.123 6.574 23.811 6.92C23.807 6.921 23.8039 6.92 23.8009 6.921C23.7968 6.922 23.7937 6.925 23.7897 6.926C21.4746 7.538 19.2815 8.444 17.249 9.596C17.2277 9.606 17.2043 9.606 17.183 9.618C17.1626 9.63 17.1515 9.649 17.1322 9.662C15.37 10.673 13.7307 11.869 12.245 13.228L10.0631 11.08L11.5 9.666L7.18805 5.423L2.87708 9.666L7.18805 13.908L8.62606 12.494L10.808 14.641C9.42789 16.103 8.21142 17.715 7.185 19.45C7.17179 19.469 7.15146 19.48 7.14029 19.5C7.12809 19.521 7.12911 19.543 7.11793 19.564C5.94618 21.564 5.02647 23.722 4.40451 26.001C4.4035 26.005 4.40045 26.008 4.39943 26.012C4.39842 26.015 4.39943 26.019 4.39842 26.022C3.79171 28.25 3.46346 30.587 3.46346 33C3.46346 35.413 3.79171 37.75 4.3974 39.978C4.39842 39.982 4.3974 39.985 4.39842 39.988C4.39943 39.993 4.4035 39.997 4.40451 40.002C5.02647 42.28 5.94618 44.437 7.11691 46.436C7.12708 46.457 7.12708 46.479 7.13927 46.5C7.15655 46.529 7.18094 46.551 7.20025 46.578C8.38419 48.571 9.81508 50.405 11.4594 52.032C11.4757 52.051 11.4817 52.074 11.5 52.092C11.5183 52.11 11.5417 52.116 11.561 52.132C13.2216 53.758 15.0956 55.171 17.1322 56.339C17.1515 56.352 17.1626 56.371 17.183 56.383C17.2135 56.4 17.247 56.408 17.2785 56.422C19.3019 57.566 21.4858 58.466 23.7897 59.075C23.7937 59.076 23.7968 59.079 23.8009 59.08C23.8059 59.081 23.811 59.081 23.8161 59.082C26.0783 59.678 28.4523 60 30.9025 60C33.3527 60 35.7267 59.678 37.9889 59.082C37.9939 59.081 37.999 59.082 38.0041 59.08C38.0082 59.079 38.0112 59.076 38.0153 59.075C40.3191 58.466 42.5021 57.566 44.5265 56.422C44.558 56.408 44.5915 56.401 44.622 56.383C44.6423 56.371 44.6535 56.352 44.6728 56.339C46.7094 55.171 48.5824 53.758 50.2439 52.132C50.2633 52.116 50.2866 52.11 50.3049 52.092C50.3232 52.074 50.3293 52.05 50.3456 52.032C51.9899 50.405 53.4208 48.571 54.6047 46.578C54.624 46.551 54.6484 46.53 54.6657 46.5C54.6779 46.479 54.6769 46.457 54.688 46.436C55.8588 44.437 56.7785 42.28 57.4004 40.002C57.4015 39.997 57.4055 39.993 57.4065 39.988C57.4076 39.985 57.4065 39.981 57.4076 39.978C58.0133 37.75 58.3415 35.413 58.3415 33C58.3415 30.587 58.0133 28.25 57.4076 26.022ZM54.6169 8.251L56.0539 9.666L54.6169 11.08L53.1789 9.666L54.6169 8.251ZM5.75106 9.666L7.18805 8.251L8.62606 9.666L7.18805 11.08L5.75106 9.666ZM53.2165 39.919L55.1626 40.432C54.7002 41.89 54.1007 43.289 53.3872 44.62L51.6525 43.634C51.1667 43.357 50.5448 43.52 50.2643 44C49.9838 44.479 50.1504 45.09 50.6362 45.366L52.3669 46.349C51.5407 47.631 50.6027 48.835 49.56 49.945L48.1484 48.556C47.7511 48.165 47.1088 48.165 46.7114 48.556C46.3141 48.947 46.3141 49.579 46.7114 49.97L48.123 51.359C46.995 52.385 45.7714 53.308 44.4685 54.121L43.4696 52.418C43.188 51.938 42.5651 51.774 42.0813 52.052C41.5946 52.328 41.4279 52.94 41.7094 53.418L42.7114 55.125C41.3588 55.827 39.938 56.417 38.4553 56.872L37.934 54.958C37.7887 54.424 37.2318 54.106 36.6891 54.251C36.1474 54.394 35.8252 54.942 35.9706 55.476L36.4899 57.384C35.0102 57.712 33.4828 57.914 31.9187 57.975V56C31.9187 55.447 31.4645 55 30.9025 55C30.3405 55 29.8862 55.447 29.8862 56V57.975C28.3222 57.914 26.7948 57.712 25.3151 57.384L25.8344 55.476C25.9797 54.943 25.6576 54.394 25.1159 54.251C24.5742 54.107 24.0163 54.424 23.871 54.958L23.3496 56.872C21.8679 56.417 20.4462 55.827 19.0935 55.125L20.0956 53.418C20.3761 52.939 20.2094 52.328 19.7236 52.052C19.2378 51.775 18.6159 51.938 18.3354 52.418L17.3364 54.121C16.0336 53.308 14.81 52.385 13.682 51.359L15.0935 49.97C15.4909 49.579 15.4909 48.947 15.0935 48.556C14.6962 48.165 14.0539 48.165 13.6565 48.556L12.245 49.945C11.2023 48.835 10.2643 47.631 9.43805 46.349L11.1687 45.366C11.6555 45.09 11.8222 44.478 11.5407 44C11.2592 43.52 10.6362 43.356 10.1525 43.634L8.41773 44.62C7.70431 43.289 7.10472 41.891 6.64232 40.432L8.58846 39.919C9.13012 39.776 9.45228 39.228 9.30695 38.694C9.16264 38.16 8.60573 37.842 8.06203 37.987L6.12199 38.498C5.78968 37.042 5.58338 35.539 5.52138 34H7.5285C8.09049 34 8.54476 33.553 8.54476 33C8.54476 32.447 8.09049 32 7.5285 32H5.52138C5.58338 30.461 5.78866 28.958 6.12199 27.502L8.06203 28.014C8.15045 28.037 8.23886 28.048 8.32626 28.048C8.77443 28.048 9.185 27.754 9.30695 27.307C9.45329 26.774 9.13012 26.225 8.58846 26.082L6.64232 25.568C7.10472 24.11 7.70431 22.711 8.41773 21.38L10.1525 22.366C10.311 22.457 10.4858 22.5 10.6586 22.5C11.0102 22.5 11.3517 22.321 11.5397 22C11.8202 21.521 11.6535 20.91 11.1677 20.634L9.43703 19.651C10.2633 18.369 11.2013 17.165 12.2439 16.055L13.6555 17.444C13.8537 17.639 14.1139 17.737 14.374 17.737C14.6342 17.737 14.8944 17.639 15.0925 17.444C15.4899 17.053 15.4899 16.421 15.0925 16.03L13.6809 14.641C14.809 13.616 16.0326 12.692 17.3354 11.879L18.3344 13.583C18.5234 13.903 18.8639 14.083 19.2155 14.083C19.3883 14.083 19.5631 14.04 19.7226 13.949C20.2094 13.673 20.3761 13.061 20.0946 12.583L19.0925 10.875C20.4452 10.173 21.8659 9.583 23.3486 9.128L23.87 11.043C23.9909 11.489 24.4015 11.784 24.8507 11.784C24.938 11.784 25.0265 11.773 25.1149 11.75C25.6565 11.607 25.9787 11.059 25.8334 10.525L25.3141 8.616C26.5051 8.352 27.7257 8.171 28.9726 8.079C29.2876 8.056 29.5722 8.039 29.8476 8.026C29.8608 8.026 29.873 8.026 29.8862 8.025V10C29.8862 10.553 30.3405 11 30.9025 11C31.4645 11 31.9187 10.553 31.9187 10V8.025C31.932 8.025 31.9441 8.025 31.9574 8.026C32.2328 8.039 32.5163 8.056 32.8324 8.079C34.0793 8.172 35.3009 8.352 36.4909 8.616L35.9716 10.525C35.8263 11.058 36.1484 11.607 36.6901 11.75C36.7785 11.773 36.8669 11.784 36.9543 11.784C37.4025 11.784 37.8141 11.489 37.935 11.043L38.4563 9.128C39.938 9.583 41.3598 10.173 42.7124 10.875L41.7104 12.583C41.4299 13.062 41.5966 13.673 42.0824 13.949C42.2419 14.04 42.4167 14.083 42.5895 14.083C42.9411 14.083 43.2826 13.903 43.4706 13.583L44.4696 11.879C45.7724 12.692 46.996 13.616 48.124 14.641L46.7124 16.03C46.3151 16.421 46.3151 17.053 46.7124 17.444C46.9106 17.639 47.1708 17.737 47.4309 17.737C47.6911 17.737 47.9513 17.639 48.1494 17.444L49.561 16.055C50.6037 17.165 51.5417 18.369 52.3679 19.651L50.6372 20.634C50.1504 20.91 49.9838 21.521 50.2653 22C50.4543 22.321 50.7948 22.5 51.1464 22.5C51.3191 22.5 51.4939 22.457 51.6535 22.366L53.3883 21.38C54.1017 22.711 54.7013 24.109 55.1637 25.568L53.2175 26.082C52.6759 26.225 52.3527 26.773 52.499 27.307C52.621 27.754 53.0305 28.048 53.4797 28.048C53.5671 28.048 53.6555 28.037 53.7439 28.014L55.684 27.502C56.0173 28.958 56.2226 30.461 56.2846 32H54.2765C53.7145 32 53.2602 32.447 53.2602 33C53.2602 33.553 53.7145 34 54.2765 34H56.2836C56.2216 35.539 56.0163 37.042 55.683 38.499L53.7429 37.988C53.2033 37.844 52.6433 38.162 52.498 38.695C52.3527 39.228 52.6748 39.776 53.2165 39.919ZM29.8862 6.022V3H26.3293C26.0498 3 25.8212 2.775 25.8212 2.5C25.8212 2.225 26.0498 2 26.3293 2H35.4757C35.7551 2 35.9838 2.225 35.9838 2.5C35.9838 2.775 35.7551 3 35.4757 3H31.9187V6.022C31.563 6.007 31.2287 6 30.9025 6C30.5763 6 30.2419 6.007 29.8862 6.022Z" fill="black"/>
</svg>
