<svg width="58" height="56" viewBox="0 0 58 56" fill="none" xmlns="http://www.w3.org/2000/svg">
<g clip-path="url(#clip0)">
<path d="M36.6206 17.7329H32.8266V16.3061C34.0224 15.2487 34.7236 13.7221 34.7236 12.1329C34.7236 10.4563 33.9687 8.88174 32.6524 7.81261C31.3366 6.74347 29.6082 6.31554 27.908 6.63952C25.6937 7.06104 23.905 8.81151 23.4577 10.9954C23.0497 12.9883 23.7286 14.9812 25.2385 16.3069V17.7329H21.4445C19.8754 17.7329 18.5989 18.9889 18.5989 20.5329V30.7996C18.5989 31.315 19.0236 31.7329 19.5474 31.7329H38.5176C39.0415 31.7329 39.4661 31.315 39.4661 30.7996V20.5329C39.4661 18.9888 38.1897 17.7329 36.6206 17.7329ZM37.5691 29.8662H20.496V20.5329C20.496 20.0184 20.9216 19.5996 21.4445 19.5996H26.187C26.7108 19.5996 27.1355 19.1817 27.1355 18.6662V15.8662C27.1355 15.5727 26.9951 15.2965 26.7572 15.1201C25.5739 14.2447 25.0222 12.8055 25.3177 11.3645C25.6146 9.91389 26.8002 8.75177 28.2679 8.47247C29.4276 8.25279 30.5544 8.52941 31.4451 9.25227C32.3232 9.96546 32.8266 11.0155 32.8266 12.1329C32.8266 13.2996 32.2588 14.4165 31.3079 15.1201C31.0698 15.2965 30.9296 15.5727 30.9296 15.8662V18.6662C30.9296 19.1817 31.3543 19.5996 31.8781 19.5996H36.6206C37.1435 19.5996 37.5691 20.0184 37.5691 20.5329V29.8662Z" fill="#00C24B"/>
<path d="M12.3377 18.8536C12.0996 19.03 11.9594 19.3062 11.9594 19.5997V22.3997C11.9594 22.9151 12.3841 23.333 12.9079 23.333H16.7019V21.4664H13.8564V20.0395C15.0522 18.9822 15.7534 17.4556 15.7534 15.8663C15.7534 14.1897 14.9985 12.6152 13.6822 11.5461C12.3664 10.4769 10.638 10.0495 8.93779 10.373C6.72349 10.7945 4.93484 12.545 4.4875 14.7288C4.07952 16.7218 4.75842 18.7147 6.26833 20.0403V21.4664H3.4228C1.85373 21.4664 0.577271 22.7224 0.577271 24.2664V30.7997C0.577271 31.3151 1.00197 31.733 1.52578 31.733H16.7019V29.8664H2.47429V24.2664C2.47429 23.7519 2.89993 23.333 3.4228 23.333H7.21684C7.74065 23.333 8.16535 22.9151 8.16535 22.3997V19.5997C8.16535 19.3062 8.02497 19.03 7.78701 18.8536C6.60374 17.9781 6.05207 16.5389 6.34753 15.098C6.64441 13.6473 7.83005 12.4852 9.29775 12.2059C10.4584 11.9858 11.5847 12.2629 12.4749 12.9857C13.353 13.6989 13.8564 14.7489 13.8564 15.8663C13.8564 17.033 13.2886 18.15 12.3377 18.8536Z" fill="#00C24B"/>
<path d="M54.6423 21.4662H51.7968V20.0402C53.3066 18.7145 53.9856 16.7216 53.5776 14.7287C53.1303 12.5448 51.3416 10.7944 49.1268 10.3728C47.4303 10.0501 45.6982 10.4773 44.3829 11.5459C43.0666 12.6149 42.3117 14.1896 42.3117 15.8662C42.3117 17.4553 43.0129 18.982 44.2087 20.0394V21.4662H41.3632V23.3329H45.1572C45.681 23.3329 46.1057 22.915 46.1057 22.3995V19.5995C46.1057 19.306 45.9653 19.0299 45.7274 18.8535C44.7765 18.1498 44.2087 17.0329 44.2087 15.8662C44.2087 14.7488 44.7121 13.6988 45.5902 12.9856C46.4804 12.2628 47.6058 11.9853 48.7669 12.2058C50.235 12.4852 51.4207 13.6472 51.7176 15.0978C52.013 16.5389 51.4615 17.9781 50.2781 18.8535C50.04 19.0299 49.8997 19.306 49.8997 19.5995V22.3995C49.8997 22.915 50.3244 23.3329 50.8483 23.3329H54.6423C55.1652 23.3329 55.5908 23.7517 55.5908 24.2662V29.8662H41.3632V31.7329H56.5393C57.0631 31.7329 57.4878 31.315 57.4878 30.7995V24.2662C57.4878 22.7221 56.2114 21.4662 54.6423 21.4662Z" fill="#00C24B"/>
<path d="M51.7968 35.4663V33.5996H29.0325C28.5087 33.5996 28.084 34.0175 28.084 34.5329C28.084 37.106 30.2117 39.1996 32.8266 39.1996H35.6721V40.2424L29.078 41.0536L20.9712 39.2808L19.2695 37.6064C17.3308 35.6987 14.1759 35.6987 12.2372 37.6064C11.8667 37.971 11.8667 38.5617 12.2372 38.9263L18.8767 45.4596C18.9676 45.549 19.0759 45.6195 19.195 45.6664L28.6801 49.3998C28.7926 49.444 28.9121 49.4663 29.0325 49.4663C29.0845 49.4663 29.1368 49.4622 29.1886 49.4536L40.4929 47.5996H51.7968V45.7329H44.2087V35.4663H51.7968ZM42.3117 45.7329H40.4147C40.3624 45.7329 40.3104 45.737 40.2586 45.7457L29.1387 47.5695L20.0806 44.0043L14.3553 38.3701C15.5108 37.7904 16.9628 37.9764 17.9285 38.9261L19.8255 40.7928C19.9528 40.9186 20.1141 41.0056 20.2905 41.0439L28.8271 42.9105C28.9335 42.9338 29.0433 42.9397 29.1504 42.9256L36.7385 41.9923C37.2132 41.9339 37.5694 41.537 37.5694 41.0662V38.2662C37.5694 37.7507 37.1447 37.3328 36.6209 37.3328H32.8268C31.5902 37.3328 30.5352 36.5526 30.1438 35.4662H42.3117V45.7329Z" fill="#00C24B"/>
</g>
<defs>
<clipPath id="clip0">
<rect width="56.9106" height="56" fill="white" transform="translate(0.577271)"/>
</clipPath>
</defs>
</svg>
