<svg width="64" height="62" viewBox="0 0 64 62" fill="none" xmlns="http://www.w3.org/2000/svg">
<g clip-path="url(#clip0)">
<path d="M27.4082 2.24318L28.5237 3.95482C32.604 1.43971 37.786 1.43971 41.8662 3.95482L42.9818 2.24318C38.2355 -0.747728 32.1544 -0.747728 27.4082 2.24318Z" fill="#00C24B"/>
<path d="M22.8013 14.2288H20.7354C20.7324 16.1092 21.111 17.9714 21.8489 19.7062L23.7557 18.9215C23.123 17.4355 22.7986 15.84 22.8013 14.2288Z" fill="#00C24B"/>
<path d="M39.9604 25.4874C38.4519 26.1097 36.8322 26.4286 35.1965 26.4256V28.4584C37.1065 28.462 38.9981 28.0898 40.7599 27.3637L39.9604 25.4874Z" fill="#00C24B"/>
<path d="M47.5918 14.2288C47.5946 15.8389 47.2704 17.4334 46.6384 18.9185L48.5452 19.7031C49.2829 17.9695 49.6611 16.1082 49.6576 14.2288H47.5918Z" fill="#00C24B"/>
<path d="M35.1965 4.0647C29.4917 4.0647 24.8671 8.61529 24.8671 14.2288C24.8671 19.8423 29.4917 24.3929 35.1965 24.3929C40.8987 24.3867 45.5197 19.8398 45.5259 14.2288C45.5259 8.61542 40.9013 4.0647 35.1965 4.0647ZM35.1965 22.3601C30.6327 22.3601 26.933 18.7196 26.933 14.2288C26.933 9.73804 30.6327 6.09752 35.1965 6.09752C39.7603 6.09752 43.46 9.73804 43.46 14.2288C43.4549 18.7175 39.7582 22.3551 35.1965 22.3601Z" fill="#00C24B"/>
<path d="M37.469 13.9045L36.2295 13.4979V10.8898C36.8048 11.0874 37.2091 11.5985 37.2624 12.1959H39.3283C39.236 10.4806 37.9498 9.05633 36.2295 8.76449V8.13025H34.1636V8.76449C32.4432 9.05633 31.1571 10.4806 31.0648 12.1959C31.1053 13.2931 31.8539 14.2422 32.9241 14.5529L34.1636 14.9595V17.5656C33.5889 17.3683 33.1847 16.8582 33.1306 16.2615H31.0648C31.1571 17.9768 32.4432 19.4011 34.1636 19.6929V20.3272H36.2295V19.6929C37.9498 19.4011 39.236 17.9768 39.3283 16.2615C39.2877 15.1643 38.5391 14.2154 37.469 13.9045ZM34.1636 12.821L33.5748 12.6258C33.3135 12.5394 33.1306 12.3626 33.1306 12.1959C33.184 11.5985 33.5882 11.0874 34.1636 10.8898V12.821ZM36.2295 17.5676V15.6364L36.8182 15.8316C37.0796 15.918 37.2624 16.0948 37.2624 16.2615C37.2091 16.8589 36.8048 17.3701 36.2295 17.5676Z" fill="#00C24B"/>
<path d="M62.7832 41.9695L59.3817 38.6225L62.7832 35.2754C63.1864 34.8785 63.1864 34.2351 62.7832 33.8382L49.355 20.6249C48.9516 20.2281 48.2978 20.2281 47.8944 20.6249L34.68 33.6278L20.4327 19.6085C20.0294 19.2117 19.3755 19.2117 18.9722 19.6085L5.54399 32.8218C5.14075 33.2187 5.14075 33.8621 5.54399 34.259L13.0772 41.6717H1.10959V43.7045H14.5378C14.6777 43.7049 14.8163 43.6768 14.9447 43.6222L21.9801 40.6553H37.2624V44.7209H25.9001C25.3296 44.7209 24.8671 45.1759 24.8671 45.7373C24.8671 46.1339 25.1015 46.4942 25.4673 46.6602L38.8955 52.7587C39.2334 52.9099 39.6277 52.8711 39.9284 52.6571L57.8178 39.954L60.5376 42.6302L39.979 59.9671H34.3485L14.8952 52.9152C14.7808 52.8737 14.6598 52.8523 14.5378 52.8522H1.10959V54.885H14.3529L33.8062 61.9369C33.9206 61.9785 34.0416 61.9998 34.1636 61.9999H40.3612C40.6077 62.0001 40.8459 61.9132 41.0326 61.7549L62.7243 43.4596C63.1575 43.0943 63.2078 42.4527 62.8366 42.0264C62.8196 42.0069 62.8018 41.9878 62.7832 41.9695ZM21.7683 38.6225C21.6284 38.6221 21.4898 38.65 21.3614 38.7048L21.1103 38.8064C22.1302 36.2021 25.1027 34.9044 27.7493 35.908C29.0376 36.3965 30.0717 37.375 30.6185 38.6225H21.7683ZM32.8259 38.6225C31.9216 35.6022 29.0999 33.5318 25.9001 33.5404C22.2448 33.562 19.1731 36.2484 18.7222 39.8178L15.4963 41.1777L7.73485 33.5404L19.7025 21.7643L36.8347 38.6225H32.8259ZM39.2136 50.6639L30.603 46.7537H38.2953C38.8658 46.7537 39.3283 46.2987 39.3283 45.7373V41.0761L44.9371 46.5952L39.2136 50.6639ZM39.4254 38.2972C39.8166 36.1276 41.7371 34.5491 43.9765 34.5568C46.5379 34.5523 48.6181 36.5917 48.6229 39.1121C48.627 41.3175 47.0278 43.2102 44.8235 43.609L39.4254 38.2972ZM46.4999 45.2566C46.9144 45.0912 47.3105 44.8848 47.6833 44.6418L46.6332 45.3877L46.4999 45.2566ZM57.2507 37.8449L48.1485 44.3144C51.0483 42.0404 51.5258 37.8837 49.2148 35.0302C46.9038 32.1768 42.6795 31.7069 39.7797 33.981C38.8822 34.6848 38.183 35.6032 37.7488 36.6486L36.1405 35.065L48.6246 22.7807L60.5922 34.5568L57.2507 37.8449Z" fill="#00C24B"/>
</g>
<defs>
<clipPath id="clip0">
<rect width="63.0081" height="62" fill="white" transform="translate(0.593513)"/>
</clipPath>
</defs>
</svg>
