<svg width="79" height="45" viewBox="0 0 79 45" fill="none" xmlns="http://www.w3.org/2000/svg">
<path d="M59.4969 39.5052C58.6223 39.9378 57.713 40.3156 56.7779 40.687C56.5218 40.7887 56.263 40.8901 56.0022 40.9924C54.3041 41.658 52.5222 42.3565 50.8748 43.3638C50.7929 43.3497 50.6808 43.3116 50.5739 43.2482C50.4834 43.1946 50.4306 43.1435 50.4047 43.1117C50.5179 42.6307 50.5633 42.1955 50.5494 41.7943L50.5491 41.786C50.5162 41.0198 50.251 40.3991 49.8047 39.9178C49.3841 39.4643 48.8563 39.1938 48.3997 39.005C48.1434 38.8991 47.8116 38.7841 47.5253 38.6848C47.3622 38.6283 47.2139 38.5769 47.1027 38.5352C47.0156 38.5025 46.9352 38.4707 46.861 38.4393C46.9222 38.3875 47.0023 38.33 47.108 38.2652C47.2578 38.1733 47.4017 38.0987 47.5769 38.0078C47.6678 37.9606 47.7672 37.9091 47.8802 37.8485C48.173 37.6915 48.5294 37.4861 48.8467 37.2001L48.847 37.1998C49.3078 36.7842 49.6536 36.2252 49.7468 35.4644L49.8623 34.5216L48.9268 34.3578C48.2411 34.2377 47.5553 34.1729 46.9179 34.1127L46.8625 34.1075C46.1953 34.0444 45.5811 33.9846 44.9873 33.8752C43.8274 33.6616 42.807 33.2691 41.8916 32.3435L41.8908 32.3427C41.4146 31.8623 40.8642 31.5539 40.2461 31.4793C39.6379 31.4059 39.0883 31.574 38.6331 31.8133C37.7816 32.261 37.0242 33.0944 36.4656 33.7091L36.4512 33.725L36.4499 33.7264C36.202 34.0002 35.9618 34.2713 35.7261 34.5374C34.6433 35.7598 33.6558 36.8747 32.4552 37.6424C31.3344 38.3591 30.0258 38.7639 28.2694 38.4619C28.4508 38.0761 28.6114 37.6926 28.7622 37.3325L28.7826 37.2838C29.111 36.4998 29.3971 35.827 29.7723 35.2578C30.1335 34.7099 30.5535 34.2979 31.1266 34.0328C31.7076 33.764 32.5351 33.6051 33.7752 33.7214L35.8664 33.9174L34.7002 32.1705C34.2611 31.5127 33.8453 30.9188 33.4543 30.3603C32.6501 29.2118 31.9508 28.2129 31.3683 27.1148L31.3679 27.1141C30.1569 24.8353 28.1379 23.0216 25.8856 22.131C23.6206 21.2353 21.0451 21.2547 18.8796 22.7973M59.4969 39.5052L3.33354 24.8323L3.4162 23.8358C4.63355 23.9367 5.85541 24.1253 7.04022 24.3081C7.19077 24.3313 7.34072 24.3545 7.48999 24.3773C8.83017 24.5825 10.1273 24.767 11.4148 24.8235C13.9592 24.9351 16.4211 24.5447 18.8796 22.7973M59.4969 39.5052C58.897 39.5014 58.296 39.425 57.7357 39.2217C56.6361 38.8228 55.8059 37.9782 55.4044 36.6124C55.1837 35.8616 55.2398 35.1637 55.5139 34.5561C55.7781 33.9705 56.2122 33.5392 56.6381 33.2302C57.47 32.6265 58.4628 32.35 58.8991 32.2686C61.8147 31.7101 64.438 30.4853 67.0902 29.0948C67.6203 28.8168 68.1537 28.531 68.6914 28.2428C70.8078 27.1086 72.9906 25.9387 75.3002 25.0775C76.1745 24.7498 76.5043 24.3535 76.66 24.0034C76.8406 23.5972 76.8691 23.0772 76.8189 22.3461C76.8081 22.1893 76.7926 22.0161 76.7761 21.8321C76.7247 21.2581 76.6639 20.5791 76.7076 19.9639C76.7698 19.0895 77.0413 18.1573 77.86 17.3895C77.8645 17.3795 77.8718 17.3611 77.8789 17.3322C77.8969 17.2586 77.9013 17.1613 77.8785 17.0611C77.8569 16.9658 77.8122 16.8729 77.7348 16.7896C77.6588 16.7078 77.5253 16.6072 77.2861 16.5324M59.4969 39.5052L77.2861 16.5324M18.8796 22.7973C18.8798 22.7972 18.88 22.797 18.8801 22.7969L19.4595 23.612L18.8792 22.7976C18.8794 22.7975 18.8795 22.7974 18.8796 22.7973ZM38.5818 3.37541C39.2543 2.6474 40.4967 2.24764 42.2506 1.96819C42.8671 1.86996 43.4991 1.79226 44.1525 1.71195C44.4028 1.68118 44.6562 1.65002 44.9132 1.61718C45.8217 1.50102 46.7568 1.36546 47.6307 1.15424L47.3958 0.182226C50.4579 -0.555192 51.328 1.07406 52.23 2.76324C52.6309 3.51397 53.0381 4.27653 53.6469 4.84843M38.5818 3.37541L47.6299 1.15443C48.6059 0.919393 49.2095 0.985313 49.6056 1.13557C49.9973 1.28415 50.3115 1.56233 50.6244 2.0002C50.8765 2.35307 51.0831 2.73967 51.3257 3.19363C51.4058 3.3434 51.4898 3.5005 51.5806 3.66615C51.9213 4.28764 52.345 4.99722 52.9615 5.57662M38.5818 3.37541L37.8471 2.69697L38.5817 3.3755L38.5818 3.37541ZM53.6469 4.84843L52.9601 5.57528C52.9606 5.57573 52.961 5.57618 52.9615 5.57662M53.6469 4.84843C54.2462 5.41477 54.8227 6.06491 55.4161 6.73412C57.5905 9.18647 59.992 11.8948 64.5791 11.6732L52.9615 5.57662M53.6469 4.84843L52.9622 5.57726C52.962 5.57705 52.9617 5.57684 52.9615 5.57662M77.2861 16.5324C77.2858 16.5323 77.2854 16.5322 77.2851 16.5321L77.5831 15.5775L77.2861 16.5324ZM18.5844 3.81218C18.5849 3.81232 18.5855 3.81246 18.5861 3.8126C18.5866 3.81274 18.5872 3.81287 18.5877 3.813L18.825 2.84158L18.5844 3.81218ZM9.48128 4.01963L9.12583 3.08494L9.47752 4.02105C9.47812 4.02083 9.47872 4.0206 9.47933 4.02038C9.47998 4.02013 9.48063 4.01988 9.48128 4.01963ZM7.86177 6.93092C7.86143 6.93046 7.86109 6.93 7.86075 6.92954C7.86036 6.92903 7.85998 6.92851 7.8596 6.92799L7.05771 7.52538L7.86177 6.93092ZM32.6372 32.691C32.7708 32.8857 32.9041 33.0822 33.0368 33.281L33.8685 32.7257L33.9618 31.7301C33.6841 31.7041 33.4163 31.6889 33.158 31.6843C32.9955 31.4502 32.8351 31.2209 32.6773 30.9954C31.8515 29.8154 31.0964 28.7363 30.4849 27.5834L32.6372 32.691Z" fill="black" stroke="#00C24B" stroke-width="2"/>
</svg>
