<svg width="59" height="57" viewBox="0 0 59 57" fill="none" xmlns="http://www.w3.org/2000/svg">
<g clip-path="url(#clip0)">
<path d="M13.4746 52.4685C13.7326 52.6717 14.0997 52.6717 14.3577 52.4685L18.3195 49.3499L22.2813 52.4685C22.5393 52.6717 22.9063 52.6717 23.1644 52.4685L27.4927 49.0612C30.451 55.1934 37.4777 58.326 44.1136 56.4705C50.7494 54.615 55.0525 48.3145 54.2908 41.5681C53.5296 34.8214 47.9268 29.6029 41.039 29.2255V19.227H50.3065C50.697 19.227 51.0129 18.9157 51.0129 18.5319V5.60225C51.0097 2.61399 48.6259 0.153418 45.5927 0.00633585V0H10.8337C7.28354 0.00407304 4.40624 2.83529 4.4021 6.32861V51.9254C4.4021 52.1929 4.55755 52.4364 4.8027 52.5522C5.04738 52.6676 5.33759 52.6355 5.54962 52.4685L9.51235 49.3499L13.4746 52.4685ZM52.9635 43.1019C52.9635 50.0107 47.2719 55.6106 40.2511 55.6111C33.2303 55.6111 27.5387 50.0107 27.5387 43.1023C27.5387 36.194 33.2303 30.5936 40.2511 30.5936C47.2687 30.6012 52.9552 36.1972 52.9635 43.1019ZM49.6 5.60225V17.8368H41.039V5.60225C41.0514 3.28469 42.9642 1.41244 45.3195 1.41244C47.6752 1.41244 49.5881 3.28469 49.6 5.60225ZM5.81499 50.4795V6.32861C5.81821 3.60238 8.06312 1.39343 10.8337 1.39027H41.572C40.3353 2.45197 39.6261 3.98751 39.6261 5.60225V29.2178C35.1606 29.4119 31.0521 31.6743 28.5487 35.3183C26.0453 38.9618 25.4428 43.5562 26.9238 47.7062L26.6695 47.928L22.7219 51.0353L18.7606 47.9167C18.5025 47.7135 18.1355 47.7135 17.8775 47.9167L13.9157 51.0353L9.95342 47.9167C9.6954 47.7135 9.32884 47.7135 9.07036 47.9167L5.81499 50.4795Z" fill="#00C24B"/>
<path d="M9.67929 23.5725H9.99388C10.3844 23.5725 10.7003 23.2612 10.7003 22.8774C10.7003 22.4936 10.3844 22.1823 9.99388 22.1823H9.67929C9.28927 22.1823 8.97284 22.4936 8.97284 22.8774C8.97284 23.2612 9.28927 23.5725 9.67929 23.5725Z" fill="#00C24B"/>
<path d="M13.1366 23.5725H15.5153C15.9058 23.5725 16.2218 23.2612 16.2218 22.8774C16.2218 22.4936 15.9058 22.1823 15.5153 22.1823H13.1366C12.7465 22.1823 12.4301 22.4936 12.4301 22.8774C12.4301 23.2612 12.7465 23.5725 13.1366 23.5725Z" fill="#00C24B"/>
<path d="M18.7086 23.5725H35.7617C36.1518 23.5725 36.4682 23.2612 36.4682 22.8774C36.4682 22.4936 36.1518 22.1823 35.7617 22.1823H18.7086C18.3181 22.1823 18.0021 22.4936 18.0021 22.8774C18.0021 23.2612 18.3181 23.5725 18.7086 23.5725Z" fill="#00C24B"/>
<path d="M9.67929 16.9706H9.99388C10.3844 16.9706 10.7003 16.6592 10.7003 16.2755C10.7003 15.8917 10.3844 15.5803 9.99388 15.5803H9.67929C9.28927 15.5803 8.97284 15.8917 8.97284 16.2755C8.97284 16.6592 9.28927 16.9706 9.67929 16.9706Z" fill="#00C24B"/>
<path d="M13.1366 16.9706H15.5153C15.9058 16.9706 16.2218 16.6592 16.2218 16.2755C16.2218 15.8917 15.9058 15.5803 15.5153 15.5803H13.1366C12.7465 15.5803 12.4301 15.8917 12.4301 16.2755C12.4301 16.6592 12.7465 16.9706 13.1366 16.9706Z" fill="#00C24B"/>
<path d="M18.7086 16.9706H35.7617C36.1518 16.9706 36.4682 16.6592 36.4682 16.2755C36.4682 15.8917 36.1518 15.5803 35.7617 15.5803H18.7086C18.3181 15.5803 18.0021 15.8917 18.0021 16.2755C18.0021 16.6592 18.3181 16.9706 18.7086 16.9706Z" fill="#00C24B"/>
<path d="M9.67929 10.369H9.99388C10.3844 10.369 10.7003 10.0577 10.7003 9.67389C10.7003 9.29012 10.3844 8.97876 9.99388 8.97876H9.67929C9.28927 8.97876 8.97284 9.29012 8.97284 9.67389C8.97284 10.0577 9.28927 10.369 9.67929 10.369Z" fill="#00C24B"/>
<path d="M13.1366 10.369H15.5153C15.9058 10.369 16.2218 10.0577 16.2218 9.67389C16.2218 9.29012 15.9058 8.97876 15.5153 8.97876H13.1366C12.7465 8.97876 12.4301 9.29012 12.4301 9.67389C12.4301 10.0577 12.7465 10.369 13.1366 10.369Z" fill="#00C24B"/>
<path d="M18.7086 10.369H35.7617C36.1518 10.369 36.4682 10.0577 36.4682 9.67389C36.4682 9.29012 36.1518 8.97876 35.7617 8.97876H18.7086C18.3181 8.97876 18.0021 9.29012 18.0021 9.67389C18.0021 10.0577 18.3181 10.369 18.7086 10.369Z" fill="#00C24B"/>
<path d="M9.67929 30.1744H9.99388C10.3844 30.1744 10.7003 29.8631 10.7003 29.4793C10.7003 29.0951 10.3844 28.7842 9.99388 28.7842H9.67929C9.28927 28.7842 8.97284 29.0951 8.97284 29.4793C8.97284 29.8631 9.28927 30.1744 9.67929 30.1744Z" fill="#00C24B"/>
<path d="M13.1366 30.1744H15.5153C15.9058 30.1744 16.2218 29.8631 16.2218 29.4793C16.2218 29.0951 15.9058 28.7842 15.5153 28.7842H13.1366C12.7465 28.7842 12.4301 29.0951 12.4301 29.4793C12.4301 29.8631 12.7465 30.1744 13.1366 30.1744Z" fill="#00C24B"/>
<path d="M18.7086 30.1744H29.0523C29.4424 30.1744 29.7588 29.8631 29.7588 29.4793C29.7588 29.0951 29.4424 28.7842 29.0523 28.7842H18.7086C18.3181 28.7842 18.0021 29.0951 18.0021 29.4793C18.0021 29.8631 18.3181 30.1744 18.7086 30.1744Z" fill="#00C24B"/>
<path d="M10.9735 45.1507V45.7191C10.9735 46.1033 11.29 46.4142 11.68 46.4142C12.0704 46.4142 12.3864 46.1033 12.3864 45.7191V45.1507C13.6967 44.8022 14.5421 43.5527 14.3632 42.2289C14.1847 40.9047 13.0372 39.9159 11.68 39.9159C10.9652 39.9159 10.3857 39.3457 10.3857 38.6424C10.3857 37.9391 10.9652 37.3689 11.68 37.3693C12.3947 37.3693 12.9742 37.9391 12.9742 38.6424C12.9742 39.0266 13.2906 39.3375 13.6806 39.3375C14.0707 39.3375 14.3871 39.0266 14.3871 38.6424C14.3853 37.4399 13.5661 36.3868 12.3864 36.0714V35.5926C12.3864 35.2084 12.0704 34.8975 11.68 34.8975C11.29 34.8975 10.9735 35.2084 10.9735 35.5926V36.0714C9.66319 36.4199 8.81784 37.6694 8.99676 38.9931C9.17521 40.3173 10.3227 41.3062 11.68 41.3062C12.3947 41.3021 12.977 41.8691 12.9811 42.572C12.9848 43.2753 12.409 43.8482 11.6942 43.8523C11.6896 43.8523 11.685 43.8514 11.68 43.8514C11.6754 43.8514 11.6708 43.8514 11.6657 43.8523C10.957 43.8441 10.3867 43.2771 10.3857 42.5797C10.3857 42.1954 10.0693 41.8845 9.67929 41.8845C9.28927 41.8845 8.97284 42.1954 8.97284 42.5797C8.97468 43.7826 9.79381 44.8352 10.9735 45.1507Z" fill="#00C24B"/>
<path d="M18.1158 43.4721H24.0875C24.4775 43.4721 24.7939 43.1607 24.7939 42.7769C24.7939 42.3931 24.4775 42.0818 24.0875 42.0818H18.1158C17.7258 42.0818 17.4094 42.3931 17.4094 42.7769C17.4094 43.1607 17.7258 43.4721 18.1158 43.4721Z" fill="#00C24B"/>
<path d="M38.295 37.1838C38.301 39.0605 39.3841 40.7735 41.0928 41.608V50.9905C41.1015 52.187 42.0894 53.1523 43.3055 53.1523C44.5215 53.1523 45.5094 52.187 45.5182 50.9905V41.608C47.2273 40.7735 48.3104 39.0605 48.3164 37.1838C48.3223 35.312 47.2457 33.5995 45.5407 32.7695C45.3218 32.6618 45.0619 32.6735 44.8536 32.8003C44.6457 32.927 44.5187 33.1505 44.5187 33.3913V35.4482L43.3271 36.2289L42.0917 35.3785L42.0986 33.3913C42.1 33.1501 41.974 32.9252 41.7656 32.7975C41.5573 32.6699 41.297 32.6582 41.0771 32.7654C39.368 33.594 38.2881 35.3088 38.295 37.1838ZM40.6811 34.7576L40.6779 35.7378C40.677 35.9655 40.7897 36.1791 40.9791 36.3099L42.9122 37.6404C43.1505 37.8047 43.4669 37.8083 43.7088 37.6494L45.6161 36.3995C45.813 36.2705 45.9312 36.0533 45.9312 35.8206V34.7598C46.7531 35.6247 47.0819 36.8366 46.8078 37.9898C46.5332 39.1429 45.6916 40.0851 44.5643 40.5006C44.2883 40.6024 44.1053 40.8617 44.1053 41.1518V50.9905C44.0998 51.4218 43.7433 51.7684 43.3055 51.7684C42.8671 51.7684 42.5107 51.4218 42.5052 50.9905V41.1518C42.5052 40.8617 42.3221 40.6024 42.0462 40.5006C40.9184 40.0847 40.0768 39.142 39.8022 37.9884C39.5281 36.8344 39.8578 35.6224 40.6811 34.7576Z" fill="#00C24B"/>
<path d="M38.4326 43.3589H36.4898V33.4822C36.4898 33.0985 36.1734 32.7871 35.7834 32.7871C35.3934 32.7871 35.077 33.0985 35.077 33.4822V43.3589H32.8923C32.5023 43.3589 32.1859 43.6703 32.1859 44.0541C32.1859 44.4378 32.5023 44.7492 32.8923 44.7492H33.3384L32.6347 47.1573C32.6163 47.2197 32.6071 47.2844 32.6071 47.3492V51.1154C32.6085 52.4373 33.6972 53.509 35.0406 53.5103H36.4227C37.7661 53.5094 38.8552 52.4377 38.8566 51.1154V47.3492C38.8566 47.284 38.8474 47.2193 38.829 47.1568L38.1258 44.7492H38.4326C38.8226 44.7492 39.139 44.4378 39.139 44.0541C39.139 43.6703 38.8226 43.3589 38.4326 43.3589ZM37.4433 47.4474V51.1154C37.4428 51.6702 36.9861 52.1196 36.4227 52.12H35.0406C34.4772 52.1196 34.0205 51.6702 34.02 51.1154V47.4474L34.8079 44.7492H36.655L37.4433 47.4474Z" fill="#00C24B"/>
</g>
<defs>
<clipPath id="clip0">
<rect width="57.9278" height="57" fill="white" transform="translate(0.399841)"/>
</clipPath>
</defs>
</svg>
