<svg width="42" height="64" viewBox="0 0 42 64" fill="none" xmlns="http://www.w3.org/2000/svg">
<path d="M31.2464 38.0987C29.8881 40.7717 25.8133 42.6811 21.0593 42.6811C16.1114 42.6811 11.9395 40.5808 10.7753 37.8123L13.0068 37.0486V33.1345C15.4322 35.2348 18.3428 36.3803 21.2534 36.3803C24.067 36.3803 26.7835 35.4257 29.112 33.5164V37.2395L31.2464 38.0987Z" fill="#00C24B"/>
<path d="M36.1944 16.4282L34.5451 15.9508H34.4481C34.254 15.8554 33.963 15.7599 33.1868 15.6644L32.2166 17.1919V17.2874L32.0226 17.5737C31.9256 17.6692 31.8285 17.8602 31.8285 17.9556C31.2464 18.8148 30.7613 19.2921 29.4031 19.2921H29.015L28.8209 19.1967C28.4329 19.0057 25.8134 18.6239 21.3505 18.6239C17.0816 18.6239 14.3651 19.0057 13.88 19.1967L13.6859 19.2921H13.2979C11.9396 19.2921 11.4545 18.8148 10.8724 17.9556C10.7754 17.8602 10.7754 17.7647 10.6783 17.6692L10.5813 17.4783V17.3828L9.61113 15.8554C8.932 15.9508 8.5439 16.0463 8.34986 16.1418H8.25287L6.70055 16.4282C6.31248 17.3828 6.11844 18.7193 6.31248 20.0558C6.60354 21.8697 7.4767 23.3971 8.44689 23.9699C8.54391 24.0654 8.64094 24.0654 8.73796 24.1609C9.51412 27.3112 11.1634 30.0797 13.2008 32.0845C15.4323 34.2802 18.3428 35.6167 21.4475 35.6167C24.358 35.6167 27.0746 34.4711 29.306 32.4663C31.6345 30.4616 33.2838 27.5022 34.157 24.1609C35.2242 23.779 36.1944 22.1561 36.5825 20.1513C36.6795 18.6239 36.5825 17.3828 36.1944 16.4282ZM35.6123 19.8649C35.3212 21.6788 34.4481 22.9198 33.7689 23.2062L33.2838 23.3971L33.1868 23.8745C32.4106 27.0248 30.7613 29.7933 28.5299 31.7981C26.3955 33.7074 23.873 34.7575 21.2534 34.7575C18.4399 34.7575 15.8204 33.6119 13.5889 31.4162C11.6485 29.5069 10.1932 26.8339 9.41708 23.8745L9.32006 23.3971L8.83496 23.2062C8.83496 23.2062 8.83498 23.2062 8.73796 23.1107C8.05883 22.7289 7.28266 21.5833 7.08862 19.8649C6.89459 18.8148 6.99161 17.8601 7.18565 17.0964L8.34986 16.9055H8.44689C8.54391 16.9055 8.64093 16.81 8.93198 16.81L9.61113 17.7647L9.70816 17.9556L9.80515 18.0511L10.0962 18.4329C10.7754 19.3876 11.4545 20.2468 13.2979 20.2468H13.977L14.3651 20.0558C14.6561 19.9604 16.9846 19.5785 21.3505 19.5785C25.7163 19.5785 28.0448 19.9604 28.4329 20.0558L28.8209 20.2468H29.5001C31.3434 20.2468 32.0226 19.483 32.7017 18.5284L33.0898 17.9556L33.1868 17.7647L33.8659 16.81C34.157 16.9055 34.254 16.9055 34.351 16.9055H34.4481L35.6123 17.1919C35.7093 17.9556 35.7093 18.9103 35.6123 19.8649Z" fill="#00C24B"/>
<path d="M0.879404 56.4281H0.97643H8.64095V49.8409H33.7689V56.4281H41.4334V63.3016H0.782379V56.4281H0.879404Z" fill="#00C24B"/>
<path d="M1.75259 39.1489V55.569H7.67078V37.3351L1.75259 39.1489ZM4.7602 54.6143C3.69299 54.6143 2.81981 53.7551 2.81981 52.705C2.81981 51.6549 3.69299 50.7957 4.7602 50.7957C5.82741 50.7957 6.70058 51.6549 6.70058 52.705C6.70058 53.7551 5.82741 54.6143 4.7602 54.6143Z" fill="#00C24B"/>
<path d="M34.739 37.3351V55.569H40.6572V39.1489L34.739 37.3351ZM37.7466 54.6143C36.6794 54.6143 35.8063 53.7551 35.8063 52.705C35.8063 51.6549 36.6794 50.7957 37.7466 50.7957C38.8139 50.7957 39.687 51.6549 39.687 52.705C39.687 53.7551 38.8139 54.6143 37.7466 54.6143Z" fill="#00C24B"/>
<path d="M35.2242 10.032V15.4735C35.2242 15.1871 34.4481 14.9962 32.9928 14.8052C32.8958 14.8052 32.8958 14.8052 32.7987 14.8052L31.4405 16.81C30.5673 18.0511 30.4703 18.4329 29.4031 18.4329H29.209C28.4329 18.0511 25.2313 17.7647 21.3505 17.7647C17.4697 17.7647 14.2681 18.0511 13.4919 18.4329H13.2979C12.1336 18.4329 12.0366 18.1465 11.2605 16.81L9.9022 14.8052C9.80518 14.8052 9.8052 14.8052 9.70818 14.8052C8.34991 14.9962 7.47672 15.1871 7.47672 15.4735V10.032C7.47672 4.01765 13.686 0.00810036 21.3505 0.00810036C29.015 -0.087365 35.2242 4.01765 35.2242 10.032Z" fill="#00C24B"/>
</svg>
