<svg width="15" height="8" viewBox="0 0 15 8" fill="none" xmlns="http://www.w3.org/2000/svg">
<path d="M14.7216 0.263789C14.5361 0.0878403 14.3163 -6.10352e-05 14.0624 -6.10352e-05H0.937571C0.683502 -6.10352e-05 0.46386 0.0878403 0.278285 0.263789C0.0927104 0.439932 0 0.648181 0 0.888925C0 1.12962 0.0927104 1.33787 0.278285 1.51387L6.84071 7.73589C7.02649 7.91184 7.24614 7.99994 7.5 7.99994C7.75386 7.99994 7.97371 7.91184 8.15913 7.73589L14.7216 1.51382C14.9069 1.33787 15 1.12962 15 0.888876C15 0.648181 14.9069 0.439932 14.7216 0.263789Z" fill="#7C7979"/>
</svg>
