<svg width="70" height="67" viewBox="0 0 70 67" fill="none" xmlns="http://www.w3.org/2000/svg">
<path d="M56.2483 38.305C56.1483 38.505 56.1483 38.605 56.3483 38.705C56.3483 38.705 56.4483 38.705 56.4483 38.805C57.7483 37.705 59.0483 36.505 60.8483 35.505C61.1483 35.305 61.5483 35.105 61.8483 35.005C62.3483 34.805 62.7483 34.605 63.2483 34.605C63.6483 34.605 64.4483 34.705 64.4483 35.405C64.4483 36.205 64.3483 37.105 64.2483 37.805C64.0483 39.605 62.5483 37.905 62.1483 38.205C61.6483 38.505 63.1483 39.005 63.3483 39.405C65.0483 39.405 66.9483 39.405 69.0483 39.305V60.005H52.4483C52.6483 59.205 52.7483 58.405 52.7483 57.505C52.7483 51.405 47.7483 46.405 41.6483 46.405C35.5483 46.405 30.5483 51.405 30.5483 57.505C30.5483 58.305 30.6483 59.205 30.8483 60.005H25.3483C24.3483 60.005 24.0483 60.005 23.3483 59.905C23.0483 59.905 22.7483 59.905 22.1483 59.805C21.8483 59.805 21.6483 59.805 21.2483 59.805C21.0483 59.805 20.8483 59.805 20.6483 59.805C20.1483 59.805 19.8483 59.705 19.5483 59.605C19.4483 59.605 19.4483 59.605 19.3483 59.605C19.2483 59.605 19.2483 59.605 19.1483 59.505C19.0483 59.505 18.9483 59.405 18.8483 59.305C18.6483 59.205 18.5483 59.105 18.4483 58.905C18.3483 58.805 18.3483 58.705 18.3483 58.605C18.2483 58.305 18.2483 57.905 18.3483 57.605V57.505V57.405C18.3483 57.305 18.3483 57.205 18.4483 57.205C18.4483 57.105 18.5483 57.005 18.5483 57.005V56.905C18.5483 56.905 18.5483 56.905 18.5483 56.805C18.5483 56.805 18.6483 56.705 18.6483 56.605C18.6483 56.505 18.7483 56.405 18.7483 56.305C18.7483 56.205 18.8483 56.105 18.8483 56.005C18.8483 55.805 18.9483 55.705 18.9483 55.505C18.9483 54.605 18.9483 53.805 18.9483 53.105C18.9483 52.905 18.9483 52.605 18.9483 52.405V52.205C18.9483 52.005 18.9483 51.905 18.9483 51.805V51.705C18.9483 51.505 18.9483 51.305 18.9483 51.205C18.9483 51.005 18.9483 50.805 18.9483 50.605C18.9483 50.405 18.9483 50.305 18.9483 50.105C18.9483 49.905 18.9483 49.805 18.9483 49.605C18.9483 49.505 18.9483 49.305 18.9483 49.205C18.9483 49.005 18.9483 48.805 19.0483 48.505C20.7483 48.505 22.4483 48.605 23.9483 48.305C26.0483 47.805 26.6483 46.105 27.1483 44.205C25.1483 44.005 23.0483 44.105 21.0483 44.105C21.2483 43.905 21.4483 43.605 21.6483 43.305C21.7483 43.105 21.6483 43.205 21.8483 43.105L21.9483 43.005L27.0483 42.705H27.2483H27.5483L50.5483 41.405L51.9483 41.305L50.5483 41.405L33.2483 25.605L32.7483 25.205L27.6483 20.605C31.6483 20.505 46.8483 34.905 51.9483 38.205V38.305V38.205C52.3483 38.105 52.6483 38.005 52.8483 37.905C54.2483 37.305 63.0483 32.705 69.2483 29.905V31.305C64.1483 33.405 57.7483 36.605 56.2483 38.305Z" fill="#00C24B"/>
<path d="M20.8483 47.7054C20.4483 47.7054 20.0483 47.7054 19.6483 47.7054C19.9483 46.6054 20.3483 46.0054 21.0483 45.0054C21.6483 45.0054 22.2483 45.0054 22.8483 45.0054C24.0483 45.0054 25.0483 45.0054 25.8483 45.1054C25.3483 46.5054 24.7483 47.3054 23.4483 47.6054C22.8483 47.6054 22.0483 47.7054 20.8483 47.7054Z" fill="#00C24B"/>
<path d="M41.6483 48.4053C36.6483 48.4053 32.6483 52.4053 32.6483 57.4053C32.6483 62.4053 36.6483 66.4053 41.6483 66.4053C46.6483 66.4053 50.6483 62.3053 50.6483 57.4053C50.6483 52.4053 46.6483 48.4053 41.6483 48.4053ZM47.0483 62.9053L46.4483 63.5053H46.3483C46.2483 63.6053 46.0483 63.7053 45.8483 63.8053L45.1483 64.2053C44.0483 64.8053 42.8483 65.1053 41.5483 65.1053C40.2483 65.1053 39.0483 64.8053 37.9483 64.2053C37.7483 64.1053 37.4483 63.9053 37.2483 63.8053C37.0483 63.7053 36.8483 63.6053 36.7483 63.4053L36.1483 62.9053C35.3483 62.1053 34.6483 61.1053 34.2483 60.0053C33.9483 59.1053 33.7483 58.3053 33.7483 57.4053C33.7483 57.0053 33.7483 56.5053 33.8483 56.1053C33.8483 55.9053 33.9483 55.6053 34.0483 55.3053C34.0483 55.1053 34.1483 54.9053 34.2483 54.7053C34.3483 54.4053 34.4483 54.2053 34.6483 53.9053C35.7483 51.7053 37.9483 50.1053 40.4483 49.7053C40.7483 49.7053 40.9483 49.6053 41.2483 49.6053C41.3483 49.6053 41.4483 49.6053 41.5483 49.6053C41.6483 49.6053 41.7483 49.6053 41.9483 49.6053C42.1483 49.6053 42.4483 49.6053 42.7483 49.7053C45.2483 50.1053 47.3483 51.6053 48.4483 53.9053C48.5483 54.1053 48.6483 54.3053 48.7483 54.7053C48.8483 54.9053 48.9483 55.1053 48.9483 55.3053C49.0483 55.5053 49.0483 55.8053 49.1483 56.1053C49.2483 56.5053 49.2483 56.9053 49.2483 57.4053C49.2483 58.3053 49.1483 59.2053 48.7483 60.0053C48.5483 61.1053 47.8483 62.1053 47.0483 62.9053Z" fill="#00C24B"/>
<path d="M48.7482 56.2051C48.7482 56.0051 48.6482 55.7051 48.5482 55.5051C48.5482 55.3051 48.4482 55.1051 48.3482 54.9051C48.2482 54.7051 48.1482 54.4051 48.0482 54.2051C47.0482 52.2051 45.0482 50.7051 42.6482 50.3051C42.4482 50.3051 42.1482 50.2051 41.8482 50.2051C41.7482 50.2051 41.6482 50.2051 41.5482 50.2051C41.4482 50.2051 41.3482 50.2051 41.2482 50.2051C41.0482 50.2051 40.7482 50.2051 40.4482 50.3051C38.0482 50.7051 36.1482 52.1051 35.0482 54.2051C34.9482 54.4051 34.8482 54.7051 34.7482 54.9051C34.6482 55.1051 34.6482 55.3051 34.5482 55.5051C34.6482 55.7051 34.5482 55.9051 34.5482 56.2051C34.4482 56.6051 34.4482 57.0051 34.4482 57.4051C34.4482 58.3051 34.6482 59.1051 34.8482 59.9051C35.2482 60.9051 35.8482 61.8051 36.5482 62.6051L37.1482 63.1051C37.3482 63.2051 37.4482 63.3051 37.6482 63.5051C37.8482 63.6051 38.0482 63.8051 38.3482 63.9051C39.3482 64.4051 40.4482 64.7051 41.6482 64.7051C42.8482 64.7051 43.9482 64.4051 44.9482 63.9051L45.6482 63.5051C45.8482 63.4051 45.9482 63.3051 46.1482 63.1051L46.6482 62.6051C47.4482 61.9051 47.9482 60.9051 48.3482 59.9051C48.6482 59.1051 48.7482 58.3051 48.7482 57.4051C48.8482 57.0051 48.8482 56.6051 48.7482 56.2051ZM47.8482 55.1051C47.9482 55.3051 47.9482 55.4051 48.0482 55.6051L43.8482 56.9051L43.0482 57.1051C43.0482 56.9051 42.9482 56.7051 42.8482 56.6051L43.6482 56.4051L47.8482 55.1051ZM42.7482 50.9051C44.7482 51.2051 46.5482 52.5051 47.5482 54.4051L44.4482 55.4051L43.2482 55.8051L42.7482 56.0051V50.9051ZM41.3482 50.8051C41.4482 50.8051 41.5482 50.8051 41.6482 50.8051H41.9482C41.9482 50.8051 41.9482 50.8051 42.0482 50.8051V56.0051C41.9482 56.0051 41.8482 56.0051 41.7482 56.0051C41.6482 56.0051 41.5482 56.0051 41.4482 56.0051V50.8051H41.3482ZM41.6482 56.8051C42.0482 56.8051 42.3482 57.1051 42.3482 57.5051C42.3482 57.9051 42.0482 58.2051 41.6482 58.2051C41.2482 58.2051 40.9482 57.9051 40.9482 57.5051C40.9482 57.0051 41.2482 56.8051 41.6482 56.8051ZM40.5482 50.9051V55.9051L40.0482 55.7051L38.8482 55.3051L35.7482 54.3051C36.7482 52.5051 38.5482 51.2051 40.5482 50.9051ZM35.2482 55.6051C35.3482 55.4051 35.3482 55.2051 35.4482 55.1051L39.6482 56.5051L40.4482 56.7051C40.3482 56.9051 40.2482 57.1051 40.2482 57.3051L39.4482 57.0051L35.2482 55.6051ZM36.9482 62.1051C36.3482 61.5051 35.8482 60.7051 35.5482 59.9051C35.2482 59.1051 35.0482 58.3051 35.0482 57.4051C35.0482 57.0051 35.0482 56.7051 35.1482 56.4051L38.2482 57.4051L39.4482 57.8051L39.9482 58.0051L39.6482 58.4051L38.8482 59.4051L38.5482 59.9051L36.9482 62.1051ZM38.0482 62.9051C37.9482 62.9051 37.9482 62.9051 38.0482 62.9051C37.8482 62.8051 37.7482 62.7051 37.5482 62.5051L39.5482 59.8051L40.1482 58.9051L40.6482 58.3051C40.7482 58.4051 40.9482 58.5051 41.0482 58.6051L40.5482 59.4051L40.1482 59.9051L38.0482 62.9051ZM41.6482 64.0051C40.5482 64.0051 39.5482 63.8051 38.6482 63.3051L40.5482 60.7051L41.1482 59.9051L41.3482 59.7051L41.6482 59.3051L41.9482 59.7051L42.1482 59.9051L42.7482 60.7051L44.6482 63.3051C43.7482 63.8051 42.7482 64.0051 41.6482 64.0051ZM45.7482 62.6051C45.6482 62.7051 45.4482 62.8051 45.3482 62.9051L43.1482 59.9051L42.7482 59.4051L42.2482 58.7051C42.3482 58.6051 42.5482 58.5051 42.6482 58.4051L43.1482 59.0051L43.7482 59.9051L45.7482 62.6051ZM47.8482 59.9051C47.5482 60.7051 47.0482 61.4051 46.4482 62.1051L44.8482 59.9051L44.5482 59.4051L43.7482 58.4051L43.4482 58.0051L43.9482 57.8051L45.1482 57.4051L48.2482 56.4051C48.2482 56.7051 48.3482 57.1051 48.3482 57.4051C48.2482 58.3051 48.1482 59.1051 47.8482 59.9051Z" fill="#00C24B"/>
<path d="M28.9482 33.5053C29.0482 33.5053 29.0482 33.5053 29.1482 33.5053L27.7482 38.2052C27.3482 37.8052 27.0482 37.4052 26.9482 36.8052C26.7482 36.9052 26.5482 37.0053 26.2482 37.1053C24.4482 37.7052 22.9482 37.0052 22.0482 35.9052C21.1482 36.0052 20.2482 36.0053 19.4482 35.7053C19.1482 35.6053 18.8482 35.5052 18.4482 35.4052C17.9482 35.2052 17.5482 35.1052 17.1482 34.9052C15.5482 34.1052 14.3482 32.6052 13.7482 30.9052C13.4482 29.9052 13.3482 28.8053 13.5482 27.8053C10.5482 27.3053 8.54823 24.5053 8.44823 21.7053C6.54823 20.9053 4.84823 19.5053 3.84823 17.7053C-0.651769 16.0053 -1.95177 8.20525 4.04823 6.30525C4.74823 6.10525 5.44823 6.00525 6.04823 6.00525C6.94823 5.30525 7.94823 4.70525 9.14823 4.30525C13.9482 2.80525 19.2482 5.50525 20.7482 10.3052C20.9482 11.0052 21.0482 11.7053 21.1482 12.4053C23.1482 14.2053 23.2482 18.0052 20.2482 19.3052C20.5482 20.2052 20.7482 21.1053 20.7482 22.1053C21.1482 22.1053 21.5482 22.2052 22.0482 22.3053C22.3482 21.7052 22.9482 21.1053 23.7482 20.9053C26.7482 19.9053 28.5482 23.6053 26.9482 25.6053C27.2482 26.1053 27.4482 26.6053 27.6482 27.1053C27.9482 28.1053 28.0482 29.2052 27.8482 30.3053C28.5482 31.1052 28.9482 32.3053 28.9482 33.5053Z" fill="#00C24B"/>
<path d="M31.7483 41.3051C30.8483 41.6051 30.1483 41.3051 29.6483 40.8051L31.6483 34.2051C32.4483 35.0051 32.7483 36.3051 32.2483 37.3051C33.5483 38.3051 33.7483 40.7051 31.7483 41.3051Z" fill="#00C24B"/>
<path d="M24.0482 9.70527C22.2482 10.3053 23.1482 13.1053 24.9482 12.6053C26.8482 12.0053 25.9482 9.10527 24.0482 9.70527Z" fill="#00C24B"/>
<path d="M2.84825 0.105192C0.248251 0.905192 1.54825 4.90519 4.14825 4.10519C6.74825 3.30519 5.44825 -0.694808 2.84825 0.105192Z" fill="#00C24B"/>
<path d="M32.8483 26.6051L28.3483 41.7051H27.6483L32.4483 26.2051L32.5483 26.3051L32.8483 26.6051Z" fill="#00C24B"/>
</svg>
