<svg width="71" height="71" viewBox="0 0 71 71" fill="none" xmlns="http://www.w3.org/2000/svg">
<path d="M48.8645 0.414975L2.75391 37.5151L3.88607 38.934L49.9967 1.83385L48.8645 0.414975Z" fill="#171C21"/>
<path d="M55.4647 4.1817L3.31943 46.12C0.603533 44.8473 0.422473 43.4534 0 41.9383L52.1453 0C54.4387 0.727254 54.9215 1.93934 55.4647 4.1817Z" fill="black"/>
<path opacity="0.6" d="M54.8008 2.12109L1.56915 44.9685C1.99163 45.3321 2.53481 45.7563 3.3194 46.1199L55.4043 4.18164C55.2836 3.39378 55.1025 2.66653 54.8008 2.12109Z" fill="#C0C2C4"/>
<path d="M39.5314 17.5149C38.9883 17.2118 38.3847 17.2118 37.9019 17.5149C34.2807 19.636 31.3234 21.7572 28.6075 24.0602C25.8312 26.3025 23.236 28.8479 20.4598 31.9993C20.0977 32.4236 19.9166 33.0902 20.158 33.6357C20.3391 34.1811 20.8219 34.6053 21.4254 34.7265C24.262 35.272 28.3057 36.1204 29.3921 36.4235C31.9269 37.2113 39.6521 40.4234 39.6521 40.4234L41.1006 39.2113L42.8509 37.7568C42.8509 37.7568 40.9196 29.757 40.6178 27.151C40.4971 26.0601 40.4367 21.8784 40.4367 18.9694C40.3764 18.3633 40.0143 17.8179 39.5314 17.5149Z" fill="black"/>
<path d="M41.0936 36.4831L38.7076 38.7124L59.5929 61.2516L61.9789 59.0223L41.0936 36.4831Z" fill="black"/>
<path d="M70.553 66.6649C72.3636 68.6649 68.1992 72.3617 66.5093 70.483C65.1212 68.9679 58.7841 62.1196 56.37 59.5136C55.8268 58.9682 55.8872 58.0591 56.4303 57.5137L58.422 55.6349C58.9652 55.0895 59.8705 55.1501 60.4136 55.6955C62.8278 58.3015 69.1045 65.0286 70.553 66.6649Z" fill="black"/>
<path d="M35.8498 20.6058C35.367 20.2422 34.8842 20.121 34.5824 20.3028C32.1683 21.4543 30.2973 22.6663 28.6074 24.1208C26.8572 25.5147 25.3484 27.1511 23.7792 29.3328C23.5378 29.6359 23.5981 30.1207 23.8395 30.6661C24.0809 31.151 24.5638 31.6358 24.9862 31.8176C27.2797 32.7873 30.5991 34.2418 31.444 34.7266C33.5564 35.8781 40.1349 39.9992 40.1349 39.9992L41.0402 39.2114L42.1266 38.3023C42.1266 38.3023 39.1693 31.151 38.445 28.9086C38.1433 27.9389 37.3587 24.4239 36.8155 21.9391C36.6344 21.4543 36.3327 20.9088 35.8498 20.6058Z" fill="black"/>
</svg>
