<svg width="68" height="58" viewBox="0 0 68 58" fill="none" xmlns="http://www.w3.org/2000/svg">
<path d="M15.114 8.7848C14.925 9.06819 14.8306 9.35157 14.7361 9.44603C14.6417 9.82388 14.5472 10.0128 14.5472 10.1073C14.3583 10.0128 14.0749 9.91835 13.8859 10.0128C13.697 10.1073 13.697 10.2962 13.4136 10.2962C13.1302 10.3907 12.7524 10.2017 12.469 10.2017C11.9022 10.1073 11.3355 10.0128 10.7687 9.91835C9.82405 9.72942 9.54065 8.87926 9.63511 8.0291C9.72958 7.2734 10.4853 6.99001 11.1465 6.89555C11.8078 6.80109 12.6579 6.5177 13.2247 6.89555C14.1693 7.36786 13.7915 8.97372 15.114 8.7848Z" fill="black"/>
<path d="M57.8111 15.0196C57.7166 14.2639 55.9219 12.5635 55.3551 11.9967C54.9773 11.6189 53.7492 10.5798 53.3714 10.2964C53.088 10.1075 53.088 10.1075 52.9935 10.013C52.9935 9.91857 52.8991 9.72965 52.8046 9.3518C52.7101 9.25734 52.6157 8.97394 52.4268 8.69055C51.3877 6.8013 48.2704 1.98372 47.987 1.70033C47.7036 1.41694 47.0424 0.755697 46.0033 0.661235C45.0587 0.47231 35.4235 0 33.6287 0C31.8339 0 22.1988 0.47231 21.2541 0.661235C20.3095 0.85016 19.6483 1.41694 19.3649 1.70033C19.0815 1.98372 16.0587 6.70684 15.0196 8.69055C14.8307 8.97394 14.7362 9.25734 14.6418 9.3518C14.5473 9.72965 14.4528 9.91857 14.4528 10.013C14.3584 10.1075 14.1694 10.2964 14.075 10.2964C13.7916 10.4853 12.7525 11.241 12.1857 11.8078C11.3356 12.7524 9.82415 14.0749 9.72969 14.9251C9.72969 15.6808 9.35185 16.2476 9.44631 17.8534C9.44631 18.6091 9.7297 20.9707 9.91863 23.1433C10.1076 25.5049 10.3909 27.6775 10.3909 27.8664C10.3909 28.2443 10.2965 28.6222 10.4854 28.9055C10.6743 29.1889 11.0522 29.2834 11.6189 29.2834C11.8079 29.2834 13.7916 29.2834 16.531 29.3779C23.0489 29.4723 33.8176 29.5668 33.8176 29.5668C33.8176 29.5668 44.8698 29.3778 51.3877 29.2834C53.9382 29.2834 55.8274 29.1889 56.0163 29.1889C56.5831 29.1889 56.961 29.0945 57.1499 28.8111C57.2444 28.5277 57.1499 28.1498 57.2444 27.772C57.2444 27.5831 57.6222 23.5212 57.9056 20.5928C58 19.2704 58.0945 18.2313 58.0945 17.759C58.189 16.342 57.8111 15.7753 57.8111 15.0196ZM54.1271 14.4528C54.9772 14.4528 55.1662 14.3583 55.3551 15.114C55.4496 15.5863 55.4496 16.342 55.3551 16.7199C54.9773 18.3257 52.8991 18.3257 51.5766 18.3257C49.1206 18.3257 46.9479 18.987 44.9642 15.4919C46.6646 15.0196 48.6483 15.0195 50.3486 14.7362C51.5766 14.5472 52.8046 14.4528 54.1271 14.4528ZM20.0261 1.98372L33.8176 1.51141L47.6092 1.98372C47.6092 1.98372 52.6157 9.72964 52.2378 9.72964C51.86 9.72964 39.3909 9.0684 33.8176 9.16286C28.2443 9.0684 15.7753 9.72964 15.3974 9.72964C15.0196 9.72964 20.0261 1.98372 20.0261 1.98372ZM12.2802 15.114C12.4691 14.3583 12.658 14.4528 13.4137 14.4528C14.7362 14.4528 15.9642 14.5472 17.2867 14.8306C18.987 15.114 20.9707 15.0195 22.6711 15.5863C20.6874 19.0814 18.6092 18.5147 16.0587 18.5147C14.7362 18.5147 12.658 18.5147 12.2802 16.9088C12.1857 16.342 12.1857 15.6808 12.2802 15.114ZM21.1597 27.772C20.3095 28.0554 18.4203 27.9609 17.4756 27.9609C17.0978 27.9609 16.8144 27.9609 16.531 27.9609C15.7753 27.9609 14.9251 27.9609 14.1694 27.9609C13.7916 27.9609 13.4137 27.9609 13.1303 27.9609C11.8079 27.9609 11.5245 27.4886 11.9023 26.1661C12.1857 25.2215 11.9968 24.2769 13.0359 23.899C13.4137 23.8046 14.6418 23.7101 16.1532 23.7101C16.3421 23.7101 16.4365 23.7101 16.6255 23.7101C17.0978 23.7101 17.6645 23.7101 18.2313 23.8046C18.5147 23.8046 18.8926 23.8046 19.1759 23.8046C19.2704 23.8046 19.3649 23.8046 19.5538 23.8046C19.7427 23.8046 19.9316 23.8046 20.0261 23.8046C20.215 23.8046 20.4039 23.8046 20.4984 23.8046C20.6873 23.8046 20.7818 23.8046 20.9707 23.8046C21.2541 23.8046 21.4431 23.899 21.7264 23.899C21.9154 23.899 22.0098 23.899 22.1988 23.9935C22.2932 23.9935 22.3877 23.9935 22.5766 24.0879C22.6711 24.0879 22.6711 24.0879 22.7655 24.0879C22.86 24.0879 22.9544 24.0879 22.9544 24.0879H23.0489H23.1434C23.2378 24.0879 23.3323 24.0879 23.3323 24.0879C22.86 25.5049 22.4821 27.2997 21.1597 27.772ZM42.886 26.0717C42.4137 27.3941 40.5245 27.2052 40.3355 27.2052H27.2997C27.1108 27.2052 25.2215 27.3941 24.7492 26.0717C24.2769 24.7492 23.5212 22.4821 23.2378 21.443C22.9545 20.3094 22.0098 18.3257 27.5831 18.4202C30.417 18.5147 32.4952 18.5147 33.8176 18.4202C35.1401 18.4202 37.2183 18.4202 40.0522 18.4202C45.6255 18.3257 44.6808 20.215 44.3974 21.3485C44.1141 22.4821 43.3584 24.7492 42.886 26.0717ZM54.5049 27.9609C53.4658 27.9609 52.4268 27.9609 51.3877 28.0554C50.9154 28.0554 50.5375 28.0554 50.0652 28.0554C49.1206 28.0554 47.2313 28.1498 46.4756 27.8664C45.1531 27.3941 44.7753 25.5993 44.3974 24.3713C44.4919 24.3713 44.5864 24.3713 44.6808 24.2769C44.7753 24.2769 44.9642 24.2769 45.1531 24.1824C45.2476 24.1824 45.3421 24.1824 45.4365 24.1824H45.531C45.6254 24.1824 45.8144 24.1824 45.9089 24.0879C46.0033 24.0879 46.1922 24.088 46.3812 23.9935C46.759 23.9935 47.1368 23.899 47.5147 23.899C47.6092 23.899 47.7036 23.899 47.8925 23.899C48.4593 23.899 49.1206 23.8046 49.7818 23.8046C49.9707 23.8046 50.0652 23.8046 50.2541 23.8046H50.632C50.8209 23.8046 50.9154 23.8046 51.0098 23.8046H51.2932C52.8991 23.8046 54.2215 23.8046 54.5994 23.9935C55.6385 24.3713 55.4496 25.316 55.7329 26.2606C56.1108 27.4886 55.9219 27.9609 54.5049 27.9609Z" fill="black"/>
<path d="M16.531 30.4171V33.0621C16.531 33.3455 16.342 33.5344 16.0586 33.5344H10.3909C10.1075 33.5344 9.91858 33.3455 9.91858 33.0621V29.9448C10.3909 30.4171 11.1466 30.4171 11.5244 30.4171C11.6189 30.3227 16.531 30.4171 16.531 30.4171Z" fill="black"/>
<path d="M57.9999 29.3774V32.967C57.9999 33.2504 57.811 33.4393 57.5276 33.4393H51.8599C51.5765 33.4393 51.3876 33.2504 51.3876 32.967V30.3221C54.0325 30.3221 56.0162 30.2276 56.0162 30.2276C56.3941 30.3221 57.4332 30.3221 57.9999 29.3774Z" fill="black"/>
<path d="M16.0586 25.8825C16.0586 26.8271 15.3029 27.5828 14.3583 27.5828C13.4136 27.5828 12.658 26.8271 12.658 25.8825C12.658 24.9378 13.4136 24.1821 14.3583 24.1821C15.3029 24.1821 16.0586 24.9378 16.0586 25.8825Z" fill="black"/>
<path d="M56.772 9.82412C56.2053 9.91859 55.6385 10.013 55.0717 10.1075C54.7883 10.1075 54.4105 10.2964 54.1271 10.202C53.9381 10.1075 53.8437 9.91858 53.6548 9.91858C53.4658 9.82411 53.1825 9.91858 52.9935 10.013C52.9935 9.91858 52.8991 9.72966 52.8046 9.35181C52.8046 9.25735 52.6157 8.97395 52.4268 8.69056C53.7492 8.97395 53.3714 7.27362 54.2215 6.80131C54.7883 6.42346 55.733 6.70685 56.2997 6.80131C56.961 6.89577 57.7166 7.17917 57.8111 7.93487C58 8.78504 57.6222 9.6352 56.772 9.82412Z" fill="black"/>
<path d="M18.987 25.8823C18.987 26.5436 18.4202 27.1103 17.759 27.1103C17.0978 27.1103 16.531 26.5436 16.531 25.8823C16.531 25.2211 17.0978 24.6543 17.759 24.6543C18.4202 24.6543 18.987 25.2211 18.987 25.8823Z" fill="black"/>
<path d="M54.8827 25.7882C54.8827 26.7328 54.127 27.4885 53.1824 27.4885C52.2377 27.4885 51.4821 26.7328 51.4821 25.7882C51.4821 24.8436 52.2377 24.0879 53.1824 24.0879C54.127 24.0879 54.8827 24.8436 54.8827 25.7882Z" fill="black"/>
<path d="M50.8208 25.7881C50.8208 26.4493 50.254 27.0161 49.5928 27.0161C48.9315 27.0161 48.3647 26.4493 48.3647 25.7881C48.3647 25.1268 48.9315 24.5601 49.5928 24.5601C50.254 24.5601 50.8208 25.1268 50.8208 25.7881Z" fill="black"/>
<path d="M12.469 53.4653H0V57.9995H12.469V53.4653Z" fill="black"/>
<path d="M4.15637 52.521V14.4526H8.21825V34.3842H18.0424V35.8956H8.21825V52.521H4.15637Z" fill="black"/>
<path d="M67.9185 53.4653H55.4495V57.9995H67.9185V53.4653Z" fill="black"/>
<path d="M59.7003 52.521V35.9901H49.7817V34.3842H59.7003V14.4526H63.6677V52.521H59.7003Z" fill="black"/>
</svg>
