<svg width="83" height="51" viewBox="0 0 83 51" fill="none" xmlns="http://www.w3.org/2000/svg">
<path d="M76.1414 0H6.85852C5.69605 0 4.64984 0.929969 4.64984 1.97619V43.1274C4.64984 44.1737 5.57981 45.1036 6.85852 45.1036H76.1414C77.3039 45.1036 78.3501 44.1737 78.3501 43.1274V1.97619C78.3501 0.929969 77.3039 0 76.1414 0ZM75.2115 41.2675H7.78849V3.83612H75.2115V41.2675Z" fill="#00C24B"/>
<path d="M83 46.7314C83 49.0564 81.3726 50.8001 79.2801 50.8001H3.71988C1.62745 50.8001 0 48.9401 0 46.7314H83Z" fill="#00C24B"/>
<path d="M54.2871 19.5297C52.6596 19.0647 50.4509 18.8323 49.4047 18.8323C49.2885 18.8323 49.2885 18.8323 49.1722 18.8323H48.4748V18.9485C48.7072 20.6922 48.8235 21.9709 48.7072 23.2496V23.3659H48.8235C53.7058 23.1334 58.7045 22.6684 59.0532 22.5521C59.1694 22.5521 59.1694 22.4359 59.1694 22.3196C59.1694 21.8547 55.5658 19.8785 54.2871 19.5297ZM49.056 23.1334C49.056 21.9709 48.9397 20.6922 48.8235 19.181H49.1722C49.2885 19.181 49.4047 19.181 49.4047 19.181C50.4509 19.181 52.6596 19.4135 54.1708 19.8785C55.5658 20.2272 58.472 21.9709 58.8207 22.4359C58.2395 22.4359 54.0546 22.7846 49.056 23.1334ZM54.2871 19.5297C52.6596 19.0647 50.4509 18.8323 49.4047 18.8323C49.2885 18.8323 49.2885 18.8323 49.1722 18.8323H48.4748V18.9485C48.7072 20.6922 48.8235 21.9709 48.7072 23.2496V23.3659H48.8235C53.7058 23.1334 58.7045 22.6684 59.0532 22.5521C59.1694 22.5521 59.1694 22.4359 59.1694 22.3196C59.1694 21.8547 55.5658 19.8785 54.2871 19.5297ZM49.056 23.1334C49.056 21.9709 48.9397 20.6922 48.8235 19.181H49.1722C49.2885 19.181 49.4047 19.181 49.4047 19.181C50.4509 19.181 52.6596 19.4135 54.1708 19.8785C55.5658 20.2272 58.472 21.9709 58.8207 22.4359C58.2395 22.4359 54.0546 22.7846 49.056 23.1334ZM54.2871 19.5297C52.6596 19.0647 50.4509 18.8323 49.4047 18.8323C49.2885 18.8323 49.2885 18.8323 49.1722 18.8323H48.4748V18.9485C48.7072 20.6922 48.8235 21.9709 48.7072 23.2496V23.3659H48.8235C53.7058 23.1334 58.7045 22.6684 59.0532 22.5521C59.1694 22.5521 59.1694 22.4359 59.1694 22.3196C59.1694 21.8547 55.5658 19.8785 54.2871 19.5297ZM49.056 23.1334C49.056 21.9709 48.9397 20.6922 48.8235 19.181H49.1722C49.2885 19.181 49.4047 19.181 49.4047 19.181C50.4509 19.181 52.6596 19.4135 54.1708 19.8785C55.5658 20.2272 58.472 21.9709 58.8207 22.4359C58.2395 22.4359 54.0546 22.7846 49.056 23.1334ZM54.2871 19.5297C52.6596 19.0647 50.4509 18.8323 49.4047 18.8323C49.2885 18.8323 49.2885 18.8323 49.1722 18.8323H48.4748V18.9485C48.7072 20.6922 48.8235 21.9709 48.7072 23.2496V23.3659H48.8235C53.7058 23.1334 58.7045 22.6684 59.0532 22.5521C59.1694 22.5521 59.1694 22.4359 59.1694 22.3196C59.1694 21.8547 55.5658 19.8785 54.2871 19.5297ZM49.056 23.1334C49.056 21.9709 48.9397 20.6922 48.8235 19.181H49.1722C49.2885 19.181 49.4047 19.181 49.4047 19.181C50.4509 19.181 52.6596 19.4135 54.1708 19.8785C55.5658 20.2272 58.472 21.9709 58.8207 22.4359C58.2395 22.4359 54.0546 22.7846 49.056 23.1334ZM54.2871 19.5297C52.6596 19.0647 50.4509 18.8323 49.4047 18.8323C49.2885 18.8323 49.2885 18.8323 49.1722 18.8323H48.4748V18.9485C48.7072 20.6922 48.8235 21.9709 48.7072 23.2496V23.3659H48.8235C53.7058 23.1334 58.7045 22.6684 59.0532 22.5521C59.1694 22.5521 59.1694 22.4359 59.1694 22.3196C59.1694 21.8547 55.5658 19.8785 54.2871 19.5297ZM49.056 23.1334C49.056 21.9709 48.9397 20.6922 48.8235 19.181H49.1722C49.2885 19.181 49.4047 19.181 49.4047 19.181C50.4509 19.181 52.6596 19.4135 54.1708 19.8785C55.5658 20.2272 58.472 21.9709 58.8207 22.4359C58.2395 22.4359 54.0546 22.7846 49.056 23.1334ZM26.1554 27.0857L26.0392 26.8533C23.8305 27.4345 22.2031 29.4107 22.2031 31.7356C22.2031 32.0843 22.203 32.3168 22.3193 32.6656H20.1106C19.5294 32.6656 19.5294 32.6656 18.8319 32.6656H18.1344C17.7857 32.6656 17.5532 32.5493 17.4369 32.4331L17.3207 32.3168C17.3207 32.3168 17.3207 32.3168 17.3207 32.2006C17.3207 32.0844 17.3207 31.9681 17.3207 31.8519C17.3207 31.8519 17.3207 31.8519 17.3207 31.7356C17.3207 31.6194 17.3207 31.6194 17.3207 31.6194C17.3207 31.6194 17.3207 31.6194 17.3207 31.5031C17.3207 31.3869 17.3207 31.3869 17.4369 31.2706C17.4369 31.1544 17.4369 31.1544 17.4369 31.0381C17.4369 30.6894 17.4369 30.3406 17.4369 29.9919V29.4107C17.4369 29.2944 17.4369 29.1782 17.4369 29.1782V29.0619V28.9457C17.4369 28.8294 17.4369 28.8295 17.4369 28.7132C17.4369 28.7132 17.4369 28.597 17.4369 28.4807C17.4369 28.4807 17.4369 28.4807 17.4369 28.3645V28.2482C17.4369 28.132 17.4369 28.0157 17.4369 28.0157C17.5532 27.0857 17.7857 26.8533 18.2507 26.272C18.3669 26.1558 18.4832 26.0395 18.5994 25.807C19.0644 25.1096 22.2031 24.6446 25.1092 24.4121L24.993 24.1796C21.8543 24.5283 18.9481 24.9933 18.3669 25.6908C18.2507 25.807 18.1344 26.0395 18.0182 26.1558C17.5532 26.737 17.3207 27.0857 17.2044 28.0157C17.2044 28.132 17.2044 28.2482 17.2044 28.3645V28.4807V28.597C17.2044 28.7132 17.2044 28.7132 17.2044 28.8294C17.2044 28.9457 17.2044 28.9457 17.2044 29.0619V29.1782V29.2944C17.2044 29.2944 17.2044 29.4107 17.2044 29.5269V30.1082C17.2044 30.4569 17.2044 30.8056 17.2044 31.1544V31.2706C17.2044 31.2706 17.2044 31.3869 17.0882 31.3869C17.0882 31.3869 17.0882 31.3869 17.0882 31.5031C17.0882 31.5031 17.0882 31.5031 17.0882 31.6194C17.0882 31.6194 17.0882 31.6194 17.0882 31.7356V31.8519C17.0882 31.9681 17.0882 32.2006 17.0882 32.3168V32.4331C17.0882 32.5493 17.2044 32.5493 17.3207 32.6656C17.5532 32.7818 17.7857 32.8981 18.2507 32.8981H18.9481C19.6456 32.8981 19.6456 32.8981 20.2268 32.8981H22.7843V32.7818C22.668 32.4331 22.668 32.0843 22.668 31.7356C22.5518 29.4107 24.063 27.5507 26.1554 27.0857ZM70.9103 27.4345C70.9103 27.3182 70.9103 27.3182 70.7941 27.202C70.7941 27.202 70.7941 27.202 70.7941 27.0857C70.7941 27.0857 70.7941 26.9695 70.6778 26.8533V26.737C70.6778 26.737 70.6778 26.737 70.6778 26.6208C70.6778 26.6208 70.6778 26.6208 70.6778 26.5045L70.5616 26.3883C70.4453 26.272 70.4454 26.272 70.4454 26.1558V26.0395C70.4454 25.9233 70.4454 25.9233 70.4454 25.807C70.4454 25.807 70.4454 25.6908 70.4454 25.5746V25.4583C70.4454 25.3421 70.4453 25.2258 70.3291 25.2258L70.2128 24.5283C70.2128 24.4121 70.2129 24.4121 70.0966 24.2958V24.0633V23.9471C69.9804 23.5984 69.8641 23.2496 69.8641 23.1334C69.8641 23.0171 69.8641 23.0171 69.8641 23.0171V22.9009C69.7479 22.7846 69.5154 22.6684 68.3529 22.5521C67.3067 22.4359 65.9117 22.2034 65.098 21.9709C64.8655 21.8547 64.633 21.7384 64.2843 21.6222C61.9594 20.6922 56.612 18.3673 48.8235 18.1348C48.7073 18.1348 48.4748 18.1348 48.3585 18.1348C48.126 18.1348 47.8935 18.1348 47.661 18.1348C43.0112 18.1348 42.7787 18.1348 41.7325 18.4835C40.3375 18.9485 36.7339 20.6922 34.2927 21.9709C33.3627 22.4359 32.6652 22.7846 32.4327 22.9009C31.9677 23.0171 31.0378 23.2496 29.6428 23.3659V23.5983C31.0378 23.4821 32.084 23.3659 32.549 23.1334C32.7815 23.0171 33.479 22.6684 34.4089 22.2034C36.6176 21.0409 40.3375 19.181 41.7325 18.716C42.6624 18.3673 43.0112 18.3673 47.5448 18.3673C47.7773 18.3673 48.0098 18.3673 48.2423 18.3673C48.3585 18.3673 48.591 18.3673 48.7072 18.3673C56.4958 18.5997 61.7269 20.9247 64.0518 21.8547C64.4005 21.9709 64.633 22.0871 64.8655 22.2034C65.7955 22.5521 67.1904 22.7846 68.2367 22.9009C68.8179 23.0171 69.3991 23.0171 69.5154 23.1334C69.5154 23.1334 69.5154 23.2496 69.6316 23.2496C69.7479 23.4821 69.7479 23.7146 69.8641 24.0633V24.1796V24.2958C69.8641 24.4121 69.8641 24.5283 69.9804 24.5283L70.0966 25.1096C70.0966 25.1096 70.0966 25.1096 70.0966 25.2258C70.0966 25.3421 70.0966 25.3421 70.0966 25.4583C70.0966 25.4583 70.0966 25.4583 70.0966 25.5746C70.0966 25.6908 70.0966 25.6908 70.0966 25.807C70.0966 25.9233 70.0966 26.0395 70.0966 26.1558C70.0966 26.272 70.2129 26.3883 70.3291 26.5045C70.3291 26.5045 70.3291 26.5045 70.4454 26.6208C70.4454 26.6208 70.4453 26.737 70.5616 26.8533C70.5616 26.9695 70.5616 26.9695 70.6778 27.0857C70.9103 27.7832 70.7941 29.8757 70.6778 30.3406C70.5616 30.3406 70.4453 30.4569 70.2128 30.5731C70.2128 30.5731 70.0966 30.6894 69.9804 30.6894C69.9804 30.6894 69.9804 30.6894 69.8641 30.6894L69.7479 30.8056C69.7479 30.8056 69.6316 30.8056 69.6316 30.9219C69.6316 30.9219 69.5154 30.9219 69.5154 31.0381C69.3991 31.0381 69.3991 31.1544 69.2829 31.1544L69.0504 31.2706C68.8179 31.3869 68.4692 31.5031 68.0042 31.6194H67.8879H67.7717H67.6554C67.1904 31.7356 66.6092 31.8519 66.3767 31.8519C66.3767 31.6194 66.493 31.2706 66.493 30.9219C66.493 28.132 64.2843 25.9233 61.4944 25.9233C58.7044 25.9233 56.4958 28.132 56.4958 30.9219C56.4958 31.2706 56.4958 31.5031 56.612 31.8519H32.549C32.549 31.5031 32.6652 31.2706 32.6652 30.9219C32.6652 28.8294 31.2703 26.9695 29.4103 26.272V26.6208C31.154 27.3182 32.4327 29.0619 32.4327 31.0381C32.4327 31.3869 32.4327 31.7356 32.3165 32.0843V32.2006H57.077V32.0843C56.9608 31.7356 56.9608 31.3869 56.9608 31.0381C56.9608 28.4807 59.0532 26.272 61.6106 26.272C64.168 26.272 66.3767 28.3645 66.3767 31.0381C66.3767 31.3869 66.3767 31.7356 66.2605 32.0843V32.3168H66.493C66.8417 32.3168 67.4229 32.2006 68.0042 32.0843H68.1204H68.2367C68.7016 31.9681 69.0504 31.8519 69.2829 31.7356L69.5154 31.6194C69.6316 31.6194 69.7479 31.5031 69.8641 31.5031C69.8641 31.5031 69.9804 31.5031 69.9804 31.3869L70.0966 31.2706L70.2128 31.1544C70.2128 31.1544 70.3291 31.1544 70.3291 31.0381C70.4453 31.0381 70.4453 30.9219 70.5616 30.9219C70.6778 30.8056 70.7941 30.6894 70.9103 30.6894H71.0266L71.1428 30.5731C71.0266 30.4569 71.0266 28.2482 70.9103 27.4345Z" fill="#00C24B"/>
<path d="M41.8488 23.4823C42.895 23.4823 43.9413 23.3661 45.1037 23.3661C44.0575 23.3661 42.895 23.4823 41.8488 23.4823ZM47.5449 19.0649C47.6611 19.0649 47.7774 19.0649 47.8936 19.0649H47.5449Z" fill="#00C24B"/>
<path d="M48.4749 22.0869C48.4749 21.8544 48.4749 21.6219 48.4749 21.2732C48.4749 20.5757 48.3586 19.762 48.2424 18.9483V18.832H48.1261C47.4286 18.832 46.6149 18.832 45.8012 18.832C44.0575 18.832 42.895 18.832 42.3138 18.9483C42.0813 18.9483 41.5001 19.1808 40.6863 19.5295C40.4539 19.6457 40.1051 19.762 39.8726 19.8782C37.5477 20.9245 34.2928 22.4357 33.5953 23.2494C33.4791 23.3656 33.4791 23.3656 33.4791 23.4819C33.4791 23.5981 33.5953 23.5981 33.5953 23.5981H33.7116C33.7116 23.5981 33.7116 23.5981 33.8278 23.5981C34.1765 23.7144 34.7578 23.7144 35.6877 23.8306C36.0365 23.8306 36.3852 23.8306 36.734 23.8306H36.9665C40.1051 23.8306 44.8712 23.5981 48.3586 23.3656H48.4749V23.2494C48.4749 22.9007 48.4749 22.5519 48.4749 22.0869ZM36.6177 23.1331C36.5015 23.0169 36.269 23.0169 36.1527 23.1331C36.0365 23.1331 36.0365 23.2494 36.0365 23.3656C36.0365 23.4819 36.1527 23.5981 36.269 23.7144C36.0365 23.7144 35.804 23.7144 35.5715 23.7144C34.874 23.7144 34.2928 23.7144 33.944 23.5981L34.0603 23.4819C34.5253 23.1332 34.9903 22.6682 35.6877 22.3194C35.804 22.2032 36.0365 22.2032 36.1527 22.0869C36.3852 21.9707 36.5015 21.9707 36.734 21.9707C36.734 21.9707 37.0827 21.9707 37.0827 22.2032C37.0827 22.5519 37.0827 23.0169 36.9665 23.2494C36.9665 23.4819 36.8502 23.4819 36.8502 23.4819C36.8502 23.2494 36.734 23.2494 36.6177 23.1331ZM46.8474 23.2494C46.6149 23.2494 46.3824 23.2494 46.1499 23.2494C45.8012 23.2494 45.4525 23.2494 45.1037 23.2494C43.9413 23.3656 42.7788 23.3656 41.8488 23.3656C41.6163 23.3656 41.3838 23.3656 41.1513 23.3656C40.9188 23.3656 40.5701 23.3656 40.3376 23.3656C39.9889 23.3656 39.6401 23.3656 39.2914 23.3656C38.9427 23.3656 38.5939 23.3656 38.3614 23.3656C37.8964 23.3656 37.5477 23.3656 37.0827 23.3656H36.9665H37.0827C37.1989 23.3656 37.4314 23.3656 37.5477 22.9007C37.5477 22.6682 37.6639 22.2032 37.6639 21.8544C37.6639 21.5057 37.4314 21.3895 37.0827 21.3895L38.0127 20.9245C38.1289 20.8082 38.3614 20.8082 38.4777 20.692C38.7102 20.5757 38.9426 20.4595 39.1751 20.3432C39.4076 20.227 39.5239 20.1107 39.7564 20.1107C40.6863 19.6457 41.5001 19.297 42.0813 19.1808C42.1975 19.1808 42.1975 19.1808 42.3138 19.1808C42.43 19.1808 42.43 19.1808 42.5463 19.0645H42.6625C42.7788 19.0645 42.895 19.0645 43.0113 19.0645C43.2438 19.0645 43.5925 19.0645 43.9413 19.0645C44.5225 19.0645 45.22 19.0645 46.1499 19.0645C46.7312 19.0645 47.4286 19.0645 47.8936 19.0645H48.2424C48.4749 20.5757 48.4749 21.9707 48.4749 23.1331C47.7774 23.1331 47.3124 23.2494 46.8474 23.2494Z" fill="#00C24B"/>
<path d="M18.5994 27.8996C18.3669 27.8996 18.1344 27.8996 17.9019 27.8996H17.437V27.7833C17.5532 26.8533 17.7857 26.5046 18.2507 25.9234L18.3669 25.8071H18.5994C18.8319 25.8071 19.1806 25.8071 19.4131 25.8071C19.8781 25.8071 20.5756 25.8071 21.1568 25.8071H21.2731V25.9234C21.0406 26.7371 20.8081 27.5508 19.7619 27.7833C19.4131 27.8996 19.0644 27.8996 18.5994 27.8996ZM17.7857 27.5508C18.1344 27.5508 18.3669 27.5508 18.5994 27.5508C19.0644 27.5508 19.4131 27.5508 19.7619 27.4346C20.5756 27.2021 20.8081 26.6208 21.0406 25.9234C20.4594 25.9234 19.8781 25.9234 19.4131 25.9234C19.1806 25.9234 18.8319 25.9234 18.5994 25.9234C18.1344 26.6208 17.9019 26.8533 17.7857 27.5508Z" fill="#00C24B"/>
<path d="M24.2955 31.0376V31.1539C24.2955 31.2701 24.2955 31.5026 24.2955 31.6189C24.2955 32.4326 24.6442 33.1301 25.2255 33.7113L25.3417 33.8275L26.2717 32.5488L26.6204 32.0838L26.8529 31.7351L24.2955 31.0376ZM25.2255 33.4788C24.7605 33.0138 24.528 32.3163 24.528 31.7351C24.528 31.6188 24.528 31.5026 24.528 31.5026L25.6905 31.8513L26.2717 32.0838L25.2255 33.4788ZM26.8529 28.7127C25.9229 28.8289 25.1092 29.4102 24.6442 30.3401L24.528 30.4564L26.0392 30.9214L26.6204 31.1539L27.0854 31.2701V28.7127H26.8529ZM26.7367 30.8051L24.993 30.2239C25.3417 29.5264 26.0392 29.0614 26.7367 28.9452V30.8051ZM27.3179 31.2701C27.0854 31.2701 26.8529 31.5026 26.8529 31.7351C26.8529 31.9676 27.0854 32.2001 27.3179 32.2001C27.5504 32.2001 27.7829 31.9676 27.7829 31.7351C27.6666 31.3863 27.5504 31.2701 27.3179 31.2701ZM27.8991 33.0138L27.3179 32.2001L25.8067 34.2925L25.9229 34.4088C26.3879 34.6413 26.8529 34.7575 27.3179 34.7575C27.7829 34.7575 28.2479 34.6413 28.7129 34.4088L28.8291 34.2925L27.8991 33.0138ZM26.1554 34.1763L27.2016 32.6651L28.2479 34.1763C27.6666 34.525 26.8529 34.525 26.1554 34.1763ZM29.9916 30.2239C29.5266 29.4102 28.7128 28.8289 27.7829 28.5964H27.5504V31.1539L29.9916 30.3401V30.2239ZM27.8991 30.8051V28.9452C28.5966 29.0614 29.2941 29.5264 29.6428 30.2239L27.8991 30.8051ZM30.3403 31.1539V31.0376L27.8991 31.8513L29.4103 33.9438L29.5266 33.8275C30.1078 33.2463 30.3403 32.4326 30.3403 31.7351C30.3403 31.5026 30.3403 31.3863 30.3403 31.1539ZM29.4103 33.4788L28.3641 32.0838L30.1078 31.5026C30.1078 31.6188 30.1078 31.6188 30.1078 31.7351C29.9916 32.3163 29.7591 33.0138 29.4103 33.4788ZM24.2955 31.0376V31.1539C24.2955 31.2701 24.2955 31.5026 24.2955 31.6189C24.2955 32.4326 24.6442 33.1301 25.2255 33.7113L25.3417 33.8275L26.2717 32.5488L26.6204 32.0838L26.8529 31.7351L24.2955 31.0376ZM25.2255 33.4788C24.7605 33.0138 24.528 32.3163 24.528 31.7351C24.528 31.6188 24.528 31.5026 24.528 31.5026L25.6905 31.8513L26.2717 32.0838L25.2255 33.4788ZM26.8529 28.7127C25.9229 28.8289 25.1092 29.4102 24.6442 30.3401L24.528 30.4564L26.0392 30.9214L26.6204 31.1539L27.0854 31.2701V28.7127H26.8529ZM26.7367 30.8051L24.993 30.2239C25.3417 29.5264 26.0392 29.0614 26.7367 28.9452V30.8051ZM27.3179 31.2701C27.0854 31.2701 26.8529 31.5026 26.8529 31.7351C26.8529 31.9676 27.0854 32.2001 27.3179 32.2001C27.5504 32.2001 27.7829 31.9676 27.7829 31.7351C27.6666 31.3863 27.5504 31.2701 27.3179 31.2701ZM27.8991 33.0138L27.3179 32.2001L25.8067 34.2925L25.9229 34.4088C26.3879 34.6413 26.8529 34.7575 27.3179 34.7575C27.7829 34.7575 28.2479 34.6413 28.7129 34.4088L28.8291 34.2925L27.8991 33.0138ZM26.1554 34.1763L27.2016 32.6651L28.2479 34.1763C27.6666 34.525 26.8529 34.525 26.1554 34.1763ZM29.9916 30.2239C29.5266 29.4102 28.7128 28.8289 27.7829 28.5964H27.5504V31.1539L29.9916 30.3401V30.2239ZM27.8991 30.8051V28.9452C28.5966 29.0614 29.2941 29.5264 29.6428 30.2239L27.8991 30.8051ZM30.3403 31.1539V31.0376L27.8991 31.8513L29.4103 33.9438L29.5266 33.8275C30.1078 33.2463 30.3403 32.4326 30.3403 31.7351C30.3403 31.5026 30.3403 31.3863 30.3403 31.1539ZM29.4103 33.4788L28.3641 32.0838L30.1078 31.5026C30.1078 31.6188 30.1078 31.6188 30.1078 31.7351C29.9916 32.3163 29.7591 33.0138 29.4103 33.4788ZM24.2955 31.0376V31.1539C24.2955 31.2701 24.2955 31.5026 24.2955 31.6189C24.2955 32.4326 24.6442 33.1301 25.2255 33.7113L25.3417 33.8275L26.2717 32.5488L26.6204 32.0838L26.8529 31.7351L24.2955 31.0376ZM25.2255 33.4788C24.7605 33.0138 24.528 32.3163 24.528 31.7351C24.528 31.6188 24.528 31.5026 24.528 31.5026L25.6905 31.8513L26.2717 32.0838L25.2255 33.4788ZM26.8529 28.7127C25.9229 28.8289 25.1092 29.4102 24.6442 30.3401L24.528 30.4564L26.0392 30.9214L26.6204 31.1539L27.0854 31.2701V28.7127H26.8529ZM26.7367 30.8051L24.993 30.2239C25.3417 29.5264 26.0392 29.0614 26.7367 28.9452V30.8051ZM27.3179 31.2701C27.0854 31.2701 26.8529 31.5026 26.8529 31.7351C26.8529 31.9676 27.0854 32.2001 27.3179 32.2001C27.5504 32.2001 27.7829 31.9676 27.7829 31.7351C27.6666 31.3863 27.5504 31.2701 27.3179 31.2701ZM27.8991 33.0138L27.3179 32.2001L25.8067 34.2925L25.9229 34.4088C26.3879 34.6413 26.8529 34.7575 27.3179 34.7575C27.7829 34.7575 28.2479 34.6413 28.7129 34.4088L28.8291 34.2925L27.8991 33.0138ZM26.1554 34.1763L27.2016 32.6651L28.2479 34.1763C27.6666 34.525 26.8529 34.525 26.1554 34.1763ZM29.9916 30.2239C29.5266 29.4102 28.7128 28.8289 27.7829 28.5964H27.5504V31.1539L29.9916 30.3401V30.2239ZM27.8991 30.8051V28.9452C28.5966 29.0614 29.2941 29.5264 29.6428 30.2239L27.8991 30.8051ZM30.3403 31.1539V31.0376L27.8991 31.8513L29.4103 33.9438L29.5266 33.8275C30.1078 33.2463 30.3403 32.4326 30.3403 31.7351C30.3403 31.5026 30.3403 31.3863 30.3403 31.1539ZM29.4103 33.4788L28.3641 32.0838L30.1078 31.5026C30.1078 31.6188 30.1078 31.6188 30.1078 31.7351C29.9916 32.3163 29.7591 33.0138 29.4103 33.4788ZM28.9453 27.899V28.2477C30.2241 28.8289 31.154 30.1076 31.154 31.7351C31.154 33.8275 29.4103 35.5712 27.3179 35.5712C25.2255 35.5712 23.4818 33.8275 23.4818 31.7351C23.4818 29.8751 24.7605 28.3639 26.5042 28.0152L26.3879 27.7827C24.528 28.1315 23.2493 29.8751 23.2493 31.7351C23.2493 33.9438 25.1092 35.8037 27.3179 35.8037C29.5266 35.8037 31.3865 33.9438 31.3865 31.7351C31.3865 29.9914 30.3403 28.5964 28.9453 27.899ZM29.4103 33.8275C29.9916 33.2463 30.2241 32.4326 30.2241 31.7351C30.2241 31.6188 30.2241 31.3864 30.2241 31.2701V31.1539L27.7829 31.9676L29.2941 34.06L29.4103 33.8275ZM28.2479 31.9676L29.9916 31.3864C29.9916 31.5026 29.9916 31.5026 29.9916 31.6189C29.9916 32.3163 29.7591 32.8976 29.2941 33.3626L28.2479 31.9676ZM29.9916 30.2239C29.5266 29.4102 28.7128 28.8289 27.7829 28.5964H27.5504V31.1539L29.9916 30.3401V30.2239ZM27.8991 30.8051V28.9452C28.5966 29.0614 29.2941 29.5264 29.6428 30.2239L27.8991 30.8051ZM27.3179 34.7575C27.7829 34.7575 28.2479 34.6413 28.7129 34.4088L28.8291 34.2925L27.8991 33.0138L27.3179 32.2001L25.8067 34.2925L25.9229 34.4088C26.3879 34.6413 26.8529 34.7575 27.3179 34.7575ZM27.3179 32.6651L28.3641 34.1763C27.6666 34.525 26.8529 34.525 26.1554 34.1763L27.3179 32.6651ZM27.3179 32.0838C27.5504 32.0838 27.7829 31.8513 27.7829 31.6189C27.7829 31.3864 27.5504 31.1539 27.3179 31.1539C27.0854 31.1539 26.8529 31.3864 26.8529 31.6189C26.8529 31.8513 27.0854 32.0838 27.3179 32.0838ZM24.6442 30.2239L24.528 30.3401L26.0392 30.8051L26.6204 31.0376L27.0854 31.1539V28.5964H26.9692C25.9229 28.8289 25.1092 29.4102 24.6442 30.2239ZM26.7367 28.9452V30.8051L24.993 30.2239C25.3417 29.6427 25.9229 29.1777 26.7367 28.9452ZM26.7367 31.8513L24.2955 31.0376V31.1539C24.2955 31.2701 24.2955 31.5026 24.2955 31.6189C24.2955 32.4326 24.6442 33.1301 25.2255 33.7113L25.3417 33.8275L26.2717 32.5488L26.6204 32.0838L26.7367 31.8513ZM25.2255 33.4788C24.7605 33.0138 24.528 32.3163 24.528 31.7351C24.528 31.6188 24.528 31.5026 24.528 31.5026L25.6905 31.8513L26.2717 32.0838L25.2255 33.4788ZM30.3403 31.1539V31.0376L27.8991 31.8513L29.4103 33.9438L29.5266 33.8275C30.1078 33.2463 30.3403 32.4326 30.3403 31.7351C30.3403 31.5026 30.3403 31.3863 30.3403 31.1539ZM29.4103 33.4788L28.3641 32.0838L30.1078 31.5026C30.1078 31.6188 30.1078 31.6188 30.1078 31.7351C29.9916 32.3163 29.7591 33.0138 29.4103 33.4788ZM29.9916 30.2239C29.5266 29.4102 28.7128 28.8289 27.7829 28.5964H27.5504V31.1539L29.9916 30.3401V30.2239ZM27.8991 30.8051V28.9452C28.5966 29.0614 29.2941 29.5264 29.6428 30.2239L27.8991 30.8051ZM27.8991 33.0138L27.3179 32.2001L25.8067 34.2925L25.9229 34.4088C26.3879 34.6413 26.8529 34.7575 27.3179 34.7575C27.7829 34.7575 28.2479 34.6413 28.7129 34.4088L28.8291 34.2925L27.8991 33.0138ZM26.1554 34.1763L27.2016 32.6651L28.2479 34.1763C27.6666 34.525 26.8529 34.525 26.1554 34.1763ZM27.3179 31.2701C27.0854 31.2701 26.8529 31.5026 26.8529 31.7351C26.8529 31.9676 27.0854 32.2001 27.3179 32.2001C27.5504 32.2001 27.7829 31.9676 27.7829 31.7351C27.6666 31.3863 27.5504 31.2701 27.3179 31.2701ZM26.8529 28.7127C25.9229 28.8289 25.1092 29.4102 24.6442 30.3401L24.528 30.4564L26.0392 30.9214L26.6204 31.1539L27.0854 31.2701V28.7127H26.8529ZM26.7367 30.8051L24.993 30.2239C25.3417 29.5264 26.0392 29.0614 26.7367 28.9452V30.8051ZM24.2955 31.0376V31.1539C24.2955 31.2701 24.2955 31.5026 24.2955 31.6189C24.2955 32.4326 24.6442 33.1301 25.2255 33.7113L25.3417 33.8275L26.2717 32.5488L26.6204 32.0838L26.8529 31.7351L24.2955 31.0376ZM25.2255 33.4788C24.7605 33.0138 24.528 32.3163 24.528 31.7351C24.528 31.6188 24.528 31.5026 24.528 31.5026L25.6905 31.8513L26.2717 32.0838L25.2255 33.4788ZM30.3403 31.1539V31.0376L27.8991 31.8513L29.4103 33.9438L29.5266 33.8275C30.1078 33.2463 30.3403 32.4326 30.3403 31.7351C30.3403 31.5026 30.3403 31.3863 30.3403 31.1539ZM29.4103 33.4788L28.3641 32.0838L30.1078 31.5026C30.1078 31.6188 30.1078 31.6188 30.1078 31.7351C29.9916 32.3163 29.7591 33.0138 29.4103 33.4788ZM29.9916 30.2239C29.5266 29.4102 28.7128 28.8289 27.7829 28.5964H27.5504V31.1539L29.9916 30.3401V30.2239ZM27.8991 30.8051V28.9452C28.5966 29.0614 29.2941 29.5264 29.6428 30.2239L27.8991 30.8051ZM27.8991 33.0138L27.3179 32.2001L25.8067 34.2925L25.9229 34.4088C26.3879 34.6413 26.8529 34.7575 27.3179 34.7575C27.7829 34.7575 28.2479 34.6413 28.7129 34.4088L28.8291 34.2925L27.8991 33.0138ZM26.1554 34.1763L27.2016 32.6651L28.2479 34.1763C27.6666 34.525 26.8529 34.525 26.1554 34.1763ZM27.3179 31.2701C27.0854 31.2701 26.8529 31.5026 26.8529 31.7351C26.8529 31.9676 27.0854 32.2001 27.3179 32.2001C27.5504 32.2001 27.7829 31.9676 27.7829 31.7351C27.6666 31.3863 27.5504 31.2701 27.3179 31.2701ZM26.8529 28.7127C25.9229 28.8289 25.1092 29.4102 24.6442 30.3401L24.528 30.4564L26.0392 30.9214L26.6204 31.1539L27.0854 31.2701V28.7127H26.8529ZM26.7367 30.8051L24.993 30.2239C25.3417 29.5264 26.0392 29.0614 26.7367 28.9452V30.8051ZM24.2955 31.0376V31.1539C24.2955 31.2701 24.2955 31.5026 24.2955 31.6189C24.2955 32.4326 24.6442 33.1301 25.2255 33.7113L25.3417 33.8275L26.2717 32.5488L26.6204 32.0838L26.8529 31.7351L24.2955 31.0376ZM25.2255 33.4788C24.7605 33.0138 24.528 32.3163 24.528 31.7351C24.528 31.6188 24.528 31.5026 24.528 31.5026L25.6905 31.8513L26.2717 32.0838L25.2255 33.4788ZM30.3403 31.1539V31.0376L27.8991 31.8513L29.4103 33.9438L29.5266 33.8275C30.1078 33.2463 30.3403 32.4326 30.3403 31.7351C30.3403 31.5026 30.3403 31.3863 30.3403 31.1539ZM29.4103 33.4788L28.3641 32.0838L30.1078 31.5026C30.1078 31.6188 30.1078 31.6188 30.1078 31.7351C29.9916 32.3163 29.7591 33.0138 29.4103 33.4788ZM29.9916 30.2239C29.5266 29.4102 28.7128 28.8289 27.7829 28.5964H27.5504V31.1539L29.9916 30.3401V30.2239ZM27.8991 30.8051V28.9452C28.5966 29.0614 29.2941 29.5264 29.6428 30.2239L27.8991 30.8051ZM27.8991 33.0138L27.3179 32.2001L25.8067 34.2925L25.9229 34.4088C26.3879 34.6413 26.8529 34.7575 27.3179 34.7575C27.7829 34.7575 28.2479 34.6413 28.7129 34.4088L28.8291 34.2925L27.8991 33.0138ZM26.1554 34.1763L27.2016 32.6651L28.2479 34.1763C27.6666 34.525 26.8529 34.525 26.1554 34.1763ZM27.3179 31.2701C27.0854 31.2701 26.8529 31.5026 26.8529 31.7351C26.8529 31.9676 27.0854 32.2001 27.3179 32.2001C27.5504 32.2001 27.7829 31.9676 27.7829 31.7351C27.6666 31.3863 27.5504 31.2701 27.3179 31.2701ZM26.8529 28.7127C25.9229 28.8289 25.1092 29.4102 24.6442 30.3401L24.528 30.4564L26.0392 30.9214L26.6204 31.1539L27.0854 31.2701V28.7127H26.8529ZM26.7367 30.8051L24.993 30.2239C25.3417 29.5264 26.0392 29.0614 26.7367 28.9452V30.8051ZM24.2955 31.0376V31.1539C24.2955 31.2701 24.2955 31.5026 24.2955 31.6189C24.2955 32.4326 24.6442 33.1301 25.2255 33.7113L25.3417 33.8275L26.2717 32.5488L26.6204 32.0838L26.8529 31.7351L24.2955 31.0376ZM25.2255 33.4788C24.7605 33.0138 24.528 32.3163 24.528 31.7351C24.528 31.6188 24.528 31.5026 24.528 31.5026L25.6905 31.8513L26.2717 32.0838L25.2255 33.4788ZM24.2955 31.0376V31.1539C24.2955 31.2701 24.2955 31.5026 24.2955 31.6189C24.2955 32.4326 24.6442 33.1301 25.2255 33.7113L25.3417 33.8275L26.2717 32.5488L26.6204 32.0838L26.8529 31.7351L24.2955 31.0376ZM25.2255 33.4788C24.7605 33.0138 24.528 32.3163 24.528 31.7351C24.528 31.6188 24.528 31.5026 24.528 31.5026L25.6905 31.8513L26.2717 32.0838L25.2255 33.4788ZM26.8529 28.7127C25.9229 28.8289 25.1092 29.4102 24.6442 30.3401L24.528 30.4564L26.0392 30.9214L26.6204 31.1539L27.0854 31.2701V28.7127H26.8529ZM26.7367 30.8051L24.993 30.2239C25.3417 29.5264 26.0392 29.0614 26.7367 28.9452V30.8051ZM27.3179 31.2701C27.0854 31.2701 26.8529 31.5026 26.8529 31.7351C26.8529 31.9676 27.0854 32.2001 27.3179 32.2001C27.5504 32.2001 27.7829 31.9676 27.7829 31.7351C27.6666 31.3863 27.5504 31.2701 27.3179 31.2701ZM27.8991 33.0138L27.3179 32.2001L25.8067 34.2925L25.9229 34.4088C26.3879 34.6413 26.8529 34.7575 27.3179 34.7575C27.7829 34.7575 28.2479 34.6413 28.7129 34.4088L28.8291 34.2925L27.8991 33.0138ZM26.1554 34.1763L27.2016 32.6651L28.2479 34.1763C27.6666 34.525 26.8529 34.525 26.1554 34.1763ZM29.9916 30.2239C29.5266 29.4102 28.7128 28.8289 27.7829 28.5964H27.5504V31.1539L29.9916 30.3401V30.2239ZM27.8991 30.8051V28.9452C28.5966 29.0614 29.2941 29.5264 29.6428 30.2239L27.8991 30.8051ZM30.3403 31.1539V31.0376L27.8991 31.8513L29.4103 33.9438L29.5266 33.8275C30.1078 33.2463 30.3403 32.4326 30.3403 31.7351C30.3403 31.5026 30.3403 31.3863 30.3403 31.1539ZM29.4103 33.4788L28.3641 32.0838L30.1078 31.5026C30.1078 31.6188 30.1078 31.6188 30.1078 31.7351C29.9916 32.3163 29.7591 33.0138 29.4103 33.4788ZM30.3403 31.1539V31.0376L27.8991 31.8513L29.4103 33.9438L29.5266 33.8275C30.1078 33.2463 30.3403 32.4326 30.3403 31.7351C30.3403 31.5026 30.3403 31.3863 30.3403 31.1539ZM29.4103 33.4788L28.3641 32.0838L30.1078 31.5026C30.1078 31.6188 30.1078 31.6188 30.1078 31.7351C29.9916 32.3163 29.7591 33.0138 29.4103 33.4788ZM29.9916 30.2239C29.5266 29.4102 28.7128 28.8289 27.7829 28.5964H27.5504V31.1539L29.9916 30.3401V30.2239ZM27.8991 30.8051V28.9452C28.5966 29.0614 29.2941 29.5264 29.6428 30.2239L27.8991 30.8051ZM27.8991 33.0138L27.3179 32.2001L25.8067 34.2925L25.9229 34.4088C26.3879 34.6413 26.8529 34.7575 27.3179 34.7575C27.7829 34.7575 28.2479 34.6413 28.7129 34.4088L28.8291 34.2925L27.8991 33.0138ZM26.1554 34.1763L27.2016 32.6651L28.2479 34.1763C27.6666 34.525 26.8529 34.525 26.1554 34.1763ZM27.3179 31.2701C27.0854 31.2701 26.8529 31.5026 26.8529 31.7351C26.8529 31.9676 27.0854 32.2001 27.3179 32.2001C27.5504 32.2001 27.7829 31.9676 27.7829 31.7351C27.6666 31.3863 27.5504 31.2701 27.3179 31.2701ZM26.8529 28.7127C25.9229 28.8289 25.1092 29.4102 24.6442 30.3401L24.528 30.4564L26.0392 30.9214L26.6204 31.1539L27.0854 31.2701V28.7127H26.8529ZM26.7367 30.8051L24.993 30.2239C25.3417 29.5264 26.0392 29.0614 26.7367 28.9452V30.8051ZM24.2955 31.0376V31.1539C24.2955 31.2701 24.2955 31.5026 24.2955 31.6189C24.2955 32.4326 24.6442 33.1301 25.2255 33.7113L25.3417 33.8275L26.2717 32.5488L26.6204 32.0838L26.8529 31.7351L24.2955 31.0376ZM25.2255 33.4788C24.7605 33.0138 24.528 32.3163 24.528 31.7351C24.528 31.6188 24.528 31.5026 24.528 31.5026L25.6905 31.8513L26.2717 32.0838L25.2255 33.4788ZM24.2955 31.0376V31.1539C24.2955 31.2701 24.2955 31.5026 24.2955 31.6189C24.2955 32.4326 24.6442 33.1301 25.2255 33.7113L25.3417 33.8275L26.2717 32.5488L26.6204 32.0838L26.8529 31.7351L24.2955 31.0376ZM25.2255 33.4788C24.7605 33.0138 24.528 32.3163 24.528 31.7351C24.528 31.6188 24.528 31.5026 24.528 31.5026L25.6905 31.8513L26.2717 32.0838L25.2255 33.4788ZM26.8529 28.7127C25.9229 28.8289 25.1092 29.4102 24.6442 30.3401L24.528 30.4564L26.0392 30.9214L26.6204 31.1539L27.0854 31.2701V28.7127H26.8529ZM26.7367 30.8051L24.993 30.2239C25.3417 29.5264 26.0392 29.0614 26.7367 28.9452V30.8051ZM27.3179 31.2701C27.0854 31.2701 26.8529 31.5026 26.8529 31.7351C26.8529 31.9676 27.0854 32.2001 27.3179 32.2001C27.5504 32.2001 27.7829 31.9676 27.7829 31.7351C27.6666 31.3863 27.5504 31.2701 27.3179 31.2701ZM27.8991 33.0138L27.3179 32.2001L25.8067 34.2925L25.9229 34.4088C26.3879 34.6413 26.8529 34.7575 27.3179 34.7575C27.7829 34.7575 28.2479 34.6413 28.7129 34.4088L28.8291 34.2925L27.8991 33.0138ZM26.1554 34.1763L27.2016 32.6651L28.2479 34.1763C27.6666 34.525 26.8529 34.525 26.1554 34.1763ZM29.9916 30.2239C29.5266 29.4102 28.7128 28.8289 27.7829 28.5964H27.5504V31.1539L29.9916 30.3401V30.2239ZM27.8991 30.8051V28.9452C28.5966 29.0614 29.2941 29.5264 29.6428 30.2239L27.8991 30.8051ZM30.3403 31.1539V31.0376L27.8991 31.8513L29.4103 33.9438L29.5266 33.8275C30.1078 33.2463 30.3403 32.4326 30.3403 31.7351C30.3403 31.5026 30.3403 31.3863 30.3403 31.1539ZM29.4103 33.4788L28.3641 32.0838L30.1078 31.5026C30.1078 31.6188 30.1078 31.6188 30.1078 31.7351C29.9916 32.3163 29.7591 33.0138 29.4103 33.4788ZM30.3403 31.1539V31.0376L27.8991 31.8513L29.4103 33.9438L29.5266 33.8275C30.1078 33.2463 30.3403 32.4326 30.3403 31.7351C30.3403 31.5026 30.3403 31.3863 30.3403 31.1539ZM29.4103 33.4788L28.3641 32.0838L30.1078 31.5026C30.1078 31.6188 30.1078 31.6188 30.1078 31.7351C29.9916 32.3163 29.7591 33.0138 29.4103 33.4788ZM29.9916 30.2239C29.5266 29.4102 28.7128 28.8289 27.7829 28.5964H27.5504V31.1539L29.9916 30.3401V30.2239ZM27.8991 30.8051V28.9452C28.5966 29.0614 29.2941 29.5264 29.6428 30.2239L27.8991 30.8051ZM27.8991 33.0138L27.3179 32.2001L25.8067 34.2925L25.9229 34.4088C26.3879 34.6413 26.8529 34.7575 27.3179 34.7575C27.7829 34.7575 28.2479 34.6413 28.7129 34.4088L28.8291 34.2925L27.8991 33.0138ZM26.1554 34.1763L27.2016 32.6651L28.2479 34.1763C27.6666 34.525 26.8529 34.525 26.1554 34.1763ZM27.3179 31.2701C27.0854 31.2701 26.8529 31.5026 26.8529 31.7351C26.8529 31.9676 27.0854 32.2001 27.3179 32.2001C27.5504 32.2001 27.7829 31.9676 27.7829 31.7351C27.6666 31.3863 27.5504 31.2701 27.3179 31.2701ZM26.8529 28.7127C25.9229 28.8289 25.1092 29.4102 24.6442 30.3401L24.528 30.4564L26.0392 30.9214L26.6204 31.1539L27.0854 31.2701V28.7127H26.8529ZM26.7367 30.8051L24.993 30.2239C25.3417 29.5264 26.0392 29.0614 26.7367 28.9452V30.8051ZM24.2955 31.0376V31.1539C24.2955 31.2701 24.2955 31.5026 24.2955 31.6189C24.2955 32.4326 24.6442 33.1301 25.2255 33.7113L25.3417 33.8275L26.2717 32.5488L26.6204 32.0838L26.8529 31.7351L24.2955 31.0376ZM25.2255 33.4788C24.7605 33.0138 24.528 32.3163 24.528 31.7351C24.528 31.6188 24.528 31.5026 24.528 31.5026L25.6905 31.8513L26.2717 32.0838L25.2255 33.4788ZM24.2955 31.0376V31.1539C24.2955 31.2701 24.2955 31.5026 24.2955 31.6189C24.2955 32.4326 24.6442 33.1301 25.2255 33.7113L25.3417 33.8275L26.2717 32.5488L26.6204 32.0838L26.8529 31.7351L24.2955 31.0376ZM25.2255 33.4788C24.7605 33.0138 24.528 32.3163 24.528 31.7351C24.528 31.6188 24.528 31.5026 24.528 31.5026L25.6905 31.8513L26.2717 32.0838L25.2255 33.4788ZM26.8529 28.7127C25.9229 28.8289 25.1092 29.4102 24.6442 30.3401L24.528 30.4564L26.0392 30.9214L26.6204 31.1539L27.0854 31.2701V28.7127H26.8529ZM26.7367 30.8051L24.993 30.2239C25.3417 29.5264 26.0392 29.0614 26.7367 28.9452V30.8051ZM27.3179 31.2701C27.0854 31.2701 26.8529 31.5026 26.8529 31.7351C26.8529 31.9676 27.0854 32.2001 27.3179 32.2001C27.5504 32.2001 27.7829 31.9676 27.7829 31.7351C27.6666 31.3863 27.5504 31.2701 27.3179 31.2701ZM27.8991 33.0138L27.3179 32.2001L25.8067 34.2925L25.9229 34.4088C26.3879 34.6413 26.8529 34.7575 27.3179 34.7575C27.7829 34.7575 28.2479 34.6413 28.7129 34.4088L28.8291 34.2925L27.8991 33.0138ZM26.1554 34.1763L27.2016 32.6651L28.2479 34.1763C27.6666 34.525 26.8529 34.525 26.1554 34.1763ZM29.9916 30.2239C29.5266 29.4102 28.7128 28.8289 27.7829 28.5964H27.5504V31.1539L29.9916 30.3401V30.2239ZM27.8991 30.8051V28.9452C28.5966 29.0614 29.2941 29.5264 29.6428 30.2239L27.8991 30.8051ZM30.3403 31.1539V31.0376L27.8991 31.8513L29.4103 33.9438L29.5266 33.8275C30.1078 33.2463 30.3403 32.4326 30.3403 31.7351C30.3403 31.5026 30.3403 31.3863 30.3403 31.1539ZM29.4103 33.4788L28.3641 32.0838L30.1078 31.5026C30.1078 31.6188 30.1078 31.6188 30.1078 31.7351C29.9916 32.3163 29.7591 33.0138 29.4103 33.4788ZM30.3403 31.1539V31.0376L27.8991 31.8513L29.4103 33.9438L29.5266 33.8275C30.1078 33.2463 30.3403 32.4326 30.3403 31.7351C30.3403 31.5026 30.3403 31.3863 30.3403 31.1539ZM29.4103 33.4788L28.3641 32.0838L30.1078 31.5026C30.1078 31.6188 30.1078 31.6188 30.1078 31.7351C29.9916 32.3163 29.7591 33.0138 29.4103 33.4788ZM29.9916 30.2239C29.5266 29.4102 28.7128 28.8289 27.7829 28.5964H27.5504V31.1539L29.9916 30.3401V30.2239ZM27.8991 30.8051V28.9452C28.5966 29.0614 29.2941 29.5264 29.6428 30.2239L27.8991 30.8051ZM27.8991 33.0138L27.3179 32.2001L25.8067 34.2925L25.9229 34.4088C26.3879 34.6413 26.8529 34.7575 27.3179 34.7575C27.7829 34.7575 28.2479 34.6413 28.7129 34.4088L28.8291 34.2925L27.8991 33.0138ZM26.1554 34.1763L27.2016 32.6651L28.2479 34.1763C27.6666 34.525 26.8529 34.525 26.1554 34.1763ZM27.3179 31.2701C27.0854 31.2701 26.8529 31.5026 26.8529 31.7351C26.8529 31.9676 27.0854 32.2001 27.3179 32.2001C27.5504 32.2001 27.7829 31.9676 27.7829 31.7351C27.6666 31.3863 27.5504 31.2701 27.3179 31.2701ZM26.8529 28.7127C25.9229 28.8289 25.1092 29.4102 24.6442 30.3401L24.528 30.4564L26.0392 30.9214L26.6204 31.1539L27.0854 31.2701V28.7127H26.8529ZM26.7367 30.8051L24.993 30.2239C25.3417 29.5264 26.0392 29.0614 26.7367 28.9452V30.8051ZM24.2955 31.0376V31.1539C24.2955 31.2701 24.2955 31.5026 24.2955 31.6189C24.2955 32.4326 24.6442 33.1301 25.2255 33.7113L25.3417 33.8275L26.2717 32.5488L26.6204 32.0838L26.8529 31.7351L24.2955 31.0376ZM25.2255 33.4788C24.7605 33.0138 24.528 32.3163 24.528 31.7351C24.528 31.6188 24.528 31.5026 24.528 31.5026L25.6905 31.8513L26.2717 32.0838L25.2255 33.4788ZM24.2955 31.0376V31.1539C24.2955 31.2701 24.2955 31.5026 24.2955 31.6189C24.2955 32.4326 24.6442 33.1301 25.2255 33.7113L25.3417 33.8275L26.2717 32.5488L26.6204 32.0838L26.8529 31.7351L24.2955 31.0376ZM25.2255 33.4788C24.7605 33.0138 24.528 32.3163 24.528 31.7351C24.528 31.6188 24.528 31.5026 24.528 31.5026L25.6905 31.8513L26.2717 32.0838L25.2255 33.4788ZM26.8529 28.7127C25.9229 28.8289 25.1092 29.4102 24.6442 30.3401L24.528 30.4564L26.0392 30.9214L26.6204 31.1539L27.0854 31.2701V28.7127H26.8529ZM26.7367 30.8051L24.993 30.2239C25.3417 29.5264 26.0392 29.0614 26.7367 28.9452V30.8051ZM27.3179 31.2701C27.0854 31.2701 26.8529 31.5026 26.8529 31.7351C26.8529 31.9676 27.0854 32.2001 27.3179 32.2001C27.5504 32.2001 27.7829 31.9676 27.7829 31.7351C27.6666 31.3863 27.5504 31.2701 27.3179 31.2701ZM27.8991 33.0138L27.3179 32.2001L25.8067 34.2925L25.9229 34.4088C26.3879 34.6413 26.8529 34.7575 27.3179 34.7575C27.7829 34.7575 28.2479 34.6413 28.7129 34.4088L28.8291 34.2925L27.8991 33.0138ZM26.1554 34.1763L27.2016 32.6651L28.2479 34.1763C27.6666 34.525 26.8529 34.525 26.1554 34.1763ZM29.9916 30.2239C29.5266 29.4102 28.7128 28.8289 27.7829 28.5964H27.5504V31.1539L29.9916 30.3401V30.2239ZM27.8991 30.8051V28.9452C28.5966 29.0614 29.2941 29.5264 29.6428 30.2239L27.8991 30.8051ZM30.3403 31.1539V31.0376L27.8991 31.8513L29.4103 33.9438L29.5266 33.8275C30.1078 33.2463 30.3403 32.4326 30.3403 31.7351C30.3403 31.5026 30.3403 31.3863 30.3403 31.1539ZM29.4103 33.4788L28.3641 32.0838L30.1078 31.5026C30.1078 31.6188 30.1078 31.6188 30.1078 31.7351C29.9916 32.3163 29.7591 33.0138 29.4103 33.4788ZM30.3403 31.1539V31.0376L27.8991 31.8513L29.4103 33.9438L29.5266 33.8275C30.1078 33.2463 30.3403 32.4326 30.3403 31.7351C30.3403 31.5026 30.3403 31.3863 30.3403 31.1539ZM29.4103 33.4788L28.3641 32.0838L30.1078 31.5026C30.1078 31.6188 30.1078 31.6188 30.1078 31.7351C29.9916 32.3163 29.7591 33.0138 29.4103 33.4788ZM29.9916 30.2239C29.5266 29.4102 28.7128 28.8289 27.7829 28.5964H27.5504V31.1539L29.9916 30.3401V30.2239ZM27.8991 30.8051V28.9452C28.5966 29.0614 29.2941 29.5264 29.6428 30.2239L27.8991 30.8051ZM27.8991 33.0138L27.3179 32.2001L25.8067 34.2925L25.9229 34.4088C26.3879 34.6413 26.8529 34.7575 27.3179 34.7575C27.7829 34.7575 28.2479 34.6413 28.7129 34.4088L28.8291 34.2925L27.8991 33.0138ZM26.1554 34.1763L27.2016 32.6651L28.2479 34.1763C27.6666 34.525 26.8529 34.525 26.1554 34.1763ZM27.3179 31.2701C27.0854 31.2701 26.8529 31.5026 26.8529 31.7351C26.8529 31.9676 27.0854 32.2001 27.3179 32.2001C27.5504 32.2001 27.7829 31.9676 27.7829 31.7351C27.6666 31.3863 27.5504 31.2701 27.3179 31.2701ZM26.8529 28.7127C25.9229 28.8289 25.1092 29.4102 24.6442 30.3401L24.528 30.4564L26.0392 30.9214L26.6204 31.1539L27.0854 31.2701V28.7127H26.8529ZM26.7367 30.8051L24.993 30.2239C25.3417 29.5264 26.0392 29.0614 26.7367 28.9452V30.8051ZM24.2955 31.0376V31.1539C24.2955 31.2701 24.2955 31.5026 24.2955 31.6189C24.2955 32.4326 24.6442 33.1301 25.2255 33.7113L25.3417 33.8275L26.2717 32.5488L26.6204 32.0838L26.8529 31.7351L24.2955 31.0376ZM25.2255 33.4788C24.7605 33.0138 24.528 32.3163 24.528 31.7351C24.528 31.6188 24.528 31.5026 24.528 31.5026L25.6905 31.8513L26.2717 32.0838L25.2255 33.4788ZM24.2955 31.0376V31.1539C24.2955 31.2701 24.2955 31.5026 24.2955 31.6189C24.2955 32.4326 24.6442 33.1301 25.2255 33.7113L25.3417 33.8275L26.2717 32.5488L26.6204 32.0838L26.8529 31.7351L24.2955 31.0376ZM25.2255 33.4788C24.7605 33.0138 24.528 32.3163 24.528 31.7351C24.528 31.6188 24.528 31.5026 24.528 31.5026L25.6905 31.8513L26.2717 32.0838L25.2255 33.4788ZM26.8529 28.7127C25.9229 28.8289 25.1092 29.4102 24.6442 30.3401L24.528 30.4564L26.0392 30.9214L26.6204 31.1539L27.0854 31.2701V28.7127H26.8529ZM26.7367 30.8051L24.993 30.2239C25.3417 29.5264 26.0392 29.0614 26.7367 28.9452V30.8051ZM27.3179 31.2701C27.0854 31.2701 26.8529 31.5026 26.8529 31.7351C26.8529 31.9676 27.0854 32.2001 27.3179 32.2001C27.5504 32.2001 27.7829 31.9676 27.7829 31.7351C27.6666 31.3863 27.5504 31.2701 27.3179 31.2701ZM27.8991 33.0138L27.3179 32.2001L25.8067 34.2925L25.9229 34.4088C26.3879 34.6413 26.8529 34.7575 27.3179 34.7575C27.7829 34.7575 28.2479 34.6413 28.7129 34.4088L28.8291 34.2925L27.8991 33.0138ZM26.1554 34.1763L27.2016 32.6651L28.2479 34.1763C27.6666 34.525 26.8529 34.525 26.1554 34.1763ZM29.9916 30.2239C29.5266 29.4102 28.7128 28.8289 27.7829 28.5964H27.5504V31.1539L29.9916 30.3401V30.2239ZM27.8991 30.8051V28.9452C28.5966 29.0614 29.2941 29.5264 29.6428 30.2239L27.8991 30.8051ZM30.3403 31.1539V31.0376L27.8991 31.8513L29.4103 33.9438L29.5266 33.8275C30.1078 33.2463 30.3403 32.4326 30.3403 31.7351C30.3403 31.5026 30.3403 31.3863 30.3403 31.1539ZM29.4103 33.4788L28.3641 32.0838L30.1078 31.5026C30.1078 31.6188 30.1078 31.6188 30.1078 31.7351C29.9916 32.3163 29.7591 33.0138 29.4103 33.4788ZM30.3403 31.1539V31.0376L27.8991 31.8513L29.4103 33.9438L29.5266 33.8275C30.1078 33.2463 30.3403 32.4326 30.3403 31.7351C30.3403 31.5026 30.3403 31.3863 30.3403 31.1539ZM29.4103 33.4788L28.3641 32.0838L30.1078 31.5026C30.1078 31.6188 30.1078 31.6188 30.1078 31.7351C29.9916 32.3163 29.7591 33.0138 29.4103 33.4788ZM29.9916 30.2239C29.5266 29.4102 28.7128 28.8289 27.7829 28.5964H27.5504V31.1539L29.9916 30.3401V30.2239ZM27.8991 30.8051V28.9452C28.5966 29.0614 29.2941 29.5264 29.6428 30.2239L27.8991 30.8051ZM27.8991 33.0138L27.3179 32.2001L25.8067 34.2925L25.9229 34.4088C26.3879 34.6413 26.8529 34.7575 27.3179 34.7575C27.7829 34.7575 28.2479 34.6413 28.7129 34.4088L28.8291 34.2925L27.8991 33.0138ZM26.1554 34.1763L27.2016 32.6651L28.2479 34.1763C27.6666 34.525 26.8529 34.525 26.1554 34.1763ZM27.3179 31.2701C27.0854 31.2701 26.8529 31.5026 26.8529 31.7351C26.8529 31.9676 27.0854 32.2001 27.3179 32.2001C27.5504 32.2001 27.7829 31.9676 27.7829 31.7351C27.6666 31.3863 27.5504 31.2701 27.3179 31.2701ZM26.8529 28.7127C25.9229 28.8289 25.1092 29.4102 24.6442 30.3401L24.528 30.4564L26.0392 30.9214L26.6204 31.1539L27.0854 31.2701V28.7127H26.8529ZM26.7367 30.8051L24.993 30.2239C25.3417 29.5264 26.0392 29.0614 26.7367 28.9452V30.8051ZM24.2955 31.0376V31.1539C24.2955 31.2701 24.2955 31.5026 24.2955 31.6189C24.2955 32.4326 24.6442 33.1301 25.2255 33.7113L25.3417 33.8275L26.2717 32.5488L26.6204 32.0838L26.8529 31.7351L24.2955 31.0376ZM25.2255 33.4788C24.7605 33.0138 24.528 32.3163 24.528 31.7351C24.528 31.6188 24.528 31.5026 24.528 31.5026L25.6905 31.8513L26.2717 32.0838L25.2255 33.4788ZM24.2955 31.0376V31.1539C24.2955 31.2701 24.2955 31.5026 24.2955 31.6189C24.2955 32.4326 24.6442 33.1301 25.2255 33.7113L25.3417 33.8275L26.2717 32.5488L26.6204 32.0838L26.8529 31.7351L24.2955 31.0376ZM25.2255 33.4788C24.7605 33.0138 24.528 32.3163 24.528 31.7351C24.528 31.6188 24.528 31.5026 24.528 31.5026L25.6905 31.8513L26.2717 32.0838L25.2255 33.4788ZM26.8529 28.7127C25.9229 28.8289 25.1092 29.4102 24.6442 30.3401L24.528 30.4564L26.0392 30.9214L26.6204 31.1539L27.0854 31.2701V28.7127H26.8529ZM26.7367 30.8051L24.993 30.2239C25.3417 29.5264 26.0392 29.0614 26.7367 28.9452V30.8051ZM27.3179 31.2701C27.0854 31.2701 26.8529 31.5026 26.8529 31.7351C26.8529 31.9676 27.0854 32.2001 27.3179 32.2001C27.5504 32.2001 27.7829 31.9676 27.7829 31.7351C27.6666 31.3863 27.5504 31.2701 27.3179 31.2701ZM27.8991 33.0138L27.3179 32.2001L25.8067 34.2925L25.9229 34.4088C26.3879 34.6413 26.8529 34.7575 27.3179 34.7575C27.7829 34.7575 28.2479 34.6413 28.7129 34.4088L28.8291 34.2925L27.8991 33.0138ZM26.1554 34.1763L27.2016 32.6651L28.2479 34.1763C27.6666 34.525 26.8529 34.525 26.1554 34.1763ZM29.9916 30.2239C29.5266 29.4102 28.7128 28.8289 27.7829 28.5964H27.5504V31.1539L29.9916 30.3401V30.2239ZM27.8991 30.8051V28.9452C28.5966 29.0614 29.2941 29.5264 29.6428 30.2239L27.8991 30.8051ZM30.3403 31.1539V31.0376L27.8991 31.8513L29.4103 33.9438L29.5266 33.8275C30.1078 33.2463 30.3403 32.4326 30.3403 31.7351C30.3403 31.5026 30.3403 31.3863 30.3403 31.1539ZM29.4103 33.4788L28.3641 32.0838L30.1078 31.5026C30.1078 31.6188 30.1078 31.6188 30.1078 31.7351C29.9916 32.3163 29.7591 33.0138 29.4103 33.4788ZM27.8991 33.0138L27.3179 32.2001L25.8067 34.2925L25.9229 34.4088C26.3879 34.6413 26.8529 34.7575 27.3179 34.7575C27.7829 34.7575 28.2479 34.6413 28.7129 34.4088L28.8291 34.2925L27.8991 33.0138ZM26.1554 34.1763L27.2016 32.6651L28.2479 34.1763C27.6666 34.525 26.8529 34.525 26.1554 34.1763ZM30.3403 31.1539V31.0376L27.8991 31.8513L29.4103 33.9438L29.5266 33.8275C30.1078 33.2463 30.3403 32.4326 30.3403 31.7351C30.3403 31.5026 30.3403 31.3863 30.3403 31.1539ZM29.4103 33.4788L28.3641 32.0838L30.1078 31.5026C30.1078 31.6188 30.1078 31.6188 30.1078 31.7351C29.9916 32.3163 29.7591 33.0138 29.4103 33.4788ZM24.2955 31.0376V31.1539C24.2955 31.2701 24.2955 31.5026 24.2955 31.6189C24.2955 32.4326 24.6442 33.1301 25.2255 33.7113L25.3417 33.8275L26.2717 32.5488L26.6204 32.0838L26.8529 31.7351L24.2955 31.0376ZM25.2255 33.4788C24.7605 33.0138 24.528 32.3163 24.528 31.7351C24.528 31.6188 24.528 31.5026 24.528 31.5026L25.6905 31.8513L26.2717 32.0838L25.2255 33.4788ZM27.3179 31.2701C27.0854 31.2701 26.8529 31.5026 26.8529 31.7351C26.8529 31.9676 27.0854 32.2001 27.3179 32.2001C27.5504 32.2001 27.7829 31.9676 27.7829 31.7351C27.6666 31.3863 27.5504 31.2701 27.3179 31.2701ZM29.9916 30.2239C29.5266 29.4102 28.7128 28.8289 27.7829 28.5964H27.5504V31.1539L29.9916 30.3401V30.2239ZM27.8991 30.8051V28.9452C28.5966 29.0614 29.2941 29.5264 29.6428 30.2239L27.8991 30.8051ZM26.8529 28.7127C25.9229 28.8289 25.1092 29.4102 24.6442 30.3401L24.528 30.4564L26.0392 30.9214L26.6204 31.1539L27.0854 31.2701V28.7127H26.8529ZM26.7367 30.8051L24.993 30.2239C25.3417 29.5264 26.0392 29.0614 26.7367 28.9452V30.8051Z" fill="#00C24B"/>
<path d="M25.2255 33.9437L25.1093 33.8275C24.5281 33.2462 24.1793 32.5488 24.1793 31.735C24.1793 31.6188 24.1793 31.3863 24.1793 31.2701V31.1538L26.6205 31.9675L26.388 32.3163L26.0393 32.7813L25.2255 33.9437ZM24.5281 31.3863C24.5281 31.5026 24.5281 31.6188 24.5281 31.6188C24.5281 32.3163 24.7605 32.8975 25.2255 33.3625L26.2718 31.8513L25.6905 31.6188L24.5281 31.3863Z" fill="#00C24B"/>
<path d="M26.9692 31.1541L26.5042 31.0379L25.923 30.8054L24.4117 30.3404L24.528 30.2241C24.993 29.4104 25.8067 28.8292 26.7367 28.5967H26.8529V31.1541H26.9692ZM24.993 30.2241L26.7367 30.8054V28.9454C25.9229 29.1779 25.3417 29.6429 24.993 30.2241Z" fill="#00C24B"/>
<path d="M27.3178 34.7581C26.8529 34.7581 26.3879 34.6419 25.9229 34.4094L25.8066 34.2931L27.3178 32.2007L27.8991 33.0144L28.8291 34.2931L28.7128 34.4094C28.2478 34.6419 27.7828 34.7581 27.3178 34.7581ZM26.1554 34.1769C26.8529 34.5256 27.5503 34.5256 28.3641 34.1769L27.3178 32.6657L26.1554 34.1769Z" fill="#00C24B"/>
<path d="M27.6667 31.1541V28.5967H27.783C28.713 28.7129 29.5267 29.2942 29.9917 30.2241L30.1079 30.3404L27.6667 31.1541ZM27.8992 28.9454V30.8054L29.6429 30.2241C29.2942 29.6429 28.5967 29.1779 27.8992 28.9454Z" fill="#00C24B"/>
<path d="M29.2942 33.9442L27.783 31.8518L30.2241 31.0381V31.1543C30.2241 31.2706 30.2241 31.5031 30.2241 31.6193C30.2241 32.433 29.8754 33.1305 29.4104 33.7118L29.2942 33.9442ZM28.248 31.9681L29.2942 33.4793C29.7592 33.0143 29.9917 32.3168 29.9917 31.7356C29.9917 31.6193 29.9917 31.6193 29.9917 31.5031L28.248 31.9681Z" fill="#00C24B"/>
<path d="M25.2255 33.9437L25.1093 33.8275C24.5281 33.2462 24.1793 32.5488 24.1793 31.735C24.1793 31.6188 24.1793 31.3863 24.1793 31.2701V31.1538L26.6205 31.9675L26.388 32.3163L26.0393 32.7813L25.2255 33.9437ZM24.5281 31.3863C24.5281 31.5026 24.5281 31.6188 24.5281 31.6188C24.5281 32.3163 24.7605 32.8975 25.2255 33.3625L26.2718 31.8513L25.6905 31.6188L24.5281 31.3863Z" fill="#00C24B"/>
<path d="M26.9692 31.1541L26.5042 31.0379L25.923 30.8054L24.4117 30.3404L24.528 30.2241C24.993 29.4104 25.8067 28.8292 26.7367 28.5967H26.8529V31.1541H26.9692ZM24.993 30.2241L26.7367 30.8054V28.9454C25.9229 29.1779 25.3417 29.6429 24.993 30.2241Z" fill="#00C24B"/>
<path d="M27.3178 34.7581C26.8529 34.7581 26.3879 34.6419 25.9229 34.4094L25.8066 34.2931L27.3178 32.2007L27.8991 33.0144L28.8291 34.2931L28.7128 34.4094C28.2478 34.6419 27.7828 34.7581 27.3178 34.7581ZM26.1554 34.1769C26.8529 34.5256 27.5503 34.5256 28.3641 34.1769L27.3178 32.6657L26.1554 34.1769Z" fill="#00C24B"/>
<path d="M27.6667 31.1541V28.5967H27.783C28.713 28.7129 29.5267 29.2942 29.9917 30.2241L30.1079 30.3404L27.6667 31.1541ZM27.8992 28.9454V30.8054L29.6429 30.2241C29.2942 29.6429 28.5967 29.1779 27.8992 28.9454Z" fill="#00C24B"/>
<path d="M29.2942 33.9442L27.783 31.8518L30.2241 31.0381V31.1543C30.2241 31.2706 30.2241 31.5031 30.2241 31.6193C30.2241 32.433 29.8754 33.1305 29.4104 33.7118L29.2942 33.9442ZM28.248 31.9681L29.2942 33.4793C29.7592 33.0143 29.9917 32.3168 29.9917 31.7356C29.9917 31.6193 29.9917 31.6193 29.9917 31.5031L28.248 31.9681Z" fill="#00C24B"/>
<path d="M61.1457 35.688C58.937 35.688 57.077 33.8281 57.077 31.6194C57.077 29.4107 58.937 27.5508 61.1457 27.5508C63.3543 27.5508 65.2143 29.4107 65.2143 31.6194C65.2143 33.9443 63.4706 35.688 61.1457 35.688ZM61.1457 27.8995C59.0532 27.8995 57.3095 29.6432 57.3095 31.7356C57.3095 33.8281 59.0532 35.5718 61.1457 35.5718C63.2381 35.5718 64.9818 33.8281 64.9818 31.7356C64.9818 29.527 63.2381 27.8995 61.1457 27.8995ZM61.1457 34.7581C60.6807 34.7581 60.2157 34.6418 59.7507 34.4093L59.6344 34.2931L61.1457 32.2006L61.7269 33.0144L62.6568 34.2931L62.5406 34.4093C62.0756 34.6418 61.6106 34.7581 61.1457 34.7581ZM60.0994 34.1768C60.7969 34.5256 61.4944 34.5256 62.3081 34.1768L61.2619 32.6656L60.0994 34.1768ZM63.2381 33.9443L61.7269 31.8519L64.1681 31.0382V31.1544C64.1681 31.2707 64.1681 31.5032 64.1681 31.6194C64.1681 32.4331 63.8193 33.1306 63.3543 33.7118L63.2381 33.9443ZM62.1919 31.9682L63.2381 33.4793C63.7031 33.0144 63.9356 32.3169 63.9356 31.7356C63.9356 31.6194 63.9356 31.6194 63.9356 31.5032L62.1919 31.9682ZM59.1694 33.9443L59.0532 33.8281C58.472 33.2469 58.1232 32.5494 58.1232 31.7356C58.1232 31.6194 58.1232 31.3869 58.1232 31.2707V31.1544L60.5644 31.9682L60.3319 32.3169L59.9832 32.7819L59.1694 33.9443ZM58.472 31.3869C58.472 31.5032 58.472 31.6194 58.472 31.6194C58.472 32.3169 58.7045 32.8981 59.1694 33.3631L60.2157 31.8519L59.6344 31.6194L58.472 31.3869ZM61.1457 32.0844C60.9132 32.0844 60.6807 31.8519 60.6807 31.6194C60.6807 31.3869 60.9132 31.1544 61.1457 31.1544C61.3781 31.1544 61.6106 31.3869 61.6106 31.6194C61.6106 31.8519 61.3781 32.0844 61.1457 32.0844ZM61.4944 31.1544V28.597H61.6106C62.5406 28.7132 63.3543 29.2945 63.8193 30.2245L63.9356 30.3407L61.4944 31.1544ZM61.7269 28.9457V30.8057L63.4706 30.2245C63.1218 29.6432 62.5406 29.1782 61.7269 28.9457ZM60.7969 31.1544L60.3319 31.0382L59.7507 30.8057L58.2395 30.3407L58.3557 30.2245C58.8207 29.4107 59.6344 28.8295 60.5644 28.597H60.6807V31.1544H60.7969ZM58.8207 30.2245L60.5644 30.8057V28.9457C59.8669 29.1782 59.1695 29.6432 58.8207 30.2245Z" fill="#00C24B"/>
<path d="M59.1694 33.9437L59.0532 33.8275C58.472 33.2462 58.1232 32.5488 58.1232 31.735C58.1232 31.6188 58.1232 31.3863 58.1232 31.2701V31.1538L60.5644 31.9675L60.3319 32.3163L59.9832 32.7813L59.1694 33.9437ZM58.472 31.3863C58.472 31.5026 58.472 31.6188 58.472 31.6188C58.472 32.3163 58.7045 32.8975 59.1694 33.3625L60.2157 31.8513L59.6344 31.6188L58.472 31.3863Z" fill="#00C24B"/>
<path d="M60.7969 31.1541L60.3319 31.0379L59.7507 30.8054L58.2395 30.3404L58.3557 30.2241C58.8207 29.4104 59.6345 28.8292 60.5644 28.5967H60.6807V31.1541H60.7969ZM58.8207 30.2241L60.5644 30.8054V28.9454C59.867 29.1779 59.1695 29.6429 58.8207 30.2241Z" fill="#00C24B"/>
<path d="M61.1457 34.7581C60.6807 34.7581 60.2157 34.6419 59.7508 34.4094L59.6345 34.2931L61.1457 32.2007L61.727 33.0144L62.6569 34.2931L62.5407 34.4094C62.0757 34.6419 61.6107 34.7581 61.1457 34.7581ZM60.0995 34.1769C60.797 34.5256 61.4945 34.5256 62.3082 34.1769L61.262 32.6657L60.0995 34.1769Z" fill="#00C24B"/>
<path d="M61.4944 31.1541V28.5967H61.6107C62.5407 28.7129 63.3544 29.2942 63.8194 30.2241L63.9356 30.3404L61.4944 31.1541ZM61.727 28.9454V30.8054L63.4707 30.2241C63.1219 29.6429 62.5407 29.1779 61.727 28.9454Z" fill="#00C24B"/>
<path d="M63.2381 33.9442L61.7269 31.8518L64.168 31.0381V31.1543C64.168 31.2706 64.168 31.5031 64.168 31.6193C64.168 32.433 63.8193 33.1305 63.3543 33.7118L63.2381 33.9442ZM62.1918 31.9681L63.2381 33.4793C63.703 33.0143 63.9355 32.3168 63.9355 31.7356C63.9355 31.6193 63.9355 31.6193 63.9355 31.5031L62.1918 31.9681Z" fill="#00C24B"/>
<path d="M59.1694 33.9437L59.0532 33.8275C58.472 33.2462 58.1232 32.5488 58.1232 31.735C58.1232 31.6188 58.1232 31.3863 58.1232 31.2701V31.1538L60.5644 31.9675L60.3319 32.3163L59.9832 32.7813L59.1694 33.9437ZM58.472 31.3863C58.472 31.5026 58.472 31.6188 58.472 31.6188C58.472 32.3163 58.7045 32.8975 59.1694 33.3625L60.2157 31.8513L59.6344 31.6188L58.472 31.3863Z" fill="#00C24B"/>
<path d="M60.7969 31.1541L60.3319 31.0379L59.7507 30.8054L58.2395 30.3404L58.3557 30.2241C58.8207 29.4104 59.6345 28.8292 60.5644 28.5967H60.6807V31.1541H60.7969ZM58.8207 30.2241L60.5644 30.8054V28.9454C59.867 29.1779 59.1695 29.6429 58.8207 30.2241Z" fill="#00C24B"/>
<path d="M61.1457 34.7581C60.6807 34.7581 60.2157 34.6419 59.7508 34.4094L59.6345 34.2931L61.1457 32.2007L61.727 33.0144L62.6569 34.2931L62.5407 34.4094C62.0757 34.6419 61.6107 34.7581 61.1457 34.7581ZM60.0995 34.1769C60.797 34.5256 61.4945 34.5256 62.3082 34.1769L61.262 32.6657L60.0995 34.1769Z" fill="#00C24B"/>
<path d="M61.4944 31.1541V28.5967H61.6107C62.5407 28.7129 63.3544 29.2942 63.8194 30.2241L63.9356 30.3404L61.4944 31.1541ZM61.727 28.9454V30.8054L63.4707 30.2241C63.1219 29.6429 62.5407 29.1779 61.727 28.9454Z" fill="#00C24B"/>
<path d="M63.2381 33.9442L61.7269 31.8518L64.168 31.0381V31.1543C64.168 31.2706 64.168 31.5031 64.168 31.6193C64.168 32.433 63.8193 33.1305 63.3543 33.7118L63.2381 33.9442ZM62.1918 31.9681L63.2381 33.4793C63.703 33.0143 63.9355 32.3168 63.9355 31.7356C63.9355 31.6193 63.9355 31.6193 63.9355 31.5031L62.1918 31.9681Z" fill="#00C24B"/>
<path d="M13.6008 8.37012V19.5298H25.2254L27.7828 28.132L28.5966 19.5298H32.4327V8.37012H13.6008ZM15.2282 12.3225H25.5742V13.485H15.2282V12.3225ZM26.7366 17.5536H15.2282V16.3911H26.7366V17.5536ZM27.6666 15.4611H15.112V14.2987H27.6666V15.4611ZM29.1778 11.3925H15.112V10.2301H29.1778V11.3925Z" fill="#00C24B"/>
<path d="M57.1932 10.4624H54.1708V15.6935H57.1932V10.4624Z" fill="#00C24B"/>
<path d="M61.7269 9.76465H58.7045V15.6932H61.7269V9.76465Z" fill="#00C24B"/>
<path d="M66.2606 11.2764H63.2382V15.6937H66.2606V11.2764Z" fill="#00C24B"/>
<path d="M70.7942 8.25342H67.7718V15.6932H70.7942V8.25342Z" fill="#00C24B"/>
<path d="M64.7493 10.3457C64.6331 10.3457 64.6331 10.3457 64.5168 10.3457L60.0994 8.36952L55.6821 9.41573C55.5658 9.41573 55.4496 9.41573 55.3334 9.41573L53.8221 8.95075C53.4734 8.8345 53.3572 8.48576 53.4734 8.25326C53.5896 7.90452 53.9384 7.78827 54.1709 7.90452L55.5658 8.36952L59.9832 7.32329C60.0995 7.32329 60.2157 7.32329 60.3319 7.32329L64.5168 9.29949L68.8179 5.69584C68.9342 5.5796 69.0504 5.57959 69.1667 5.57959H70.6779C71.0266 5.57959 71.2591 5.81208 71.2591 6.16082C71.2591 6.50956 71.0266 6.74205 70.6779 6.74205H69.3992L64.9818 10.3457C64.9818 10.3457 64.8656 10.3457 64.7493 10.3457Z" fill="#00C24B"/>
</svg>
