<svg width="89" height="31" viewBox="0 0 89 31" fill="none" xmlns="http://www.w3.org/2000/svg">
<path d="M71.573 13.0959V18.0231H50.8272C49.7899 20.7459 47.1967 22.6909 44.0848 22.6909C40.9729 22.6909 38.3797 20.7459 37.4721 18.0231H16.7263V13.0959H37.4721C38.1204 11.151 39.6763 9.59508 41.6213 8.94678V5.57558H40.3246V3.2417H47.9746V5.57558H46.678V8.94678C48.6229 9.72474 50.0492 11.2807 50.8272 13.0959H71.573Z" fill="#00C24B"/>
<path d="M87.3916 0C87.2619 0 87.2619 0 87.1323 0H87.0026C86.8729 0 86.8729 0 86.7433 0H74.4255C73.7772 0 73.3882 0.518628 73.3882 1.03727V29.5627C73.3882 30.211 73.9068 30.6 74.4255 30.6H87.1323C87.2619 30.6 87.2619 30.6 87.3916 30.6C87.9102 30.4703 88.2992 30.0813 88.2992 29.5627V1.03727C88.2992 0.518628 87.9102 0.129661 87.3916 0ZM82.9831 0.648305H87.0026H87.1323H87.0026L82.9831 2.07455V0.648305ZM74.5551 0.518636H74.6848H78.7043V1.94492L74.6848 0.518636H74.5551ZM74.5551 1.42624L78.7043 2.85252V5.70508L74.5551 4.2788V1.42624ZM74.5551 5.18644L78.7043 6.61268V9.46524L74.5551 8.03896V5.18644ZM74.5551 8.9466L78.7043 10.3729V13.2254L74.5551 11.7991V8.9466ZM74.5551 12.7068L78.7043 14.133V16.9856L74.5551 15.5593V12.7068ZM74.5551 16.4669L78.7043 17.8932V20.7458L74.5551 19.3195V16.4669ZM74.5551 20.3568L78.7043 21.783V24.6356L74.5551 23.2093V20.3568ZM74.5551 24.1169L78.7043 25.5432V28.3958L74.5551 26.9695V24.1169ZM74.5551 29.9517V27.8771L78.7043 29.3034V29.9517H74.5551ZM79.4823 29.9517V0.648305H80.3899V29.9517H79.4823ZM82.0755 29.9517H81.1678V0.648305H82.0755V29.9517ZM87.0026 29.9517H82.8534V29.3034L87.0026 27.8771V29.9517ZM87.0026 26.9695L82.8534 28.3958V25.5432L87.0026 24.1169V26.9695ZM87.0026 23.2093L82.8534 24.6356V21.783L87.0026 20.3568V23.2093ZM87.0026 19.4492L82.8534 20.8754V18.0229L87.0026 16.5966V19.4492ZM87.0026 15.689L82.8534 17.1152V14.2627L87.0026 12.8364V15.689ZM87.0026 11.9288L82.8534 13.3551V10.5025L87.0026 9.07627V11.9288ZM87.0026 8.03896L82.8534 9.46524V6.61268L87.0026 5.18644V8.03896ZM87.0026 4.2788L82.8534 5.70508V2.85252L87.0026 1.42624V4.2788Z" fill="#00C24B"/>
<path d="M14.0034 0C13.8737 0 13.8737 0 13.7441 0H13.6144C13.4847 0 13.4848 0 13.3551 0H1.03729C0.388987 0 0 0.518628 0 1.03727V29.5627C0 30.211 0.518648 30.6 1.03729 30.6H13.7441C13.8737 30.6 13.8737 30.6 14.0034 30.6C14.522 30.4703 14.911 30.0813 14.911 29.5627V1.03727C14.911 0.518628 14.522 0.129661 14.0034 0ZM9.59493 0.648305H13.6144H13.7441H13.6144L9.59493 2.07455V0.648305ZM1.16696 0.518636H1.29661H5.31611V1.94492L1.29661 0.518636H1.16696ZM1.16696 1.42624L5.31611 2.85252V5.70508L1.16696 4.2788V1.42624ZM1.16696 5.18644L5.31611 6.61268V9.46524L1.16696 8.03896V5.18644ZM1.16696 8.9466L5.31611 10.3729V13.2254L1.16696 11.7991V8.9466ZM1.16696 12.7068L5.31611 14.133V16.9856L1.16696 15.5593V12.7068ZM1.16696 16.4669L5.31611 17.8932V20.7458L1.16696 19.3195V16.4669ZM1.16696 20.3568L5.31611 21.783V24.6356L1.16696 23.2093V20.3568ZM1.16696 24.1169L5.31611 25.5432V28.3958L1.16696 26.9695V24.1169ZM1.16696 29.9517V27.8771L5.31611 29.3034V29.9517H1.16696ZM6.09409 29.9517V0.648305H7.00171V29.9517H6.09409ZM8.68731 29.9517H7.77966V0.648305H8.68731V29.9517ZM13.7441 29.9517H9.59493V29.3034L13.7441 27.8771V29.9517ZM13.7441 26.9695L9.59493 28.3958V25.5432L13.7441 24.1169V26.9695ZM13.7441 23.2093L9.59493 24.6356V21.783L13.7441 20.3568V23.2093ZM13.7441 19.4492L9.59493 20.8754V18.0229L13.7441 16.5966V19.4492ZM13.7441 15.689L9.59493 17.1152V14.2627L13.7441 12.8364V15.689ZM13.7441 11.9288L9.59493 13.3551V10.5025L13.7441 9.07627V11.9288ZM13.7441 8.03896L9.59493 9.46524V6.61268L13.7441 5.18644V8.03896ZM13.7441 4.2788L9.59493 5.70508V2.85252L13.7441 1.42624V4.2788Z" fill="#00C24B"/>
</svg>
