<svg width="68" height="46" viewBox="0 0 68 46" fill="none" xmlns="http://www.w3.org/2000/svg">
<path d="M41.1831 8.12701L41.5422 8.20368L41.1831 8.12701ZM65.1268 7.43701C65.2465 7.43701 65.3662 7.43701 65.6056 7.43701H65.1268ZM65.3662 8.20368H65.6056V8.12701L65.3662 8.20368Z" fill="#05B847"/>
<path d="M66.324 7.51368C66.2043 7.51368 65.9648 7.43701 65.8451 7.43701H65.6057C65.4859 7.43701 65.3662 7.43701 65.1268 7.43701H40.9437C39.7465 7.43701 38.7888 8.05034 38.7888 8.81701V44.6202C38.7888 45.3869 39.7465 46.0002 40.9437 46.0002H65.8451C65.9648 46.0002 66.2043 46.0002 66.324 46.0002C67.2817 45.8469 68 45.3102 68 44.6969V8.81701C68 8.20368 67.2817 7.66701 66.324 7.51368ZM57.5846 8.20368H65.3662L65.6057 8.12701V8.20368H65.3662L57.5846 9.967V8.20368ZM41.1831 8.12701L41.5423 8.20368H49.324V9.967L41.5423 8.20368L41.1831 8.12701ZM41.1831 9.20034L49.324 11.0403V14.7203L41.1831 12.8803V9.20034ZM41.1831 14.0303L49.324 15.8703V19.4736L41.1831 17.6336V14.0303ZM41.1831 18.707L49.324 20.547V24.227L41.1831 22.387V18.707ZM41.1831 23.4603L49.324 25.3003V28.9803L41.1831 27.1403V23.4603ZM41.1831 28.2136L49.324 30.0536V33.7336L41.1831 31.8936V28.2136ZM41.1831 32.9669L49.324 34.8069V38.4869L41.1831 36.6469V32.9669ZM41.1831 37.7203L49.324 39.5602V43.2402L41.1831 41.4002V37.7203ZM41.1831 45.0802V42.4736L49.324 44.3136V45.0802H41.1831ZM50.8803 45.0802V8.20368H52.7958V45.0802H50.8803ZM55.9085 45.0802H53.993V8.20368H55.9085V45.0802ZM65.6057 45.0802H57.4648V44.3136L65.6057 42.4736V45.0802ZM65.6057 41.4002L57.4648 43.2402V39.5602L65.6057 37.7203V41.4002ZM65.6057 36.6469L57.4648 38.4869V34.8069L65.6057 32.9669V36.6469ZM65.6057 31.8936L57.4648 33.7336V30.0536L65.6057 28.2136V31.8936ZM65.6057 27.1403L57.4648 28.9803V25.3003L65.6057 23.4603V27.1403ZM65.6057 22.387L57.4648 24.227V20.547L65.6057 18.707V22.387ZM65.6057 17.6336L57.4648 19.4736V15.7937L65.6057 13.9537V17.6336ZM65.6057 12.8803L57.4648 14.7203V11.0403L65.6057 9.20034V12.8803Z" fill="#05B847"/>
<path d="M37.5915 15.2563H35.5563V38.1796H37.5915V15.2563Z" fill="#05B847"/>
<path d="M34.3591 23.6899V29.7466H0V23.6899H14.9648C15.2042 24.1499 15.4436 24.5333 15.9225 24.8399C16.7606 25.4533 17.838 25.8366 19.0352 25.8366C20.9507 25.8366 22.6267 24.9166 23.1056 23.6899H34.3591Z" fill="#05B847"/>
<path d="M22.2677 1.99333H16.0423C16.2817 0.843332 17.5986 0 19.155 0C19.993 0 20.831 0.306667 21.3099 0.689999C21.9085 1.07333 22.1479 1.53333 22.2677 1.99333Z" fill="#05B847"/>
<path d="M22.2677 22.2334V22.6934C22.2677 23.9967 20.8311 25.0701 19.155 25.0701C18.317 25.0701 17.479 24.8401 16.8804 24.3801C16.2818 23.9201 15.9226 23.3834 15.9226 22.6934V22.2334H22.2677Z" fill="#05B847"/>
<path d="M24.4225 6.90024H21.4295L24.6619 7.6669C24.7816 7.6669 24.7816 7.74357 24.9013 7.74357C25.3802 7.8969 25.7394 8.20357 25.7394 8.51024C25.7394 8.97023 25.1408 9.35356 24.4225 9.35356H21.4295L24.6619 10.1202C24.7816 10.1202 24.7816 10.1969 24.9013 10.1969C25.3802 10.3502 25.7394 10.5802 25.7394 10.9636C25.7394 11.4236 25.1408 11.8069 24.4225 11.8069H21.4295L24.6619 12.5736C24.7816 12.5736 24.9013 12.6502 24.9013 12.6502C25.3802 12.8036 25.7394 13.1102 25.7394 13.4169C25.7394 13.8769 25.1408 14.2602 24.4225 14.2602H21.4295L24.6619 15.0269C24.7816 15.0269 24.7816 15.1035 24.9013 15.1035C25.3802 15.1802 25.7394 15.5635 25.7394 15.8702C25.7394 16.3302 25.1408 16.7135 24.4225 16.7135H21.4295L24.6619 17.4802C24.7816 17.4802 24.7816 17.5569 24.9013 17.5569C25.3802 17.7102 25.7394 18.0169 25.7394 18.3235C25.7394 18.7835 25.1408 19.1669 24.4225 19.1669H21.4295L24.6619 19.9335C24.7816 19.9335 24.7816 20.0102 24.9013 20.0102C25.3802 20.1635 25.7394 20.4702 25.7394 20.7769C25.7394 21.2369 25.1408 21.6202 24.4225 21.6202H13.5281C12.8098 21.6202 12.2112 21.2369 12.2112 20.7769C12.2112 20.3169 12.8098 19.9335 13.5281 19.9335H16.9999L13.6478 19.1669H13.5281C12.8098 19.1669 12.2112 18.7835 12.2112 18.3235C12.2112 17.8635 12.8098 17.4802 13.5281 17.4802H16.9999L13.7675 16.7135H13.6478C12.9295 16.7135 12.3309 16.3302 12.3309 15.8702C12.3309 15.4102 12.9295 15.0269 13.6478 15.0269H17.1196L13.7675 14.2602H13.6478C12.9295 14.2602 12.3309 13.8769 12.3309 13.4169C12.3309 12.9569 12.9295 12.5736 13.6478 12.5736H17.1196L13.8873 11.8069H13.7675C13.0492 11.8069 12.4506 11.4236 12.4506 10.9636C12.4506 10.5036 13.0492 10.1202 13.7675 10.1202H17.2394L14.007 9.35356H13.8873C13.169 9.35356 12.5704 8.97023 12.5704 8.51024C12.5704 8.05024 13.169 7.6669 13.8873 7.6669H17.3591L14.007 6.90024H13.8873C13.169 6.90024 12.5704 6.51691 12.5704 6.05691C12.5704 5.59691 13.169 5.21358 13.8873 5.21358H17.3591L14.1267 4.44692H14.007C13.2886 4.44692 12.6901 4.06358 12.6901 3.60358C12.6901 3.14358 13.2886 2.76025 14.007 2.76025H24.9013C25.6196 2.76025 26.2182 3.14358 26.2182 3.60358C26.2182 4.06358 25.6196 4.44692 24.9013 4.44692H21.4295L24.6619 5.21358C24.7816 5.21358 24.7816 5.29025 24.9013 5.29025C25.3802 5.44358 25.7394 5.67358 25.7394 6.05691C25.7394 6.51691 25.1408 6.90024 24.4225 6.90024Z" fill="#05B847"/>
<path d="M41.4226 8.20362H41.1831V8.12695L41.4226 8.20362Z" fill="#05B847"/>
<path d="M65.6056 8.12695V8.20362H65.3662L65.6056 8.12695Z" fill="#05B847"/>
</svg>
