<svg width="62" height="52" viewBox="0 0 62 52" fill="none" xmlns="http://www.w3.org/2000/svg">
<path d="M2.86829 15.2241V51.7401H59.7936V15.2241H2.86829ZM19.9679 30.1174H15.7758V34.3095H12.6868V30.1174H8.49463V27.0284H12.6868V22.8362H15.7758V27.0284H19.9679V30.1174ZM27.2491 37.7295L31.1103 30.1174H27.2491L35.3024 20.8505L32.3238 27.911L35.9644 27.8006L27.2491 37.7295ZM54.1672 30.1174H42.6939V27.0284H54.0569V30.1174H54.1672Z" fill="black"/>
<path d="M62 8.60498H0V13.0178H62V8.60498Z" fill="black"/>
<path d="M14.2313 3.30961V7.0605H7.61212V3.30961C7.61212 1.43416 9.04629 0 10.9217 0C11.8043 0 12.6868 0.330963 13.2384 0.992884C13.9004 1.54449 14.2313 2.42705 14.2313 3.30961Z" fill="black"/>
<path d="M54.1673 3.30961V7.0605H47.548V3.30961C47.548 1.43416 48.9822 0 50.8576 0C51.7402 0 52.6228 0.330963 53.1744 0.992884C53.726 1.54449 54.1673 2.42705 54.1673 3.30961Z" fill="black"/>
</svg>
