<svg width="59" height="61" viewBox="0 0 59 61" fill="none" xmlns="http://www.w3.org/2000/svg">
<path d="M56.375 42.8339C53.575 38.8339 48.675 37.1339 44.275 38.3339L35.975 30.0339L34.175 31.8339L39.775 37.4339C40.575 38.2339 40.575 39.5339 39.775 40.3339C39.375 40.7339 38.875 40.9339 38.275 40.9339C37.775 40.9339 37.275 40.7339 36.875 40.3339L31.275 34.7339L29.475 36.5339L37.075 44.1339C35.175 47.7339 35.275 52.1339 37.775 55.7339C40.175 59.1339 44.075 60.8339 47.975 60.6339L42.875 53.2339C42.175 52.2339 42.475 50.8339 43.475 50.1339L49.075 46.2339C50.075 45.5339 51.475 45.8339 52.175 46.8339L57.275 54.2339C58.875 50.5339 58.675 46.2339 56.375 42.8339ZM20.975 19.4339C21.475 19.4339 22.075 19.6339 22.375 20.0339L28.575 26.2339L30.375 24.4339L22.275 16.3339C24.075 12.7339 23.875 8.33388 21.375 4.83388C18.975 1.43388 15.075 -0.266122 11.175 0.0338776L16.375 7.43389C17.075 8.43389 16.875 9.83388 15.775 10.5339L10.175 14.4339C9.17497 15.1339 7.77498 14.9339 7.07498 13.8339L1.87499 6.43389C0.274985 9.93389 0.474985 14.2339 2.87499 17.6339C5.67498 21.6339 10.675 23.3339 15.275 22.0339L23.975 30.7339L25.775 28.9339L19.575 22.7339C18.775 21.9339 18.775 20.6339 19.575 19.8339C19.975 19.6339 20.475 19.4339 20.975 19.4339Z" fill="#00C24B"/>
<path d="M27.475 40.5339C27.075 40.9339 26.475 40.9339 26.075 40.5339L19.775 34.2339C19.375 33.8339 19.375 33.2339 19.775 32.8339L20.075 32.5339C20.475 32.1339 21.075 32.1339 21.475 32.5339L27.775 38.8339C28.175 39.2339 28.175 39.8339 27.775 40.2339L27.475 40.5339Z" fill="#00C24B"/>
<path d="M24.675 41.9337L10.875 56.9337L9.17499 58.7337C8.67499 59.2337 8.075 59.6337 7.375 59.9337C6.875 60.1337 6.375 60.2337 5.875 60.3337C5.675 60.3337 5.575 60.3337 5.375 60.3337C3.975 60.3337 2.575 59.8337 1.575 58.7337C-0.525 56.6337 -0.525 53.1337 1.575 51.0337L3.375 49.3337L18.375 35.5337L24.675 41.9337Z" fill="#00C24B"/>
<path d="M52.875 9.83408L50.275 13.9341L47.975 14.9341L27.175 35.7341L24.575 33.1341L45.375 12.3341L46.375 10.0341L50.475 7.43408L50.675 7.63408L47.675 10.1341C47.175 10.6341 47.375 11.8341 47.875 12.3341C48.375 12.8341 49.575 13.2341 50.175 12.6341L52.675 9.53407L52.875 9.83408Z" fill="#00C24B"/>
</svg>
