<svg width="758" height="202" viewBox="0 0 758 202" fill="none" xmlns="http://www.w3.org/2000/svg">
<path opacity="0.6" fill-rule="evenodd" clip-rule="evenodd" d="M24.9933 197.133C35.4743 200.378 46.2913 202 57.4442 202C70.3439 202 81.2953 199.861 90.2982 195.584C99.3012 191.306 106.02 185.554 110.454 178.326C115.023 170.951 117.307 162.839 117.307 153.989C117.307 143.664 114.821 135.478 109.849 129.43C105.012 123.383 99.1668 118.958 92.3138 116.156C85.4608 113.353 76.6594 110.551 65.9096 107.748C55.563 105.241 47.8366 102.733 42.7304 100.226C37.7586 97.5707 35.2727 93.5882 35.2727 88.2782C35.2727 82.9682 37.4227 78.6908 41.7226 75.4458C46.1569 72.2008 52.9427 70.5783 62.08 70.5783C75.1141 70.5783 88.1482 74.6345 101.182 82.747L111.26 55.5334C104.81 51.1084 97.2856 47.716 88.6857 45.356C80.0859 42.996 71.2845 41.816 62.2816 41.816C49.3818 41.816 38.4305 43.9547 29.4275 48.2322C20.559 52.5097 13.9075 58.3359 9.47325 65.7108C5.03896 72.9383 2.82182 81.0508 2.82182 90.0482C2.82182 100.373 5.24052 108.633 10.0779 114.828C15.0497 121.023 20.9621 125.522 27.8151 128.324C34.6681 131.127 43.4695 133.929 54.2192 136.732C61.2066 138.502 66.7159 140.124 70.747 141.599C74.9126 143.074 78.2719 145.065 80.825 147.573C83.5124 149.933 84.8561 152.957 84.8561 156.644C84.8561 161.659 82.639 165.715 78.2047 168.813C73.7704 171.763 66.9174 173.238 57.6457 173.238C49.3147 173.238 40.9836 171.763 32.6525 168.813C24.3214 165.863 17.1325 161.954 11.0857 157.087L0 184.079C6.3155 189.389 14.6466 193.74 24.9933 197.133ZM73.7704 31.8598L100.376 0H77.3985L59.8629 16.5936L42.3273 0H19.3496L45.9553 31.8598H73.7704ZM172.07 160.184L191.016 138.502L236.165 199.345H274.26L212.381 113.501L270.833 44.471H234.553L172.07 116.819V44.471H139.619V199.345H172.07V160.184ZM312.323 191.601C324.148 198.534 337.383 202 352.03 202C366.676 202 379.845 198.534 391.535 191.601C403.226 184.669 412.43 175.155 419.149 163.06C425.867 150.818 429.227 137.1 429.227 121.908C429.227 106.716 425.867 93.0719 419.149 80.977C412.43 68.7346 403.226 59.1471 391.535 52.2147C379.845 45.2822 366.676 41.816 352.03 41.816C337.383 41.816 324.148 45.2822 312.323 52.2147C300.632 59.1471 291.428 68.7346 284.709 80.977C278.125 93.0719 274.833 106.716 274.833 121.908C274.833 137.1 278.125 150.818 284.709 163.06C291.428 175.155 300.632 184.669 312.323 191.601ZM374.604 165.273C367.886 169.403 360.361 171.468 352.03 171.468C343.699 171.468 336.174 169.403 329.455 165.273C322.737 160.995 317.429 155.095 313.532 147.573C309.77 140.05 307.888 131.495 307.888 121.908C307.888 112.321 309.77 103.766 313.532 96.2432C317.429 88.7207 322.737 82.8945 329.455 78.7645C336.174 74.4871 343.699 72.3483 352.03 72.3483C360.361 72.3483 367.886 74.4871 374.604 78.7645C381.323 82.8945 386.563 88.7207 390.326 96.2432C394.223 103.766 396.171 112.321 396.171 121.908C396.171 131.495 394.223 140.05 390.326 147.573C386.563 155.095 381.323 160.995 374.604 165.273ZM517.862 44.471H453.766V199.345H517.862C533.18 199.345 546.685 196.174 558.375 189.831C570.2 183.341 579.337 174.27 585.787 162.618C592.371 150.965 595.664 137.395 595.664 121.908C595.664 106.421 592.371 92.8507 585.787 81.1982C579.337 69.5458 570.2 60.5484 558.375 54.2059C546.685 47.716 533.18 44.471 517.862 44.471ZM549.91 157.087C541.579 165.641 530.359 169.919 516.25 169.919H486.419V73.897H516.25C530.359 73.897 541.579 78.2483 549.91 86.9507C558.375 95.5057 562.608 107.158 562.608 121.908C562.608 136.658 558.375 148.384 549.91 157.087ZM645.732 166.158H711.239L723.735 199.345H758L694.912 44.471H662.663L599.777 199.345H633.235L645.732 166.158ZM678.586 79.6495L700.959 138.944H656.213L678.586 79.6495Z" fill="white" fill-opacity="0.19"/>
</svg>
