<svg width="28" height="28" viewBox="0 0 28 28" fill="none" xmlns="http://www.w3.org/2000/svg">
<g clip-path="url(#clip0)">
<path d="M14.6695 19.4294C14.6695 23.1106 17.6535 26.0947 21.3347 26.0947C25.0159 26.0947 28 23.1106 28 19.4294C28 15.7482 25.0159 12.7642 21.3347 12.7642C20.5782 12.7642 19.854 12.896 19.176 13.1285C20.676 4.52576 27.3844 -1.02201 21.1657 3.54391C14.2701 8.60701 14.6621 19.2257 14.6698 19.4203C14.6698 19.4233 14.6695 19.426 14.6695 19.4294Z" fill="#00C24B"/>
<path d="M0.00590746 19.4294C0.00590746 23.1106 2.98996 26.0947 6.6712 26.0947C10.3524 26.0947 13.3365 23.1106 13.3365 19.4294C13.3365 15.7482 10.3524 12.7642 6.67114 12.7642C5.91455 12.7642 5.19041 12.896 4.51247 13.1285C6.01243 4.52576 12.7209 -1.02201 6.50217 3.54391C-0.393443 8.60701 -0.00153386 19.2257 0.00623712 19.4203C0.00623712 19.4233 0.00590746 19.426 0.00590746 19.4294Z" fill="#00C24B"/>
</g>
<defs>
<clipPath id="clip0">
<rect width="28" height="28" fill="white" transform="matrix(-1 0 0 1 28 0)"/>
</clipPath>
</defs>
</svg>
