<svg width="29" height="29" viewBox="0 0 29 29" fill="none" xmlns="http://www.w3.org/2000/svg">
<g clip-path="url(#clip0)">
<path d="M13.8066 8.87736C13.8066 5.06465 10.716 1.97402 6.90332 1.97402C3.09061 1.97402 -2.00272e-05 5.06465 -2.00272e-05 8.87736C-2.00272e-05 12.6901 3.09061 15.7806 6.90332 15.7806C7.68688 15.7806 8.43694 15.6441 9.1391 15.4033C7.58556 24.3133 0.637526 30.0592 7.07834 25.3302C14.2202 20.0863 13.8143 9.08834 13.8063 8.88678C13.8063 8.88364 13.8066 8.88084 13.8066 8.87736Z" fill="#1D1D1D"/>
<path d="M28.9939 8.87736C28.9939 5.06465 25.9033 1.97402 22.0905 1.97402C18.2778 1.97402 15.1872 5.06465 15.1872 8.87736C15.1872 12.6901 18.2779 15.7806 22.0906 15.7806C22.8742 15.7806 23.6242 15.6441 24.3264 15.4033C22.7728 24.3133 15.8248 30.0592 22.2656 25.3302C29.4075 20.0863 29.0016 9.08834 28.9935 8.88678C28.9935 8.88364 28.9939 8.88084 28.9939 8.87736Z" fill="#1D1D1D"/>
</g>
<defs>
<clipPath id="clip0">
<rect width="29" height="29" fill="white" transform="matrix(1 0 0 -1 0 29)"/>
</clipPath>
</defs>
</svg>
