<svg width="29" height="29" viewBox="0 0 29 29" fill="none" xmlns="http://www.w3.org/2000/svg">
<g clip-path="url(#clip0)">
<path d="M15.1934 20.1226C15.1934 23.9354 18.2841 27.026 22.0967 27.026C25.9094 27.026 29.0001 23.9354 29.0001 20.1226C29.0001 16.3099 25.9094 13.2194 22.0967 13.2194C21.3131 13.2194 20.5631 13.3559 19.8609 13.5967C21.4145 4.68673 28.3625 -1.05917 21.9217 3.66982C14.7798 8.91374 15.1858 19.9117 15.1938 20.1132C15.1938 20.1164 15.1934 20.1192 15.1934 20.1226Z" fill="#1D1D1D"/>
<path d="M0.00618166 20.1226C0.00618166 23.9354 3.09681 27.026 6.90952 27.026C10.7222 27.026 13.8129 23.9354 13.8129 20.1226C13.8129 16.3099 10.7222 13.2194 6.90946 13.2194C6.12585 13.2194 5.37585 13.3559 4.67369 13.5967C6.22722 4.68673 13.1753 -1.05917 6.73445 3.66982C-0.407432 8.91374 -0.00152542 19.9117 0.00652309 20.1132C0.00652309 20.1164 0.00618166 20.1192 0.00618166 20.1226Z" fill="#1D1D1D"/>
</g>
<defs>
<clipPath id="clip0">
<rect width="29" height="29" fill="white" transform="matrix(-1 0 0 1 29 0)"/>
</clipPath>
</defs>
</svg>
