<svg width="28" height="28" viewBox="0 0 28 28" fill="none" xmlns="http://www.w3.org/2000/svg">
<g clip-path="url(#clip0)">
<path d="M13.3305 8.5706C13.3305 4.88936 10.3465 1.90531 6.66529 1.90531C2.98405 1.90531 -4.76837e-06 4.88936 -4.76837e-06 8.5706C-4.76837e-06 12.2518 2.98405 15.2358 6.66529 15.2358C7.42183 15.2358 8.14602 15.104 8.82397 14.8715C7.32401 23.4742 0.615557 29.022 6.83427 24.4561C13.7299 19.393 13.3379 8.7743 13.3302 8.5797C13.3302 8.57667 13.3305 8.57397 13.3305 8.5706Z" fill="#00C24B"/>
<path d="M27.9941 8.5706C27.9941 4.88936 25.01 1.90531 21.3288 1.90531C17.6476 1.90531 14.6635 4.88936 14.6635 8.5706C14.6635 12.2518 17.6476 15.2358 21.3289 15.2358C22.0855 15.2358 22.8096 15.104 23.4875 14.8715C21.9876 23.4742 15.2791 29.022 21.4978 24.4561C28.3934 19.393 28.0015 8.7743 27.9938 8.5797C27.9938 8.57667 27.9941 8.57397 27.9941 8.5706Z" fill="#00C24B"/>
</g>
<defs>
<clipPath id="clip0">
<rect width="28" height="28" fill="white" transform="matrix(1 0 0 -1 0 28)"/>
</clipPath>
</defs>
</svg>
