<svg width="447" height="138" viewBox="0 0 447 138" fill="none" xmlns="http://www.w3.org/2000/svg">
<g filter="url(#filter0_d)">
<path d="M42.494 62L30.884 45.23H30.196H18.07V62H4.138V1.8H30.196C35.528 1.8 40.1433 2.68866 44.042 4.466C47.998 6.24333 51.0367 8.766 53.158 12.034C55.2793 15.302 56.34 19.172 56.34 23.644C56.34 28.116 55.2507 31.986 53.072 35.254C50.9507 38.4647 47.912 40.93 43.956 42.65L57.458 62H42.494ZM42.236 23.644C42.236 20.2613 41.1467 17.6813 38.968 15.904C36.7893 14.0693 33.6073 13.152 29.422 13.152H18.07V34.136H29.422C33.6073 34.136 36.7893 33.2187 38.968 31.384C41.1467 29.5493 42.236 26.9693 42.236 23.644ZM118.29 50.82V62H71.6782V1.8H117.172V12.98H85.5242V26.052H113.474V36.888H85.5242V50.82H118.29ZM190.714 1.8L164.656 62H150.896L124.924 1.8H139.974L158.292 44.8L176.868 1.8H190.714ZM200.04 1.8H213.972V62H200.04V1.8ZM279.171 50.82V62H232.559V1.8H278.053V12.98H246.405V26.052H274.355V36.888H246.405V50.82H279.171ZM384.704 1.8L365.01 62H350.046L336.802 21.236L323.128 62H308.25L288.47 1.8H302.918L316.506 44.112L330.696 1.8H343.596L357.356 44.456L371.374 1.8H384.704ZM416.562 63.032C411.803 63.032 407.188 62.4013 402.716 61.14C398.301 59.8213 394.746 58.13 392.052 56.066L396.782 45.574C399.362 47.466 402.429 48.9853 405.984 50.132C409.538 51.2787 413.093 51.852 416.648 51.852C420.604 51.852 423.528 51.2787 425.42 50.132C427.312 48.928 428.258 47.3513 428.258 45.402C428.258 43.9687 427.684 42.7933 426.538 41.876C425.448 40.9013 424.015 40.1273 422.238 39.554C420.518 38.9807 418.167 38.35 415.186 37.662C410.599 36.5727 406.844 35.4833 403.92 34.394C400.996 33.3047 398.473 31.556 396.352 29.148C394.288 26.74 393.256 23.5293 393.256 19.516C393.256 16.0187 394.202 12.8653 396.094 10.056C397.986 7.18933 400.824 4.92466 404.608 3.262C408.449 1.59933 413.122 0.767999 418.626 0.767999C422.467 0.767999 426.222 1.22666 429.892 2.144C433.561 3.06133 436.772 4.38 439.524 6.1L435.224 16.678C429.662 13.5247 424.101 11.948 418.54 11.948C414.641 11.948 411.746 12.5787 409.854 13.84C408.019 15.1013 407.102 16.764 407.102 18.828C407.102 20.892 408.162 22.44 410.284 23.472C412.462 24.4467 415.759 25.4213 420.174 26.396C424.76 27.4853 428.516 28.5747 431.44 29.664C434.364 30.7533 436.858 32.4733 438.922 34.824C441.043 37.1747 442.104 40.3567 442.104 44.37C442.104 47.81 441.129 50.9633 439.18 53.83C437.288 56.6393 434.421 58.8753 430.58 60.538C426.738 62.2007 422.066 63.032 416.562 63.032Z" fill="black" fill-opacity="0.11"/>
</g>
<defs>
<filter id="filter0_d" x="0.138" y="0.767578" width="445.966" height="136.264" filterUnits="userSpaceOnUse" color-interpolation-filters="sRGB">
<feFlood flood-opacity="0" result="BackgroundImageFix"/>
<feColorMatrix in="SourceAlpha" type="matrix" values="0 0 0 0 0 0 0 0 0 0 0 0 0 0 0 0 0 0 127 0"/>
<feOffset dy="70"/>
<feGaussianBlur stdDeviation="2"/>
<feColorMatrix type="matrix" values="0 0 0 0 0.8125 0 0 0 0 0.809115 0 0 0 0 0.809115 0 0 0 0.1 0"/>
<feBlend mode="normal" in2="BackgroundImageFix" result="effect1_dropShadow"/>
<feBlend mode="normal" in="SourceGraphic" in2="effect1_dropShadow" result="shape"/>
</filter>
</defs>
</svg>
