<svg width="146" height="149" viewBox="0 0 146 149" fill="none" xmlns="http://www.w3.org/2000/svg">
<path d="M87.0337 50.3548L52.4889 84.8996L17.9442 50.3548V49.4062H87.0337V50.3548Z" fill="#2C3E50"/>
<path d="M52.5165 14.857L17.9728 49.4009L52.5165 83.9447L87.0603 49.4009L52.5165 14.857Z" fill="white"/>
<path d="M52.489 84.4252L17.3909 49.3271L52.489 14.229L87.5871 49.3271L52.489 84.4252ZM18.4976 49.4062L52.489 83.3976L86.4804 49.4062L52.489 15.4148L18.4976 49.4062Z" fill="#2C3E50"/>
<path d="M54.0699 19.9913L23.9979 50.0635L24.5009 50.5665L54.573 20.4944L54.0699 19.9913Z" fill="#2C3E50"/>
<path d="M59.5605 25.5502L29.4882 55.6221L29.9912 56.1251L60.0636 26.0533L59.5605 25.5502Z" fill="#2C3E50"/>
<path d="M65.0504 30.9977L34.9783 61.0698L35.4814 61.5729L65.5534 31.5007L65.0504 30.9977Z" fill="#2C3E50"/>
<path d="M70.5966 36.5002L40.5244 66.5723L41.0275 67.0753L71.0997 37.0033L70.5966 36.5002Z" fill="#2C3E50"/>
<path d="M76.0867 42.0583L46.0146 72.1304L46.5177 72.6334L76.5898 42.5614L76.0867 42.0583Z" fill="#2C3E50"/>
<path d="M81.5769 47.5055L51.5048 77.5776L52.0079 78.0807L82.0799 48.0085L81.5769 47.5055Z" fill="#2C3E50"/>
<path d="M97.6264 77.9428L82.844 66.0854C82.4488 63.0024 77.7849 55.7298 74.3067 52.0145C74.3067 52.0145 61.2634 35.6512 59.1291 36.8369C56.6786 38.1808 64.8207 47.9039 66.6388 50.0383C66.4017 50.1173 66.1645 50.1173 66.0064 50.1964C62.6863 46.0858 50.0384 30.9082 47.5878 33.1216C45.1373 35.335 57.311 48.6944 60.4729 52.0935C60.2358 52.1726 59.9196 52.3307 59.6824 52.4098C56.0462 48.1411 42.2915 32.6473 39.6828 35.335C37.1533 38.0227 50.6708 51.6983 54.4652 55.4136C54.228 55.5717 53.9118 55.8089 53.6747 55.967C49.485 51.9355 37.5485 40.7104 35.5723 42.7657C33.2798 45.0581 49.3269 59.9195 51.3032 61.7376C53.5166 63.951 55.809 66.5597 59.1291 69.4845C61.0263 72.0141 56.0462 70.1169 56.0462 70.1169C56.0462 70.1169 50.5917 67.5083 47.7459 70.9074C46.244 72.6465 57.4691 76.2828 59.6034 77.2314C61.4215 78.0219 68.2198 78.0219 70.117 78.0219L83.0812 92.3299L97.6264 77.9428Z" fill="#C4C4C4"/>
<path d="M81.7374 92.0926L82.765 94.4641L99.1283 78.1798L96.9149 76.915L81.7374 92.0926Z" fill="white"/>
<path d="M82.686 95.0967L81.2631 92.0137L96.915 76.4409L99.8398 78.18L82.686 95.0967ZM82.2117 92.1718L82.9232 93.7528L98.496 78.2591L96.994 77.3895L82.2117 92.1718Z" fill="#2C3E50"/>
<path d="M57 111C27.2643 111 3 86.815 3 57C3 27.185 27.185 3 57 3C86.815 3 111 27.185 111 57C111 86.815 86.7357 111 57 111ZM57 3.79295C27.6608 3.79295 3.79295 27.6608 3.79295 57C3.79295 86.3392 27.6608 110.207 57 110.207C86.3392 110.207 110.207 86.3392 110.207 57C110.207 27.6608 86.3392 3.79295 57 3.79295Z" fill="#A8A9A9"/>
<path d="M56.5 113C25.3139 113 0 87.6068 0 56.5C0 25.3933 25.3933 0 56.5 0C87.6068 0 113 25.3933 113 56.5C113 87.6068 87.6861 113 56.5 113ZM56.5 0.793539C25.79 0.793539 0.793539 25.79 0.793539 56.5C0.793539 87.21 25.79 112.206 56.5 112.206C87.21 112.206 112.206 87.21 112.206 56.5C112.206 25.79 87.21 0.793539 56.5 0.793539Z" fill="#A8A9A9"/>
<path d="M22 48.4261C22 48.4261 21.7581 48.6609 21.2742 48.9739C20.7903 49.3652 20.1452 49.8348 19.3387 50.4609C17.7258 51.713 15.7097 53.513 13.7742 55.4696C13.2903 55.9391 12.8065 56.4087 12.3226 56.9565C11.8387 57.4261 11.4355 57.8957 11.0323 58.4435C10.629 58.9131 10.2258 59.3826 9.82258 59.8522C9.5 60.3217 9.09678 60.7131 8.85484 61.1826C8.29032 62.0435 7.80646 62.7478 7.48388 63.2174C7.1613 63.7652 7 64 7 64C7 64 7.16129 63.687 7.40323 63.1391C7.64516 62.5913 7.96774 61.8087 8.45161 60.8696C8.69355 60.4 9.01613 59.9304 9.25807 59.3826C9.58065 58.8348 9.90322 58.3652 10.2258 57.8174C10.5484 57.2696 10.9516 56.7217 11.3548 56.1739C11.7581 55.6261 12.1613 55.0783 12.5645 54.4522C14.2581 52.1826 16.0323 50.0696 17.4839 48.5826C18.2097 47.8 18.7742 47.1739 19.2581 46.7044C19.7419 46.2348 19.9839 46 19.9839 46L22 48.4261Z" fill="#A8A9A9"/>
<path d="M56 83.4444C56 83.4444 55.9239 83.5259 55.7716 83.6074C55.6193 83.6889 55.467 83.9333 55.2386 84.0963C54.7817 84.5037 54.0964 85.1556 53.2589 85.9704C52.8782 86.3778 52.4213 86.7852 51.9645 87.2741C51.5076 87.763 51.0508 88.2519 50.5178 88.8222C50.0609 89.3926 49.6041 89.963 49.0711 90.5333C48.6142 91.1037 48.0812 91.6741 47.6244 92.3259C47.1675 92.9778 46.7107 93.5482 46.2538 94.2C45.797 94.7704 45.3401 95.4222 44.9594 96.0741C44.5787 96.7259 44.198 97.2963 43.8173 97.8667C43.665 98.1111 43.4365 98.437 43.2843 98.6815C43.132 98.9259 42.9797 99.2519 42.8274 99.4963C41.6853 101.615 41 103 41 103C41 103 41.6091 101.533 42.4467 99.2519C42.5228 99.0074 42.6751 98.6815 42.8274 98.3556C42.9797 98.0296 43.132 97.7852 43.2843 97.4593C43.5888 96.8074 43.8934 96.1556 44.198 95.5037C44.5025 94.8519 44.8833 94.1185 45.264 93.4667C45.6447 92.8148 46.0254 92.0815 46.4822 91.4296C46.8629 90.6963 47.3198 90.0444 47.7767 89.3926C48.2335 88.7407 48.6142 88.0889 49.0711 87.437C49.5279 86.8667 49.9086 86.2148 50.3655 85.7259C50.7462 85.1556 51.1269 84.6667 51.5076 84.1778C52.269 83.2 52.8782 82.4667 53.335 81.8963C53.5635 81.6519 53.7157 81.4074 53.868 81.2444C54.0203 81.0815 54.0203 81 54.0203 81L56 83.4444Z" fill="#A8A9A9"/>
<path d="M138.332 63.3931H127.186V70.1123H138.332V63.3931Z" fill="#949494"/>
<path d="M140.862 63.63C140.862 63.63 130.901 65.3691 128.214 71.0607H103.234C103.234 71.0607 105.21 67.1082 107.661 63.63C107.661 63.63 126.238 62.4443 140.862 63.63Z" fill="#949494"/>
<path d="M146 61.3375L143.47 62.0489V58.4917L146 59.2032V61.3375Z" fill="#949494"/>
<path d="M143.47 57.7803H140.862V62.7604H143.47V57.7803Z" fill="#949494"/>
<path d="M123.076 83.313H112.957V85.4473H123.076V83.313Z" fill="#949494"/>
<path d="M127.186 70.0327H109.874V83.5502H127.186V70.0327Z" fill="#949494"/>
<path d="M107.661 63.6299H140.862V56.9106C140.862 56.9106 119.834 56.9106 116.119 56.9106C112.404 56.9106 107.661 63.6299 107.661 63.6299Z" fill="#949494"/>
<path d="M137.146 69.6382C137.146 69.6382 134.538 79.1242 138.332 84.0253V85.4481C138.332 85.4481 130.269 80.7842 130.981 69.6382H137.146Z" fill="#949494"/>
<path d="M108.214 63.6298H140.467V62.0488H109.4C108.609 62.9974 108.214 63.6298 108.214 63.6298Z" fill="white"/>
<path d="M140.862 64.0248H107.424L107.819 63.3924C107.819 63.3924 108.293 62.681 109.005 61.8114L109.084 61.6533H140.783V64.0248H140.862ZM109.005 63.2343H140.071V62.4438H109.558C109.321 62.76 109.163 62.9972 109.005 63.2343Z" fill="#2C3E50"/>
<path d="M101.732 143.708C101.732 145.052 102.839 146.158 104.183 146.158H136.356C137.621 146.158 138.648 145.131 138.648 143.866V121.574C138.648 121.574 138.806 106.317 124.419 103.63V89.7168C124.419 88.452 123.392 87.4243 122.127 87.4243H112.878C111.929 87.4243 111.06 87.9777 110.744 88.8472L101.653 111.06V143.708H101.732Z" fill="white"/>
<path d="M125.684 102.76V87.8983C125.684 86.5545 124.577 85.4478 123.234 85.4478H112.404C111.376 85.4478 110.507 86.0801 110.111 86.9497L100.388 110.665V145.684C100.388 147.028 101.495 148.134 102.839 148.134H137.463C138.806 148.134 139.913 147.028 139.913 145.684V121.89C139.913 121.89 141.099 105.684 125.684 102.76ZM138.727 121.574V143.866C138.727 145.13 137.7 146.158 136.435 146.158H104.025C102.76 146.158 101.732 145.13 101.732 143.866V111.06L110.823 88.8469C111.139 87.9774 112.009 87.424 112.957 87.424H122.206C123.471 87.424 124.498 88.4516 124.498 89.7164V103.629C138.886 106.396 138.727 121.574 138.727 121.574Z" fill="#949494"/>
<path d="M124.419 103.629V96.9097H107.503L101.732 111.06V143.865C101.732 145.13 102.76 146.158 104.024 146.158H136.435C137.7 146.158 138.727 145.13 138.727 143.865V121.573C138.727 121.573 138.885 106.396 124.419 103.629Z" fill="#949494"/>
<path d="M113.985 71.0605H110.665V81.6532H113.985V71.0605Z" fill="white"/>
<path d="M118.57 71.2979H115.25V81.8905H118.57V71.2979Z" fill="white"/>
<path d="M130.427 146.474V122.443C130.506 110.743 115.803 106.079 103.155 106.475C102.602 107.898 101.179 111.376 101.179 111.376V144.814C101.179 146.079 102.206 147.185 103.55 147.185H130.348C130.427 147.027 130.427 146.711 130.427 146.474Z" fill="white"/>
<path d="M130.585 147.581H103.471C101.969 147.581 100.704 146.316 100.704 144.814V111.297L102.839 106.08H103.076C103.55 106.08 104.025 106.08 104.499 106.08C114.064 106.08 122.443 108.767 126.949 113.273C129.479 115.803 130.822 118.965 130.743 122.443V146.474C130.743 146.79 130.664 147.106 130.585 147.344V147.581ZM101.495 111.455V144.814C101.495 145.921 102.365 146.79 103.471 146.79H130.032C130.032 146.711 130.032 146.553 130.032 146.474V122.443C130.032 119.123 128.846 116.198 126.396 113.826C122.048 109.479 113.906 106.87 104.578 106.87C104.183 106.87 103.787 106.87 103.392 106.87L101.495 111.455Z" fill="#2C3E50"/>
<path d="M123.155 71.0605H119.834V81.6532H123.155V71.0605Z" fill="white"/>
<path d="M132.087 70.0327H135.644C135.644 70.0327 134.222 76.1196 135.644 80.8625C135.644 80.8625 131.613 76.3567 132.087 70.0327Z" fill="white"/>
<path d="M126.238 121.653C125.289 111.297 112.325 110.032 106.791 109.953C106.159 109.953 105.447 110.19 104.973 110.665C104.499 111.139 104.262 111.771 104.262 112.404V141.02C104.262 142.047 105.131 142.917 106.159 142.917H123.787C125.131 142.917 126.238 141.81 126.238 140.466V121.653Z" fill="#2C3E50"/>
<path d="M116.198 123.787H105.685V141.257H116.198V123.787Z" fill="white"/>
<path d="M124.657 122.205V121.494C123.313 113.194 112.562 112.166 107.898 112.087C107.345 112.087 106.791 112.324 106.317 112.719C105.843 113.115 105.685 113.668 105.685 114.221V122.126H124.657V122.205Z" fill="white"/>
<path d="M124.657 123.787H117.7V125.684H124.657V123.787Z" fill="white"/>
<path d="M124.657 126.87H117.7V128.767H124.657V126.87Z" fill="white"/>
<path d="M124.657 129.953H117.7V131.85H124.657V129.953Z" fill="white"/>
<path d="M124.657 133.114H117.7V135.011H124.657V133.114Z" fill="white"/>
<path d="M124.657 136.198H117.7V138.095H124.657V136.198Z" fill="white"/>
<path d="M124.657 139.28H117.7V141.177H124.657V139.28Z" fill="white"/>
</svg>
