<svg width="370" height="98" viewBox="0 0 370 98" fill="none" xmlns="http://www.w3.org/2000/svg">
<g filter="url(#filter0_d)">
<path d="M27.32 43.72C22.96 43.72 19.02 42.78 15.5 40.9C12.02 39.02 9.28 36.44 7.28 33.16C5.32 29.84 4.34 26.12 4.34 22C4.34 17.88 5.32 14.18 7.28 10.9C9.28 7.58 12.02 4.98 15.5 3.1C19.02 1.22 22.96 0.279999 27.32 0.279999C31.68 0.279999 35.6 1.22 39.08 3.1C42.56 4.98 45.3 7.58 47.3 10.9C49.3 14.18 50.3 17.88 50.3 22C50.3 26.12 49.3 29.84 47.3 33.16C45.3 36.44 42.56 39.02 39.08 40.9C35.6 42.78 31.68 43.72 27.32 43.72ZM27.32 35.44C29.8 35.44 32.04 34.88 34.04 33.76C36.04 32.6 37.6 31 38.72 28.96C39.88 26.92 40.46 24.6 40.46 22C40.46 19.4 39.88 17.08 38.72 15.04C37.6 13 36.04 11.42 34.04 10.3C32.04 9.14 29.8 8.56 27.32 8.56C24.84 8.56 22.6 9.14 20.6 10.3C18.6 11.42 17.02 13 15.86 15.04C14.74 17.08 14.18 19.4 14.18 22C14.18 24.6 14.74 26.92 15.86 28.96C17.02 31 18.6 32.6 20.6 33.76C22.6 34.88 24.84 35.44 27.32 35.44ZM76.265 43.72C70.265 43.72 65.585 42.06 62.225 38.74C58.905 35.42 57.245 30.68 57.245 24.52V0.999997H66.965V24.16C66.965 31.68 70.085 35.44 76.325 35.44C79.365 35.44 81.685 34.54 83.285 32.74C84.885 30.9 85.685 28.04 85.685 24.16V0.999997H95.285V24.52C95.285 30.68 93.605 35.42 90.245 38.74C86.925 42.06 82.265 43.72 76.265 43.72ZM131.65 43L123.55 31.3H123.07H114.61V43H104.89V0.999997H123.07C126.79 0.999997 130.01 1.62 132.73 2.86C135.49 4.1 137.61 5.86 139.09 8.14C140.57 10.42 141.31 13.12 141.31 16.24C141.31 19.36 140.55 22.06 139.03 24.34C137.55 26.58 135.43 28.3 132.67 29.5L142.09 43H131.65ZM131.47 16.24C131.47 13.88 130.71 12.08 129.19 10.84C127.67 9.56 125.45 8.92 122.53 8.92H114.61V23.56H122.53C125.45 23.56 127.67 22.92 129.19 21.64C130.71 20.36 131.47 18.56 131.47 16.24ZM186.103 43.72C181.823 43.72 177.943 42.8 174.463 40.96C171.023 39.08 168.303 36.5 166.303 33.22C164.343 29.9 163.363 26.16 163.363 22C163.363 17.84 164.343 14.12 166.303 10.84C168.303 7.52 171.023 4.94 174.463 3.1C177.943 1.22 181.843 0.279999 186.163 0.279999C189.803 0.279999 193.083 0.919999 196.003 2.2C198.963 3.48 201.443 5.32 203.443 7.72L197.203 13.48C194.363 10.2 190.843 8.56 186.643 8.56C184.043 8.56 181.723 9.14 179.683 10.3C177.643 11.42 176.043 13 174.883 15.04C173.763 17.08 173.203 19.4 173.203 22C173.203 24.6 173.763 26.92 174.883 28.96C176.043 31 177.643 32.6 179.683 33.76C181.723 34.88 184.043 35.44 186.643 35.44C190.843 35.44 194.363 33.78 197.203 30.46L203.443 36.22C201.443 38.66 198.963 40.52 196.003 41.8C193.043 43.08 189.743 43.72 186.103 43.72ZM236.847 34H217.347L213.627 43H203.667L222.387 0.999997H231.987L250.767 43H240.567L236.847 34ZM233.787 26.62L227.127 10.54L220.467 26.62H233.787ZM268.925 43.72C265.605 43.72 262.385 43.28 259.265 42.4C256.185 41.48 253.705 40.3 251.825 38.86L255.125 31.54C256.925 32.86 259.065 33.92 261.545 34.72C264.025 35.52 266.505 35.92 268.985 35.92C271.745 35.92 273.785 35.52 275.105 34.72C276.425 33.88 277.085 32.78 277.085 31.42C277.085 30.42 276.685 29.6 275.885 28.96C275.125 28.28 274.125 27.74 272.885 27.34C271.685 26.94 270.045 26.5 267.965 26.02C264.765 25.26 262.145 24.5 260.105 23.74C258.065 22.98 256.305 21.76 254.825 20.08C253.385 18.4 252.665 16.16 252.665 13.36C252.665 10.92 253.325 8.72 254.645 6.76C255.965 4.76 257.945 3.18 260.585 2.02C263.265 0.859999 266.525 0.279999 270.365 0.279999C273.045 0.279999 275.665 0.599999 278.225 1.24C280.785 1.88 283.025 2.8 284.945 4L281.945 11.38C278.065 9.18 274.185 8.08 270.305 8.08C267.585 8.08 265.565 8.52 264.245 9.4C262.965 10.28 262.325 11.44 262.325 12.88C262.325 14.32 263.065 15.4 264.545 16.12C266.065 16.8 268.365 17.48 271.445 18.16C274.645 18.92 277.265 19.68 279.305 20.44C281.345 21.2 283.085 22.4 284.525 24.04C286.005 25.68 286.745 27.9 286.745 30.7C286.745 33.1 286.065 35.3 284.705 37.3C283.385 39.26 281.385 40.82 278.705 41.98C276.025 43.14 272.765 43.72 268.925 43.72ZM325.906 35.2V43H293.386V0.999997H325.126V8.8H303.046V17.92H322.546V25.48H303.046V35.2H325.906ZM347.44 43.72C344.12 43.72 340.9 43.28 337.78 42.4C334.7 41.48 332.22 40.3 330.34 38.86L333.64 31.54C335.44 32.86 337.58 33.92 340.06 34.72C342.54 35.52 345.02 35.92 347.5 35.92C350.26 35.92 352.3 35.52 353.62 34.72C354.94 33.88 355.6 32.78 355.6 31.42C355.6 30.42 355.2 29.6 354.4 28.96C353.64 28.28 352.64 27.74 351.4 27.34C350.2 26.94 348.56 26.5 346.48 26.02C343.28 25.26 340.66 24.5 338.62 23.74C336.58 22.98 334.82 21.76 333.34 20.08C331.9 18.4 331.18 16.16 331.18 13.36C331.18 10.92 331.84 8.72 333.16 6.76C334.48 4.76 336.46 3.18 339.1 2.02C341.78 0.859999 345.04 0.279999 348.88 0.279999C351.56 0.279999 354.18 0.599999 356.74 1.24C359.3 1.88 361.54 2.8 363.46 4L360.46 11.38C356.58 9.18 352.7 8.08 348.82 8.08C346.1 8.08 344.08 8.52 342.76 9.4C341.48 10.28 340.84 11.44 340.84 12.88C340.84 14.32 341.58 15.4 343.06 16.12C344.58 16.8 346.88 17.48 349.96 18.16C353.16 18.92 355.78 19.68 357.82 20.44C359.86 21.2 361.6 22.4 363.04 24.04C364.52 25.68 365.26 27.9 365.26 30.7C365.26 33.1 364.58 35.3 363.22 37.3C361.9 39.26 359.9 40.82 357.22 41.98C354.54 43.14 351.28 43.72 347.44 43.72Z" fill="white" fill-opacity="0.36"/>
</g>
<defs>
<filter id="filter0_d" x="0.340027" y="0.280273" width="368.92" height="97.44" filterUnits="userSpaceOnUse" color-interpolation-filters="sRGB">
<feFlood flood-opacity="0" result="BackgroundImageFix"/>
<feColorMatrix in="SourceAlpha" type="matrix" values="0 0 0 0 0 0 0 0 0 0 0 0 0 0 0 0 0 0 127 0"/>
<feOffset dy="50"/>
<feGaussianBlur stdDeviation="2"/>
<feColorMatrix type="matrix" values="0 0 0 0 1 0 0 0 0 0.9625 0 0 0 0 0.9625 0 0 0 0.1 0"/>
<feBlend mode="normal" in2="BackgroundImageFix" result="effect1_dropShadow"/>
<feBlend mode="normal" in="SourceGraphic" in2="effect1_dropShadow" result="shape"/>
</filter>
</defs>
</svg>
